<svg id="Layer_1" data-name="Layer 1" xmlns="http://www.w3.org/2000/svg" viewBox="0 0 86.25 46"><defs><style>.cls-1{fill:#f6b221;}.cls-2{fill:#fff;}</style></defs><title>A10_logo_white</title><path class="cls-1" d="M80.49,35c-0.54-4.11-14-7.15-30.12-6.79C38.17,28.49,28,30.64,24,33.45a5.44,5.44,0,0,0-.35,1.44c2.22-3,12.75-5.53,25.72-5.82,14.92-.33,27.41,2.36,27.89,6S66,42,51.11,42.3c-8.61.19-16.41-.62-21.56-2l-1,0h0c-0.41,0-.79,0-1.16,0,5.46,1.94,14.68,3.1,25,2.87,16.1-.36,28.7-4,28.16-8.09"/><path class="cls-2" d="M29,39H45c-1.21-2-2.11-3.17-2.86-4.63C40.41,31,32.73,15,30.41,9H15.5l1.45,1.76c-4,7.59-8.14,15.5-12.41,23.19C3.63,35.6,2.53,37,1.22,39h9.19c-0.55-2-.85-2.12-0.65-3a16.46,16.46,0,0,1,2.67-6H26.84A18.88,18.88,0,0,1,29,34.42a4.51,4.51,0,0,1,.2,2.45,17.16,17.16,0,0,0-.57,1.9M20.06,16.13l4.57,9.39,0,0.07,0,0.18s0,0.22,0,.22H15a2.35,2.35,0,0,0,.3-0.72c1.64-3,3.08-6.21,4.71-9.15"/><path class="cls-2" d="M73.68,16a4.62,4.62,0,0,0-4.45-3H59.94a4.63,4.63,0,0,0-4.45,3c-1.15,3.19-.77,18,0,19.49S57.08,39,59.88,39h9.4c2.8,0,3.63-2,4.4-3.49s1.15-16.3,0-19.49M67,32.7A1.1,1.1,0,0,1,65.89,34H63.28C62.5,34,61,33.47,61,32.7V18.93c0-.77,1.5-1.93,2.28-1.93h2.61C66.66,17,67,18.16,67,18.93V32.7Z"/><path class="cls-2" d="M53,36.72a1.66,1.66,0,0,0,.36,1.38c-0.06,0-8,0-8,0a1.87,1.87,0,0,0,.42-1.28c0,0.05,0-14.81,0-14.81H43V17.24L50.86,13H53V36.72Z"/><path class="cls-1" d="M84.7,3.58c-2.17-5.48-17.93-2.45-35.21,6.77a110.31,110.31,0,0,0-13.57,8.51l0.47,0.9a107.28,107.28,0,0,1,12.35-7.67C64.75,3.54,79.3.56,81.23,5.43s-9.48,15.75-25.5,24.29-30.56,11.33-32.5,6.46C22.72,34.89,23.15,33,24.35,31H23.3c-1.29,2-1.73,4.3-1.15,5.76,2.17,5.48,17.94,2.55,35.21-6.67S86.87,9.07,84.7,3.58"/><path class="cls-2" d="M76.82,41a1.91,1.91,0,0,1,2,1.9,2,2,0,1,1-2-1.9h0Zm0,0a1.66,1.66,0,0,0-1.5,1.71,1.52,1.52,0,1,0,3,0A1.62,1.62,0,0,0,76.81,41h0ZM76,44h0V41.91a3.8,3.8,0,0,1,.77-0.06,1.08,1.08,0,0,1,.68.15,0.45,0.45,0,0,1,.08.42,1.34,1.34,0,0,1-.53.47v0a1.9,1.9,0,0,1,.48.55,1,1,0,0,0,.28.54H77.28a1.94,1.94,0,0,1-.16-0.59,0.43,0.43,0,0,0-.4-0.41H76v1Zm0.51-1.28h0.22c0.25,0,.45-0.08.45-0.29s-0.13-.3-0.42-0.3a1.06,1.06,0,0,0-.25,0v0.56Z"/></svg>