<svg xmlns="http://www.w3.org/2000/svg" viewBox="0 0 83.7 42.3"><style>.st0{fill:#f6b221}.st1{fill:#fff}</style><title>A10_logo_white</title><path class="st0" d="M79.3 34.1c-.5-4.1-14-7.1-30.1-6.8-12.2.3-22.4 2.4-26.4 5.2-.2.5-.3.9-.4 1.4 2.2-3 12.7-5.5 25.7-5.8 14.9-.3 27.4 2.4 27.9 6S64.7 41 49.9 41.3c-8.6.2-16.4-.6-21.6-2h-2.2c5.5 1.9 14.7 3.1 25 2.9 16.2-.2 28.8-3.9 28.2-8.1"/><path class="st1" d="M27.8 38.1h16c-1.2-2-2.1-3.2-2.9-4.6-1.7-3.4-9.4-19.4-11.7-25.4H14.3l1.5 1.8c-4 7.6-8.1 15.5-12.4 23.2-.9 1.6-2 3-3.3 5h9.2c-.6-2-.9-2.1-.6-3 .5-2.2 1.4-4.2 2.7-6h14.4c.9 1.4 1.6 2.9 2.2 4.4.3.8.4 1.6.2 2.5-.2.6-.4 1.3-.6 1.9m-8.8-22.6l4.6 9.4v.5h-9.6c.1-.2.2-.5.3-.7 1.6-3.1 3.1-6.3 4.7-9.2m53.7-.2c-.7-1.8-2.5-3.1-4.4-3h-9.3c-2 0-3.8 1.2-4.5 3-1.2 3.2-.8 18 0 19.5s1.6 3.5 4.4 3.5h9.4c2.8 0 3.6-2 4.4-3.5s1.1-16.2 0-19.5m-6.7 16.7c.1.6-.3 1.2-.9 1.3H62.1c-.8 0-2.3-.5-2.3-1.3V18.1c0-.8 1.5-1.9 2.3-1.9h2.6c.8 0 1.1 1.2 1.1 1.9v13.7zm-14 4.1c-.1.5 0 1 .4 1.4h-8c.3-.4.4-.8.4-1.3V21.2h-2.8v-4.8l7.9-4.2h2.1v23.7z"/><path class="st0" d="M83.5 2.7C81.3-2.8 65.6.2 48.3 9.5 43.5 12 39 14.8 34.7 18l.5.9c3.9-2.8 8.1-5.4 12.3-7.7C63.5 2.7 78.1-.3 80 4.6s-9.5 15.8-25.5 24.3S24 40.2 22 35.3c-.5-1.3-.1-3.2 1.1-5.2H22c-1.3 2-1.7 4.3-1.1 5.8 2.2 5.5 17.9 2.5 35.2-6.7s29.6-21 27.4-26.5"/></svg>