<svg xmlns="http://www.w3.org/2000/svg" width="261" height="45" viewBox="0 0 261 45"><linearGradient id="aa-a" gradientUnits="userSpaceOnUse" x1="17.506" y1="4.973" x2="17.506" y2="25.666"><stop offset="0" stop-color="#fff"/><stop offset="1" stop-color="#eaeae8"/></linearGradient><path fill="url(#aa-a)" d="M18.151 4.973L0 25.665h8.51l3.043-3.6h14.065l1.33 3.6h8.064L27.617 4.973h-9.466zm5.915 12.312h-8.491l5.979-7.086 2.512 7.086z"/><linearGradient id="aa-b" gradientUnits="userSpaceOnUse" x1="52.052" y1="4.974" x2="52.052" y2="25.961"><stop offset="0" stop-color="#fff"/><stop offset="1" stop-color="#eaeae8"/></linearGradient><path fill="url(#aa-b)" d="M64.503 5.513c-1.302-.371-4.804-.539-10.668-.539-4.64 0-7.788.252-9.516.794-2.158.672-3.801 1.954-4.878 3.815-.605 1.05-1.211 2.823-1.846 5.346-.67 2.666-1.008 4.708-1.012 6.156.003.32.019.612.051.872.268 2.155 2.005 3.414 4.878 3.735 1.506.179 3.71.269 6.629.269 3.559 0 5.941-.019 7.16-.05 1.78-.066 3.148-.186 4.116-.375 1.956-.394 3.439-1.178 4.413-2.381.753-.919 1.351-2.325 1.83-4.22l.323-1.298h-7.205l-.06.227c-.338 1.25-.919 1.948-1.749 2.25-.638.235-2.962.382-6.771.378-1.618 0-2.676-.021-3.133-.057-1.394-.108-2.238-.42-2.5-.765-.145-.166-.265-.537-.26-1.117-.001-.674.145-1.614.441-2.797.3-1.193.54-2.065.719-2.598.522-1.538 1.479-2.363 3.022-2.627.556-.09 2.506-.143 5.744-.143 2.038 0 3.151.004 3.227.011 1.587.079 2.384.466 2.443.755.029.074.054.221.054.419 0 .221-.026.5-.084.833l-.06.359h7.101l.23-.926c.251-.993.378-1.851.378-2.589 0-.462-.05-.88-.158-1.249-.354-1.212-1.355-2.052-2.859-2.488"/><linearGradient id="aa-c" gradientUnits="userSpaceOnUse" x1="83.729" y1="4.972" x2="83.729" y2="25.961"><stop offset="0" stop-color="#fff"/><stop offset="1" stop-color="#eaeae8"/></linearGradient><path fill="url(#aa-c)" d="M96.183 5.515c-1.303-.374-4.805-.54-10.667-.543-4.641.003-7.791.255-9.521.795-2.164.673-3.805 1.955-4.883 3.815-.604 1.056-1.208 2.825-1.842 5.348-.673 2.666-1.011 4.706-1.011 6.154 0 .322.019.609.047.873.268 2.151 2.008 3.421 4.878 3.735 1.507.182 3.715.269 6.635.269 3.561 0 5.944-.017 7.158-.052 1.782-.064 3.149-.188 4.12-.373 1.954-.394 3.443-1.178 4.413-2.381.754-.92 1.349-2.325 1.828-4.222l.329-1.296h-7.208l-.059.23c-.341 1.245-.918 1.943-1.747 2.246-.64.234-2.965.382-6.774.376-1.616 0-2.675-.019-3.132-.055-1.397-.108-2.242-.42-2.503-.765-.148-.166-.266-.539-.265-1.119 0-.674.147-1.612.444-2.795.302-1.194.542-2.067.72-2.601.52-1.536 1.484-2.361 3.023-2.626.555-.088 2.506-.146 5.745-.141 2.042 0 3.149.004 3.224.009 1.587.081 2.386.468 2.445.756.034.075.055.221.055.419 0 .219-.026.499-.083.835l-.06.359h7.102l.233-.925c.248-.99.373-1.852.373-2.589 0-.462-.053-.88-.157-1.25-.355-1.213-1.358-2.055-2.86-2.486"/><linearGradient id="aa-d" gradientUnits="userSpaceOnUse" x1="116.612" y1="4.974" x2="116.612" y2="25.868"><stop offset="0" stop-color="#fff"/><stop offset="1" stop-color="#eaeae8"/></linearGradient><path fill="url(#aa-d)" d="M125.657 4.974l-2.37 9.432-.44 1.737c-.304 1.272-.649 2.193-.999 2.753-.513.816-1.47 1.307-2.98 1.411-.986.076-2.703.113-5.141.113-1.641 0-2.837-.044-3.56-.127-1.59-.217-2.174-.755-2.193-1.761l.001-.102c.019-.425.175-1.252.471-2.432l.032-.131c.007-.027.013-.061.023-.094.048-.183.089-.354.131-.519l2.581-10.281h-7.432l-.06.229-2.716 10.796c-.559 2.234-.847 3.88-.851 4.987v.024c-.023 2.764 2.001 4.366 5.612 4.655 1.354.117 3.746.175 7.198.175 1.726 0 3.024.005 3.884.005.429.004.756.004.967.008h.095v.015h.135c2.06-.056 3.711-.25 4.978-.598 2.668-.733 4.57-2.124 5.614-4.17.518-1.009 1.075-2.736 1.699-5.232l2.74-10.894h-7.419zm-7.821 20.583l.001-.01h.06v.01h-.061z"/><linearGradient id="aa-e" gradientUnits="userSpaceOnUse" x1="145.356" y1="4.974" x2="145.356" y2="25.666"><stop offset="0" stop-color="#fdd974"/><stop offset="1" stop-color="#edb51e"/></linearGradient><path fill="url(#aa-e)" d="M145.998 4.974L127.85 25.665h8.512l3.039-3.6h14.068l1.334 3.6h8.059l-7.395-20.691h-9.469zm5.917 12.311h-8.492l5.979-7.086 2.513 7.086z"/><linearGradient id="aa-f" gradientUnits="userSpaceOnUse" x1="169.799" y1="4.973" x2="169.799" y2="25.666"><stop offset="0" stop-color="#fdd974"/><stop offset="1" stop-color="#edb51e"/></linearGradient><path fill="url(#aa-f)" d="M168.68 4.973l-5.199 20.692h7.434l5.201-20.692z"/><linearGradient id="aa-g" gradientUnits="userSpaceOnUse" x1="190.74" y1="4.973" x2="190.74" y2="25.666"><stop offset="0" stop-color="#fdd974"/><stop offset="1" stop-color="#edb51e"/></linearGradient><path fill="url(#aa-g)" d="M206.996 8.149c-.25-1.445-1.354-2.412-3.079-2.83-.965-.233-2.544-.345-4.786-.347h-19.527l-5.202 20.692h7.397l1.277-5.08h10.236c.928 0 1.577.023 1.902.072.939.141 1.16.769 1.191 2.197v2.812h7.945V22.18c.013-2.335-.319-3.415-1.373-4.099-.365-.23-.911-.386-1.665-.485.919-.194 1.619-.423 2.101-.684 1.566-.858 2.644-2.561 3.259-5.019.269-1.061.406-1.985.406-2.778 0-.347-.027-.666-.082-.966m-8.084 4.881c-.256.994-.725 1.547-1.452 1.797-.41.146-1.356.235-2.746.235h-10.251l1.142-4.542h10.651c1.478-.019 2.4.18 2.601.382.142.113.254.357.254.814-.001.342-.063.785-.199 1.314"/><linearGradient id="aa-h" gradientUnits="userSpaceOnUse" x1="129.774" y1="30.468" x2="129.774" y2="36.333"><stop offset="0" stop-color="#e2e1e1"/><stop offset="1" stop-color="#d2d2d0"/></linearGradient><path fill="url(#aa-h)" d="M126.529 32.149c.008-1.546 1.083-1.682 3.237-1.682 1.889 0 3.239.05 3.14 1.625h-.988c-.044-1.008-.336-1.046-2.188-1.046-1.929 0-2.208.158-2.208.963.003 1.098.79 1.004 2.42 1.04 2.069.077 3.116.037 3.116 1.604-.001 1.628-1.16 1.68-3.357 1.68-2.228 0-3.38-.175-3.188-1.844h.986c-.023 1.273.353 1.273 2.202 1.273 1.863 0 2.373 0 2.373-1.136 0-1.104-.746-.917-2.334-.996-1.73-.1-3.213.043-3.211-1.481"/><linearGradient id="aa-i" gradientUnits="userSpaceOnUse" x1="138.31" y1="30.514" x2="138.31" y2="36.333"><stop offset="0" stop-color="#e2e1e1"/><stop offset="1" stop-color="#d2d2d0"/></linearGradient><path fill="url(#aa-i)" d="M141.763 30.514l.008 4.159c-.008 1.548-1.404 1.66-3.459 1.66-1.913 0-3.46-.022-3.456-1.66l-.004-4.159h.992v4.159c.002.939.334 1.092 2.468 1.092 1.755 0 2.465-.011 2.468-1.092l-.003-4.159h.986z"/><linearGradient id="aa-j" gradientUnits="userSpaceOnUse" x1="146.834" y1="30.468" x2="146.834" y2="36.333"><stop offset="0" stop-color="#e2e1e1"/><stop offset="1" stop-color="#d2d2d0"/></linearGradient><path fill="url(#aa-j)" d="M143.592 32.149c.008-1.546 1.079-1.682 3.233-1.682 1.88 0 3.236.05 3.136 1.625h-.989c-.044-1.008-.334-1.046-2.182-1.046-1.934 0-2.209.158-2.207.963.003 1.098.788 1.004 2.417 1.04 2.067.077 3.115.037 3.115 1.604-.002 1.628-1.158 1.68-3.358 1.68-2.222 0-3.374-.175-3.186-1.844h.987c-.023 1.273.35 1.273 2.198 1.273 1.86 0 2.375 0 2.371-1.136 0-1.104-.746-.917-2.33-.996-1.731-.1-3.207.043-3.205-1.481"/><linearGradient id="aa-k" gradientUnits="userSpaceOnUse" x1="155.018" y1="30.514" x2="155.018" y2="36.291"><stop offset="0" stop-color="#e2e1e1"/><stop offset="1" stop-color="#d2d2d0"/></linearGradient><path fill="url(#aa-k)" d="M151.764 30.514h4.436c1.688 0 2.094.754 2.084 1.755.002.508-.015 1.779-2.13 1.779h-3.404l-.004 2.243h-.992l.01-5.777zm.981.575l.006 2.377h2.553c1.316 0 1.996.009 1.996-1.118-.011-1.106-.311-1.259-1.534-1.259h-3.021z"/><linearGradient id="aa-l" gradientUnits="userSpaceOnUse" x1="162.621" y1="30.512" x2="162.621" y2="36.289"><stop offset="0" stop-color="#e2e1e1"/><stop offset="1" stop-color="#d2d2d0"/></linearGradient><path fill="url(#aa-l)" d="M160.804 33.056h4.42v.537h-4.42l.002 2.121h4.619v.575h-5.607v-5.777h5.605l-.004.577h-4.613z"/><linearGradient id="aa-m" gradientUnits="userSpaceOnUse" x1="170.984" y1="30.514" x2="170.984" y2="36.291"><stop offset="0" stop-color="#e2e1e1"/><stop offset="1" stop-color="#d2d2d0"/></linearGradient><path fill="url(#aa-m)" d="M174.745 36.291h-1.61l-4.887-5.239h-.024l-.013 5.239h-.992l.005-5.777h1.63l4.88 5.277h.03v-5.277h.985z"/><linearGradient id="aa-n" gradientUnits="userSpaceOnUse" x1="179.779" y1="30.468" x2="179.779" y2="36.333"><stop offset="0" stop-color="#e2e1e1"/><stop offset="1" stop-color="#d2d2d0"/></linearGradient><path fill="url(#aa-n)" d="M176.539 32.149c.006-1.546 1.077-1.682 3.229-1.682 1.884 0 3.24.05 3.138 1.625h-.987c-.048-1.008-.338-1.046-2.184-1.046-1.932 0-2.205.158-2.202.963 0 1.098.783 1.004 2.412 1.04 2.071.077 3.115.037 3.115 1.604-.004 1.628-1.16 1.68-3.358 1.68-2.22 0-3.367-.175-3.187-1.844h.996c-.033 1.273.344 1.273 2.19 1.273 1.864 0 2.375 0 2.373-1.136-.004-1.104-.746-.917-2.334-.996-1.723-.1-3.201.043-3.201-1.481"/><linearGradient id="aa-o" gradientUnits="userSpaceOnUse" x1="185.346" y1="30.514" x2="185.346" y2="36.291"><stop offset="0" stop-color="#e2e1e1"/><stop offset="1" stop-color="#d2d2d0"/></linearGradient><path fill="url(#aa-o)" d="M184.852 30.514h.985v5.777h-.985z"/><linearGradient id="aa-p" gradientUnits="userSpaceOnUse" x1="191.15" y1="30.47" x2="191.15" y2="36.333"><stop offset="0" stop-color="#e2e1e1"/><stop offset="1" stop-color="#d2d2d0"/></linearGradient><path fill="url(#aa-p)" d="M191.745 30.47c2.171.015 2.829.492 2.829 1.94l-.004 2.056c.004 1.361-.744 1.867-2.834 1.867h-1.177c-2.092 0-2.843-.506-2.834-1.867V32.41c0-1.448.66-1.926 2.842-1.94h1.178zm-1.178.577c-1.46 0-1.854.24-1.854 1.363l-.008 2.056c.004 1.146.577 1.286 1.854 1.297h1.179c1.271-.011 1.849-.15 1.836-1.297l.013-2.056c-.005-1.123-.384-1.363-1.849-1.363h-1.171z"/><linearGradient id="aa-q" gradientUnits="userSpaceOnUse" x1="200.184" y1="30.514" x2="200.184" y2="36.291"><stop offset="0" stop-color="#e2e1e1"/><stop offset="1" stop-color="#d2d2d0"/></linearGradient><path fill="url(#aa-q)" d="M203.942 36.291h-1.615l-4.882-5.239h-.025l-.012 5.239h-.988l.009-5.777h1.621l4.888 5.277h.018l.003-5.277h.987z"/><linearGradient id="aa-r" gradientUnits="userSpaceOnUse" x1="239.709" x2="239.709" y2="43.617"><stop offset="0" stop-color="#fee290"/><stop offset=".5" stop-color="#f1bc26"/><stop offset="1" stop-color="#bb902d"/></linearGradient><path fill="url(#aa-r)" d="M260.796 6.977v.001l-.373 6.632-.373 6.64a37.16 37.16 0 0 0 .005 3.485l.368 6.447.471 8.196c.176 3.049-2.177 5.396-5.223 5.228l-7.639-.425-6.751-.381a37.1 37.1 0 0 0-3.498.004l-6.143.35-7.891.452c-3.048.176-5.398-2.175-5.226-5.228l.469-8.374.371-6.632c.053-.959.053-2.534-.002-3.497l-.369-6.447-.469-8.191c-.177-3.046 2.172-5.397 5.222-5.229l8.067.458 6.324.348c.962.058 2.533.058 3.491 0l6.146-.348 6.141-.357h.002l1.746-.101c3.049-.173 5.403 2.174 5.229 5.222l-.095 1.747z"/><linearGradient id="aa-s" gradientUnits="userSpaceOnUse" x1="239.709" y1="3.18" x2="239.709" y2="40.438"><stop offset="0" stop-color="#7f8080"/><stop offset=".505" stop-color="#181818"/><stop offset="1" stop-color="#010000"/></linearGradient><path fill="url(#aa-s)" d="M258.338 8.149a4.972 4.972 0 0 0-4.97-4.969h-27.317a4.97 4.97 0 0 0-4.972 4.969v27.315a4.972 4.972 0 0 0 4.972 4.974h27.317a4.975 4.975 0 0 0 4.97-4.974V8.149z"/><linearGradient id="aa-t" gradientUnits="userSpaceOnUse" x1="239.707" y1="6.464" x2="239.707" y2="19.484"><stop offset="0" stop-color="#fff"/><stop offset="1" stop-color="#f7f8f9"/></linearGradient><path fill="url(#aa-t)" d="M250.69 6.734c.261-.176.597-.27.936-.27h.011c.796 0 1.439.504 1.439 1.125a.993.993 0 0 1-.296.683l-9.65 9.887c-1.446 1.48-4.15 1.765-6.03.624a3.995 3.995 0 0 1-.796-.624l-9.668-9.887c-.483-.491-.362-1.205.267-1.58.244-.147.557-.229.871-.229h.013c.344 0 .682.094.934.27l7.242 4.9c2.159 1.456 5.341 1.456 7.492 0l7.235-4.899"/><linearGradient id="aa-u" gradientUnits="userSpaceOnUse" x1="239.707" y1="24.136" x2="239.707" y2="37.154"><stop offset="0" stop-color="#f1f1f1"/><stop offset="1" stop-color="#d0cfce"/></linearGradient><path fill="url(#aa-u)" d="M250.69 36.886c.263.175.597.269.936.269h.011c.798 0 1.439-.505 1.439-1.128a.994.994 0 0 0-.296-.683l-9.667-9.887c-1.446-1.481-4.153-1.758-6.034-.623a3.759 3.759 0 0 0-.792.623l-9.653 9.887c-.481.489-.36 1.195.269 1.579.25.147.557.231.871.231h.017c.34 0 .676-.094.93-.269l7.24-4.901c2.156-1.458 5.338-1.458 7.49 0l7.239 4.902"/><path fill="#FFC721" d="M226.203 20.996a.814.814 0 1 0 0 1.627h27.009a.812.812 0 0 0 .814-.818.81.81 0 0 0-.814-.809h-27.009z"/></svg>