<?xml version="1.0" encoding="utf-8"?>
<!-- Generator: Adobe Illustrator 16.0.3, SVG Export Plug-In . SVG Version: 6.00 Build 0)  -->
<!DOCTYPE svg PUBLIC "-//W3C//DTD SVG 1.1//EN" "http://www.w3.org/Graphics/SVG/1.1/DTD/svg11.dtd">
<svg version="1.1" xmlns="http://www.w3.org/2000/svg" xmlns:xlink="http://www.w3.org/1999/xlink" x="0px" y="0px" width="261px"
	 height="45px" viewBox="0 0 261 45" enable-background="new 0 0 261 45" xml:space="preserve">
<g id="Layer_3" display="none">
	<rect x="-26.667" y="-38" display="inline" fill="#515151" width="328" height="130.667"/>
</g>
<g id="Layer_1">
	<linearGradient id="SVGID_1_" gradientUnits="userSpaceOnUse" x1="17.5063" y1="4.9727" x2="17.5063" y2="25.6655">
		<stop  offset="0" style="stop-color:#FFFFFF"/>
		<stop  offset="1" style="stop-color:#EAEAE8"/>
	</linearGradient>
	<path fill="url(#SVGID_1_)" d="M18.151,4.973L0,25.665h0.676H8.51l3.043-3.6h14.065l1.33,3.6h8.064L27.617,4.973H18.151z
		 M24.066,17.285h-8.491l5.979-7.086L24.066,17.285z"/>
	<linearGradient id="SVGID_2_" gradientUnits="userSpaceOnUse" x1="52.0522" y1="4.9741" x2="52.0522" y2="25.9614">
		<stop  offset="0" style="stop-color:#FFFFFF"/>
		<stop  offset="1" style="stop-color:#EAEAE8"/>
	</linearGradient>
	<path fill="url(#SVGID_2_)" d="M64.503,5.513c-1.302-0.371-4.804-0.539-10.668-0.539c-4.64,0-7.788,0.252-9.516,0.794
		c-2.158,0.672-3.801,1.954-4.878,3.815c-0.605,1.05-1.211,2.823-1.846,5.346c-0.67,2.666-1.008,4.708-1.012,6.156
		c0.003,0.32,0.019,0.612,0.051,0.872c0.268,2.155,2.005,3.414,4.878,3.735c1.506,0.179,3.71,0.269,6.629,0.269
		c3.559,0,5.941-0.019,7.16-0.05c1.78-0.066,3.148-0.186,4.116-0.375c1.956-0.394,3.439-1.178,4.413-2.381
		c0.753-0.919,1.351-2.325,1.83-4.22l0.323-1.298h-7.205l-0.06,0.227c-0.338,1.25-0.919,1.948-1.749,2.25
		c-0.638,0.235-2.962,0.382-6.771,0.378c-1.618,0-2.676-0.021-3.133-0.057c-1.394-0.108-2.238-0.42-2.5-0.765
		c-0.145-0.166-0.265-0.537-0.26-1.117c-0.001-0.674,0.145-1.614,0.441-2.797c0.3-1.193,0.54-2.065,0.719-2.598
		c0.522-1.538,1.479-2.363,3.022-2.627c0.556-0.09,2.506-0.143,5.744-0.143c2.038,0,3.151,0.004,3.227,0.011
		c1.587,0.079,2.384,0.466,2.443,0.755c0.029,0.074,0.054,0.221,0.054,0.419c0,0.221-0.026,0.5-0.084,0.833l-0.06,0.359h7.101
		l0.23-0.926c0.251-0.993,0.378-1.851,0.378-2.589c0-0.462-0.05-0.88-0.158-1.249C67.008,6.789,66.007,5.949,64.503,5.513"/>
	<linearGradient id="SVGID_3_" gradientUnits="userSpaceOnUse" x1="83.729" y1="4.9717" x2="83.729" y2="25.9614">
		<stop  offset="0" style="stop-color:#FFFFFF"/>
		<stop  offset="1" style="stop-color:#EAEAE8"/>
	</linearGradient>
	<path fill="url(#SVGID_3_)" d="M96.183,5.515c-1.303-0.374-4.805-0.54-10.667-0.543c-4.641,0.003-7.791,0.255-9.521,0.795
		c-2.164,0.673-3.805,1.955-4.883,3.815c-0.604,1.056-1.208,2.825-1.842,5.348c-0.673,2.666-1.011,4.706-1.011,6.154
		c0,0.322,0.019,0.609,0.047,0.873c0.268,2.151,2.008,3.421,4.878,3.735c1.507,0.182,3.715,0.269,6.635,0.269
		c3.561,0,5.944-0.017,7.158-0.052c1.782-0.064,3.149-0.188,4.12-0.373c1.954-0.394,3.443-1.178,4.413-2.381
		c0.754-0.92,1.349-2.325,1.828-4.222l0.329-1.296h-7.208l-0.059,0.23c-0.341,1.245-0.918,1.943-1.747,2.246
		c-0.64,0.234-2.965,0.382-6.774,0.376c-1.616,0-2.675-0.019-3.132-0.055c-1.397-0.108-2.242-0.42-2.503-0.765
		c-0.148-0.166-0.266-0.539-0.265-1.119c0-0.674,0.147-1.612,0.444-2.795c0.302-1.194,0.542-2.067,0.72-2.601
		c0.52-1.536,1.484-2.361,3.023-2.626c0.555-0.088,2.506-0.146,5.745-0.141c2.042,0,3.149,0.004,3.224,0.009
		c1.587,0.081,2.386,0.468,2.445,0.756c0.034,0.075,0.055,0.221,0.055,0.419c0,0.219-0.026,0.499-0.083,0.835l-0.06,0.359h7.102
		l0.233-0.925c0.248-0.99,0.373-1.852,0.373-2.589c0-0.462-0.053-0.88-0.157-1.25C98.688,6.788,97.685,5.946,96.183,5.515"/>
	<linearGradient id="SVGID_4_" gradientUnits="userSpaceOnUse" x1="116.6123" y1="4.9741" x2="116.6123" y2="25.8677">
		<stop  offset="0" style="stop-color:#FFFFFF"/>
		<stop  offset="1" style="stop-color:#EAEAE8"/>
	</linearGradient>
	<path fill="url(#SVGID_4_)" d="M125.657,4.974l-2.37,9.432l-0.44,1.737c-0.304,1.272-0.649,2.193-0.999,2.753
		c-0.513,0.816-1.47,1.307-2.98,1.411c-0.986,0.076-2.703,0.113-5.141,0.113c-1.641,0-2.837-0.044-3.56-0.127
		c-1.59-0.217-2.174-0.755-2.193-1.761c0-0.032,0.001-0.064,0.001-0.102c0.019-0.425,0.175-1.252,0.471-2.432l0.032-0.131
		c0.007-0.027,0.013-0.061,0.023-0.094c0.048-0.183,0.089-0.354,0.131-0.519l2.581-10.281h-7.432l-0.06,0.229l-2.716,10.796
		c-0.559,2.234-0.847,3.88-0.851,4.987v0.024c-0.023,2.764,2.001,4.366,5.612,4.655c1.354,0.117,3.746,0.175,7.198,0.175
		c1.726,0,3.024,0.005,3.884,0.005c0.429,0.004,0.756,0.004,0.967,0.008h0.095v0.015h0.135c2.06-0.056,3.711-0.25,4.978-0.598
		c2.668-0.733,4.57-2.124,5.614-4.17c0.518-1.009,1.075-2.736,1.699-5.232l2.74-10.894H125.657z M117.836,25.557
		c0-0.004,0-0.004,0.001-0.01h0.06v0.01H117.836z"/>
	<linearGradient id="SVGID_5_" gradientUnits="userSpaceOnUse" x1="145.3564" y1="4.9741" x2="145.3564" y2="25.6655">
		<stop  offset="0" style="stop-color:#FDD974"/>
		<stop  offset="1" style="stop-color:#EDB51E"/>
	</linearGradient>
	<path fill="url(#SVGID_5_)" d="M145.998,4.974L127.85,25.665h0.674h7.838l3.039-3.6h14.068l1.334,3.6h8.059l-7.395-20.691H145.998z
		 M151.915,17.285h-8.492l5.979-7.086L151.915,17.285z"/>
	<linearGradient id="SVGID_6_" gradientUnits="userSpaceOnUse" x1="169.7988" y1="4.9727" x2="169.7988" y2="25.6655">
		<stop  offset="0" style="stop-color:#FDD974"/>
		<stop  offset="1" style="stop-color:#EDB51E"/>
	</linearGradient>
	<polygon fill="url(#SVGID_6_)" points="168.68,4.973 163.481,25.665 163.871,25.665 170.915,25.665 176.116,4.973 	"/>
	<linearGradient id="SVGID_7_" gradientUnits="userSpaceOnUse" x1="190.7402" y1="4.9727" x2="190.7402" y2="25.6655">
		<stop  offset="0" style="stop-color:#FDD974"/>
		<stop  offset="1" style="stop-color:#EDB51E"/>
	</linearGradient>
	<path fill="url(#SVGID_7_)" d="M206.996,8.149c-0.25-1.445-1.354-2.412-3.079-2.83c-0.965-0.233-2.544-0.345-4.786-0.347h-19.527
		l-5.202,20.692h0.39h7.007l1.277-5.08h10.236c0.928,0,1.577,0.023,1.902,0.072c0.939,0.141,1.16,0.769,1.191,2.197v2.812h7.945
		V22.18c0.013-2.335-0.319-3.415-1.373-4.099c-0.365-0.23-0.911-0.386-1.665-0.485c0.919-0.194,1.619-0.423,2.101-0.684
		c1.566-0.858,2.644-2.561,3.259-5.019c0.269-1.061,0.406-1.985,0.406-2.778C207.078,8.768,207.051,8.449,206.996,8.149
		 M198.912,13.03c-0.256,0.994-0.725,1.547-1.452,1.797c-0.41,0.146-1.356,0.235-2.746,0.235h-10.251l1.142-4.542h10.651
		c1.478-0.019,2.4,0.18,2.601,0.382c0.142,0.113,0.254,0.357,0.254,0.814C199.11,12.058,199.048,12.501,198.912,13.03"/>
	<linearGradient id="SVGID_8_" gradientUnits="userSpaceOnUse" x1="129.7744" y1="30.4678" x2="129.7744" y2="36.333">
		<stop  offset="0" style="stop-color:#E2E1E1"/>
		<stop  offset="1" style="stop-color:#D2D2D0"/>
	</linearGradient>
	<path fill="url(#SVGID_8_)" d="M126.529,32.149c0.008-1.546,1.083-1.682,3.237-1.682c1.889,0,3.239,0.05,3.14,1.625h-0.988
		c-0.044-1.008-0.336-1.046-2.188-1.046c-1.929,0-2.208,0.158-2.208,0.963c0.003,1.098,0.79,1.004,2.42,1.04
		c2.069,0.077,3.116,0.037,3.116,1.604c-0.001,1.628-1.16,1.68-3.357,1.68c-2.228,0-3.38-0.175-3.188-1.844h0.986
		c-0.023,1.273,0.353,1.273,2.202,1.273c1.863,0,2.373,0,2.373-1.136c0-1.104-0.746-0.917-2.334-0.996
		C128.01,33.53,126.527,33.673,126.529,32.149"/>
	<linearGradient id="SVGID_9_" gradientUnits="userSpaceOnUse" x1="138.3105" y1="30.5137" x2="138.3105" y2="36.333">
		<stop  offset="0" style="stop-color:#E2E1E1"/>
		<stop  offset="1" style="stop-color:#D2D2D0"/>
	</linearGradient>
	<path fill="url(#SVGID_9_)" d="M141.763,30.514l0.008,4.159c-0.008,1.548-1.404,1.66-3.459,1.66c-1.913,0-3.46-0.022-3.456-1.66
		l-0.004-4.159h0.992v4.159c0.002,0.939,0.334,1.092,2.468,1.092c1.755,0,2.465-0.011,2.468-1.092l-0.003-4.159H141.763z"/>
	<linearGradient id="SVGID_10_" gradientUnits="userSpaceOnUse" x1="146.834" y1="30.4678" x2="146.834" y2="36.333">
		<stop  offset="0" style="stop-color:#E2E1E1"/>
		<stop  offset="1" style="stop-color:#D2D2D0"/>
	</linearGradient>
	<path fill="url(#SVGID_10_)" d="M143.592,32.149c0.008-1.546,1.079-1.682,3.233-1.682c1.88,0,3.236,0.05,3.136,1.625h-0.989
		c-0.044-1.008-0.334-1.046-2.182-1.046c-1.934,0-2.209,0.158-2.207,0.963c0.003,1.098,0.788,1.004,2.417,1.04
		c2.067,0.077,3.115,0.037,3.115,1.604c-0.002,1.628-1.158,1.68-3.358,1.68c-2.222,0-3.374-0.175-3.186-1.844h0.987
		c-0.023,1.273,0.35,1.273,2.198,1.273c1.86,0,2.375,0,2.371-1.136c0-1.104-0.746-0.917-2.33-0.996
		C145.066,33.53,143.59,33.673,143.592,32.149"/>
	<linearGradient id="SVGID_11_" gradientUnits="userSpaceOnUse" x1="155.0176" y1="30.5137" x2="155.0176" y2="36.291">
		<stop  offset="0" style="stop-color:#E2E1E1"/>
		<stop  offset="1" style="stop-color:#D2D2D0"/>
	</linearGradient>
	<path fill="url(#SVGID_11_)" d="M151.764,30.514h4.436c1.688,0,2.094,0.754,2.084,1.755c0.002,0.508-0.015,1.779-2.13,1.779h-3.404
		l-0.004,2.243h-0.992L151.764,30.514z M152.745,31.089l0.006,2.377h2.553c1.316,0,1.996,0.009,1.996-1.118
		c-0.011-1.106-0.311-1.259-1.534-1.259H152.745z"/>
	<linearGradient id="SVGID_12_" gradientUnits="userSpaceOnUse" x1="162.6211" y1="30.5117" x2="162.6211" y2="36.2891">
		<stop  offset="0" style="stop-color:#E2E1E1"/>
		<stop  offset="1" style="stop-color:#D2D2D0"/>
	</linearGradient>
	<polygon fill="url(#SVGID_12_)" points="160.804,33.056 165.224,33.056 165.224,33.593 160.804,33.593 160.806,35.714 
		165.425,35.714 165.425,36.289 159.818,36.289 159.818,30.512 165.423,30.512 165.419,31.089 160.806,31.089 	"/>
	<linearGradient id="SVGID_13_" gradientUnits="userSpaceOnUse" x1="170.9844" y1="30.5137" x2="170.9844" y2="36.291">
		<stop  offset="0" style="stop-color:#E2E1E1"/>
		<stop  offset="1" style="stop-color:#D2D2D0"/>
	</linearGradient>
	<polygon fill="url(#SVGID_13_)" points="174.745,36.291 173.135,36.291 168.248,31.052 168.224,31.052 168.211,36.291 
		167.219,36.291 167.224,30.514 168.854,30.514 173.734,35.791 173.764,35.791 173.764,30.514 174.749,30.514 	"/>
	<linearGradient id="SVGID_14_" gradientUnits="userSpaceOnUse" x1="179.7793" y1="30.4678" x2="179.7793" y2="36.333">
		<stop  offset="0" style="stop-color:#E2E1E1"/>
		<stop  offset="1" style="stop-color:#D2D2D0"/>
	</linearGradient>
	<path fill="url(#SVGID_14_)" d="M176.539,32.149c0.006-1.546,1.077-1.682,3.229-1.682c1.884,0,3.24,0.05,3.138,1.625h-0.987
		c-0.048-1.008-0.338-1.046-2.184-1.046c-1.932,0-2.205,0.158-2.202,0.963c0,1.098,0.783,1.004,2.412,1.04
		c2.071,0.077,3.115,0.037,3.115,1.604c-0.004,1.628-1.16,1.68-3.358,1.68c-2.22,0-3.367-0.175-3.187-1.844h0.996
		c-0.033,1.273,0.344,1.273,2.19,1.273c1.864,0,2.375,0,2.373-1.136c-0.004-1.104-0.746-0.917-2.334-0.996
		C178.017,33.53,176.539,33.673,176.539,32.149"/>
	<linearGradient id="SVGID_15_" gradientUnits="userSpaceOnUse" x1="185.3457" y1="30.5137" x2="185.3457" y2="36.291">
		<stop  offset="0" style="stop-color:#E2E1E1"/>
		<stop  offset="1" style="stop-color:#D2D2D0"/>
	</linearGradient>
	<rect x="184.852" y="30.514" fill="url(#SVGID_15_)" width="0.985" height="5.777"/>
	<linearGradient id="SVGID_16_" gradientUnits="userSpaceOnUse" x1="191.1504" y1="30.4697" x2="191.1504" y2="36.333">
		<stop  offset="0" style="stop-color:#E2E1E1"/>
		<stop  offset="1" style="stop-color:#D2D2D0"/>
	</linearGradient>
	<path fill="url(#SVGID_16_)" d="M191.745,30.47c2.171,0.015,2.829,0.492,2.829,1.94l-0.004,2.056
		c0.004,1.361-0.744,1.867-2.834,1.867h-1.177c-2.092,0-2.843-0.506-2.834-1.867V32.41c0-1.448,0.66-1.926,2.842-1.94H191.745z
		 M190.567,31.047c-1.46,0-1.854,0.24-1.854,1.363l-0.008,2.056c0.004,1.146,0.577,1.286,1.854,1.297h1.179
		c1.271-0.011,1.849-0.15,1.836-1.297l0.013-2.056c-0.005-1.123-0.384-1.363-1.849-1.363H190.567z"/>
	<linearGradient id="SVGID_17_" gradientUnits="userSpaceOnUse" x1="200.1836" y1="30.5137" x2="200.1836" y2="36.291">
		<stop  offset="0" style="stop-color:#E2E1E1"/>
		<stop  offset="1" style="stop-color:#D2D2D0"/>
	</linearGradient>
	<polygon fill="url(#SVGID_17_)" points="203.942,36.291 202.327,36.291 197.445,31.052 197.42,31.052 197.408,36.291 
		196.42,36.291 196.429,30.514 198.05,30.514 202.938,35.791 202.956,35.791 202.959,30.514 203.946,30.514 	"/>
	<linearGradient id="SVGID_18_" gradientUnits="userSpaceOnUse" x1="239.709" y1="0" x2="239.709" y2="43.6167">
		<stop  offset="0" style="stop-color:#FEE290"/>
		<stop  offset="0.5" style="stop-color:#F1BC26"/>
		<stop  offset="1" style="stop-color:#BB902D"/>
	</linearGradient>
	<path fill="url(#SVGID_18_)" d="M260.796,6.977v0.001l-0.373,6.632l-0.373,6.64c-0.052,0.962-0.052,2.527,0.005,3.485l0.368,6.447
		l0.471,8.196c0.176,3.049-2.177,5.396-5.223,5.228l-7.639-0.425l-6.751-0.381c-0.963-0.053-2.533-0.053-3.498,0.004l-6.143,0.35
		l-7.891,0.452c-3.048,0.176-5.398-2.175-5.226-5.228l0.469-8.374l0.371-6.632c0.053-0.959,0.053-2.534-0.002-3.497l-0.369-6.447
		l-0.469-8.191c-0.177-3.046,2.172-5.397,5.222-5.229l8.067,0.458l6.324,0.348c0.962,0.058,2.533,0.058,3.491,0l6.146-0.348
		l6.141-0.357h0.002l1.746-0.101c3.049-0.173,5.403,2.174,5.229,5.222L260.796,6.977z"/>
	<linearGradient id="SVGID_19_" gradientUnits="userSpaceOnUse" x1="239.709" y1="3.1802" x2="239.709" y2="40.438">
		<stop  offset="0" style="stop-color:#7F8080"/>
		<stop  offset="0.5054" style="stop-color:#181818"/>
		<stop  offset="1" style="stop-color:#010000"/>
	</linearGradient>
	<path fill="url(#SVGID_19_)" d="M258.338,8.149c0-2.744-2.228-4.969-4.97-4.969h-27.317c-2.748,0-4.972,2.225-4.972,4.969v27.315
		c0,2.746,2.224,4.974,4.972,4.974h27.317c2.742,0,4.97-2.228,4.97-4.974V8.149z"/>
	<linearGradient id="SVGID_20_" gradientUnits="userSpaceOnUse" x1="239.707" y1="6.4639" x2="239.707" y2="19.4839">
		<stop  offset="0" style="stop-color:#FFFFFF"/>
		<stop  offset="1" style="stop-color:#F7F8F9"/>
	</linearGradient>
	<path fill="url(#SVGID_20_)" d="M250.69,6.734c0.261-0.176,0.597-0.27,0.936-0.27h0.011c0.796,0,1.439,0.504,1.439,1.125
		c-0.002,0.239-0.102,0.486-0.296,0.683l-9.65,9.887c-1.446,1.48-4.15,1.765-6.03,0.624c-0.302-0.179-0.564-0.391-0.796-0.624
		l-9.668-9.887c-0.483-0.491-0.362-1.205,0.267-1.58c0.244-0.147,0.557-0.229,0.871-0.229h0.013c0.344,0,0.682,0.094,0.934,0.27
		l7.242,4.9c2.159,1.456,5.341,1.456,7.492,0L250.69,6.734"/>
	<linearGradient id="SVGID_21_" gradientUnits="userSpaceOnUse" x1="239.707" y1="24.1357" x2="239.707" y2="37.1543">
		<stop  offset="0" style="stop-color:#F1F1F1"/>
		<stop  offset="1" style="stop-color:#D0CFCE"/>
	</linearGradient>
	<path fill="url(#SVGID_21_)" d="M250.69,36.886c0.263,0.175,0.597,0.269,0.936,0.269h0.011c0.798,0,1.439-0.505,1.439-1.128
		c0-0.239-0.104-0.485-0.296-0.683l-9.667-9.887c-1.446-1.481-4.153-1.758-6.034-0.623c-0.298,0.175-0.564,0.388-0.792,0.623
		l-9.653,9.887c-0.481,0.489-0.36,1.195,0.269,1.579c0.25,0.147,0.557,0.231,0.871,0.231h0.017c0.34,0,0.676-0.094,0.93-0.269
		l7.24-4.901c2.156-1.458,5.338-1.458,7.49,0L250.69,36.886"/>
	<path fill="#FFC721" d="M226.203,20.996c-0.45,0-0.817,0.362-0.817,0.809c0,0.455,0.367,0.818,0.817,0.818h27.009
		c0.452,0,0.814-0.363,0.814-0.818c0-0.447-0.362-0.809-0.814-0.809H226.203z"/>
</g>
<g id="Layer_2">
</g>
</svg>
