<?xml version="1.0" encoding="utf-8"?>
<!-- Generator: Adobe Illustrator 20.1.0, SVG Export Plug-In . SVG Version: 6.00 Build 0)  -->
<svg version="1.1" xmlns="http://www.w3.org/2000/svg" xmlns:xlink="http://www.w3.org/1999/xlink" x="0px" y="0px"
	 viewBox="0 0 170 50" style="enable-background:new 0 0 170 50;" xml:space="preserve">
<style type="text/css">
	.st0{display:none;}
	.st1{display:inline;}
	.st2{fill:#CD1B89;}
	.st3{fill:#020202;}
	.st4{fill:#FAB81A;}
	.st5{fill:#F37126;}
	.st6{fill:#C9234C;}
	.st7{fill:#1989CA;}
	.st8{fill:#6561AB;}
	.st9{fill:#1CB24B;}
	.st10{fill:#174B95;}
	.st11{display:inline;fill:#174B95;}
	.st12{display:inline;fill:#E21D39;}
	.st13{display:inline;fill:#010101;}
	.st14{display:inline;fill:#231F20;}
	.st15{display:inline;fill:#7EA2D5;}
	.st16{display:inline;fill:#FFFFFF;}
	.st17{display:inline;fill:#F6B334;}
	.st18{display:inline;fill:#E63E30;}
	.st19{display:inline;fill:#253B81;}
	.st20{fill:#292929;}
	.st21{fill:#C19D49;}
	.st22{fill:#F2F1EF;}
	.st23{fill:#35A6DE;}
	.st24{display:inline;fill:#EC2227;}
	.st25{display:inline;fill:#2BA9E0;}
	.st26{fill:#2BA9E0;}
	.st27{fill:#E1192C;}
	.st28{fill-rule:evenodd;clip-rule:evenodd;}
</style>
<g id="Layer_1">
	<g id="RH" class="st0">
		<g class="st1">
			<path class="st2" d="M40.6,29.7c-0.1-0.4-0.2-0.7-0.2-1.1c-0.1-0.3-0.1-0.7-0.1-1.1c0-0.3,0-0.7-0.1-1.1
				c-0.1-0.4-0.1-0.7-0.2-1.1c0-0.3-0.2-0.7-0.3-0.9c-0.2-0.2-0.4-0.5-0.7-0.7c-0.3-0.2-0.7-0.3-1.1-0.4v-0.1c1-0.2,1.7-0.7,2.2-1.4
				c0.5-0.7,0.7-1.5,0.7-2.4c0-1.2-0.4-2.1-1.3-2.8c-1-0.7-2.2-1-3.7-1H28v14.5h2.2V24h5.2c0.6,0,1,0.1,1.3,0.2
				c0.3,0.2,0.6,0.3,0.8,0.6c0.2,0.2,0.3,0.5,0.4,0.8c0.1,0.4,0.2,0.7,0.2,1.1c0.1,0.3,0.2,0.7,0.2,1.1c0,0.4,0.1,0.7,0.1,1.1
				c0,0.3,0.1,0.7,0.1,0.9c0.1,0.2,0.2,0.5,0.3,0.7h2.4C40.8,30.3,40.7,30,40.6,29.7z M37.4,22.1c-0.4,0.2-0.7,0.3-1.2,0.4
				c-0.5,0.1-1,0.1-1.4,0.2h-4.5v-5.1h5.3c1,0,1.7,0.2,2.2,0.7c0.5,0.5,0.7,1.1,0.7,1.8c0,0.5-0.1,1-0.3,1.3
				C37.8,21.6,37.7,21.9,37.4,22.1z"/>
			<path class="st2" d="M49.7,25.9c0,0.5-0.1,0.9-0.2,1.3c-0.1,0.4-0.3,0.7-0.7,1.1c-0.3,0.2-0.7,0.6-1.1,0.7
				c-0.5,0.2-1,0.2-1.6,0.2c-0.8,0-1.4-0.2-1.8-0.6c-0.4-0.4-0.7-0.9-0.7-1.6v-7.2h-2v7.1c0,0.6,0.1,1.1,0.2,1.6
				c0.2,0.5,0.3,0.9,0.7,1.2c0.3,0.3,0.7,0.6,1.3,0.8c0.6,0.2,1.1,0.2,2,0.2c0.9,0,1.6-0.2,2.3-0.5c0.7-0.3,1.1-0.8,1.6-1.5h0.1v1.7
				c0,0,1.9,0,1.8,0V19.9h-2L49.7,25.9L49.7,25.9z"/>
			<path class="st2" d="M76.9,26.2c0.2-0.2,0.2-0.6,0.3-0.8c0.1-0.2,0.2-0.6,0.2-0.9c0-0.3,0.1-0.7,0.2-1.2h-1.8
				c-0.1,0.9-0.2,1.6-0.6,2.5l-2.8-3.4c0.3-0.2,0.7-0.5,1.1-0.7c0.3-0.2,0.7-0.6,1-0.9c0.3-0.3,0.6-0.7,0.7-1.1
				c0.2-0.4,0.2-0.8,0.2-1.3c0-0.6-0.1-1-0.3-1.5c-0.2-0.4-0.5-0.7-0.8-1c-0.3-0.3-0.7-0.5-1.2-0.7c-0.6-0.1-1-0.2-1.5-0.2
				c-0.6,0-1.1,0.1-1.6,0.3c-0.4,0.2-0.8,0.4-1.1,0.7c-0.3,0.3-0.6,0.7-0.7,1.1c-0.2,0.4-0.2,0.8-0.2,1.2s0,0.7,0.2,1.1
				c0.1,0.3,0.2,0.7,0.4,0.9s0.4,0.6,0.6,0.8c0.2,0.3,0.4,0.6,0.7,0.9c-0.5,0.2-1,0.5-1.5,0.8c-0.4,0.2-0.8,0.7-1.1,1
				c-0.3,0.4-0.6,0.8-0.8,1.3c-0.2,0.5-0.3,1-0.3,1.6c0,0.3,0,0.7,0.2,1.2c0.1,0.5,0.3,1,0.7,1.5c0.4,0.4,0.9,0.8,1.6,1.1
				c0.7,0.3,1.6,0.5,2.6,0.5c0.8,0,1.7-0.2,2.5-0.6c0.8-0.3,1.5-0.9,1.8-1.7l1.7,2h2.5l-2.9-3.4C76.5,26.7,76.7,26.4,76.9,26.2z
				 M70.5,17.2c0.4-0.2,0.9-0.4,1.3-0.4c0.5,0,1,0.2,1.3,0.5c0.3,0.2,0.5,0.7,0.5,1.1c0,0.3-0.1,0.7-0.2,0.9
				c-0.2,0.2-0.3,0.6-0.6,0.7c-0.2,0.2-0.4,0.4-0.7,0.6c-0.2,0.2-0.5,0.4-0.7,0.6c-0.2-0.2-0.4-0.5-0.6-0.7
				c-0.2-0.2-0.3-0.5-0.5-0.7s-0.2-0.5-0.3-0.7c-0.1-0.1-0.1-0.3-0.1-0.5C69.9,17.9,70.2,17.5,70.5,17.2z M73,28.8
				c-0.6,0.4-1.2,0.6-2,0.6c-0.3,0-0.7-0.1-1.1-0.2c-0.3-0.1-0.7-0.3-1-0.6c-0.3-0.2-0.6-0.5-0.7-0.8c-0.2-0.3-0.2-0.7-0.2-1.1
				c0-0.5,0.1-0.9,0.2-1.2c0.1-0.3,0.3-0.7,0.6-1c0.2-0.2,0.6-0.6,0.9-0.7c0.4-0.2,0.7-0.4,1.1-0.7l3.6,4.3
				C74.1,28,73.6,28.4,73,28.8z"/>
			<polygon class="st2" points="91.1,21.5 84.2,21.5 84.2,15.8 80.1,15.8 80.1,30.8 84.2,30.8 84.2,24.1 91.1,24.1 91.1,30.8 
				95.2,30.8 95.2,15.8 91.1,15.8 			"/>
			<path class="st2" d="M102.6,19.3c-2.2,0-3.7,0.6-4.9,1.8c-1.1,1.1-1.6,2.6-1.6,4.1c0,1.7,0.6,3,1.6,4.1c1.1,1.2,2.7,1.8,4.9,1.8
				c2.3,0,3.8-0.6,4.9-1.8c1.1-1.2,1.6-2.6,1.6-4.1c0-1.6-0.6-2.9-1.6-4.1C106.5,19.9,104.8,19.3,102.6,19.3z M104.8,27.6
				c-0.5,0.6-1.2,0.9-2.2,0.9c-1,0-1.7-0.2-2.2-0.9c-0.5-0.7-0.7-1.5-0.7-2.5c0-1.1,0.2-2,0.7-2.5c0.6-0.6,1.2-0.9,2.2-0.9
				c1,0,1.7,0.3,2.2,0.9c0.5,0.7,0.7,1.5,0.7,2.5C105.6,26.3,105.3,27.2,104.8,27.6z"/>
			<path class="st2" d="M128.4,22.2c-0.2-0.7-0.4-1.1-0.8-1.5c-0.4-0.4-0.9-0.8-1.6-1.1c-0.5-0.2-1-0.3-1.4-0.3c-0.1,0-0.2,0-0.2,0
				c-0.9,0-1.6,0.2-2.3,0.5c-0.7,0.3-1.1,0.8-1.6,1.3c-0.2-0.5-0.6-0.9-1.1-1.2c-0.7-0.4-1.5-0.6-2.4-0.6c-1.1,0-2,0.2-2.6,0.7
				c-0.3,0.2-0.7,0.5-1.1,1v-1.3h-3.2v11.1h3.5V24c0-0.6,0.1-1,0.2-1.3c0.3-0.5,0.9-0.7,1.8-0.7c0.8,0,1.3,0.2,1.6,0.7
				c0.2,0.2,0.2,0.7,0.2,1.4v6.7h3.5V24c0-0.4,0.1-0.8,0.2-1.2c0.3-0.7,1-1,1.8-1c0.7,0,1.2,0.2,1.6,0.7c0.2,0.2,0.2,0.6,0.2,1v7.2
				h3.5v-7.1C128.5,23.2,128.5,22.6,128.4,22.2z"/>
			<path class="st2" d="M142.2,26c0-0.9,0-1.7-0.1-2.2c-0.2-0.9-0.5-1.6-1.1-2.4c-0.6-0.7-1.3-1.3-2.3-1.7c-0.8-0.3-1.7-0.5-2.6-0.5
				c-0.2,0-0.3,0-0.4,0c-1.9,0-3.3,0.6-4.5,1.6c-1.1,1-1.8,2.5-1.8,4.4c0,2.1,0.7,3.5,2,4.4c1.3,0.9,2.8,1.4,4.5,1.4
				c2.1,0,3.7-0.6,4.8-1.7c0.7-0.7,1.1-1.3,1.2-2v-0.1h-3.2v0.1c-0.2,0.4-0.4,0.6-0.7,0.7c-0.4,0.3-1.1,0.5-1.8,0.5
				c-0.7,0-1.2-0.2-1.8-0.4c-0.8-0.4-1.2-1.1-1.3-2.2L142.2,26L142.2,26L142.2,26z M133.1,24.1c0.1-0.7,0.4-1.1,0.8-1.6
				c0.3-0.3,1-0.6,1.7-0.6c0.1,0,0.2,0,0.2,0c0.8,0,1.5,0.2,1.9,0.6c0.5,0.3,0.8,0.9,0.9,1.6H133.1L133.1,24.1z"/>
			<path class="st2" d="M62.9,19.5v1.6c-0.3-0.7-0.9-1.1-1.6-1.4s-1.5-0.5-2.2-0.5c-1.1,0-2,0.2-2.7,0.6c-0.7,0.3-1.4,0.8-1.9,1.5
				c-0.5,0.6-0.8,1.2-1,1.9c-0.2,0.7-0.3,1.4-0.3,2c0,0.7,0.1,1.5,0.3,2.2c0.2,0.7,0.6,1.3,1.1,1.8c0.5,0.5,1.1,0.9,1.8,1.2
				c0.7,0.3,1.6,0.5,2.5,0.5c0.8,0,1.6-0.2,2.3-0.5c0.7-0.3,1.3-0.8,1.6-1.6h0.1v0.7c0,0.7-0.1,1.2-0.2,1.7c-0.2,0.6-0.3,1-0.7,1.3
				c-0.3,0.3-0.7,0.7-1.1,0.8c-0.5,0.2-1.1,0.3-1.7,0.3c-0.3,0-0.7-0.1-1.1-0.1c-0.3-0.1-0.7-0.2-1.1-0.3c-0.3-0.2-0.6-0.3-0.8-0.6
				c-0.2-0.2-0.3-0.6-0.3-0.8h-2.1c0.1,0.6,0.2,1.1,0.6,1.6s0.7,0.7,1.3,1c0.6,0.2,1.1,0.4,1.7,0.6c0.7,0.2,1.2,0.2,1.8,0.2
				c2,0,3.4-0.5,4.4-1.4c1-0.9,1.5-2.3,1.5-4.1v-10L62.9,19.5L62.9,19.5z M59,28.4c-2.1,0-3.7-1.7-3.7-3.7S57,21,59,21
				s3.7,1.7,3.7,3.7S61.2,28.4,59,28.4z"/>
		</g>
	</g>
	<g id="NBC" class="st0">
		<g class="st1">
			<path class="st3" d="M70.8,30.5h-8.3V15.2h8.1c3.6,0,5.7,1.5,5.7,4v0.1c0,1.7-1,2.6-2.3,3.3c2.1,0.7,3.2,1.7,3.2,3.7v0.1
				C77.2,29.1,74.6,30.5,70.8,30.5 M72.4,19.8c0-1-0.9-1.6-2.5-1.6h-3.7v3.2h3.5C71.4,21.4,72.4,20.9,72.4,19.8L72.4,19.8z
				 M73.5,25.9c0-1-0.9-1.7-2.8-1.7h-4.4v3.3h4.5C72.4,27.5,73.5,27,73.5,25.9L73.5,25.9z"/>
			<path class="st3" d="M86.3,30.8c-5.1,0-8.9-3.5-8.9-7.9v-0.1c0-4.3,3.7-7.9,9-7.9c3.2,0,5.2,1,6.9,2.4l-2.4,2.5
				c-1.3-1.1-2.6-1.7-4.5-1.7c-2.9,0-5,2.1-5,4.8v0.1c0,2.6,2.1,4.9,5,4.9c2,0,3.2-0.7,4.5-1.8l2.4,2.1
				C91.6,29.8,89.6,30.8,86.3,30.8"/>
			<polygon class="st3" points="49.7,26.4 49.7,20.8 58.1,30.5 61.3,30.5 61.3,15.2 57.6,15.2 57.6,24.6 49.4,15.2 46,15.2 46,27.2 
				46,29 46,30.5 49.7,30.5 49.7,28.7 			"/>
			<g>
				<path class="st4" d="M118.3,22.1c-0.7-0.5-1.7-0.2-1.7-0.2c-1.9,0.7-4,2.1-5.6,3.6c0.7-0.8,1.6-1.8,2.6-2.7c0,0,0.7-0.4,0.2-0.9
					c-0.5-0.5-1.2-1-1.2-1s-0.2-0.2-0.4-0.2c-0.2,0.1,0,0.3,0,0.4c0,0.1-0.3,0.4-0.3,0.4s0,0-0.1,0.1c-0.6,0.5-1.5,1-2.1,1.2
					c-1.1,0.4-2.5,0.9-4,1.4c-0.1-0.1-0.2-0.2-0.3-0.2c-1.8-1.2-7.1-1.2-9.2-1.4c-2.2-0.2-2.7-0.3-2.8-0.7C93.2,21.5,94,20.8,95,20
					c3.9-2.8,9.3-3.5,10.9-3.4c1.9,0,2.4,0.2,2.5,0.4c0,0.2-0.1,0.2-0.1,0.2c-0.3,0.4-0.7,0.6-1.2,0.9c-1.5,1.1-3.4,1.9-3.4,1.9
					c-0.4,0.4,0.4,0.5,0.4,0.5c1.1-0.1,2.1-0.3,3.2-0.7c2.1-0.7,2.6-1.5,2.6-1.9c0.2-0.7-0.2-1.5-0.2-1.4c-0.5-2.2-4-2.1-4-2.1
					c-3.1,0-7.6,0.9-11.7,3.9c-2.1,1.5-1.8,2.6-1.8,2.6s-0.1,2.1,1.6,2.6c0.7,0.2,1.2,0.3,2.1,0.4c2.1,0.2,3.6,0.2,5.7,0.4
					c1.2,0.1,2.1,0.2,2.7,0.4c-1.7,0.7-3.6,1.4-5.1,2.1c-1.4,0.7-3.5,1.8-4.1,2.7c-0.9,1.1-0.1,2-0.2,1.8c0.2,0.2,0.7,1.2,3.1,1
					c1.2-0.2,2.5-0.7,3.5-1.2c1.5-0.8,2.6-1.7,3.2-2.4c1.3-1.2,1.7-2.3,1.7-3.1c0-0.3-0.1-0.6-0.2-0.8c1.6-0.6,3-1,4-1.2
					c-2.6,3.1-7,9.2-5.1,11.9c0,0,0.2,0.2,0.3,0.4c0,0,0.3,0.2,0.4,0.2c0.2-0.2-0.2-0.4-0.2-0.4c-0.2-0.2-0.2-0.4-0.2-0.7
					c0.1-0.4,0.2-1,0.4-1.8l0.5-1.2l0,0l0,0l0,0c0.7-1.2,1.8-2.7,3.2-4.1c3.5-3.5,6.5-4.9,7.1-5c0.4-0.2,0.7-0.2,0.7-0.1
					c0.4,0.4-0.7,2.1-0.7,2.1l-0.1,0.1c-2,2.9-3.1,3.7-4.1,4c-0.7,0.2-1.2,0-1.2-0.2c-0.2-0.2-0.4-0.6-0.4-0.7
					c0.1-0.3-0.1-0.3-0.1-0.3c-0.5,0.2-0.2,1-0.2,1c0.4,1.7,2.6,2.1,4.8,0.4c2.9-2.1,3.5-3.8,3.8-4.9
					C119.8,23.4,119,22.6,118.3,22.1 M105,25.7c-0.7,1.2-3.1,2.7-4,3.2c-0.4,0.2-1.5,0.8-2.7,1.3c-1.4,0.5-2.6,0.7-2.8,0.4
					c-0.1-0.2-0.2-0.2,0.3-0.7c0.5-0.6,2.1-1.6,3.7-2.4c1.8-0.9,3.7-1.7,5.5-2.4C105.1,25.3,105.1,25.6,105,25.7"/>
				<path class="st4" d="M153.2,20.8c-0.2-1-1.6-1.2-4-1c-1.3,0.2-3.8,0.4-6,0.8l2.2-2.5c0,0,0.5-0.3,0-0.7
					c-0.5-0.3-1.1-0.6-1.1-0.6s-0.2-0.2-0.6,0.2c-0.2,0.2-1.7,1.7-3.6,4.1c-2.2,0.3-4.8,0.4-5.4,0.6c0,0-0.3,0.1-0.4-0.2
					c0,0-0.3-0.2-0.2,0.2c0,0,0.1,1.2,1.2,1c0.7-0.2,2.1-0.3,3.9-0.6c-0.3,0.4-0.7,1-1.2,1.7c-2.2,2.4-5.9,6.2-6.8,5.7
					c0,0-0.2-0.2-0.1-0.6c0.2-0.7,0.9-1.7,2.3-3.4c0,0,0.7-0.7,0.7-1.2c-0.1-0.5-0.3-0.5-0.3-0.5s-1.9-0.6-2.6-1.2
					c0.2-0.4,0.7-1.3,0.2-1.8c0,0-0.7-0.5-1.4,0.7c-0.2,0.4-0.2,1,0.1,1.3c-0.4,0.4-1.7,1.7-2.8,2c-0.1-0.4-0.2-0.7-0.5-0.8
					c0,0-0.7-0.3-1,0.1c-0.4,0.4-0.1,0.8,0.3,1.1c-0.2,0.3-0.4,0.7-0.8,1.4c-0.5,0.8-1.2,1.7-2.1,2.3c-0.3,0.2-1.7,1-2-0.1
					c-0.2-0.6,0.2-1.7,1-3c1.7-2.6,4-3.5,4.6-3.1c0,0,0.3,0.3,0.2,0.7c0,0-0.1,0.2,0.2,0.2s0.4-0.2,0.4-0.4c0.2-0.6-0.4-1.2-1-1.7
					c-0.2-0.2-0.4-0.2-0.6-0.3c0,0-1-0.4-2.4,0.3c-0.4,0.2-2.2,1.2-3.5,3.5c-0.4,0.7-0.7,1.5-0.7,2.3c0,0.5,0.2,1,0.4,1.5
					c0.2,0.2,0.7,0.9,1.4,1.2c1.5,0.7,3.2-0.7,3.9-1.2c1.2-1.1,2.1-2.6,2.3-3.1c1.5-0.4,3.1-2,3.6-2.5c0.1,0.1,0.2,0.2,0.3,0.2
					l1,0.5c-0.6,0.7-0.6,0.7-1.2,1.5c-0.6,0.8-2.1,2.8-1.2,4c0.2,0.2,0.4,0.6,0.8,0.7c1.2,0.5,2.6-0.7,4.9-3.1
					c0.3-0.4,0.7-0.7,1-1.1c-0.2,0.2-0.2,0.6-0.4,0.8c-0.5,1.3-0.2,2.6,0.9,3.2c0.7,0.4,1.5,0.2,2.4-0.4c1.9-1.2,4.6-4,6.4-5.9
					c-0.1,0.2-0.2,0.5-0.2,0.8c-0.4,2.4-1.8,5.4-2.4,4.5c0,0.2,0-0.5-0.3-0.7c-0.2-0.2-0.5-0.3-0.8-0.1c-0.4,0.2-0.2,1.2,1,1.8
					c0.2,0.2,0.5,0.2,0.7,0.2c0.7,0.2,2.1,0.2,3.6-1.1c2.1-1.7,4.5-4,4.5-4s0.4-0.4,0-0.7c0,0-0.2-0.2-0.4,0.1
					c-0.2,0.2-0.2,0.2-0.2,0.2s-3.3,3.1-5.2,4.2c0.3-0.4,0.5-1,0.7-1.6c0.2-0.6,0.4-2.1,0.7-3.2c0.2-0.6,0.3-1.1,0.4-1.2
					c0.2-0.5,0.6-0.5,0.7-0.7c0.1-0.2,0.1-0.2-0.2-0.4c-0.2-0.2-0.2-0.3-0.4-0.4c-0.2-0.1-0.7,0-0.7,0c-0.1,0-0.2,0-0.4,0.1
					c-0.2,0.1-0.3,0.2-0.5,0.7c-1.2,1.2-5.1,5.5-7.4,6.9c0.2-0.1-1.9,1.3-1.5-0.5c0.2-0.8,1-2.6,3.4-5.6l1.2-1.3
					c1-0.2,2.1-0.3,3.1-0.4c0,0,9.1-1.2,6.6,0.8c0,0,0.2,0.3,0.5,0C152.9,21.8,153.2,21.2,153.2,20.8"/>
			</g>
			<g>
				<path class="st5" d="M22.2,18.9c-0.7,0-1.3,0.2-1.8,0.7c-0.6,0.5-1,1.4-0.9,2.2c0.1,0.6,0.3,1.5,1.3,2.1l7.7,5.3l-3.6-8.4
					C24.2,19.5,23.3,18.9,22.2,18.9z"/>
				<path class="st6" d="M29.6,16.6c0.2,0.5,0.4,1.1,0.3,1.8l-1.5,8.9l-3.7-8.6c-0.3-1,0-2.1,0.7-2.7c0.7-0.7,1.9-1,2.9-0.6
					C28.9,15.6,29.3,16.1,29.6,16.6z"/>
				<path class="st7" d="M38.5,18.9c0.7,0,1.3,0.2,1.8,0.7c0.6,0.5,1,1.4,0.9,2.2c-0.1,0.6-0.3,1.5-1.3,2.1l-7.7,5.4l3.7-8.4
					C36.4,19.5,37.4,18.9,38.5,18.9z"/>
				<path class="st8" d="M31.9,18c0.1,0,0.2,0.1,0.2,0.2c-0.4,0.3-1.2,0.7-1.2,1.3l0.2,0.7c0.4,2.6,1.2,7.1,1.2,7.1l3.6-8.6
					c0.3-1,0-2.1-0.7-2.7c-0.7-0.7-1.9-1-2.9-0.6c-0.5,0.2-1,0.7-1.2,1.2C31,17,30.9,17.5,30.9,18L31.9,18L31.9,18z"/>
				<path class="st9" d="M40.6,25c1.2,0,2.2,0.9,2.5,1.8c0.2,0.9,0.2,1.8-0.4,2.5c-0.5,0.7-1.3,1.1-2.2,1.1h-8.5l7.1-4.9
					C39.4,25.1,40,25,40.6,25z"/>
				<path class="st4" d="M20.1,25c-1.2,0-2.2,0.9-2.5,1.8c-0.2,0.9-0.2,1.8,0.4,2.5c0.5,0.7,1.3,1.1,2.2,1.1h8.5l-7.1-4.9
					C21.2,25.1,20.6,25,20.1,25z"/>
			</g>
		</g>
	</g>
	<g id="Geico" class="st0">
		<g id="GEICO_4_" class="st1">
			<path class="st10" d="M33.3,22.4c0-5.1,2.8-6.4,7.7-6.4h7.9c6.1,0,6.9,2.3,6.9,5.6v0.5h-5.4c0-1.8-1-2-2.8-2h-5.9
				c-2.8,0-3.3,0.8-3.3,3.6v2c0,3.1,0.8,3.6,3.3,3.6h5.6c1.3,0,2.8-0.3,2.8-1.8V27H44v-3.6h12v4.9c0,5.1-2.6,5.4-8.7,5.4h-6.4
				c-4.9,0-7.7-1.3-7.7-6.4C33.3,27.2,33.3,22.4,33.3,22.4z"/>
			<polygon class="st10" points="57.3,16.2 76.3,16.2 76.3,20.3 62.7,20.3 62.7,23.1 75.8,23.1 75.8,26.7 62.7,26.7 62.7,29.5 
				76.8,29.5 76.8,33.6 57.3,33.6 			"/>
			<rect x="78.3" y="16.2" class="st10" width="5.4" height="17.4"/>
			<path class="st10" d="M85.2,22.4c0-5.1,2.8-6.4,7.7-6.4h6.4c7.7,0,8.7,1.5,8.4,6.7h-5.4v-0.5c0-1.3-1-1.5-2.6-1.5h-5.9
				c-2.8,0-3.3,1.3-3.3,3.6v1.8c0,2.6,0.5,3.6,3.1,3.6h5.6c2.3,0,3.1-0.3,3.1-2.3h5.6v1.5c0,2.8-1,5.4-6.4,5.4h-8.7
				c-4.9,0-7.7-1.3-7.7-6.4V22.4z"/>
			<path class="st10" d="M109,22.4c0-5.1,2.8-6.4,7.7-6.4h8.7c4.9,0,7.7,1.3,7.7,6.4v5.1c0,5.1-2.8,6.4-7.7,6.4h-8.7
				c-4.9,0-7.7-1.3-7.7-6.4V22.4z M114.4,25.9c0,2.6,0.5,3.6,3.1,3.6h6.9c2.6,0,3.1-1,3.1-3.6v-1.8c0-2-0.5-3.6-3.3-3.6H118
				c-2.8,0-3.3,1.3-3.3,3.6v1.8H114.4z"/>
		</g>
		<path class="st11" d="M133.4,31.8c0-1,0.8-1.8,1.8-1.8c1,0,1.8,0.8,1.8,1.8c0,1-0.8,1.8-1.8,1.8C134.1,33.6,133.4,32.9,133.4,31.8
			z M136.4,31.8c0-0.8-0.8-1.5-1.5-1.5s-1.5,0.8-1.5,1.5s0.8,1.5,1.5,1.5C135.9,33.4,136.4,32.6,136.4,31.8z M135.9,32.9h-0.3
			l-0.5-0.8h-0.5v0.8h-0.3v-2h0.8c0.3,0,0.3,0,0.5,0c0.3,0,0.3,0.3,0.3,0.5c0,0.3-0.3,0.5-0.5,0.5L135.9,32.9z M134.9,31.6
			c0.3,0,0.8,0,0.8-0.3c0-0.3-0.3-0.3-0.5-0.3h-0.5v0.8h0.3V31.6z"/>
	</g>
	<g id="LN" class="st0">
		<polygon class="st12" points="24,24.5 24,16.7 22.4,16.7 22.4,24.5 22.4,26.2 22.4,26.2 31.2,26.2 31.2,24.5 		"/>
		<path class="st13" d="M84.3,17.5c-0.5-0.5-1.2-0.8-2-0.8h-8.1v9.5h1.7v-7.8h6.6c0.3,0,0.6,0.1,0.8,0.3c0.2,0.2,0.3,0.4,0.3,0.8
			v6.7h1.7v-6.7C85.1,18.7,84.8,18.1,84.3,17.5L84.3,17.5z"/>
		<path class="st13" d="M119.3,26.2h-1.7v-9.5h1.7V26.2z"/>
		<path class="st12" d="M51,16.7l-4.2,8.7c-0.3,0.5-0.6,0.8-1.2,0.8c-0.5,0-1-0.3-1.2-0.8l-4.2-8.7H42l3.1,6.6
			c0.1,0.2,0.2,0.2,0.3,0.2c0.2,0,0.3-0.1,0.3-0.2l3.1-6.6H51z"/>
		<path class="st12" d="M64.2,26.2h-8c-0.8,0-1.5-0.3-2-0.8c-0.5-0.5-0.8-1.2-0.8-2v-3.9c0-0.8,0.3-1.5,0.8-2c0.5-0.5,1.2-0.8,2-0.8
			h8v1.7h-8c-0.7,0-1.1,0.3-1.1,1.1v1.1h9.2v1.7h-9.2v1.1c0,0.3,0.1,0.6,0.3,0.8c0.2,0.2,0.4,0.3,0.8,0.3h8
			C64.1,24.4,64.2,26.2,64.2,26.2z"/>
		<path class="st13" d="M100.2,26.2h-1.7v-2.5H91v2.5h-1.7v-6.7c0-0.8,0.3-1.5,0.8-2c0.5-0.5,1.2-0.8,2-0.8h5.3c0.8,0,1.5,0.3,2,0.8
			c0.5,0.5,0.8,1.2,0.8,2L100.2,26.2L100.2,26.2z M98.6,22v-2.4c0-0.7-0.3-1.1-1.1-1.1h-5.3c-0.8,0-1.1,0.3-1.1,1.1V22H98.6L98.6,22
			z"/>
		<path class="st13" d="M114,18.4h-4.6v7.8h-1.7v-7.8h-4.5v-1.7H114C114,16.7,114,18.4,114,18.4z"/>
		<path class="st13" d="M134,23.4c0,0.9-0.3,1.5-0.8,2c-0.5,0.5-1.2,0.8-2,0.8h-5.3c-0.8,0-1.5-0.3-2-0.8s-0.8-1.2-0.8-2v-3.9
			c0-0.8,0.3-1.4,0.8-2c0.5-0.5,1.2-0.8,2-0.8h5.3c0.8,0,1.5,0.3,2,0.8c0.5,0.5,0.8,1.2,0.8,2C134,19.5,134,23.4,134,23.4z
			 M132.4,23.4v-3.9c0-0.3-0.1-0.6-0.3-0.8c-0.2-0.2-0.4-0.3-0.8-0.3h-5.3c-0.3,0-0.6,0.1-0.8,0.3c-0.2,0.2-0.3,0.4-0.3,0.8v3.9
			c0,0.7,0.3,1.1,1.1,1.1h5.3C131.9,24.5,132.4,24.2,132.4,23.4L132.4,23.4z"/>
		<path class="st13" d="M147.8,17.5c-0.5-0.5-1.2-0.8-2-0.8h-8.2v9.5h1.7v-7.8h6.6c0.3,0,0.6,0.1,0.8,0.3c0.2,0.2,0.3,0.4,0.3,0.8
			v6.7h1.7v-6.7C148.6,18.7,148.3,18.1,147.8,17.5L147.8,17.5z"/>
		<path class="st13" d="M39.8,12.4c0,0-0.3-0.4-0.3-0.5c-0.1-0.1-0.1,0-0.1,0s-0.3,0.2-0.3,0.3C39,12.2,39,12.3,39,12.4v0.3
			c0,0.1-0.1,0.2-0.1,0.2l-2.1,1.6l-0.3,0.1l-0.6,0.3v-0.4c0.1,0,0.1,0.1,0.2,0.1h0.2c0,0,0-0.1,0-0.2v-0.1c0,0,0.1,0.1,0.2,0.1
			c0.1,0,0.1,0,0.2-0.1l0.1-0.1c0,0-0.1-0.1-0.2-0.1c0,0-0.1-0.1,0-0.1c0.1,0,0.2-0.1,0.2-0.1s-0.1,0-0.1-0.1
			c-0.1-0.1-0.1-0.1-0.1-0.2v-0.1c0,0,0,0.1,0.1,0.1s0.2-0.1,0.2-0.1s-0.1,0-0.1-0.1c0-0.1-0.1-0.1-0.1-0.2s0-0.1-0.1-0.2V13
			c0-0.2-0.1-0.3-0.1-0.3c-0.3-0.3-0.8-0.4-0.8-0.4c-0.3-0.1-0.6,0.3-0.7,0.7c-0.2,0.6-0.2,1.2-0.2,1.2s0,0.1,0.1,0.2
			c0.1,0,0.3,0.1,0.3,0.1V15l-0.6,0.1c0,0-0.4-0.3-0.8-0.5l-1.7-1.2c0,0-0.1,0-0.1-0.2v-0.3c0-0.1,0-0.2-0.1-0.3
			c-0.1-0.1-0.3-0.3-0.3-0.3s-0.1-0.1-0.1,0c-0.1,0.1-0.3,0.5-0.3,0.5l0.1,0.4c0,0,0.1,0.1,0.1,0.2l0.1,0.1l0.6,0.5l1,0.9v0.4v0.1
			v0.3v0.1l0.6,0.4v0.1l0.1,3.2c0,0,0,0.1,0.1,0.1l0.2,0.1l0.4,3.5l0.8,2.4L34,26.2l-0.1,0.1l-0.1,0.2v0.1h1.8L35.5,27l-0.1,0.1
			c0,0-0.1,0.3,0,0.3s0.4,0.1,0.5,0c0.2,0,0.5,0,0.5-0.1c0.1-0.1,0.1-0.3-0.2-1.7l-0.2-5.5l0.4-3.5c0-0.3,0.1-0.4,0.1-0.4
			s0.5-0.3,0.5-0.4c0.1-0.1,0-0.1,0-0.1v-0.3v-0.1l0.4-0.3l0.1-0.1l1.2-1.2l0.3-0.3l0.1-0.1c0.1-0.1,0.1-0.2,0.1-0.2
			s0.1-0.3,0.1-0.3C39.8,12.5,39.8,12.4,39.8,12.4L39.8,12.4z"/>
		<path class="st13" d="M150.1,18c0.1-0.2,0.2-0.3,0.3-0.4c0.2-0.1,0.3-0.3,0.4-0.3c0.2-0.1,0.3-0.1,0.5-0.1c0.2,0,0.3,0,0.5,0.1
			c0.2,0.1,0.3,0.2,0.4,0.3c0.2,0.1,0.3,0.3,0.3,0.4c0.1,0.2,0.1,0.3,0.1,0.5s0,0.4-0.1,0.6c-0.1,0.2-0.2,0.3-0.3,0.4
			c-0.1,0.1-0.3,0.3-0.4,0.3c-0.2,0.1-0.3,0.1-0.5,0.1c-0.2,0-0.3,0-0.5-0.1c-0.2-0.1-0.3-0.2-0.4-0.3c-0.2-0.1-0.3-0.3-0.3-0.4
			c-0.1-0.2-0.1-0.3-0.1-0.6C150,18.3,150,18.1,150.1,18z M150.4,19c0.1,0.2,0.2,0.3,0.3,0.3c0.1,0.1,0.3,0.2,0.3,0.3
			c0.2,0.1,0.3,0.1,0.4,0.1c0.2,0,0.3,0,0.4-0.1c0.2-0.1,0.3-0.2,0.3-0.3c0.1-0.1,0.2-0.3,0.3-0.3c0.1-0.2,0.1-0.3,0.1-0.5
			s0-0.3-0.1-0.5c-0.1-0.2-0.2-0.3-0.3-0.3c-0.1-0.1-0.3-0.2-0.3-0.3c-0.2-0.1-0.3-0.1-0.4-0.1c-0.2,0-0.3,0-0.4,0.1
			c-0.2,0.1-0.3,0.2-0.3,0.3c-0.1,0.1-0.2,0.3-0.3,0.3c-0.1,0.2-0.1,0.3-0.1,0.5S150.3,18.8,150.4,19z"/>
		<path class="st13" d="M152.2,19.1v-0.3c0-0.1,0-0.2-0.1-0.3c0.1-0.1,0.1-0.2,0.1-0.3c0-0.1,0-0.2-0.1-0.3
			c-0.1-0.1-0.2-0.1-0.3-0.1h-1v1.2h0.3v-0.5h1V19 M151.9,18.3h-1v-0.3h1v0.1C151.9,18.1,151.9,18.3,151.9,18.3z"/>
		<path class="st12" d="M153.1,7.3H17.1c-2,0-3.6,1.7-3.6,3.6v28.2c0,2,1.6,3.6,3.6,3.6h135.9c2,0,3.6-1.7,3.6-3.6V10.9
			C156.6,8.9,155.1,7.3,153.1,7.3z M155.4,39.1c0,1.3-1,2.4-2.4,2.4H17.1c-1.3,0-2.4-1-2.4-2.4V10.9c0-1.3,1-2.4,2.4-2.4h135.9
			c1.3,0,2.4,1,2.4,2.4V39.1z"/>
		<path class="st14" d="M33.7,35.9h-0.5l-1.7-3.9v3.9h-0.5v-4.4h0.9l1.6,3.8l1.6-3.8h0.9v4.4h-0.5v-3.9
			C35.3,31.9,33.7,35.9,33.7,35.9z"/>
		<path class="st14" d="M39.2,33.4h2.2v0.4h-2.2v1.6h2.3v0.4h-2.8v-4.4h2.8v0.4h-2.3V33.4z"/>
		<path class="st14" d="M44.5,31.5h2.1c0.5,0,1.5,0.1,1.5,1.7v1c0,0.4-0.1,1.7-1.4,1.7h-2.2L44.5,31.5L44.5,31.5z M46.6,35.4
			c0.9,0,1-0.5,1-1.3V33c0-0.3-0.1-1-0.9-1H45v3.5H46.6z"/>
		<path class="st14" d="M51.6,35.9H51v-4.4h0.5V35.9z"/>
		<path class="st14" d="M55.1,34.9l-0.3,1h-0.5l1.6-4.4h0.8l1.7,4.4h-0.5l-0.3-1H55.1L55.1,34.9z M56.3,31.9l-1,2.6h1.9L56.3,31.9
			L56.3,31.9z"/>
		<path class="st14" d="M68.5,35.4c-0.3,0.5-1,0.5-1.7,0.5c-1,0-1.7,0-1.7-1.3c0-1,0.3-1,0.9-1.2c-0.3-0.3-0.4-0.3-0.4-0.9
			c0-0.9,0.4-1,1.3-1c0.8,0,1.2,0.2,1.2,1.1v0.3h-0.5v-0.3c0-0.5-0.1-0.7-0.7-0.7c-0.4,0-0.9,0-0.9,0.6c0,0.3,0.1,0.4,0.3,0.6
			l1.7,1.4v-0.3c0,0,0-0.2,0-0.3h0.4v0.3c0,0.2,0,0.4-0.1,0.6l0.8,0.6l-0.3,0.3L68.5,35.4L68.5,35.4z M66.4,33.6
			c-0.6,0.2-0.7,0.3-0.7,1c0,0.9,0.2,0.9,1.1,0.9c0.4,0,1.1,0,1.2-0.4L66.4,33.6z"/>
		<path class="st14" d="M76.3,32.7c0-1.1,0.5-1.2,1.6-1.2c1,0,1.6,0,1.6,1.2h-0.5c0-0.8-0.2-0.8-1-0.8c-1,0-1.1,0.1-1.1,0.7
			c0,0.8,0.4,0.8,1.2,0.8c1,0.1,1.6,0,1.6,1.2c0,1.2-0.6,1.3-1.7,1.3c-1.1,0-1.7-0.2-1.6-1.4h0.4c0,1,0.2,1,1.1,1s1.2,0,1.2-0.9
			c0-0.8-0.3-0.7-1.1-0.8C77,33.8,76.3,33.9,76.3,32.7z"/>
		<path class="st14" d="M82.3,31.5h2.2c0.9,0,1,0.5,1,1.3c0,0.3,0,1.3-1,1.3h-1.7v1.7h-0.5V31.5z M82.8,31.9v1.7h1.3
			c0.6,0,1,0,1-0.9s-0.2-1-0.8-1L82.8,31.9L82.8,31.9z"/>
		<path class="st14" d="M90.3,31.5c1,0,1.4,0.3,1.4,1.5v1.6c0,1-0.3,1.4-1.4,1.4h-0.5c-1,0-1.4-0.3-1.4-1.4V33c0-1,0.3-1.5,1.4-1.5
			H90.3z M89.8,31.9c-0.7,0-1,0.2-1,1v1.6c0,0.9,0.3,1,1,1h0.6c0.6,0,1-0.1,1-1V33c0-0.9-0.2-1-1-1H89.8z"/>
		<path class="st14" d="M98.5,35.9h-0.8l-2.4-3.9v3.9h-0.5v-4.4h0.8l2.4,3.9v-3.9h0.5V35.9z"/>
		<path class="st14" d="M101.4,32.7c0-1.1,0.5-1.2,1.6-1.2c1,0,1.6,0,1.6,1.2h-0.5c0-0.8-0.2-0.8-1-0.8c-1,0-1.1,0.1-1.1,0.7
			c0,0.8,0.4,0.8,1.2,0.8c1,0.1,1.6,0,1.6,1.2c0,1.2-0.6,1.3-1.7,1.3c-1.1,0-1.7-0.2-1.6-1.4h0.5c0,1,0.2,1,1.1,1c1,0,1.2,0,1.2-0.9
			c0-0.8-0.3-0.7-1.1-0.8C102.1,33.8,101.4,33.9,101.4,32.7z"/>
		<path class="st14" d="M109.4,31.5c1,0,1.4,0.3,1.4,1.5v1.6c0,1-0.3,1.4-1.4,1.4h-0.6c-1,0-1.4-0.3-1.4-1.4V33c0-1,0.3-1.5,1.4-1.5
			H109.4z M108.8,31.9c-0.7,0-1,0.2-1,1v1.6c0,0.9,0.3,1,1,1h0.6c0.6,0,1-0.1,1-1V33c0-0.9-0.2-1-1-1H108.8z"/>
		<path class="st14" d="M114.2,35.9h-0.5v-4.4h2c1,0,1.3,0.3,1.3,1.2c0,0.6-0.1,1-0.8,1.1c0.5,0,0.7,0.3,0.7,0.8v1.1h-0.5v-1
			c0-0.5-0.2-0.8-0.7-0.8h-1.6L114.2,35.9L114.2,35.9z M115.8,33.7c0.8,0,0.9-0.3,0.9-1c0-0.5-0.1-0.8-0.9-0.8h-1.5v1.7H115.8z"/>
		<path class="st14" d="M120,32.7c0-1.1,0.5-1.2,1.6-1.2c1,0,1.6,0,1.6,1.2h-0.5c0-0.8-0.2-0.8-1-0.8c-1,0-1.1,0.1-1.1,0.7
			c0,0.8,0.4,0.8,1.2,0.8c1,0.1,1.6,0,1.6,1.2c0,1.2-0.6,1.3-1.7,1.3c-1.1,0-1.7-0.2-1.6-1.4h0.5c0,1,0.2,1,1.1,1s1.2,0,1.2-0.9
			c0-0.8-0.3-0.7-1.1-0.8C120.7,33.8,120,33.9,120,32.7z"/>
		<path class="st14" d="M129.6,35.9h-0.4v-2h-2.5v2h-0.5v-4.4h0.5v1.9h2.5v-1.9h0.5L129.6,35.9L129.6,35.9z"/>
		<path class="st14" d="M133.2,35.9h-0.5v-4.4h0.5V35.9z"/>
		<path class="st14" d="M136.3,31.5h2.2c0.9,0,1,0.5,1,1.3c0,0.3,0,1.3-1,1.3h-1.7v1.7h-0.5V31.5z M136.8,31.9v1.7h1.3
			c0.6,0,1,0,1-0.9s-0.2-1-0.8-1L136.8,31.9L136.8,31.9z"/>
	</g>
	<g id="UW" class="st0">
		<polygon class="st15" points="135.9,46.4 94.5,46.4 94.5,3.5 135.9,3.5 		"/>
		<path class="st16" d="M132.2,24.6c0,9.3-7.6,17.1-17.1,17.1c-9.3,0-17.1-7.6-17.1-17.1c0-9.3,7.6-17.1,17.1-17.1
			C124.7,7.4,132.2,15.3,132.2,24.6L132.2,24.6z"/>
		<path class="st17" d="M106.3,28c0.2,0,0.5-0.2,0.7-0.2s0.2-0.2,0-0.2c-0.2-0.7-0.5-1.7-0.5-2.7c0-4.7,3.7-8.3,8.3-8.3
			c4.7,0,8.3,3.7,8.3,8.3c0,1.2-0.2,2.2-0.7,3.4v0.2c0.2,0,0.7,0.2,0.7,0.2c0.2,0,0.2,0,0.2-0.2c0.5-1.2,0.7-2.4,0.7-3.9
			c0-5.4-4.4-9.8-9.6-9.8c-5.4,0-9.8,4.4-9.8,9.8c0,1,0.2,2.2,0.5,3.2C106,28,106,28,106.3,28L106.3,28z"/>
		<path class="st17" d="M103.8,29c0.2,0,1-0.5,1-0.5c0.2,0,0.2-0.2,0-0.2c-0.5-1.2-0.7-2.4-0.7-3.7c0-5.9,4.9-10.8,10.8-10.8
			s10.8,4.9,10.8,10.8c0,1.5-0.2,2.9-1,4.2V29c0.2,0,1,0.5,1,0.5c0.2,0,0.2,0,0.2-0.2c0.7-1.5,1-3.2,1-4.9c0-6.9-5.6-12.5-12.5-12.5
			c-6.9,0-12.5,5.6-12.5,12.5c0,1.5,0.2,2.9,0.7,4.2C103.6,29,103.6,29.2,103.8,29L103.8,29z"/>
		<path class="st17" d="M100.4,30.7c0.2,0,1.7-0.7,2-1c0.2,0,0.2-0.2,0-0.5c-0.5-1.5-0.7-2.9-0.7-4.7c0-7.3,6.1-13.5,13.5-13.5
			s13.5,6.1,13.5,13.5c0,2-0.5,3.7-1,5.4c0,0,0,0.2,0.2,0.5c0.2,0,1.7,0.7,2,0.7s0.2,0,0.5-0.2c0.7-2,1.2-4.2,1.2-6.4
			c0-8.8-7.1-16.2-16.2-16.2c-8.8,0-16.2,7.3-16.2,16.2c0,2,0.5,3.9,1,5.9C100.2,30.5,100.2,30.7,100.4,30.7L100.4,30.7z"/>
		<path class="st18" d="M115.1,21.2c1,0,1.7-0.7,1.7-1.7c0-1-0.7-1.7-1.7-1.7c-1,0-1.7,0.7-1.7,1.7
			C113.4,20.4,114.1,21.2,115.1,21.2L115.1,21.2z"/>
		<path class="st18" d="M115.8,30.2c0.2,0,0.5-0.2,0.5-0.5v-3.7c0-0.5,0.2-1,0.7-1.5l3.7-3.7c0.2-0.2,0.2-0.7,0-1l-0.7-0.7
			c-0.2-0.2-0.7-0.2-1,0l-3.2,3.2c-0.2,0.2-0.2,0.2-0.7,0.2c-0.5,0-0.5-0.2-0.7-0.2l-3.2-3.2c-0.2-0.2-0.7-0.2-1,0l-0.7,0.7
			c-0.2,0.2-0.2,0.7,0,1l3.7,3.7c0.2,0.2,0.7,1,0.7,1.5v3.7c0,0.2,0.2,0.5,0.5,0.5H115.8L115.8,30.2z"/>
		<path class="st19" d="M127.1,31.4c-0.5,0.2-1.7,1.2-2.2,1.7h-0.2c0.2-0.2,1-1.2,1.2-1.5c0.7-1-0.5-2-1.7-1.2
			c-0.5,0.2-1.2,1.2-1.7,1.5h-0.2c0.2-0.2,1-1.2,1-1.5c0.5-0.7-0.7-1.7-1.7-1c-0.7,0.5-1.2,1-2,1.5l0,0c0.2-0.2,0.5-0.7,0.7-0.7
			c0.5-0.7-0.2-1.5-1.2-1c-0.7,0.5-2.2,1.7-3.4,2.4c0.7,0.2,1.7,0.5,3.4,1.2c1.7,0.7,2.2,2.4,1.2,3.9c-1,1.2-2.7,0.7-4.2,0.5
			c-1.7-0.5-2.2-1-4.2-1.7c-1.2-0.5-1.7-0.5-1.7-0.7c0-0.5,1.2-0.2,2.2,0.2c2.9,1,6.6,3.4,7.6,0.7c0.7-2-2.4-2.9-3.7-3.2
			c-1.7-0.2-2.9-1.7-4.4-2.4c-2.2-1.2-3.9-1.2-5.4-1c-1.5,0.2-3.4,1.5-4.7,2.2c-0.7,0.5-0.7,1.2,0,2.4c2.9,4.2,7.8,6.9,13.2,6.9
			c5.9,0,10.8-2.9,13.7-7.6C129.6,32.2,128.6,31,127.1,31.4L127.1,31.4z"/>
		<polygon class="st19" points="94.5,46.4 34.3,46.4 34.3,3.5 94.5,3.5 		"/>
		<path class="st16" d="M130,42v1.7h-0.2V42h-0.7v-0.2h1.5V42H130L130,42z M133,43.7v-1.5l0,0l-0.5,1.5h-0.2l-0.7-1.5l0,0v1.5h-0.2
			v-2h0.5l0.5,1.5l0.5-1.5h0.5v2L133,43.7L133,43.7z"/>
		<path class="st16" d="M80.8,42.7c0,0.5,1.7,1,2.4,1c1,0,2-0.2,2.7-2c0.7-1.7,3.4-11,3.4-11h0.2c0.5,0,0.7-0.5,0.7-1.5
			c0-0.2,0-0.2-0.2-0.2h-2.2c-0.2,0-0.2,0-0.2,0.2l-2,7.1l-2-7.1c0-0.2,0-0.2-0.2-0.2h-2.2c-0.2,0-0.2,0-0.2,0.2
			c0,1,0.2,1.2,0.7,1.5H82c0,0,1.7,6.4,2.7,8.8L84.5,40c-0.2,1-0.7,1.5-1.7,1.5c-0.2,0-1.2-0.2-1.2-0.2c-0.7,0-0.7,0.2-1,0.5
			C81.1,42.2,80.8,42.5,80.8,42.7L80.8,42.7z"/>
		<path class="st16" d="M73.2,25.6h-2.7c-0.2,0-0.2,0-0.2,0.2l-1.5,9.3l-1.7-9.3c0-0.2,0-0.2-0.5-0.2h-1.2c-0.5,0-0.5,0-0.5,0.2
			l-2,9.3l-1.5-9.3c0-0.2,0-0.2-0.2-0.2h-2.7c-0.2,0-0.2,0-0.2,0.5c0,1,0.2,1.5,1,1.5h0.2L61.7,39c0,0.2,0,0.2,0.2,0.2h1.7
			c0.2,0,0.2,0,0.2-0.2l1.7-8.8l1.5,8.8c0,0.2,0,0.2,0.2,0.2h2c0.2,0,0.2,0,0.2-0.2L72,27.5h0.2c0.7,0,1-0.5,1-1.5
			C73.7,25.6,73.5,25.6,73.2,25.6L73.2,25.6z"/>
		<path class="st16" d="M77.9,36.8c-0.2,0.2-0.7,0.7-1.5,0.7c-0.7,0-1.2-0.7-1.2-1.5c0-2,2.2-1.7,2.9-1.7v2.4H77.9z M80.3,37.3
			c0-0.5-0.2-1-0.2-1.7v-3.7c0-2.2-1-3.2-3.2-3.2c-1.5,0-3.2,0.7-3.2,1c0,0,0,0.5,0.2,0.7c0,0.2,0.2,0.5,0.7,0.5
			c0.2,0,1.5-0.2,2-0.2c1.2,0,1.5,0.7,1.5,1.7v0.7c-1.5,0-4.9,0-4.9,3.4c0,2,1,3.2,2.7,3.2c1.2,0,2-0.7,2.4-1.2l0.2-0.2v0.2
			c0,0.5,0.2,0.7,0.5,0.7h2.2c0.2,0,0.2,0,0.2-0.2C81.3,37.8,81.1,37.3,80.3,37.3L80.3,37.3z"/>
		<path class="st16" d="M64.2,20.4L64.2,20.4l-0.2-8.1c0-0.2,0-0.2-0.2-0.2h-3.2c-0.2,0-0.2,0-0.2,0.2c0,1.2,0.2,1.5,1.2,1.5h0.2
			v6.6h-0.2c-1,0-1.2,0.2-1.2,1.5c0,0.2,0,0.2,0.2,0.2h4.7c0.2,0,0.2,0,0.2-0.2C65.4,20.9,65.1,20.4,64.2,20.4L64.2,20.4z"/>
		<path class="st16" d="M62.7,8.2c-0.7,0-1.5,0.7-1.5,1.5c0,0.7,0.5,1.5,1.5,1.5c0.7,0,1.2-0.7,1.2-1.5C64.2,8.9,63.4,8.2,62.7,8.2
			L62.7,8.2z"/>
		<path class="st16" d="M47.5,10.9L47.5,10.9c1,0,1.2-0.2,1.2-1.5c0-0.2,0-0.2-0.2-0.2h-4.4c-0.2,0-0.2,0-0.2,0.2v0.2
			c0,1.2,0.2,1.5,1.2,1.5l0,0v6.6c0,1.2,0,2.9-2,2.9c-2,0-2-1.5-2-2.9v-6.6l0,0c1,0,1.2-0.2,1.2-1.5V9.4c0,0,0-0.2-0.2-0.2h-4.4
			c-0.2,0-0.2,0-0.2,0.2c0,1.2,0.2,1.5,1.2,1.5l0,0v6.6c0,3.7,1.2,5.1,4.4,5.1s4.4-1.5,4.4-5.1L47.5,10.9L47.5,10.9z"/>
		<path class="st16" d="M57.8,20.4V15c0-2.2-0.7-3.2-2.4-3.2c-1.5,0-2.2,0.7-2.9,1.5c0-0.2,0-0.5,0-0.5c0-0.5-0.2-0.7-0.5-0.7h-2.4
			c-0.2,0-0.2,0-0.2,0.2c0,1,0.2,1.5,1.2,1.5c0.2,0.5,0.2,0.7,0.2,2v4.7c-1,0-1.2,0.2-1.2,1.5c0,0.2,0,0.2,0.2,0.2h2.9
			c0.2,0,0.2,0,0.2-0.2v-7.3c0.2-0.2,1-1,1.7-1c1.2,0,1.2,1.2,1.2,1.7v6.4c0,0.2,0,0.2,0.2,0.2H59c0.2,0,0.2,0,0.2-0.2
			C59,20.9,58.8,20.4,57.8,20.4L57.8,20.4z"/>
		<path class="st16" d="M69.6,22.6c1.2,0,2.4-0.2,2.4-0.7c0,0,0-0.5-0.2-0.7c-0.2-0.7-0.2-1-1.7-1c-0.2,0-0.2,0-0.5-0.2
			c-0.2-0.2-0.2-1-0.2-1.5v-5.1h1.2c1,0,1.2-0.2,1.2-1.5c0-0.2,0-0.2-0.2-0.2h-2.2V8.7c0-0.2,0-0.2-0.2-0.2c0,0-0.5,0-0.7,0
			c-0.7,0-1.2,0.5-1.2,1.7v2h-1.2c-0.2,0-0.2,0-0.2,0.2c0,1.2,0.2,1.5,1.2,1.5h0.2v4.7C67.3,20.7,67.3,22.6,69.6,22.6L69.6,22.6z"/>
		<path class="st16" d="M75.2,16L75.2,16c0-1,0.2-2.4,1.7-2.4s1.5,1.7,1.5,2.4H75.2L75.2,16z M80.6,17.5c0-3.7-1.2-5.6-3.7-5.6
			S73,14.1,73,17.5c0,4.4,2.2,5.4,4.2,5.4c1.5,0,3.2-0.7,3.2-1.2c0,0,0-0.5-0.2-0.7c0-0.2-0.2-0.5-0.7-0.5c-0.5,0-1.2,0.2-2,0.2
			c-1.5,0-2.2-1-2.2-2.7h4.9C80.6,17.7,80.6,17.7,80.6,17.5L80.6,17.5z"/>
		<path class="st16" d="M85.5,20.7c-1.5,0-1.7-1.2-1.7-3.4s0.2-3.4,1.7-3.4c0.5,0,1,0.2,1.5,0.5v5.9C86.9,20.2,86.5,20.7,85.5,20.7
			L85.5,20.7z M89.6,20.4c-0.2-0.5-0.2-0.7-0.2-1.7v-10c0-0.2,0-0.2-0.2-0.2h-2.9c-0.2,0-0.2,0-0.2,0.2c0,1,0.2,1.5,1.2,1.5l0,0v2.4
			l-0.2-0.2c-0.2-0.2-0.7-0.5-1.7-0.5c-2.2,0-3.4,2-3.4,5.9c0,3.2,1.2,4.9,3.2,4.9c1.7,0,2.7-1.2,2.7-1.2l0.2,0.5
			c0,0.2,0,0.5,0.5,0.5h2.7c0.2,0,0.2,0,0.2-0.2C90.9,20.9,90.6,20.4,89.6,20.4L89.6,20.4z"/>
	</g>
	<g id="AC" class="st0">
		<g class="st1">
			<g>
				<path class="st3" d="M67.6,37.1c-1.8,0-5.2-1-5.2-11.8s3.4-11.7,5.2-11.7c0.9,0,1.4,0.2,1.4,0.2v1.3c-0.3-0.1-0.5-0.2-0.9-0.2
					c-1.6,0-3.9,1.4-3.9,10.3c0,9.1,2.4,10.4,4,10.4c0.3,0,0.5,0,0.8-0.1v1.3C69.1,36.9,68.5,37.1,67.6,37.1z"/>
				<path class="st3" d="M76.7,28.2c0.7,0.9,1.5,2,2.1,3.5c0.7,1.9,1.1,3.8,1.1,5.4h-1.8c0-1.5-0.3-3.3-0.8-4.6
					c-0.6-1.5-1.4-2.8-2-3.5V37h-1.8V13.8h1.4c2.5,0,5.3,1.2,5.3,6.7C80.2,25.1,77.8,27.3,76.7,28.2z M75.3,15.2v12.2
					c0.6-0.2,2.9-2,2.9-6.7C78.3,16,76.6,15.2,75.3,15.2z"/>
				<path class="st3" d="M84.9,36.9v-8h-0.7v-1.4h0.7V13.8h5.9v1.4h-4v12.3h3.1v1.4h-3.1v6.7h4V37L84.9,36.9L84.9,36.9z"/>
				<path class="st3" d="M103.9,36.9h-1l-2.3-15l-2.3,15h-1l-3.6-23.2h1.8l2.3,15.8l2.3-15.8h0.9l2.3,15.8l2.3-15.8h1.6L103.9,36.9z
					"/>
			</g>
			<g>
				<path class="st3" d="M107.7,36.1c0.1,0.1,0.2,0.3,0.2,0.5s-0.1,0.4-0.2,0.5c-0.1,0.1-0.3,0.2-0.5,0.2c-0.2,0-0.4-0.1-0.5-0.2
					c-0.1-0.1-0.2-0.3-0.2-0.5s0.1-0.4,0.2-0.5c0.1-0.1,0.3-0.2,0.5-0.2C107.4,35.8,107.6,35.8,107.7,36.1z M107.6,36.1
					c-0.1-0.1-0.3-0.2-0.5-0.2c-0.2,0-0.3,0.1-0.5,0.2s-0.2,0.3-0.2,0.5c0,0.1,0.1,0.3,0.2,0.5s0.3,0.2,0.5,0.2
					c0.2,0,0.3-0.1,0.5-0.2c0.1-0.1,0.2-0.3,0.2-0.5C107.8,36.4,107.8,36.2,107.6,36.1z M107.5,36.3c0,0.1-0.1,0.2-0.2,0.2l0.2,0.4
					h-0.1l-0.2-0.4h-0.2v0.4h-0.1v-0.9h0.3C107.4,36.1,107.5,36.2,107.5,36.3z M107,36.2v0.3h0.1c0.1,0,0.3,0,0.3-0.1
					s-0.1-0.1-0.3-0.1H107z"/>
			</g>
			<g>
				<path class="st3" d="M63.7,4.7L63.5,4H63l-0.1,0.7h-0.5L63,0.3h0.5l0.6,4.4H63.7z M63.3,1.6L63,3.5h0.5L63.3,1.6z"/>
				<path class="st3" d="M70.4,4.7V2.4l-0.4,1.2h-0.3l-0.3-1.2v2.3h-0.5V0.3h0.3l0.8,2.2l0.8-2.2H71v4.4H70.4z"/>
				<path class="st3" d="M75.7,4.7V3.3h-0.2V2.8h0.2V0.3h1.4v0.5h-0.8v2H77v0.5h-0.6v1h0.8v0.5H75.7z"/>
				<path class="st3" d="M82.8,3c0.1,0.1,0.3,0.4,0.4,0.7c0.1,0.3,0.2,0.7,0.2,1h-0.6c0-0.3,0-0.5-0.1-0.7s-0.3-0.5-0.3-0.6v1.4
					h-0.6V0.3h0.5c0.6,0,1.2,0.3,1.2,1.3C83.4,2.5,83,2.9,82.8,3z M82.3,0.8v1.9c0.1,0,0.5-0.3,0.5-1.1C82.8,1,82.5,0.8,82.3,0.8z"
					/>
				<path class="st3" d="M88,4.7V0.3h0.6v4.4H88z"/>
				<path class="st3" d="M94.4,4.7c-0.5,0-1.2-0.2-1.2-2.2s0.7-2.2,1.2-2.2c0.1,0,0.3,0,0.3,0v0.5c-0.1,0-0.1,0-0.2,0
					c-0.3,0-0.7,0.2-0.7,1.7s0.4,1.7,0.7,1.7c0.1,0,0.1,0,0.2,0v0.5C94.7,4.6,94.6,4.7,94.4,4.7z"/>
				<path class="st3" d="M100.5,4.7L100.4,4h-0.6l-0.1,0.7h-0.5l0.7-4.4h0.5l0.6,4.4H100.5z M100.1,1.6l-0.3,1.8h0.5L100.1,1.6z"/>
				<path class="st3" d="M107.1,4.7l-1-2.5v2.5h-0.5V0.3h0.3l1,2.5V0.3h0.6v4.4H107.1z"/>
			</g>
			<g>
				<path class="st3" d="M64.8,46.5c-0.3-0.3-0.6-0.4-1-0.4s-0.7,0.1-1,0.3c-0.3,0.3-0.5,0.7-0.5,1.2c0,0.4,0.1,0.8,0.4,1.1
					c0.3,0.3,0.6,0.4,1,0.4c0.9,0,1.4-0.6,1.4-1.5C65.2,47.1,65.1,46.8,64.8,46.5z M63.8,46.4c0.3,0,0.5,0.1,0.7,0.3
					c0.1,0.2,0.3,0.5,0.3,0.8c0,0.3,0,0.7-0.3,1c-0.1,0.1-0.4,0.3-0.7,0.3c-0.3,0-0.6-0.1-0.7-0.4c-0.1-0.2-0.3-0.5-0.3-0.8
					s0.1-0.6,0.3-0.8C63.2,46.5,63.5,46.4,63.8,46.4z"/>
				<path class="st3" d="M66.7,46.2L66.7,46.2c-0.1,0-0.1,0-0.3,0c-0.5,0-0.5,0.4-0.5,0.5v0.4h-0.3v0.2h0.3V49h0.3v-1.6h0.3v-0.3
					h-0.3v-0.3c0-0.1,0-0.3,0.3-0.3c0,0,0.1,0,0.2,0l0,0L66.7,46.2L66.7,46.2z"/>
				<path class="st3" d="M68,46.2L68,46.2c-0.1,0-0.1,0-0.3,0c-0.5,0-0.5,0.4-0.5,0.5v0.4h-0.3v0.2h0.3V49h0.3v-1.6h0.3v-0.3h-0.3
					v-0.3c0-0.1,0-0.3,0.3-0.3c0,0,0.1,0,0.2,0l0,0L68,46.2L68,46.2z"/>
				<g>
					<rect x="68.4" y="47.1" class="st3" width="0.3" height="1.9"/>
					<rect x="68.4" y="46.1" class="st3" width="0.3" height="0.4"/>
				</g>
				<path class="st3" d="M70.8,48.3L70.8,48.3c0,0.1-0.1,0.5-0.5,0.5c-0.2,0-0.3-0.1-0.5-0.3c-0.1-0.1-0.1-0.3-0.1-0.5
					s0.1-0.7,0.5-0.7c0.4,0,0.5,0.3,0.5,0.4l0,0H71l0,0l0,0c-0.1-0.5-0.7-0.6-0.9-0.6c-0.3,0-0.5,0.1-0.7,0.3
					c-0.1,0.2-0.2,0.4-0.2,0.7c0,0.3,0.1,0.5,0.2,0.7c0.1,0.2,0.4,0.3,0.7,0.3c0.4,0,0.6-0.1,0.7-0.4c0.1-0.1,0.1-0.3,0.1-0.3l0,0
					L70.8,48.3z"/>
				<g>
					<rect x="71.6" y="47.1" class="st3" width="0.3" height="1.9"/>
					<rect x="71.6" y="46.1" class="st3" width="0.3" height="0.4"/>
				</g>
				<path class="st3" d="M74.2,48.7c0,0-0.1,0-0.1,0c-0.1,0-0.1-0.1-0.1-0.3v-0.6c0-0.3,0-0.5-0.2-0.6C73.6,47,73.3,47,73.2,47
					c-0.3,0-0.5,0.1-0.7,0.3c-0.1,0.1-0.1,0.2-0.1,0.3l0,0h0.3l0,0l0,0c0-0.1,0-0.4,0.4-0.4c0.4,0,0.4,0.3,0.4,0.5v0.1h-0.3
					c-0.6,0.1-0.7,0.2-0.9,0.3c-0.1,0.1-0.1,0.2-0.1,0.3c0,0.3,0.3,0.5,0.6,0.5s0.5-0.2,0.6-0.3c0,0.2,0.1,0.3,0.3,0.3
					c0.1,0,0.1,0,0.1,0l0,0l0,0L74.2,48.7L74.2,48.7z M73.1,48.7c-0.3,0-0.3-0.1-0.3-0.3s0.1-0.3,0.4-0.3c0.1,0,0.3-0.1,0.4-0.1
					c0,0,0,0,0.1,0c0,0.3,0,0.3-0.1,0.4C73.6,48.7,73.3,48.7,73.1,48.7z"/>
				<rect x="74.7" y="46.1" class="st3" width="0.3" height="2.9"/>
				<path class="st3" d="M79,47.4c-0.1-0.1-0.2-0.1-0.3-0.1h-0.1l-0.3-0.1c-0.3-0.1-0.5-0.1-0.5-0.4c0-0.2,0.1-0.4,0.6-0.4
					c0.2,0,0.4,0.1,0.5,0.1c0.2,0.1,0.2,0.4,0.2,0.5l0,0h0.4l0,0c0-0.1-0.1-0.5-0.4-0.7c-0.3-0.2-0.5-0.2-0.7-0.2
					c-0.1,0-0.5,0-0.7,0.3c-0.1,0.1-0.3,0.3-0.3,0.5c0,0.6,0.6,0.7,1,0.8l0.3,0.1c0.3,0.1,0.5,0.1,0.5,0.5c0,0.3-0.3,0.5-0.7,0.5
					c-0.3,0-0.4-0.1-0.5-0.2c-0.2-0.2-0.2-0.4-0.2-0.5l0,0L77.2,48l0,0l0,0c0,0.4,0.2,0.7,0.5,0.8c0.2,0.1,0.4,0.1,0.7,0.1
					c0.3,0,0.5-0.1,0.7-0.2c0.3-0.1,0.4-0.4,0.4-0.7C79.5,48,79.4,47.6,79,47.4z"/>
				<path class="st3" d="M81.3,47.1v1c0,0.2,0,0.4-0.1,0.5c-0.1,0.1-0.3,0.2-0.4,0.2s-0.3,0-0.4-0.3c0-0.1,0-0.1,0-0.3v-1.1H80v1.1
					c0,0.3,0,0.5,0.1,0.6c0.1,0.1,0.2,0.2,0.5,0.2c0.4,0,0.5-0.2,0.6-0.3v0.3h0.3V47L81.3,47.1L81.3,47.1z"/>
				<path class="st3" d="M83.8,47.2c-0.1-0.1-0.4-0.3-0.6-0.3c-0.1,0-0.4,0.1-0.5,0.1c-0.1,0.1-0.1,0.1-0.1,0.1l0,0V47h-0.3v2.8h0.3
					v-1.1c0.1,0.2,0.4,0.3,0.6,0.3c0.5,0,0.9-0.4,0.9-1C84.1,47.7,84,47.4,83.8,47.2z M83.8,48c0,0.4-0.2,0.6-0.3,0.6
					c-0.1,0.1-0.2,0.1-0.3,0.1c-0.4,0-0.6-0.3-0.6-0.7s0.2-0.7,0.5-0.7l0,0C83.6,47.4,83.8,47.6,83.8,48z"/>
				<path class="st3" d="M86.2,47.2c-0.1-0.1-0.4-0.3-0.6-0.3c-0.1,0-0.4,0.1-0.5,0.1c-0.1,0.1-0.1,0.1-0.1,0.1l0,0V47h-0.3v2.8h0.3
					v-1.1c0.1,0.2,0.4,0.3,0.6,0.3c0.5,0,0.9-0.4,0.9-1C86.5,47.7,86.4,47.4,86.2,47.2z M86.2,48c0,0.4-0.2,0.6-0.3,0.6
					c-0.1,0.1-0.2,0.1-0.3,0.1c-0.4,0-0.6-0.3-0.6-0.7s0.2-0.7,0.5-0.7l0,0C86,47.4,86.2,47.6,86.2,48z"/>
				<rect x="87" y="46.1" class="st3" width="0.3" height="2.9"/>
				<g>
					<rect x="88" y="47.1" class="st3" width="0.3" height="1.9"/>
					<rect x="88" y="46.1" class="st3" width="0.3" height="0.4"/>
				</g>
				<path class="st3" d="M90.3,48.3L90.3,48.3L90.3,48.3c-0.1,0.4-0.3,0.4-0.5,0.4s-0.3-0.1-0.4-0.1c-0.1-0.1-0.2-0.3-0.2-0.5h1.4
					l0,0c0-0.1,0-0.2,0-0.4C90.5,47.2,90,47,89.8,47c-0.2,0-0.5,0.1-0.6,0.2c-0.2,0.2-0.3,0.4-0.3,0.7c0,0.6,0.3,1,1,1
					c0.4,0,0.7-0.2,0.9-0.6l0,0H90.3z M89.2,47.8c0-0.3,0.3-0.5,0.5-0.5c0.5,0,0.5,0.5,0.5,0.5H89.2z"/>
				<path class="st3" d="M92.2,47c-0.1,0-0.5,0-0.6,0.3V47h-0.3v1.9h0.3V48c0-0.1,0-0.3,0.1-0.5c0.1-0.1,0.3-0.2,0.4-0.2
					c0.1,0,0.1,0,0.1,0l0,0L92.2,47L92.2,47z"/>
				<path class="st3" d="M95,47.4v-0.3h-0.3v-0.6h-0.3v0.6h-0.3v0.3h0.3v1.2c0,0.1,0,0.3,0.1,0.3c0.1,0.1,0.1,0.1,0.3,0.1
					c0.1,0,0.2,0,0.3,0l0,0l0,0v-0.3l0,0c-0.1,0-0.1,0.1-0.2,0.1c-0.1,0-0.1-0.1-0.1-0.3v-1.1H95L95,47.4z"/>
				<path class="st3" d="M96.9,47.2c-0.1-0.1-0.4-0.3-0.6-0.3c-0.3,0-0.6,0.1-0.7,0.3c-0.1,0.2-0.2,0.4-0.2,0.7c0,0.5,0.3,1,1,1
					c0.5,0,0.9-0.4,1-1C97.2,47.7,97.1,47.4,96.9,47.2z M96.8,48c0,0.6-0.3,0.7-0.5,0.7c-0.3,0-0.5-0.3-0.5-0.7
					c0-0.6,0.4-0.7,0.6-0.7c0.1,0,0.5,0.1,0.5,0.5C96.8,47.8,96.8,47.9,96.8,48z"/>
				<polygon class="st3" points="101.6,46.1 100.7,48.5 99.9,46.1 99.9,46.1 99.4,46.1 99.4,49 99.8,49 99.7,46.7 100.6,49 
					100.6,49 100.9,49 101.8,46.6 101.7,49 101.7,49 102.1,49 102.1,46.1 				"/>
				<path class="st3" d="M104.1,48.3L104.1,48.3L104.1,48.3c-0.1,0.4-0.3,0.4-0.5,0.4s-0.3-0.1-0.4-0.1c-0.1-0.1-0.2-0.3-0.2-0.5
					h1.4l0,0c0-0.1,0-0.2,0-0.4c-0.1-0.5-0.5-0.7-0.8-0.7c-0.2,0-0.5,0.1-0.6,0.2c-0.2,0.2-0.3,0.4-0.3,0.7c0,0.6,0.3,1,1,1
					c0.4,0,0.7-0.2,0.9-0.6l0,0H104.1z M103.1,47.8c0-0.3,0.3-0.5,0.5-0.5c0.5,0,0.5,0.5,0.5,0.5H103.1z"/>
				<path class="st3" d="M106.5,47.4c-0.1-0.3-0.4-0.4-0.6-0.4c-0.1,0-0.4,0-0.6,0.3v-0.3H105V49h0.3v-1.1c0-0.1,0-0.3,0.1-0.4
					c0.1-0.1,0.2-0.1,0.3-0.1c0.1,0,0.3,0.1,0.4,0.3c0,0.1,0,0.1,0,0.3v1.1h0.3v-1.2C106.6,47.7,106.6,47.6,106.5,47.4z"/>
				<g>
					<polygon class="st3" points="106.4,46.2 106.6,46.2 106.6,46.7 106.7,46.7 106.7,46.2 106.9,46.2 106.9,46.1 106.4,46.1 					
						"/>
					<polygon class="st3" points="107.3,46.1 107.1,46.5 107,46.1 107,46.1 106.9,46.1 106.9,46.7 107,46.7 107,46.3 107,46.3 
						107.1,46.7 107.1,46.7 107.2,46.7 107.4,46.3 107.4,46.3 107.4,46.3 107.4,46.7 107.4,46.7 107.4,46.7 107.4,46.1 					"/>
				</g>
			</g>
			<rect x="62.3" y="9.2" class="st3" width="45" height="0.1"/>
			<rect x="62.3" y="41.5" class="st3" width="45" height="0.1"/>
		</g>
	</g>
</g>
<g id="Layer_2">
	<g class="st0">
		<g class="st1">
			<path class="st20" d="M64.2,27.6c-0.3,1.6-0.6,3.2-0.8,4.7c-0.1,0.5-0.2,0.6-0.7,0.6c-1,0-2,0-3.1,0c0.8-4.5,1.7-8.9,2.5-13.3
				c0.3-1.4,0.5-2.7,0.6-4.1c0.1-0.6,0.2-0.6,0.6-0.6c0.7,0,1.5,0,2.2,0c0.4,0,0.6,0.1,0.5,0.5s-0.1,0.8-0.2,1.5
				c0.5-0.6,0.8-0.9,1.3-1.3c2.6-1.9,5.7-0.7,6.1,2.3c0.1,0.6,0.1,1.1,0.1,1.7c-0.1,2.4-0.8,4.5-2.5,6.3
				C69.1,28,66.6,28.5,64.2,27.6z M69.6,19.7c-0.1-0.8-0.1-1.6-1-1.9c-0.6-0.3-1.4,0.1-2,0.8c-0.5,0.6-0.7,1.1-0.9,1.8
				c-0.4,1.3-0.6,2.7-0.8,4.1c-0.1,0.4,0.2,0.5,0.4,0.6c0.9,0.5,2,0.2,2.9-0.8C69,22.9,69.5,21.4,69.6,19.7z"/>
			<path class="st20" d="M41,16.3c0.8-0.7,1.7-1.4,2.9-1.6c2.2-0.4,3.6,0.8,3.7,3.1c0,1.8-0.5,3.4-0.7,5.1c-0.3,1.5-0.6,2.9-0.8,4.4
				c-0.1,0.5-0.2,0.6-0.6,0.6c-0.8,0-1.8,0-2.6,0c-0.4,0-0.5-0.1-0.4-0.5c0.5-2.3,0.8-4.6,1.3-6.9c0.1-0.6,0.2-1.1,0.1-1.7
				c-0.1-1-0.9-1.5-1.9-0.9c-0.6,0.4-1,0.9-1.4,1.7c-0.7,1.4-0.8,3-1.1,4.5c-0.3,1.2-0.5,2.3-0.6,3.5c-0.1,0.4-0.2,0.5-0.6,0.5
				c-0.9,0-1.8,0-2.7,0c-0.5,0-0.5-0.2-0.5-0.6c0.6-3.5,1.4-7.1,2-10.7c0.4-2.1,0.8-4.3,1.2-6.4c0.1-0.5,0.2-0.6,0.7-0.6
				c1,0,2,0,3.1,0C41.7,11.9,41.3,14.1,41,16.3c-0.1,0-0.1,0.1-0.1,0.2C40.9,16.5,40.9,16.4,41,16.3z"/>
			<path class="st20" d="M94,23.5c0.3-0.1,0.3-0.4,0.4-0.6c0.8-2.5,1.9-4.9,2.8-7.4c0.2-0.4,0.3-0.6,0.7-0.5c0.9,0,1.9,0,2.8,0
				c0.3,0,0.5,0,0.3,0.4c-2.2,4.5-3.9,9-6.6,13.2c-1.2,1.9-2.7,3.7-4.9,4.5c-1,0.5-1,0.5-1.4-0.6c-0.2-0.6-0.4-1.1-0.6-1.7
				c-0.2-0.4-0.1-0.6,0.4-0.7c1.4-0.6,2.5-1.4,3.3-2.7c0.2-0.4,0.3-0.7,0.2-1.1c-0.6-3.6-1.3-7.1-2-10.8c-0.1-0.6,0-0.6,0.6-0.6
				c0.8,0,1.8,0.1,2.6,0c0.6,0,0.6,0.3,0.6,0.6c0.3,2.5,0.5,5,0.7,7.6C94,23.3,94,23.4,94,23.5z"/>
			<path class="st20" d="M60.5,20.4c-0.1,2.3-1,4.7-3.3,6.4c-1.6,1.1-3.3,1.5-5.2,1c-1.9-0.5-3.3-1.9-3.5-4.1
				c-0.3-3.1,0.6-5.7,3.1-7.7c1.6-1.3,3.4-1.7,5.4-1.2C59.1,15.3,60.5,17.3,60.5,20.4z M56.8,19.9c0-0.3,0-0.6,0-0.7
				c-0.1-0.6-0.4-1.3-1-1.5c-0.6-0.3-1.3-0.1-1.9,0.4c-1.3,1.1-2.1,4.5-1.6,6c0.4,1.1,1.6,1.5,2.6,0.7c0.6-0.4,0.8-0.9,1.1-1.5
				C56.4,22.2,56.7,21.1,56.8,19.9z"/>
			<path class="st20" d="M81.9,27.9c-0.6,0-1.4,0.2-1.7-0.1c-0.3-0.3,0.1-1,0.2-1.6c0.5-2.6,0.9-5.2,1.5-7.8c0.1-0.5,0-0.6-0.5-0.6
				c-1,0-1,0-0.8-1c0-0.2,0-0.4,0-0.5c0.3-1.2,0.3-1.2,1.5-1.2c0.4-0.1,0.5-0.1,0.6-0.5c0.2-0.9,0.5-1.9,0.9-2.8
				c1.4-2.7,4.3-3.1,6.3-2.6c0.3,0.1,0.4,0.2,0.3,0.5c-0.2,0.6-0.4,1.4-0.6,2c0,0.5-0.1,0.5-0.5,0.5c-2-0.6-2.8,1.2-3,2.6
				c-0.1,0.3,0.2,0.3,0.4,0.3c0.6,0,1.1,0,1.7,0c0.4,0,0.5,0.1,0.4,0.4c0,0.1,0,0.2-0.1,0.2c-0.1,0.6-0.1,1.6-0.5,1.9
				c-0.4,0.4-1.3,0.1-1.9,0.1c-0.4,0-0.5,0.2-0.6,0.6c-0.6,3-1.1,5.9-1.7,8.9c-0.1,0.5-0.2,0.7-0.7,0.6
				C82.7,27.9,82.3,27.9,81.9,27.9L81.9,27.9z"/>
			<path class="st20" d="M28.8,28c-1.1,0-2.1-0.2-3.2-0.6c-0.4-0.2-0.5-0.4-0.3-0.7c0.2-0.6,0.4-1.1,0.6-1.7
				c0.1-0.4,0.3-0.5,0.6-0.3c0.7,0.4,1.6,0.6,2.4,0.6c0.6,0,1.3-0.1,1.6-0.8c0.3-0.7-0.2-1.2-0.7-1.6c-0.5-0.4-1-0.6-1.6-1
				c-1.9-1.5-2-4.2-0.1-5.7c2-1.6,4.3-1.6,6.6-0.8c0.4,0.1,0.4,0.3,0.3,0.6c-0.1,0.1-0.1,0.2-0.1,0.4c-0.2,0.6-0.2,1.3-0.6,1.7
				c-0.4,0.4-1-0.3-1.6-0.3c-0.5,0-1-0.1-1.5,0.1c-0.9,0.4-1.1,1.2-0.4,1.9c0.3,0.2,0.6,0.4,0.8,0.6c0.4,0.3,0.7,0.5,1.1,0.7
				c2.8,1.9,1.5,5.5-0.6,6.5C31.1,27.7,30,28,28.8,28z"/>
			<path class="st21" d="M104.7,26.3c-0.4,1.9-0.6,3.6-1,5.3c0,0.3-0.1,0.6-0.2,0.7c-0.2,0.4-0.5,0.6-0.8,0.6
				c-0.5-0.1-0.5-0.6-0.4-0.8c0.4-2,0.7-4.1,1.2-6.1c0.6-3.2,1.2-6.3,1.9-9.5c0-0.1,0-0.2,0-0.2c0.1-0.6,0.2-1.2,0.9-1.2
				c0.8,0.1,0.4,0.8,0.5,1.3c0.3,0.1,0.4-0.2,0.6-0.3c1.8-1.3,3.7-1.5,5.7-0.8c1.7,0.5,2.4,1.8,2.5,3.4c0.2,3-0.4,5.7-2.6,7.8
				c-1.8,1.7-3.9,1.9-6.1,1.4C105.9,27.6,105.3,27,104.7,26.3z M105.4,22.9c0,2.2,0.6,3.4,2,3.7c2,0.6,4.1,0,5.3-1.9
				c1.1-1.8,1.6-3.8,1.5-5.9c-0.1-1.1-0.6-2-1.7-2.5c-1.9-0.8-4.4-0.2-5.6,1.5C105.8,19.5,105.5,21.4,105.4,22.9z"/>
			<path class="st20" d="M77.6,15.1c0.6,0,1.4-0.4,1.7,0.1c0.4,0.4-0.1,1.1-0.2,1.7c-0.6,3.5-1.4,7-2,10.6C77,27.9,76.8,28,76.4,28
				c-0.8,0-1.7,0-2.4,0c-0.6,0-0.6-0.2-0.6-0.6c0.6-3.4,1.3-6.8,1.9-10.2c0-0.1,0-0.2,0.1-0.2c0.1-0.6,0.1-1.4,0.4-1.7
				C76.3,14.9,77.1,15.1,77.6,15.1z"/>
			<path class="st21" d="M137.8,28.1c-1.3,0-2.5-0.3-3.5-0.9c-0.4-0.3-0.6-0.6-0.9-0.9c-0.2-0.4-0.2-0.6,0.2-0.9
				c0.4-0.2,0.6-0.2,0.9,0.1c1.4,1.5,3.9,1.9,5.7,1c0.6-0.3,1-0.7,1.3-1.4c0.4-0.9,0.2-1.6-0.6-2.1c-0.6-0.4-1.3-0.6-2-0.9
				c-0.6-0.3-1.2-0.5-1.9-0.8c-1.9-1-2.2-2.8-1-4.5c1.5-2.1,5.7-2.4,7.6-0.6c0.1,0.1,0.2,0.2,0.2,0.3c0.3,0.4,0.3,0.7-0.1,1
				c-0.4,0.3-0.6,0.3-0.9-0.1c-1.2-1.4-2.7-1.4-4.3-1c-0.4,0.1-0.7,0.3-1,0.5c-1.1,0.8-1,2.3,0.2,3.1c0.6,0.4,1.2,0.6,1.9,0.8
				c0.6,0.2,1.1,0.4,1.7,0.6c2,1,2.5,3,1,4.7C141.1,27.7,139.5,28,137.8,28.1z"/>
			<path class="st21" d="M126.3,26.8c2.6,0,3.8-1,4.4-3.5c0.1-0.5,0.2-0.9,0.3-1.3c0.1-0.6,0.4-0.8,0.9-0.7c0.6,0.1,0.5,0.6,0.4,0.9
				c-0.3,1.4-0.5,2.9-1.5,4.1c-1.6,1.9-3.6,2-5.8,1.8c-2.5-0.4-3.5-1.9-3.1-4.3c0.5-2.5,0.9-5,1.4-7.5c0-0.1,0.1-0.2,0.1-0.4
				c0.1-0.5,0.4-0.8,0.9-0.6c0.6,0.1,0.5,0.6,0.4,0.9c-0.4,2-0.8,4.1-1.2,6.2c-0.1,0.6-0.2,1.2-0.3,1.8c-0.2,1.5,0.6,2.6,2.1,2.8
				C125.6,26.8,125.9,26.8,126.3,26.8z"/>
			<path class="st21" d="M116.7,25.4c0.3-1.5,0.6-3.2,0.9-5c0.6-3.5,1.4-7,2-10.6c0-0.2,0.1-0.5,0.2-0.7c0.2-0.4,0.5-0.6,0.9-0.6
				c0.5,0.1,0.4,0.5,0.4,0.8c-0.3,1.6-0.6,3.2-0.9,4.8c-0.6,3.5-1.4,7.1-2,10.7c0,0.2-0.1,0.5-0.1,0.7c0,0.6,0.2,1.1,0.9,1.2
				c0.4,0,0.7,0.1,0.6,0.6c-0.1,0.5-0.4,0.6-0.8,0.6C117.4,28,116.7,27,116.7,25.4z"/>
			<path class="st20" d="M78.5,9.6c1.1,0,1.9,0.7,1.9,1.9s-0.9,2.1-2.1,2.1c-1,0-1.8-0.7-1.8-1.9C76.3,10.5,77.3,9.6,78.5,9.6z"/>
			<path class="st21" d="M131.4,19.6c0-0.5,0.4-1,0.1-1.3c-0.2-0.2-0.8-0.1-1.2-0.1c-0.3,0-0.5-0.2-0.5-0.6c0-0.4,0.3-0.6,0.6-0.7
				c0.3-0.1,0.6,0,0.9,0c0.4,0,0.6-0.1,0.6-0.5c0-0.4,0.1-0.6,0.2-0.9c0.2-0.4,0.5-0.6,0.8-0.5c0.4,0.1,0.5,0.5,0.4,0.8
				c0,0,0,0,0,0.1c-0.2,1-0.2,1,0.8,1c0.4,0,0.8,0.1,0.8,0.6c0,0.5-0.3,0.7-0.8,0.7c-0.1,0-0.2,0-0.2,0c-1,0-1,0-1.3,1.1
				c-0.1,0.3-0.1,0.6-0.5,0.8c-0.2,0.1-0.5,0.2-0.6,0S131.4,19.9,131.4,19.6z"/>
			<path class="st22" d="M41,16.3c0,0.1-0.1,0.2-0.2,0.1c0,0,0-0.2,0-0.3C40.8,16.2,40.9,16.3,41,16.3z"/>
		</g>
	</g>
	<g class="st0">
		<path class="st13" d="M101.7,42v-5.7h3.9v0.9h-3v1.5h2.9v0.9h-2.9v1.6h3v0.9L101.7,42L101.7,42z"/>
		<path class="st13" d="M111.9,42l-1.6-2.2l-1.6,2.2h-1.2l2.1-3l-2-2.8h1.2l1.5,2.1l1.5-2.1h1.2l-2,2.8l2.1,3H111.9L111.9,42z"/>
		<path class="st13" d="M115.1,42v-5.7h2.5c1.2,0,1.9,0.8,1.9,1.8c0,1-0.6,1.8-1.9,1.8h-1.5v2.1L115.1,42L115.1,42z M118.4,38
			c0-0.6-0.4-0.9-1-0.9H116v1.9h1.4C118.1,38.9,118.4,38.5,118.4,38z"/>
		<path class="st13" d="M121.7,42v-5.7h3.9v0.9h-3v1.5h2.9v0.9h-2.9v1.6h3v0.9L121.7,42L121.7,42z"/>
		<path class="st13" d="M131.3,42l-1.3-2.1h-1V42h-1v-5.7h2.5c1.1,0,1.9,0.7,1.9,1.8s-0.6,1.6-1.4,1.7l1.4,2.2L131.3,42L131.3,42z
			 M131.4,38c0-0.6-0.4-0.9-1-0.9H129v1.9h1.4C131,38.9,131.4,38.5,131.4,38z"/>
		<path class="st13" d="M136.1,42v-4.8h-1.8v-0.9h4.5v0.9h-1.7V42H136.1z"/>
		<path class="st13" d="M140.7,41.1l0.6-0.7c0.4,0.4,1,0.8,1.9,0.8s1.1-0.4,1.1-0.8c0-0.6-0.6-0.6-1.3-0.8c-0.9-0.2-2-0.5-2-1.8
			c0-0.9,0.8-1.7,2.1-1.7c0.9,0,1.7,0.3,2.1,0.8l-0.6,0.7c-0.5-0.5-1-0.6-1.7-0.6c-0.6,0-1,0.3-1,0.7c0,0.5,0.6,0.6,1.3,0.7
			c0.9,0.3,2,0.6,2,1.8c0,0.9-0.6,1.8-2.2,1.8C142,42.1,141.2,41.7,140.7,41.1z"/>
	</g>
	<g id="Acquia">
		<path class="st23" d="M62.2,18.7c1.7,0,3.4,0.7,4.4,1.7c0.4-1.2,1.1-2.3,1.9-3.4c-1.7-1.3-3.9-2.2-6.3-2.2
			c-5.6,0-10.3,4.6-10.3,10.4c0,5.6,4.5,10.3,10.3,10.3c2.4,0,4.5-0.8,6.3-2.2c-0.8-1.1-1.3-2.2-1.9-3.4c-1.2,1.1-2.7,1.7-4.4,1.7
			c-3.6,0-6.6-2.9-6.6-6.6C55.6,21.6,58.5,18.7,62.2,18.7z"/>
		<path class="st23" d="M40.9,11.1c-0.7,0-1.2,0.4-1.5,0.9L29.2,34.7h4l1.5-3.2H47l1.5,3.2h4L42.5,12.2
			C42.2,11.6,41.5,11.1,40.9,11.1z M36.4,27.9L41,17.8l4.6,10.1H36.4z"/>
		<path class="st23" d="M89.6,25.2c0-5.6-4.4-10.1-9.9-10.3c-0.1,0-0.3,0.1-0.1,0.3c0.4,0.8,1.3,2.7,2.9,3.9c2.2,1.6,3.4,3.6,3.4,6
			c0,3.1-2.4,6.6-6.4,6.6c-4,0-6.4-3.5-6.4-6.6c0-2.4,1.3-4.4,3.4-6c1.6-1.3,2.7-3.2,2.9-4c0.1-0.1,0-0.3-0.1-0.3
			c-5.6,0.1-10.1,4.7-10.1,10.3c0,4.5,3.9,9.9,10.2,9.9c2.8,0,5.2-0.8,7-2.3l2,1.9H94l-5.3-5C89.2,28.4,89.6,27,89.6,25.2z"/>
		<rect x="114.5" y="15.3" class="st23" width="3.9" height="19.4"/>
		<path class="st23" d="M107,25.1L107,25.1c0,4-2,6.6-5.4,6.6c-3.4,0-5.4-2.5-5.4-6.6v-9.8h-3.9v9.8c0,5.9,3.9,10.2,9.2,10.2
			s9.2-4.3,9.2-10.2v-9.8H107V25.1z"/>
		<path class="st23" d="M136.9,15.3v2.9l-0.7-0.7c-1.7-1.9-3.8-2.8-6-2.8c-2.5,0-4.8,0.9-6.4,2.9c-1.7,1.9-2.5,4.4-2.5,7.2
			c0,2.9,0.9,5.5,2.5,7.4c1.7,1.9,4,2.9,6.6,2.9c2.2,0,4-0.9,5.9-2.5l0.7-0.7v2.7h3.9V15.3H136.9z M135.5,30.1
			c-1.2,1.3-2.7,1.9-4.5,1.9c-1.7,0-3.2-0.7-4.3-2c-1.1-1.3-1.6-2.9-1.6-5c0-1.9,0.5-3.5,1.7-4.8c1.2-1.3,2.7-2,4.3-2
			c1.9,0,3.4,0.7,4.4,2c1.1,1.3,1.7,2.9,1.7,5C137.3,27.1,136.7,28.7,135.5,30.1z"/>
	</g>
	<g class="st0">
		<path class="st13" d="M72,37.2l-2.2,10h1.8l0.5-2.4h1.9l0.5,2.4h1.8l-2-10H72z M72.2,43.4l0.4-2.2c0.1-0.6,0.3-1.6,0.4-2.3h0
			c0.1,0.7,0.2,1.7,0.3,2.3l0.4,2.2H72.2z"/>
		<path class="st13" d="M82,37h-1.8v3.7h0c-0.2-0.4-0.6-0.8-1.2-0.8c-1.2,0-2.3,1.2-2.3,3.8c0,2.1,0.7,3.7,2.2,3.7
			c0.7,0,1.3-0.4,1.5-1h0l0.1,0.8H82c0-0.6-0.1-1.4-0.1-2.1V37z M80.1,44.7c0,0.2,0,0.3-0.1,0.5c-0.2,0.6-0.5,0.7-0.7,0.7
			c-0.6,0-1-0.8-1-2.2c0-1.2,0.3-2.3,1-2.3c0.4,0,0.7,0.4,0.8,0.9c0,0.1,0,0.3,0,0.4V44.7z"/>
		<path class="st13" d="M85.7,39.9c-1.4,0-2.8,1.2-2.8,3.8c0,2.4,1,3.7,2.7,3.7h0c1.1,0,2.7-0.8,2.7-3.8
			C88.4,41.3,87.4,39.9,85.7,39.9z M85.7,46L85.7,46c-0.8,0-1-1.1-1-2.4c0-1,0.2-2.4,0.9-2.4c0.7,0,0.9,1.3,0.9,2.4
			C86.6,44.7,86.4,46,85.7,46z"/>
		<path class="st13" d="M92.8,39.9c-0.7,0-1.2,0.3-1.5,0.9h0V37h-1.8v8.2c0,0.7,0,1.5-0.1,2.1h1.6l0.1-0.9h0c0.4,0.7,0.8,1,1.4,1
			c1.3,0,2.3-1.4,2.3-3.9C94.8,41.4,94.1,39.9,92.8,39.9z M92,45.9c-0.2,0-0.6-0.1-0.7-0.8c0-0.1-0.1-0.3-0.1-0.5v-2
			c0-0.1,0-0.3,0.1-0.5c0.1-0.4,0.4-0.8,0.7-0.8c0.7,0,1,0.9,1,2.2C93,45,92.7,45.9,92,45.9z"/>
		<path class="st13" d="M100.8,43.2c0-2.1-0.9-3.4-2.4-3.4c-1.6,0-2.8,1.5-2.8,3.9c0,2.3,1.1,3.6,3,3.6c0.7,0,1.4-0.1,1.9-0.3
			l-0.2-1.3c-0.3,0.1-0.8,0.3-1.4,0.3c-0.9,0-1.5-0.4-1.6-1.7l3.4,0C100.8,44,100.8,43.7,100.8,43.2z M97.3,42.9
			c0-0.8,0.3-1.7,1-1.7c0.6,0,0.9,0.7,0.9,1.7H97.3z"/>
	</g>
	<g class="st0">
		<polygon class="st24" points="89.2,4.2 100.8,31.9 100.8,4.2 		"/>
		<polygon class="st24" points="69.5,4.2 69.5,31.9 81.1,4.2 		"/>
		<polygon class="st24" points="80.1,26.3 85.5,26.3 87.7,31.9 92.5,31.9 85.2,14.4 		"/>
	</g>
	<g id="Drupal" class="st0">
		<path class="st25" d="M81.7,17h-4.7l0,8.7c0,2.5-1.1,4.6-3.6,4.6c-2.5,0-3.7-2.1-3.7-4.6V17h-4.6l0,8.7c0,5,3.2,9.1,8.3,9.1
			c5,0,8.3-4.1,8.3-9.1L81.7,17z"/>
		<rect x="123.7" y="11.7" class="st25" width="4.6" height="22.7"/>
		<g class="st1">
			<path class="st26" d="M131.8,12.5v-0.8h3.6v0.8h-1.3v3.6h-1v-3.6H131.8z"/>
			<path class="st26" d="M137.3,11.7l1,3h0l1-3h1.4v4.4h-0.9V13h0l-1.1,3.1h-0.7l-1.1-3.1h0v3.1h-0.9v-4.4H137.3z"/>
		</g>
		<path class="st25" d="M61.3,16.8c-4-0.9-6.5,3-6.6,3.3c-0.1,0.1-0.1,0.2-0.2,0.2c-0.1,0-0.2-0.2-0.2-0.2l-0.5-3h-4.2v17.3h4.7V25
			c0-0.8,2.1-4.4,6.1-3.5c2,0.5,2.9,1.3,2.9,1.3s0-3.3,0-5.3C62.5,17.2,62,17,61.3,16.8z"/>
		<path class="st25" d="M88,40.1v-6.2c0,0,0,0,0,0l0-2.3c0,0,0-0.2,0.2-0.2c0.2,0,0.2,0.1,0.2,0.2c0.4,0.9,2.3,4.2,6.6,3.2
			c3.9-1.1,6.7-4.6,6.7-8.8c0-5.1-4.1-9.2-9.2-9.2c-5.1,0-9.2,4.1-9.2,9.2c0,0,0,12.5,0,14.2H88z M92.6,21.2c2.6,0,4.6,2.1,4.6,4.6
			c0,2.6-2.1,4.6-4.6,4.6c-2.6,0-4.6-2.1-4.6-4.6C87.9,23.3,90,21.2,92.6,21.2z"/>
		<path class="st25" d="M117.2,34.4h4.7v-8.5c0-5.1-4.1-9.2-9.2-9.2c-5.1,0-9.2,4.1-9.2,9.2c0,4.2,2.8,7.7,6.7,8.8
			c4.3,1,6.2-2.3,6.6-3.2c0-0.1,0.1-0.2,0.2-0.2c0.2,0,0.2,0.2,0.2,0.2 M117.3,25.8c0,2.6-2.1,4.6-4.6,4.6c-2.6,0-4.6-2.1-4.6-4.6
			c0-2.6,2.1-4.6,4.6-4.6C115.2,21.2,117.3,23.3,117.3,25.8z"/>
		<g class="st1">
			<path class="st26" d="M35.1,34.3h-5.3V11.7h5.7c6.9,0,12.1,1.3,12.1,11.3C47.6,33,42.1,34.3,35.1,34.3z M36.4,15.6h-1.9v14.8
				l1.9,0c3.9,0,6.5-0.4,6.5-7.4C42.9,16.2,40.7,15.6,36.4,15.6z"/>
		</g>
	</g>
	<g id="Mailchimp" class="st0">
		<path class="st13" d="M138.4,24.4c-0.7-0.7-1.5-1.2-2.5-1.2c-1.4,0-2.7,1.1-3.9,3.2l-0.1,0.2l-0.1-0.2c-0.3-0.9-0.6-1.7-0.7-2.1
			c-0.1-0.3-0.2-0.5-0.2-0.5c-0.1-0.2-0.2-0.4-0.5-0.4c-0.2,0-0.3,0.1-0.5,0.2c-0.2,0.1-0.2,0.2-0.2,0.4c-1.2,3.9-2.3,5.9-3.2,5.9
			c-0.2,0-0.2-0.1-0.3-0.2c-0.2-0.2-0.2-0.9-0.1-1.7c0.1-0.7,0.2-1.3,0.1-2c-0.1-1.4-0.8-2.3-2-2.3c-1.6,0-2.6,1.7-3.1,2.7l-0.2,0.3
			v-0.3c-0.1-1.2-0.6-2.8-1.9-2.8c-1.6,0-2.7,1.8-3.4,3.3l-0.2,0.4v-0.5c0.1-2,0.2-3.3,0.2-3.6c0.1-0.3,0-0.6-0.1-0.7
			c-0.1-0.2-0.3-0.2-0.6-0.2c-0.5,0-0.7,0.3-1.1,1.3c-0.7,1.6-2.2,5.5-3.5,5.5c-0.2,0-0.5-0.1-0.6-0.2c-0.6-0.7-0.3-2.3,0-4.6v-0.2
			c0.2-1.1-0.1-1.3-0.7-1.4c-0.1,0-0.2,0-0.2,0c-0.5,0-0.7,0.5-1.1,1.7c-0.8,2.2-1.8,4.6-2.9,4.6c-0.1,0-0.1,0-0.2,0
			c-0.7-0.1-0.6-1.1-0.6-2.2c0-0.7,0-1.4-0.1-2c-0.2-1.1-0.9-1.9-1.8-1.9c-1.9,0-3.1,2.4-3.7,3.8l-0.2,0.3l-0.3-0.4
			c-0.1-0.7-0.2-1.5-0.2-2.7c3.4-4.3,5-7.5,5.1-10.2c0-1.7-0.8-2.8-2.1-2.8c-1,0-3.3,0.8-4.1,8.4c-0.2,1.4-0.2,2.9-0.2,4.2
			c-1.5,2.3-5,6.2-8.2,6.2c-3,0-5.4-2.4-5.4-6.7c0-5.7,4-9.2,7.1-9.2c0.7,0,1.2,0.2,1.6,0.6c0.4,0.3,0.7,0.9,0.7,1.5
			c0,0.8-0.2,1.2-0.5,1.6c-0.1,0.1-0.2,0.2-0.2,0.3c-0.1,0.1-0.1,0.2,0,0.4c0.1,0.2,0.3,0.2,0.6,0.2c0.7,0,1.8-1.1,1.8-2.6
			c0-1.6-1.4-3.3-3.8-3.3c-3.8,0-8.8,4.2-8.8,10.9c0,4.7,2.9,8,7,8c2.9,0,5.7-2,8.2-5.5l0.2-0.2v0.2c0.1,1.2,0.2,2.2,0.2,2.9
			c0.1,0.5,0.1,0.8,0.1,1c0,0.4,0.1,0.7,0.2,0.9c0.2,0.2,0.3,0.2,0.7,0.2c0.6,0,0.7-0.4,0.9-1.3l0.1-0.2c0.2-1.1,1.3-4.9,2.9-4.9
			c0.2,0,0.4,0.1,0.6,0.2c0.3,0.3,0.3,1.1,0.2,2c0,0.6-0.1,1.1,0,1.6c0.2,1.5,0.7,2.1,1.9,2.2c1.1,0,2.4-1.2,3-2.4l0.2-0.2l0.1,0.2
			c0.2,0.7,0.7,2.7,2.4,2.7c1.6,0,2.8-1.6,4.2-4.9l0.2-0.4v0.5c0,1.2-0.1,2.8-0.1,3.9c0,0.9,0.1,1.2,0.5,1.2h0.1
			c0.4,0,0.7-0.2,0.8-0.7c1.1-3.8,2-5.5,2.9-5.5c0.9,0,1,1.6,1.1,4.6v0.2c0,1,0.1,1.5,0.7,1.5c0.5,0,0.6-0.4,0.8-1.3
			c0.1-0.2,0.1-0.4,0.2-0.6c0.9-3,1.6-4.2,2.4-4.2c0.7,0,0.8,0.8,0.8,1.1c0,0.6,0,1.1-0.1,1.7c-0.1,0.5-0.1,1.1-0.1,1.6
			c0.1,1.1,0.7,1.8,1.8,1.8c1.5,0,2.8-1.7,3.9-5.1l0.1-0.2l0.1,0.2c0.2,0.5,0.5,1.2,0.7,2.1c-1.1,2.4-1.9,5.2-1.9,6.7
			c0,2,0.9,3.2,2.2,3.2c0.7,0,2.4-0.3,2.5-3.1c0-1.1-0.2-2.8-0.8-4.8l-0.1-0.2l0.2,0.2c0.6,0.5,1.3,0.7,2.1,0.7
			c2.3,0,3.8-1.5,3.9-3.8C139.3,26.2,139,25.2,138.4,24.4z M97.9,21.7c0-0.7,0.1-1.4,0.2-2c0.6-4.1,1.6-7,2.8-7
			c0.5,0,0.7,0.4,0.7,1.1c0,1.9-1.2,4.6-3.5,7.9l-0.2,0.2V21.7z M132,36.4c-0.2,0.2-0.4,0.3-0.7,0.3c-0.3,0-0.6-0.2-0.7-0.3
			c-0.5-0.7-0.3-2.2,0.5-5c0.1-0.3,0.2-0.7,0.3-1l0.1-0.2l0.1,0.2C132.4,33.7,132.6,35.7,132,36.4z M136.8,29.1
			c-0.4,0.3-1,0.6-1.6,0.6c-1.5,0-2.4-0.8-2.9-1.5l-0.1-0.2c1.1-2.2,2.3-3.4,3.3-3.4c1.2,0,2,1.1,2,2.6
			C137.7,28.2,137.2,28.8,136.8,29.1z"/>
		<path class="st13" d="M80.6,29.1c0-0.2,0-0.4-0.2-0.5c-0.2-0.2-0.3-0.2-0.5,0l-0.1,0.1c-0.4,0.3-1.1,1.1-1.8,1.1
			c-0.9,0.1-1.6-0.5-2-1.6V28v-0.1c2.5-3.3,4.3-8.4,4.2-11.8c-0.1-1.6-0.6-3.4-2.3-3.4c-0.1,0-0.1,0-0.2,0c-0.7,0-1.2,0.3-1.8,0.9
			c-1.6,1.8-2.4,6.2-2.1,11.2c0.1,1.1,0.2,2,0.6,2.9v0.1v0.1c-1,1.1-1.9,1.7-2.6,1.7c-1.8,0-1.7-3-1.6-5.5c0-0.6,0.1-0.9-0.1-1.1
			c-0.1-0.2-0.3-0.2-0.6-0.2c-0.7,0-0.7,0.2-1.1,1.1c-0.7,2-2,5.3-3.3,5.3c-0.4,0-0.7-0.2-0.8-0.4c-0.7-0.8-0.2-2.9,0.2-4.6
			c0.1-0.3,0.2-0.6,0.2-0.9c0.1-0.4,0.1-0.7-0.1-0.9c-0.2-0.2-0.4-0.2-0.8-0.2c-0.6,0.1-1,0.3-1.1,1.4v0.2l-0.2-0.2
			c-0.2-0.4-0.7-0.8-1.6-0.8c-0.1,0-0.2,0-0.2,0c-1,0.1-2.1,0.7-2.9,1.8c-1,1.2-1.4,2.7-1.3,4.2c0,0.1,0,0.2,0,0.2V29
			c-0.6,0.7-1.1,0.9-1.7,0.9c-0.9,0-1.4-0.7-1.4-1.8c0-1.9,1.2-7.4,1.2-9.4c0-2.1-1-3.3-2.6-3.3c-2.4,0-4.3,2.8-6.1,8.4
			c-0.2,0.5-0.3,1.1-0.5,1.6l-0.2,0.8l0.1-0.9c0.2-2,0.3-3.9,0.3-5.7c0.1-2.7-0.2-4.5-1.1-5.4c-0.5-0.5-1.1-0.7-1.9-0.7
			c-2.9,0-4.4,5-5.4,8.5c-0.2,0.8-0.6,2.3-1,3.8c0.2-2.4,0.6-6.7,0.6-9.1c0-3-1.1-4.3-3.3-4.4c-1.1,0-2,0.6-2.4,1.1
			c-0.8,0.8-1.2,2-1.2,2.9c0,0.6,0.4,1.1,0.7,1.1c0.2,0,0.3-0.2,0.3-0.4c0.7-2.3,1.6-3.3,2.7-3.3c0.5,0,0.8,0.2,1.1,0.4
			c0.9,1,0.7,3.5,0.4,8.2c-0.1,1.5-0.2,3.2-0.3,5.1c0,0.3,0,0.7-0.1,1c-0.1,1.3-0.2,2.4,0.3,2.5c0.7,0.1,1.1-0.2,1.3-0.8
			c0.2-0.6,1-3.3,2.4-8.2c1.4-4.7,2.4-6.4,3.8-6.4c1.6,0,1.6,2.6,1.4,8.2c-0.1,1.1-0.2,2.5-0.2,3.9c0,0.2,0,0.4,0,0.6
			c-0.1,1.2-0.1,2.1,0.2,2.5c0.1,0.1,0.2,0.2,0.4,0.2c0.7,0,0.9-0.6,1.2-1.5c0.1-0.2,0.2-0.3,0.2-0.6c2.3-6.3,3.9-11.7,6.2-11.7
			c0.7,0,1.2,0.6,1.2,1.6c0,2.4-1.2,7.3-1.2,9.6c0,0.9,0.2,1.6,0.7,2.2c0.5,0.6,1.1,0.9,2,0.9c0.7,0,1.5-0.4,2.4-1.1l0.1-0.1
			l0.1,0.1c0.5,0.7,1.4,1.1,2.3,1c1.4-0.1,2.6-1.4,3-2.5l0.1-0.2l0.1,0.2c0.1,0.9,0.8,2,2.3,1.8c1.6-0.2,2.9-2.4,3.4-3.3l0.2-0.2
			l0.1,0.2c0.2,1.3,1,3.6,3.3,3.6c1,0,2.1-0.6,3.3-1.7l0.1-0.1l0.1,0.1c0.7,1.3,1.8,2,2.9,1.9C79.6,31,80.5,29.8,80.6,29.1z
			 M59,29.8c-0.1,0-0.1,0-0.2,0c-0.7,0-1.1-0.5-1.1-1.4c-0.1-1.1,0.4-2.4,1.2-3.3c0.6-0.6,1.1-0.9,1.7-0.9c0.7,0,1.2,0.6,1.5,1.1
			C61.6,27.3,60.7,29.7,59,29.8z M75.5,26.1l-0.2,0.2v-0.2c-0.1-0.7-0.2-1.6-0.2-2.2c-0.2-4.8,1.2-9.5,2.4-9.5
			c0.2,0,0.3,0.1,0.4,0.2c0.6,0.7,0.6,3.5-0.4,6.6C77,23,76.3,24.6,75.5,26.1z"/>
		<path class="st13" d="M70,20.4c0.7,0,1.1-0.5,1.1-1.1c0-0.7-0.5-1.1-1.1-1.1c-0.7,0-1.1,0.5-1.1,1.1S69.3,20.4,70,20.4z"/>
		<path class="st13" d="M109.3,20.4c0.7,0,1.1-0.5,1.1-1.1c-0.1-0.7-0.6-1.1-1.1-1.1c-0.7,0-1.1,0.5-1.1,1.1S108.6,20.4,109.3,20.4z
			"/>
		<path class="st13" d="M139.9,29.8c-0.4,0-0.7,0.3-0.7,0.7c0,0.4,0.3,0.7,0.7,0.7s0.7-0.3,0.7-0.7
			C140.6,30.1,140.3,29.8,139.9,29.8z M140.3,31l-0.2-0.4c0-0.1,0.2-0.1,0.2-0.2c0-0.2-0.1-0.2-0.2-0.2h-0.1c0.1,0,0.2,0,0.2,0.2
			c0,0.2-0.1,0.2-0.2,0.2h-0.1v-0.3h-0.1V31h0.1v-0.4h0.2l0.2,0.4L140.3,31c-0.1,0.1-0.3,0.2-0.4,0.2c-0.3,0-0.7-0.3-0.7-0.7
			c0-0.3,0.3-0.7,0.7-0.7c0.3,0,0.7,0.3,0.7,0.7C140.5,30.7,140.4,30.9,140.3,31z"/>
		<polygon class="st13" points="64.3,39.4 67.5,39.6 67.5,38.9 65.1,38.9 65.1,37.6 67.4,37.6 67.4,36.8 65.1,36.8 65.1,35.6 
			67.5,35.6 67.5,34.9 64.3,34.9 		"/>
		<polygon class="st13" points="74.4,34.9 73.3,34.9 72.2,36.6 71,34.9 70,34.9 71.7,37.1 70,39.4 70.9,39.4 72.2,37.7 73.5,39.4 
			74.5,39.4 72.8,37.1 		"/>
		<path class="st13" d="M79.3,34.9h-2v4.6l0.8,0.1v-1.7h1.2c0.9,0,1.5-0.7,1.5-1.5S80.3,34.9,79.3,34.9z M79.2,37.1h-1.1v-1.5h1.1
			c0.5,0,0.8,0.3,0.8,0.7S79.7,37.1,79.2,37.1z"/>
		<polygon class="st13" points="83.7,39.4 86.8,39.6 86.8,38.9 84.5,38.9 84.5,37.6 86.8,37.6 86.8,36.8 84.5,36.8 84.5,35.6 
			86.8,35.6 86.8,34.9 83.7,34.9 		"/>
		<path class="st13" d="M93.4,36.3c0-0.9-0.6-1.5-1.5-1.5h-2v4.6h0.8v-1.7h0.8l1,1.7l1,0.1l-1.1-1.8C92.8,37.6,93.4,37.2,93.4,36.3z
			 M91.7,37.1h-1.1v-1.5h1.1c0.5,0,0.8,0.3,0.8,0.7S92.1,37.1,91.7,37.1z"/>
		<polygon class="st13" points="96,35.5 97.4,35.5 97.4,39.4 98.2,39.4 98.2,35.5 99.6,35.5 99.6,34.8 96,34.8 		"/>
		<path class="st13" d="M103.8,35.5c0.5,0,1,0.2,1.3,0.5l0.5-0.6c-0.4-0.4-1-0.7-1.7-0.7c-1,0-1.6,0.6-1.6,1.3c0,1,0.9,1.2,1.6,1.4
			c0.6,0.1,1.1,0.2,1.1,0.7c0,0.3-0.2,0.7-0.9,0.7s-1.1-0.3-1.5-0.7l-0.5,0.7c0.4,0.5,1.1,0.7,1.7,0.7c1.2,0,1.8-0.7,1.8-1.4
			c0-1-0.9-1.2-1.6-1.4c-0.5-0.2-1-0.3-1-0.7C103,35.8,103.3,35.5,103.8,35.5z"/>
	</g>
	<g id="Rackspace" class="st0">
		<g class="st1">
			<path d="M56,5.3c5.4-0.3,9.6,3.2,9.9,8.5c0.4,6.1-4.5,12.4-10.9,14c-2.2,0.6-4.3,0.5-6.1-0.1c-0.1-2.4,0.3-4.9,1.4-6.7
				c1.7-2.9,4.3-2.6,5.7,0.5c0.6,1.2,0.9,2.6,1,4.1c0.5-0.3,1-0.6,1.5-0.9c-1.6-3.8-2.3-8.4,3.4-16.4c-1.6-1.3-4.2-2-7.4-1.6
				C55,6.3,55.5,5.8,56,5.3z"/>
			<path class="st27" d="M54.3,9c-4.8,5.9-6.8,13.5-6.5,20.3c-2.8-1.1-4.9-3.9-5.1-7.3l0,0c-0.4-6.1,4.5-12.4,10.9-14.1
				c2.5-0.6,4.8-0.5,6.8,0.3c-0.4,1.2-1.1,2.5-1.8,3.5c-1.4,2.1-3.5,3.4-4.5,3c-1.1-0.5-0.8-2.6,0.6-4.7c0.3-0.5,0.7-0.9,1.1-1.3
				C55.2,8.8,54.7,8.9,54.3,9z M54.7,11.8c-0.5,1-0.3,1.8,0.4,1.8c0.7,0,1.6-0.8,2.1-1.7c0.5-1,0.3-1.8-0.4-1.8
				C56.1,10,55.2,10.8,54.7,11.8z"/>
		</g>
		<g class="st1">
			<path d="M99.1,29.9c0.6-0.7,1.5-1.1,2.3-1.1c1.6,0,2.7,1.2,2.7,3.1c0,1.4-0.5,2.8-1.3,3.8c-0.9,1.1-2.1,1.7-3.4,1.7
				c-0.6,0-1.1-0.2-1.3-0.3l-0.5,2.6c0,0,0,0.1-0.1,0.1h-2.4c0,0,0,0-0.1,0c0,0,0,0,0-0.1L97,29c0,0,0-0.1,0.1-0.1l2.1,0
				c0,0,0,0,0.1,0c0,0,0,0,0,0c0,0,0,0,0,0L99.1,29.9z M98.7,33.3L98.4,35c0.3,0.2,0.6,0.3,0.9,0.3c1.2,0,2.1-1.7,2.1-3.3
				c0-0.5-0.1-1.2-0.9-1.2C99.7,30.8,99,31.8,98.7,33.3z"/>
			<path class="st28" d="M74.7,33.9c0,2,1.4,3.4,3.5,3.4c0.9,0,1.8-0.2,2.3-0.4c0,0,0,0,0-0.1l0.4-2c0,0,0-0.1,0-0.1
				c0,0-0.1,0-0.1,0c-0.7,0.4-1.3,0.5-1.9,0.5c-0.7,0-1.5-0.4-1.5-1.6c0-1.4,1-2.8,2.6-2.8c0.5,0,0.9,0.1,1.3,0.3c0,0,0,0,0.1,0
				c0,0,0,0,0-0.1l0.4-1.9c0,0,0-0.1,0-0.1c-0.4-0.2-1.1-0.3-1.7-0.3C77,28.8,74.7,31,74.7,33.9z"/>
			<path class="st28" d="M91.1,29.6c-0.7,0.5-1,1.2-1,2.1c0,0.9,0.6,1.6,1.7,2.2c0.7,0.3,1,0.6,1,1c0,0.4-0.4,0.6-0.9,0.6
				c-0.8,0-1.8-0.4-2.3-0.7c0,0,0,0-0.1,0c0,0,0,0,0,0.1l-0.3,1.8c0,0,0,0.1,0,0.1c0.5,0.4,1.5,0.6,2.5,0.6c1.3,0,2.3-0.3,3-1
				c0.5-0.5,0.8-1.1,0.8-1.9c0-1.2-1-1.8-1.8-2.2c-0.6-0.3-0.9-0.6-0.9-0.9c0-0.4,0.4-0.6,1-0.6c0.7,0,1.4,0.2,1.8,0.4
				c0,0,0,0,0.1,0c0,0,0,0,0-0.1l0.3-1.8c0,0,0-0.1,0-0.1c-0.4-0.2-1.1-0.4-2.1-0.4C92.6,28.8,91.8,29,91.1,29.6z"/>
			<path d="M64.3,30.2c0.1-0.4,0.2-1.2,0.2-1.2c0,0,0,0,0,0c0,0,0,0,0,0c0,0,0,0-0.1,0h-2.1c0,0-0.1,0-0.1,0.1l-1.5,8.1
				c0,0,0,0,0,0.1c0,0,0,0,0.1,0h2.4c0,0,0.1,0,0.1-0.1l0.6-3.1c0.2-1.3,0.9-2.8,2.4-2.8c0.2,0,0.3,0,0.4,0c0,0,0,0,0.1,0
				c0,0,0,0,0,0l0.5-2.3c0,0,0,0,0-0.1c0,0,0,0,0,0c-0.1,0-0.3,0-0.5,0C65.8,28.8,64.9,29.3,64.3,30.2z"/>
			<path d="M83.4,26.1C83.3,26.1,83.3,26.2,83.4,26.1L81.2,37c0,0,0,0,0,0.1c0,0,0,0,0.1,0h2.3c0,0,0.1,0,0.1-0.1
				c0,0,0.7-3.8,0.8-4.1c0.1,0.3,1.9,4.1,1.9,4.1c0,0,0,0,0.1,0H89c0,0,0,0,0.1,0c0,0,0,0,0,0c0,0,0,0,0,0c0,0-1.9-4.2-2-4.3
				c0.1-0.1,3.2-3.7,3.2-3.7c0,0,0,0,0,0c0,0,0,0,0,0c0,0,0,0-0.1,0h-2.6c0,0,0,0-0.1,0c0,0-2.8,3.2-3,3.5c0.1-0.4,1.2-6.2,1.2-6.2
				c0,0,0,0,0,0c0,0,0,0,0,0c0,0,0,0-0.1,0H83.4z"/>
			<path class="st28" d="M120.4,30.4c0.9-1,2.1-1.6,3.5-1.6c1.7,0,2.9,1,2.9,2.5c0,0.7-0.2,1.3-0.7,1.7c-0.8,0.8-2.3,1.1-4.5,1.1
				c0,0.2,0.1,0.5,0.2,0.7c0.3,0.4,0.8,0.6,1.5,0.6c1,0,1.8-0.2,2.7-0.8c0,0,0.1,0,0.1,0c0,0,0,0,0,0.1l-0.4,2c0,0,0,0,0,0.1
				c-1.1,0.6-2.5,0.6-3,0.6c-2.3,0-3.5-1.3-3.5-3.5C119.2,32.6,119.6,31.3,120.4,30.4z M123.6,30.7c-1,0-1.6,0.8-1.8,1.5
				c1.3,0,2.1-0.1,2.4-0.5c0.1-0.1,0.2-0.3,0.2-0.4C124.4,30.9,124.1,30.7,123.6,30.7z"/>
			<path class="st28" d="M112.5,33.9c0,2,1.4,3.4,3.4,3.4c0.9,0,1.8-0.2,2.3-0.4c0,0,0,0,0-0.1l0.4-2c0,0,0-0.1,0-0.1
				c0,0-0.1,0-0.1,0c-0.7,0.4-1.3,0.5-1.9,0.5c-0.7,0-1.5-0.4-1.5-1.6c0-1.4,1-2.8,2.6-2.8c0.5,0,0.9,0.1,1.3,0.3c0,0,0,0,0.1,0
				c0,0,0,0,0-0.1l0.4-1.9c0,0,0-0.1,0-0.1c-0.4-0.2-1.1-0.3-1.7-0.3C114.7,28.8,112.5,31,112.5,33.9z"/>
			<path class="st28" d="M127,36.8h0.1l0.1-0.5h0.1c0.1,0,0.2,0.1,0.2,0.2c0,0.1,0,0.3,0,0.3h0.1c0,0,0-0.2,0-0.3
				c0-0.1,0-0.2-0.1-0.2c0.1,0,0.3-0.2,0.3-0.3c0-0.1,0-0.1-0.1-0.2c-0.1-0.1-0.2-0.1-0.3-0.1c-0.1,0-0.2,0-0.3,0L127,36.8z
				 M127.3,35.8c0,0,0.1,0,0.1,0c0.1,0,0.2,0.1,0.2,0.2c0,0.1-0.1,0.3-0.3,0.3h-0.1L127.3,35.8z M127.4,35.4c0.5,0,0.8,0.4,0.8,0.9
				c0,0.5-0.5,0.9-0.9,0.9c-0.5,0-0.8-0.4-0.8-0.9C126.5,35.8,127,35.4,127.4,35.4z M126.3,36.3c0.1-0.6,0.5-1,1.1-1
				c0.6,0,1,0.5,0.9,1c-0.1,0.6-0.5,1-1.1,1C126.7,37.3,126.3,36.8,126.3,36.3z"/>
			<path class="st28" d="M71,37l0.2-0.9l0-0.2c-0.1,0.4-0.5,0.8-0.7,1c-0.5,0.3-1,0.5-1.6,0.5c-1.6,0-2.4-1.4-2.4-2.9
				c0-1.6,0.6-3.2,1.7-4.3c0.9-0.9,2-1.4,3.3-1.4c1.8,0,2.8,0.8,2.8,2.3c0,0.5-0.1,1-0.2,1.5l-0.9,4.5c0,0,0,0.1-0.1,0.1L71,37
				C71,37.1,71,37.1,71,37C71,37.1,71,37.1,71,37C71,37,71,37,71,37z M69.1,33.9c0,0.4,0.1,1.3,0.8,1.3c0.8,0,1.6-0.9,1.8-2.2
				l0.1-0.7c0-0.3,0.1-0.5,0.1-0.9c0-0.5-0.3-0.8-0.8-0.8c-0.3,0-0.6,0.2-0.9,0.5C69.6,31.8,69.1,33,69.1,33.9z"/>
			<path class="st28" d="M108.7,37l0.2-0.9l0-0.2c-0.1,0.4-0.5,0.8-0.7,1c-0.5,0.3-1,0.5-1.6,0.5c-1.6,0-2.4-1.4-2.4-2.9
				c0-1.6,0.6-3.2,1.7-4.3c0.9-0.9,2-1.4,3.3-1.4c1.8,0,2.8,0.8,2.8,2.3c0,0.5-0.1,1-0.2,1.5l-0.9,4.5c0,0,0,0.1-0.1,0.1L108.7,37
				C108.8,37.1,108.8,37.1,108.7,37C108.7,37.1,108.7,37.1,108.7,37C108.7,37,108.7,37,108.7,37z M106.9,33.9c0,0.4,0.1,1.3,0.8,1.3
				c0.8,0,1.6-0.9,1.8-2.2l0.1-0.7c0-0.3,0.1-0.5,0.1-0.9c0-0.5-0.3-0.8-0.8-0.8c-0.3,0-0.6,0.2-0.9,0.5
				C107.3,31.8,106.9,33,106.9,33.9z"/>
		</g>
		<g class="st1">
			<path class="st27" d="M105.6,43.1c0.3-0.3,0.6-0.5,1.1-0.5c0.7,0,1.1,0.4,1.1,1.1c0,0.4-0.1,0.8-0.4,1.2
				c-0.3,0.3-0.7,0.4-1.1,0.4c-0.6,0-1-0.5-1.1-1.1C105.2,43.8,105.4,43.4,105.6,43.1z M107.3,43.7c0-0.3-0.2-0.6-0.6-0.6
				c-0.6,0-0.9,0.7-0.9,1.2c0,0.3,0.2,0.6,0.6,0.6C107,44.9,107.3,44.2,107.3,43.7z"/>
			<path class="st27" d="M110.4,42.6c0.2,0,0.5,0,0.7,0.1c0,0,0,0,0,0l-0.1,0.4c0,0,0,0,0,0c-0.2-0.1-0.4-0.1-0.6-0.1
				c-0.2,0-0.4,0.1-0.4,0.3c0,0.2,0.2,0.3,0.3,0.3c0.1,0,0.1,0.1,0.2,0.1c0.2,0.1,0.5,0.3,0.5,0.7c0,0.6-0.5,0.9-1.1,0.9
				c-0.3,0-0.5-0.1-0.7-0.1c0,0,0,0,0,0l0.1-0.5c0,0,0,0,0,0c0.2,0.1,0.4,0.2,0.7,0.2c0.2,0,0.5-0.1,0.5-0.4c0-0.2-0.1-0.3-0.3-0.4
				c-0.1,0-0.1-0.1-0.2-0.1c-0.2-0.1-0.5-0.3-0.5-0.6C109.5,42.8,109.9,42.6,110.4,42.6z"/>
			<path class="st27" d="M123.7,42.6c0.3,0,0.6,0,0.8,0.1c0,0,0,0,0,0l-0.1,0.5c0,0,0,0,0,0c-0.2-0.1-0.5-0.2-0.7-0.2
				c-0.6,0-1,0.5-1,1.1c0,0.4,0.3,0.8,0.7,0.8c0.1,0,0.2,0,0.3,0l0.1-0.7h-0.5c0,0,0,0,0,0l0.1-0.4c0,0,0,0,0,0h1.1c0,0,0,0,0,0
				l-0.3,1.4c0,0,0,0,0,0c-0.2,0.1-0.4,0.1-0.7,0.1c-0.8,0-1.3-0.4-1.3-1.2C122.1,43.2,122.7,42.6,123.7,42.6z"/>
			<path class="st27" d="M120.1,44.6l0.4-2c0,0,0,0,0,0h0.5c0,0,0,0,0,0l-0.5,2.6c0,0,0,0,0,0h-0.7c0,0,0,0,0,0l-0.6-2l-0.4,2
				c0,0,0,0,0,0h-0.5c0,0,0,0,0,0l0.5-2.6c0,0,0,0,0,0h0.7c0,0,0,0,0,0L120.1,44.6z"/>
			<path class="st27" d="M113.4,43.1h-0.7c0,0,0,0,0,0l0.1-0.4c0,0,0,0,0,0h2c0,0,0,0,0,0l-0.1,0.4c0,0,0,0,0,0h-0.7l-0.4,2.2
				c0,0,0,0,0,0h-0.5c0,0,0,0,0,0L113.4,43.1z"/>
			<path class="st27" d="M101.8,45.3h-0.5c0,0,0,0,0,0l0.5-2.6c0,0,0,0,0,0h0.5c0,0,0,0,0,0l-0.2,1h1l0.2-1c0,0,0,0,0,0h0.5
				c0,0,0,0,0,0l-0.5,2.6c0,0,0,0,0,0h-0.5c0,0,0,0,0,0l0.2-1.1h-1L101.8,45.3C101.8,45.3,101.8,45.3,101.8,45.3z"/>
			<path class="st27" d="M116.3,43h-0.3c0,0,0,0,0,0l0.1-0.4c0,0,0,0,0,0h1.1c0,0,0,0,0,0l-0.1,0.4c0,0,0,0,0,0h-0.3l-0.4,1.9h0.3
				c0,0,0,0,0,0l-0.1,0.4c0,0,0,0,0,0h-1.1c0,0,0,0,0,0l0.1-0.4c0,0,0,0,0,0h0.3L116.3,43z"/>
		</g>
	</g>
</g>
</svg>
