<svg id="Layer_1" xmlns="http://www.w3.org/2000/svg" viewBox="0 0 170 37.1"><style>.st0{display:none}.st1{display:inline}.st2{fill:#cd1b89}.st3{fill:#020202}.st4{fill:#fab81a}.st5{fill:#f37126}.st6{fill:#c9234c}.st7{fill:#1989ca}.st8{fill:#6561ab}.st9{fill:#1cb24b}.st10{fill:#174b95}.st11,.st12,.st13{display:inline;fill:#174b95}.st12,.st13{fill:#e21d39}.st13{fill:#010101}.st14,.st15,.st16{display:inline;fill:#231f20}.st15,.st16{fill:#7ea2d5}.st16{fill:#fff}.st17,.st18,.st19{display:inline;fill:#f6b334}.st18,.st19{fill:#e63e30}.st19{fill:#253b81}.st20{fill:#292929}.st21{fill:#c19d49}.st22{fill:#f2f1ef}.st23{fill:#35a6de}.st24{fill:#ec2227}.st24,.st25{display:inline}.st25,.st26{fill:#2ba9e0}.st27{fill:#e1192c}</style><g id="Layer_1_1_"><g id="RH" class="st0"><g class="st1"><path class="st2" d="M40.6 29.7c-.1-.4-.2-.7-.2-1.1-.1-.3-.1-.7-.1-1.1 0-.3 0-.7-.1-1.1s-.1-.7-.2-1.1c0-.3-.2-.7-.3-.9-.2-.2-.4-.5-.7-.7s-.7-.3-1.1-.4v-.1c1-.2 1.7-.7 2.2-1.4.5-.7.7-1.5.7-2.4 0-1.2-.4-2.1-1.3-2.8-1-.7-2.2-1-3.7-1H28v14.5h2.2V24h5.2c.6 0 1 .1 1.3.2.3.2.6.3.8.6.2.2.3.5.4.8.1.4.2.7.2 1.1.1.3.2.7.2 1.1s.1.7.1 1.1c0 .3.1.7.1.9.1.2.2.5.3.7h2.4c-.4-.2-.5-.5-.6-.8zm-3.2-7.6c-.4.2-.7.3-1.2.4s-1 .1-1.4.2h-4.5v-5.1h5.3c1 0 1.7.2 2.2.7s.7 1.1.7 1.8c0 .5-.1 1-.3 1.3-.4.2-.5.5-.8.7zm12.3 3.8c0 .5-.1.9-.2 1.3s-.3.7-.7 1.1c-.3.2-.7.6-1.1.7-.5.2-1 .2-1.6.2-.8 0-1.4-.2-1.8-.6-.4-.4-.7-.9-.7-1.6v-7.2h-2v7.1c0 .6.1 1.1.2 1.6.2.5.3.9.7 1.2.3.3.7.6 1.3.8.6.2 1.1.2 2 .2s1.6-.2 2.3-.5 1.1-.8 1.6-1.5h.1v1.7h1.8V19.9h-2l.1 6zm27.2.3c.2-.2.2-.6.3-.8.1-.2.2-.6.2-.9s.1-.7.2-1.2h-1.8c-.1.9-.2 1.6-.6 2.5l-2.8-3.4c.3-.2.7-.5 1.1-.7.3-.2.7-.6 1-.9s.6-.7.7-1.1c.2-.4.2-.8.2-1.3 0-.6-.1-1-.3-1.5-.2-.4-.5-.7-.8-1-.3-.3-.7-.5-1.2-.7-.6-.1-1-.2-1.5-.2-.6 0-1.1.1-1.6.3-.4.2-.8.4-1.1.7-.3.3-.6.7-.7 1.1-.2.4-.2.8-.2 1.2s0 .7.2 1.1c.1.3.2.7.4.9s.4.6.6.8c.2.3.4.6.7.9-.5.2-1 .5-1.5.8-.4.2-.8.7-1.1 1-.3.4-.6.8-.8 1.3-.2.5-.3 1-.3 1.6 0 .3 0 .7.2 1.2.1.5.3 1 .7 1.5.4.4.9.8 1.6 1.1.7.3 1.6.5 2.6.5.8 0 1.7-.2 2.5-.6.8-.3 1.5-.9 1.8-1.7l1.7 2h2.5l-2.9-3.4c-.4-.6-.2-.9 0-1.1zm-6.4-9c.4-.2.9-.4 1.3-.4.5 0 1 .2 1.3.5.3.2.5.7.5 1.1 0 .3-.1.7-.2.9-.2.2-.3.6-.6.7-.2.2-.4.4-.7.6-.2.2-.5.4-.7.6-.2-.2-.4-.5-.6-.7s-.3-.5-.5-.7-.2-.5-.3-.7c-.1-.1-.1-.3-.1-.5 0-.7.3-1.1.6-1.4zM73 28.8c-.6.4-1.2.6-2 .6-.3 0-.7-.1-1.1-.2-.3-.1-.7-.3-1-.6-.3-.2-.6-.5-.7-.8-.2-.3-.2-.7-.2-1.1 0-.5.1-.9.2-1.2.1-.3.3-.7.6-1 .2-.2.6-.6.9-.7.4-.2.7-.4 1.1-.7l3.6 4.3c-.3.6-.8 1-1.4 1.4zm18.1-7.3h-6.9v-5.7h-4.1v15h4.1v-6.7h6.9v6.7h4.1v-15h-4.1v5.7zm11.5-2.2c-2.2 0-3.7.6-4.9 1.8-1.1 1.1-1.6 2.6-1.6 4.1 0 1.7.6 3 1.6 4.1 1.1 1.2 2.7 1.8 4.9 1.8 2.3 0 3.8-.6 4.9-1.8 1.1-1.2 1.6-2.6 1.6-4.1 0-1.6-.6-2.9-1.6-4.1s-2.7-1.8-4.9-1.8zm2.2 8.3c-.5.6-1.2.9-2.2.9s-1.7-.2-2.2-.9c-.5-.7-.7-1.5-.7-2.5 0-1.1.2-2 .7-2.5.6-.6 1.2-.9 2.2-.9s1.7.3 2.2.9c.5.7.7 1.5.7 2.5.1 1.2-.2 2.1-.7 2.5zm23.6-5.4c-.2-.7-.4-1.1-.8-1.5-.5-.5-1-.8-1.6-1.1-.5-.2-1-.3-1.4-.3h-.2c-.9 0-1.6.2-2.3.5-.7.3-1.1.8-1.6 1.3-.2-.5-.6-.9-1.1-1.2-.7-.4-1.5-.6-2.4-.6-1.1 0-2 .2-2.6.7-.3.2-.7.5-1.1 1v-1.3h-3.2v11.1h3.5V24c0-.6.1-1 .2-1.3.3-.5.9-.7 1.8-.7.8 0 1.3.2 1.6.7.2.2.2.7.2 1.4v6.7h3.5V24c0-.4.1-.8.2-1.2.3-.7 1-1 1.8-1 .7 0 1.2.2 1.6.7.2.2.2.6.2 1v7.2h3.5v-7.1c.3-.4.3-1 .2-1.4zm13.8 3.8c0-.9 0-1.7-.1-2.2-.2-.9-.5-1.6-1.1-2.4-.6-.7-1.3-1.3-2.3-1.7-.8-.3-1.7-.5-2.6-.5h-.4c-1.9 0-3.3.6-4.5 1.6-1.1 1-1.8 2.5-1.8 4.4 0 2.1.7 3.5 2 4.4s2.8 1.4 4.5 1.4c2.1 0 3.7-.6 4.8-1.7.7-.7 1.1-1.3 1.2-2v-.1h-3.2v.1c-.2.4-.4.6-.7.7-.4.3-1.1.5-1.8.5s-1.2-.2-1.8-.4c-.8-.4-1.2-1.1-1.3-2.2l9.1.1zm-9.1-1.9c.1-.7.4-1.1.8-1.6.3-.3 1-.6 1.7-.6h.2c.8 0 1.5.2 1.9.6.5.3.8.9.9 1.6h-5.5zm-70.2-4.6v1.6c-.3-.7-.9-1.1-1.6-1.4s-1.5-.5-2.2-.5c-1.1 0-2 .2-2.7.6-.7.3-1.4.8-1.9 1.5-.5.6-.8 1.2-1 1.9-.2.7-.3 1.4-.3 2 0 .7.1 1.5.3 2.2s.6 1.3 1.1 1.8 1.1.9 1.8 1.2c.7.3 1.6.5 2.5.5.8 0 1.6-.2 2.3-.5s1.3-.8 1.6-1.6h.1v.7c0 .7-.1 1.2-.2 1.7-.2.6-.3 1-.7 1.3-.3.3-.7.7-1.1.8-.5.2-1.1.3-1.7.3-.3 0-.7-.1-1.1-.1-.3-.1-.7-.2-1.1-.3-.3-.2-.6-.3-.8-.6-.2-.2-.3-.6-.3-.8h-2.1c.1.6.2 1.1.6 1.6s.7.7 1.3 1c.6.2 1.1.4 1.7.6.7.2 1.2.2 1.8.2 2 0 3.4-.5 4.4-1.4s1.5-2.3 1.5-4.1v-10l-2.2-.2zM59 28.4c-2.1 0-3.7-1.7-3.7-3.7S57 21 59 21s3.7 1.7 3.7 3.7-1.5 3.7-3.7 3.7z"/></g></g><g id="NBC" class="st0"><g class="st1"><path class="st3" d="M70.8 30.5h-8.3V15.2h8.1c3.6 0 5.7 1.5 5.7 4v.1c0 1.7-1 2.6-2.3 3.3 2.1.7 3.2 1.7 3.2 3.7v.1c0 2.7-2.6 4.1-6.4 4.1m1.6-10.7c0-1-.9-1.6-2.5-1.6h-3.7v3.2h3.5c1.7 0 2.7-.5 2.7-1.6zm1.1 6.1c0-1-.9-1.7-2.8-1.7h-4.4v3.3h4.5c1.6 0 2.7-.5 2.7-1.6zm12.8 4.9c-5.1 0-8.9-3.5-8.9-7.9v-.1c0-4.3 3.7-7.9 9-7.9 3.2 0 5.2 1 6.9 2.4l-2.4 2.5c-1.3-1.1-2.6-1.7-4.5-1.7-2.9 0-5 2.1-5 4.8v.1c0 2.6 2.1 4.9 5 4.9 2 0 3.2-.7 4.5-1.8l2.4 2.1c-1.7 1.6-3.7 2.6-7 2.6m-36.6-4.4v-5.6l8.4 9.7h3.2V15.2h-3.7v9.4l-8.2-9.4H46v15.3h3.7v-4.1z"/><path class="st4" d="M118.3 22.1c-.7-.5-1.7-.2-1.7-.2-1.9.7-4 2.1-5.6 3.6.7-.8 1.6-1.8 2.6-2.7 0 0 .7-.4.2-.9s-1.2-1-1.2-1-.2-.2-.4-.2c-.2.1 0 .3 0 .4s-.3.4-.3.4l-.1.1c-.6.5-1.5 1-2.1 1.2-1.1.4-2.5.9-4 1.4-.1-.1-.2-.2-.3-.2-1.8-1.2-7.1-1.2-9.2-1.4-2.2-.2-2.7-.3-2.8-.7-.2-.4.6-1.1 1.6-1.9 3.9-2.8 9.3-3.5 10.9-3.4 1.9 0 2.4.2 2.5.4 0 .2-.1.2-.1.2-.3.4-.7.6-1.2.9-1.5 1.1-3.4 1.9-3.4 1.9-.4.4.4.5.4.5 1.1-.1 2.1-.3 3.2-.7 2.1-.7 2.6-1.5 2.6-1.9.2-.7-.2-1.5-.2-1.4-.5-2.2-4-2.1-4-2.1-3.1 0-7.6.9-11.7 3.9-2.1 1.5-1.8 2.6-1.8 2.6s-.1 2.1 1.6 2.6c.7.2 1.2.3 2.1.4 2.1.2 3.6.2 5.7.4 1.2.1 2.1.2 2.7.4-1.7.7-3.6 1.4-5.1 2.1-1.4.7-3.5 1.8-4.1 2.7-.9 1.1-.1 2-.2 1.8.2.2.7 1.2 3.1 1 1.2-.2 2.5-.7 3.5-1.2 1.5-.8 2.6-1.7 3.2-2.4 1.3-1.2 1.7-2.3 1.7-3.1 0-.3-.1-.6-.2-.8 1.6-.6 3-1 4-1.2-2.6 3.1-7 9.2-5.1 11.9 0 0 .2.2.3.4 0 0 .3.2.4.2.2-.2-.2-.4-.2-.4-.2-.2-.2-.4-.2-.7.1-.4.2-1 .4-1.8l.5-1.2c.7-1.2 1.8-2.7 3.2-4.1 3.5-3.5 6.5-4.9 7.1-5 .4-.2.7-.2.7-.1.4.4-.7 2.1-.7 2.1l-.1.1c-2 2.9-3.1 3.7-4.1 4-.7.2-1.2 0-1.2-.2-.2-.2-.4-.6-.4-.7.1-.3-.1-.3-.1-.3-.5.2-.2 1-.2 1 .4 1.7 2.6 2.1 4.8.4 2.9-2.1 3.5-3.8 3.8-4.9.7-.9-.1-1.7-.8-2.2M105 25.7c-.7 1.2-3.1 2.7-4 3.2-.4.2-1.5.8-2.7 1.3-1.4.5-2.6.7-2.8.4-.1-.2-.2-.2.3-.7.5-.6 2.1-1.6 3.7-2.4 1.8-.9 3.7-1.7 5.5-2.4.1.2.1.5 0 .6m48.2-4.9c-.2-1-1.6-1.2-4-1-1.3.2-3.8.4-6 .8l2.2-2.5s.5-.3 0-.7c-.5-.3-1.1-.6-1.1-.6s-.2-.2-.6.2c-.2.2-1.7 1.7-3.6 4.1-2.2.3-4.8.4-5.4.6 0 0-.3.1-.4-.2 0 0-.3-.2-.2.2 0 0 .1 1.2 1.2 1 .7-.2 2.1-.3 3.9-.6-.3.4-.7 1-1.2 1.7-2.2 2.4-5.9 6.2-6.8 5.7 0 0-.2-.2-.1-.6.2-.7.9-1.7 2.3-3.4 0 0 .7-.7.7-1.2-.1-.5-.3-.5-.3-.5s-1.9-.6-2.6-1.2c.2-.4.7-1.3.2-1.8 0 0-.7-.5-1.4.7-.2.4-.2 1 .1 1.3-.4.4-1.7 1.7-2.8 2-.1-.4-.2-.7-.5-.8 0 0-.7-.3-1 .1-.4.4-.1.8.3 1.1-.2.3-.4.7-.8 1.4-.5.8-1.2 1.7-2.1 2.3-.3.2-1.7 1-2-.1-.2-.6.2-1.7 1-3 1.7-2.6 4-3.5 4.6-3.1 0 0 .3.3.2.7 0 0-.1.2.2.2s.4-.2.4-.4c.2-.6-.4-1.2-1-1.7-.2-.2-.4-.2-.6-.3 0 0-1-.4-2.4.3-.4.2-2.2 1.2-3.5 3.5-.4.7-.7 1.5-.7 2.3 0 .5.2 1 .4 1.5.2.2.7.9 1.4 1.2 1.5.7 3.2-.7 3.9-1.2 1.2-1.1 2.1-2.6 2.3-3.1 1.5-.4 3.1-2 3.6-2.5.1.1.2.2.3.2l1 .5c-.6.7-.6.7-1.2 1.5s-2.1 2.8-1.2 4c.2.2.4.6.8.7 1.2.5 2.6-.7 4.9-3.1.3-.4.7-.7 1-1.1-.2.2-.2.6-.4.8-.5 1.3-.2 2.6.9 3.2.7.4 1.5.2 2.4-.4 1.9-1.2 4.6-4 6.4-5.9-.1.2-.2.5-.2.8-.4 2.4-1.8 5.4-2.4 4.5 0 .2 0-.5-.3-.7-.2-.2-.5-.3-.8-.1-.4.2-.2 1.2 1 1.8.2.2.5.2.7.2.7.2 2.1.2 3.6-1.1 2.1-1.7 4.5-4 4.5-4s.4-.4 0-.7c0 0-.2-.2-.4.1l-.2.2s-3.3 3.1-5.2 4.2c.3-.4.5-1 .7-1.6s.4-2.1.7-3.2c.2-.6.3-1.1.4-1.2.2-.5.6-.5.7-.7.1-.2.1-.2-.2-.4-.2-.2-.2-.3-.4-.4s-.7 0-.7 0c-.1 0-.2 0-.4.1s-.3.2-.5.7c-1.2 1.2-5.1 5.5-7.4 6.9.2-.1-1.9 1.3-1.5-.5.2-.8 1-2.6 3.4-5.6l1.2-1.3c1-.2 2.1-.3 3.1-.4 0 0 9.1-1.2 6.6.8 0 0 .2.3.5 0 .5-.2.8-.8.8-1.2"/><path class="st5" d="M22.2 18.9c-.7 0-1.3.2-1.8.7-.6.5-1 1.4-.9 2.2.1.6.3 1.5 1.3 2.1l7.7 5.3-3.6-8.4c-.7-1.3-1.6-1.9-2.7-1.9z"/><path class="st6" d="M29.6 16.6c.2.5.4 1.1.3 1.8l-1.5 8.9-3.7-8.6c-.3-1 0-2.1.7-2.7.7-.7 1.9-1 2.9-.6.6.2 1 .7 1.3 1.2z"/><path class="st7" d="M38.5 18.9c.7 0 1.3.2 1.8.7.6.5 1 1.4.9 2.2-.1.6-.3 1.5-1.3 2.1l-7.7 5.4 3.7-8.4c.5-1.4 1.5-2 2.6-2z"/><path class="st8" d="M31.9 18c.1 0 .2.1.2.2-.4.3-1.2.7-1.2 1.3l.2.7c.4 2.6 1.2 7.1 1.2 7.1l3.6-8.6c.3-1 0-2.1-.7-2.7-.7-.7-1.9-1-2.9-.6-.5.2-1 .7-1.2 1.2-.1.4-.2.9-.2 1.4h1z"/><path class="st9" d="M40.6 25c1.2 0 2.2.9 2.5 1.8.2.9.2 1.8-.4 2.5-.5.7-1.3 1.1-2.2 1.1H32l7.1-4.9c.3-.4.9-.5 1.5-.5z"/><path class="st4" d="M20.1 25c-1.2 0-2.2.9-2.5 1.8-.2.9-.2 1.8.4 2.5.5.7 1.3 1.1 2.2 1.1h8.5l-7.1-4.9c-.4-.4-1-.5-1.5-.5z"/></g></g><g id="Geico" class="st0"><g id="GEICO_4_" class="st1"><path class="st10" d="M33.3 22.4c0-5.1 2.8-6.4 7.7-6.4h7.9c6.1 0 6.9 2.3 6.9 5.6v.5h-5.4c0-1.8-1-2-2.8-2h-5.9c-2.8 0-3.3.8-3.3 3.6v2c0 3.1.8 3.6 3.3 3.6h5.6c1.3 0 2.8-.3 2.8-1.8V27H44v-3.6h12v4.9c0 5.1-2.6 5.4-8.7 5.4h-6.4c-4.9 0-7.7-1.3-7.7-6.4.1-.1.1-4.9.1-4.9zm24-6.2h19v4.1H62.7v2.8h13.1v3.6H62.7v2.8h14.1v4.1H57.3V16.2zm21 0h5.4v17.4h-5.4V16.2zm6.9 6.2c0-5.1 2.8-6.4 7.7-6.4h6.4c7.7 0 8.7 1.5 8.4 6.7h-5.4v-.5c0-1.3-1-1.5-2.6-1.5h-5.9c-2.8 0-3.3 1.3-3.3 3.6v1.8c0 2.6.5 3.6 3.1 3.6h5.6c2.3 0 3.1-.3 3.1-2.3h5.6v1.5c0 2.8-1 5.4-6.4 5.4h-8.7c-4.9 0-7.7-1.3-7.7-6.4v-5.5h.1zm23.8 0c0-5.1 2.8-6.4 7.7-6.4h8.7c4.9 0 7.7 1.3 7.7 6.4v5.1c0 5.1-2.8 6.4-7.7 6.4h-8.7c-4.9 0-7.7-1.3-7.7-6.4v-5.1zm5.4 3.5c0 2.6.5 3.6 3.1 3.6h6.9c2.6 0 3.1-1 3.1-3.6v-1.8c0-2-.5-3.6-3.3-3.6H118c-2.8 0-3.3 1.3-3.3 3.6v1.8h-.3z"/></g><path class="st11" d="M133.4 31.8c0-1 .8-1.8 1.8-1.8s1.8.8 1.8 1.8-.8 1.8-1.8 1.8c-1.1 0-1.8-.7-1.8-1.8zm3 0c0-.8-.8-1.5-1.5-1.5s-1.5.8-1.5 1.5.8 1.5 1.5 1.5c1 .1 1.5-.7 1.5-1.5zm-.5 1.1h-.3l-.5-.8h-.5v.8h-.3v-2h1.3c.3 0 .3.3.3.5 0 .3-.3.5-.5.5l.5 1zm-1-1.3c.3 0 .8 0 .8-.3s-.3-.3-.5-.3h-.5v.8h.3v-.2h-.1z"/></g><g id="LN" class="st0"><path class="st12" d="M24 24.5v-7.8h-1.6v9.5h8.8v-1.7H24z"/><path class="st13" d="M84.3 17.5c-.5-.5-1.2-.8-2-.8h-8.1v9.5h1.7v-7.8h6.6c.3 0 .6.1.8.3.2.2.3.4.3.8v6.7h1.7v-6.7c-.2-.8-.5-1.4-1-2zm35 8.7h-1.7v-9.5h1.7v9.5z"/><path class="st12" d="M51 16.7l-4.2 8.7c-.3.5-.6.8-1.2.8-.5 0-1-.3-1.2-.8l-4.2-8.7H42l3.1 6.6c.1.2.2.2.3.2.2 0 .3-.1.3-.2l3.1-6.6H51zm13.2 9.5h-8c-.8 0-1.5-.3-2-.8s-.8-1.2-.8-2v-3.9c0-.8.3-1.5.8-2s1.2-.8 2-.8h8v1.7h-8c-.7 0-1.1.3-1.1 1.1v1.1h9.2v1.7h-9.2v1.1c0 .3.1.6.3.8.2.2.4.3.8.3h8c-.1-.1 0 1.7 0 1.7z"/><path class="st13" d="M100.2 26.2h-1.7v-2.5H91v2.5h-1.7v-6.7c0-.8.3-1.5.8-2s1.2-.8 2-.8h5.3c.8 0 1.5.3 2 .8s.8 1.2.8 2v6.7zM98.6 22v-2.4c0-.7-.3-1.1-1.1-1.1h-5.3c-.8 0-1.1.3-1.1 1.1V22h7.5zm15.4-3.6h-4.6v7.8h-1.7v-7.8h-4.5v-1.7H114v1.7zm20 5c0 .9-.3 1.5-.8 2s-1.2.8-2 .8h-5.3c-.8 0-1.5-.3-2-.8s-.8-1.2-.8-2v-3.9c0-.8.3-1.4.8-2 .5-.5 1.2-.8 2-.8h5.3c.8 0 1.5.3 2 .8s.8 1.2.8 2v3.9zm-1.6 0v-3.9c0-.3-.1-.6-.3-.8-.2-.2-.4-.3-.8-.3H126c-.3 0-.6.1-.8.3-.2.2-.3.4-.3.8v3.9c0 .7.3 1.1 1.1 1.1h5.3c.6 0 1.1-.3 1.1-1.1zm15.4-5.9c-.5-.5-1.2-.8-2-.8h-8.2v9.5h1.7v-7.8h6.6c.3 0 .6.1.8.3.2.2.3.4.3.8v6.7h1.7v-6.7c-.1-.8-.4-1.4-.9-2zm-108-5.1s-.3-.4-.3-.5c-.1-.1-.1 0-.1 0s-.3.2-.3.3c-.1 0-.1.1-.1.2v.3c0 .1-.1.2-.1.2l-2.1 1.6-.3.1-.6.3v-.4c.1 0 .1.1.2.1h.2v-.3s.1.1.2.1.1 0 .2-.1l.1-.1s-.1-.1-.2-.1c0 0-.1-.1 0-.1s.2-.1.2-.1-.1 0-.1-.1c-.1-.1-.1-.1-.1-.2v-.1s0 .1.1.1.2-.1.2-.1-.1 0-.1-.1-.1-.1-.1-.2 0-.1-.1-.2c0-.2-.1-.3-.1-.3-.3-.3-.8-.4-.8-.4-.3-.1-.6.3-.7.7-.2.6-.2 1.2-.2 1.2s0 .1.1.2c.1 0 .3.1.3.1v.5l-.6.1s-.4-.3-.8-.5l-1.7-1.2s-.1 0-.1-.2v-.3c0-.1 0-.2-.1-.3l-.3-.3s-.1-.1-.1 0c-.1.1-.3.5-.3.5l.1.4s.1.1.1.2l.1.1.6.5 1 .9v.9l.6.4v.1l.1 3.2s0 .1.1.1l.2.1.4 3.5.8 2.4-1.3.6-.1.1-.1.2v.1h1.8l-.1.4-.1.1s-.1.3 0 .3.4.1.5 0c.2 0 .5 0 .5-.1.1-.1.1-.3-.2-1.7l-.2-5.5.4-3.5c0-.3.1-.4.1-.4s.5-.3.5-.4c.1-.1 0-.1 0-.1v-.4l.4-.3.1-.1 1.2-1.2.3-.3.1-.1c.1-.1.1-.2.1-.2l.1-.3c.5-.3.5-.4.5-.4zM150.1 18c.1-.2.2-.3.3-.4.2-.1.3-.3.4-.3.2-.1.3-.1.5-.1s.3 0 .5.1.3.2.4.3c.2.1.3.3.3.4.1.2.1.3.1.5s0 .4-.1.6-.2.3-.3.4-.3.3-.4.3c-.2.1-.3.1-.5.1s-.3 0-.5-.1-.3-.2-.4-.3c-.2-.1-.3-.3-.3-.4-.1-.2-.1-.3-.1-.6 0-.2 0-.4.1-.5zm.3 1c.1.2.2.3.3.3.1.1.3.2.3.3.2.1.3.1.4.1.2 0 .3 0 .4-.1.2-.1.3-.2.3-.3.1-.1.2-.3.3-.3.1-.2.1-.3.1-.5s0-.3-.1-.5-.2-.3-.3-.3c-.1-.1-.3-.2-.3-.3-.2-.1-.3-.1-.4-.1-.2 0-.3 0-.4.1-.2.1-.3.2-.3.3-.1.1-.2.3-.3.3-.1.2-.1.3-.1.5s0 .3.1.5z"/><path class="st13" d="M152.2 19.1v-.3c0-.1 0-.2-.1-.3.1-.1.1-.2.1-.3 0-.1 0-.2-.1-.3-.1-.1-.2-.1-.3-.1h-1V19h.3v-.5h1v.5m-.2-.7h-1V18h1v.3z"/><path class="st12" d="M153.1 7.3h-136c-2 0-3.6 1.7-3.6 3.6v28.2c0 2 1.6 3.6 3.6 3.6H153c2 0 3.6-1.7 3.6-3.6V10.9c0-2-1.5-3.6-3.5-3.6zm2.3 31.8c0 1.3-1 2.4-2.4 2.4H17.1c-1.3 0-2.4-1-2.4-2.4V10.9c0-1.3 1-2.4 2.4-2.4H153c1.3 0 2.4 1 2.4 2.4v28.2z"/><path class="st14" d="M33.7 35.9h-.5L31.5 32v3.9H31v-4.4h.9l1.6 3.8 1.6-3.8h.9v4.4h-.5V32c-.2-.1-1.8 3.9-1.8 3.9zm5.5-2.5h2.2v.4h-2.2v1.6h2.3v.4h-2.8v-4.4h2.8v.4h-2.3v1.6zm5.3-1.9h2.1c.5 0 1.5.1 1.5 1.7v1c0 .4-.1 1.7-1.4 1.7h-2.2v-4.4zm2.1 3.9c.9 0 1-.5 1-1.3V33c0-.3-.1-1-.9-1H45v3.5l1.6-.1zm5 .5H51v-4.4h.5l.1 4.4zm3.5-1l-.3 1h-.5l1.6-4.4h.8l1.7 4.4h-.5l-.3-1h-2.5zm1.2-3l-1 2.6h1.9l-.9-2.6zm12.2 3.5c-.3.5-1 .5-1.7.5-1 0-1.7 0-1.7-1.3 0-1 .3-1 .9-1.2-.3-.3-.4-.3-.4-.9 0-.9.4-1 1.3-1 .8 0 1.2.2 1.2 1.1v.3h-.5v-.3c0-.5-.1-.7-.7-.7-.4 0-.9 0-.9.6 0 .3.1.4.3.6l1.7 1.4v-.6h.4v.3c0 .2 0 .4-.1.6l.8.6-.3.3-.3-.3zm-2.1-1.8c-.6.2-.7.3-.7 1 0 .9.2.9 1.1.9.4 0 1.1 0 1.2-.4l-1.6-1.5zm9.9-.9c0-1.1.5-1.2 1.6-1.2 1 0 1.6 0 1.6 1.2H79c0-.8-.2-.8-1-.8-1 0-1.1.1-1.1.7 0 .8.4.8 1.2.8 1 .1 1.6 0 1.6 1.2s-.6 1.3-1.7 1.3-1.7-.2-1.6-1.4h.4c0 1 .2 1 1.1 1s1.2 0 1.2-.9c0-.8-.3-.7-1.1-.8-1 0-1.7.1-1.7-1.1zm6-1.2h2.2c.9 0 1 .5 1 1.3 0 .3 0 1.3-1 1.3h-1.7v1.7h-.5v-4.3zm.5.4v1.7h1.3c.6 0 1 0 1-.9s-.2-1-.8-1l-1.5.2zm7.5-.4c1 0 1.4.3 1.4 1.5v1.6c0 1-.3 1.4-1.4 1.4h-.5c-1 0-1.4-.3-1.4-1.4V33c0-1 .3-1.5 1.4-1.5h.5zm-.5.4c-.7 0-1 .2-1 1v1.6c0 .9.3 1 1 1h.6c.6 0 1-.1 1-1V33c0-.9-.2-1-1-1h-.6v-.1zm8.7 4h-.8L95.3 32v3.9h-.5v-4.4h.8l2.4 3.9v-3.9h.5v4.4zm2.9-3.2c0-1.1.5-1.2 1.6-1.2 1 0 1.6 0 1.6 1.2h-.5c0-.8-.2-.8-1-.8-1 0-1.1.1-1.1.7 0 .8.4.8 1.2.8 1 .1 1.6 0 1.6 1.2s-.6 1.3-1.7 1.3-1.7-.2-1.6-1.4h.5c0 1 .2 1 1.1 1 1 0 1.2 0 1.2-.9 0-.8-.3-.7-1.1-.8-1.1 0-1.8.1-1.8-1.1zm8-1.2c1 0 1.4.3 1.4 1.5v1.6c0 1-.3 1.4-1.4 1.4h-.6c-1 0-1.4-.3-1.4-1.4V33c0-1 .3-1.5 1.4-1.5h.6zm-.6.4c-.7 0-1 .2-1 1v1.6c0 .9.3 1 1 1h.6c.6 0 1-.1 1-1V33c0-.9-.2-1-1-1h-.6v-.1zm5.4 4h-.5v-4.4h2c1 0 1.3.3 1.3 1.2 0 .6-.1 1-.8 1.1.5 0 .7.3.7.8v1.1h-.5v-1c0-.5-.2-.8-.7-.8h-1.6l.1 2zm1.6-2.2c.8 0 .9-.3.9-1 0-.5-.1-.8-.9-.8h-1.5v1.7l1.5.1zm4.2-1c0-1.1.5-1.2 1.6-1.2 1 0 1.6 0 1.6 1.2h-.5c0-.8-.2-.8-1-.8-1 0-1.1.1-1.1.7 0 .8.4.8 1.2.8 1 .1 1.6 0 1.6 1.2s-.6 1.3-1.7 1.3-1.7-.2-1.6-1.4h.5c0 1 .2 1 1.1 1s1.2 0 1.2-.9c0-.8-.3-.7-1.1-.8-1.1 0-1.8.1-1.8-1.1zm9.6 3.2h-.4v-2h-2.5v2h-.5v-4.4h.5v1.9h2.5v-1.9h.5l-.1 4.4zm3.6 0h-.5v-4.4h.5v4.4zm3.1-4.4h2.2c.9 0 1 .5 1 1.3 0 .3 0 1.3-1 1.3h-1.7v1.7h-.5v-4.3zm.5.4v1.7h1.3c.6 0 1 0 1-.9s-.2-1-.8-1l-1.5.2z"/></g><g id="UW" class="st0"><path class="st15" d="M135.9 46.4H94.5V3.5h41.4v42.9z"/><path class="st16" d="M132.2 24.6c0 9.3-7.6 17.1-17.1 17.1-9.3 0-17.1-7.6-17.1-17.1 0-9.3 7.6-17.1 17.1-17.1 9.6-.1 17.1 7.8 17.1 17.1z"/><path class="st17" d="M106.3 28c.2 0 .5-.2.7-.2s.2-.2 0-.2c-.2-.7-.5-1.7-.5-2.7 0-4.7 3.7-8.3 8.3-8.3 4.7 0 8.3 3.7 8.3 8.3 0 1.2-.2 2.2-.7 3.4v.2c.2 0 .7.2.7.2.2 0 .2 0 .2-.2.5-1.2.7-2.4.7-3.9 0-5.4-4.4-9.8-9.6-9.8-5.4 0-9.8 4.4-9.8 9.8 0 1 .2 2.2.5 3.2.9.2.9.2 1.2.2z"/><path class="st17" d="M103.8 29c.2 0 1-.5 1-.5.2 0 .2-.2 0-.2-.5-1.2-.7-2.4-.7-3.7 0-5.9 4.9-10.8 10.8-10.8s10.8 4.9 10.8 10.8c0 1.5-.2 2.9-1 4.2v.2c.2 0 1 .5 1 .5.2 0 .2 0 .2-.2.7-1.5 1-3.2 1-4.9 0-6.9-5.6-12.5-12.5-12.5s-12.5 5.6-12.5 12.5c0 1.5.2 2.9.7 4.2 1 .4 1 .6 1.2.4z"/><path class="st17" d="M100.4 30.7c.2 0 1.7-.7 2-1 .2 0 .2-.2 0-.5-.5-1.5-.7-2.9-.7-4.7 0-7.3 6.1-13.5 13.5-13.5s13.5 6.1 13.5 13.5c0 2-.5 3.7-1 5.4 0 0 0 .2.2.5.2 0 1.7.7 2 .7s.2 0 .5-.2c.7-2 1.2-4.2 1.2-6.4 0-8.8-7.1-16.2-16.2-16.2-8.8 0-16.2 7.3-16.2 16.2 0 2 .5 3.9 1 5.9 0 .1 0 .3.2.3z"/><path class="st18" d="M115.1 21.2c1 0 1.7-.7 1.7-1.7s-.7-1.7-1.7-1.7-1.7.7-1.7 1.7c0 .9.7 1.7 1.7 1.7z"/><path class="st18" d="M115.8 30.2c.2 0 .5-.2.5-.5V26c0-.5.2-1 .7-1.5l3.7-3.7c.2-.2.2-.7 0-1l-.7-.7c-.2-.2-.7-.2-1 0l-3.2 3.2c-.2.2-.2.2-.7.2s-.5-.2-.7-.2l-3.2-3.2c-.2-.2-.7-.2-1 0l-.7.7c-.2.2-.2.7 0 1l3.7 3.7c.2.2.7 1 .7 1.5v3.7c0 .2.2.5.5.5h1.4z"/><path class="st19" d="M127.1 31.4c-.5.2-1.7 1.2-2.2 1.7h-.2c.2-.2 1-1.2 1.2-1.5.7-1-.5-2-1.7-1.2-.5.2-1.2 1.2-1.7 1.5h-.2c.2-.2 1-1.2 1-1.5.5-.7-.7-1.7-1.7-1-.7.5-1.2 1-2 1.5.2-.2.5-.7.7-.7.5-.7-.2-1.5-1.2-1-.7.5-2.2 1.7-3.4 2.4.7.2 1.7.5 3.4 1.2s2.2 2.4 1.2 3.9c-1 1.2-2.7.7-4.2.5-1.7-.5-2.2-1-4.2-1.7-1.2-.5-1.7-.5-1.7-.7 0-.5 1.2-.2 2.2.2 2.9 1 6.6 3.4 7.6.7.7-2-2.4-2.9-3.7-3.2-1.7-.2-2.9-1.7-4.4-2.4-2.2-1.2-3.9-1.2-5.4-1s-3.4 1.5-4.7 2.2c-.7.5-.7 1.2 0 2.4 2.9 4.2 7.8 6.9 13.2 6.9 5.9 0 10.8-2.9 13.7-7.6.9-.8-.1-2-1.6-1.6zm-32.6 15H34.3V3.5h60.2v42.9z"/><path class="st16" d="M130 42v1.7h-.2V42h-.7v-.2h1.5v.2h-.6zm3 1.7v-1.5l-.5 1.5h-.2l-.7-1.5v1.5h-.2v-2h.5l.5 1.5.5-1.5h.5v2h-.4zm-52.2-1c0 .5 1.7 1 2.4 1 1 0 2-.2 2.7-2 .7-1.7 3.4-11 3.4-11h.2c.5 0 .7-.5.7-1.5 0-.2 0-.2-.2-.2h-2.2c-.2 0-.2 0-.2.2l-2 7.1-2-7.1c0-.2 0-.2-.2-.2h-2.2c-.2 0-.2 0-.2.2 0 1 .2 1.2.7 1.5h.3s1.7 6.4 2.7 8.8l-.2.5c-.2 1-.7 1.5-1.7 1.5-.2 0-1.2-.2-1.2-.2-.7 0-.7.2-1 .5.5.4.2.7.2.9zm-7.6-17.1h-2.7c-.2 0-.2 0-.2.2l-1.5 9.3-1.7-9.3c0-.2 0-.2-.5-.2h-1.2c-.5 0-.5 0-.5.2l-2 9.3-1.5-9.3c0-.2 0-.2-.2-.2h-2.7c-.2 0-.2 0-.2.5 0 1 .2 1.5 1 1.5h.2L61.7 39c0 .2 0 .2.2.2h1.7c.2 0 .2 0 .2-.2l1.7-8.8L67 39c0 .2 0 .2.2.2h2c.2 0 .2 0 .2-.2L72 27.5h.2c.7 0 1-.5 1-1.5.5-.4.3-.4 0-.4z"/><path class="st16" d="M77.9 36.8c-.2.2-.7.7-1.5.7-.7 0-1.2-.7-1.2-1.5 0-2 2.2-1.7 2.9-1.7v2.4l-.2.1zm2.4.5c0-.5-.2-1-.2-1.7v-3.7c0-2.2-1-3.2-3.2-3.2-1.5 0-3.2.7-3.2 1 0 0 0 .5.2.7 0 .2.2.5.7.5.2 0 1.5-.2 2-.2 1.2 0 1.5.7 1.5 1.7v.7c-1.5 0-4.9 0-4.9 3.4 0 2 1 3.2 2.7 3.2 1.2 0 2-.7 2.4-1.2l.2-.2v.2c0 .5.2.7.5.7h2.2c.2 0 .2 0 .2-.2-.1-1.2-.3-1.7-1.1-1.7zM64.2 20.4l-.2-8.1c0-.2 0-.2-.2-.2h-3.2c-.2 0-.2 0-.2.2 0 1.2.2 1.5 1.2 1.5h.2v6.6h-.2c-1 0-1.2.2-1.2 1.5 0 .2 0 .2.2.2h4.7c.2 0 .2 0 .2-.2-.1-1-.4-1.5-1.3-1.5zM62.7 8.2c-.7 0-1.5.7-1.5 1.5 0 .7.5 1.5 1.5 1.5.7 0 1.2-.7 1.2-1.5.3-.8-.5-1.5-1.2-1.5zm-15.2 2.7c1 0 1.2-.2 1.2-1.5 0-.2 0-.2-.2-.2h-4.4c-.2 0-.2 0-.2.2v.2c0 1.2.2 1.5 1.2 1.5v6.6c0 1.2 0 2.9-2 2.9s-2-1.5-2-2.9v-6.6c1 0 1.2-.2 1.2-1.5v-.2s0-.2-.2-.2h-4.4c-.2 0-.2 0-.2.2 0 1.2.2 1.5 1.2 1.5v6.6c0 3.7 1.2 5.1 4.4 5.1s4.4-1.5 4.4-5.1v-6.6zm10.3 9.5V15c0-2.2-.7-3.2-2.4-3.2-1.5 0-2.2.7-2.9 1.5v-.5c0-.5-.2-.7-.5-.7h-2.4c-.2 0-.2 0-.2.2 0 1 .2 1.5 1.2 1.5.2.5.2.7.2 2v4.7c-1 0-1.2.2-1.2 1.5 0 .2 0 .2.2.2h2.9c.2 0 .2 0 .2-.2v-7.3c.2-.2 1-1 1.7-1 1.2 0 1.2 1.2 1.2 1.7v6.4c0 .2 0 .2.2.2h3c.2 0 .2 0 .2-.2-.2-.9-.4-1.4-1.4-1.4zm11.8 2.2c1.2 0 2.4-.2 2.4-.7 0 0 0-.5-.2-.7-.2-.7-.2-1-1.7-1-.2 0-.2 0-.5-.2-.2-.2-.2-1-.2-1.5v-5.1h1.2c1 0 1.2-.2 1.2-1.5 0-.2 0-.2-.2-.2h-2.2v-3c0-.2 0-.2-.2-.2h-.7c-.7 0-1.2.5-1.2 1.7v2h-1.2c-.2 0-.2 0-.2.2 0 1.2.2 1.5 1.2 1.5h.2v4.7c0 2.1 0 4 2.3 4zm5.6-6.6c0-1 .2-2.4 1.7-2.4s1.5 1.7 1.5 2.4h-3.2zm5.4 1.5c0-3.7-1.2-5.6-3.7-5.6S73 14.1 73 17.5c0 4.4 2.2 5.4 4.2 5.4 1.5 0 3.2-.7 3.2-1.2 0 0 0-.5-.2-.7 0-.2-.2-.5-.7-.5s-1.2.2-2 .2c-1.5 0-2.2-1-2.2-2.7h4.9c.4-.3.4-.3.4-.5zm4.9 3.2c-1.5 0-1.7-1.2-1.7-3.4s.2-3.4 1.7-3.4c.5 0 1 .2 1.5.5v5.9c-.1-.1-.5.4-1.5.4zm4.1-.3c-.2-.5-.2-.7-.2-1.7v-10c0-.2 0-.2-.2-.2h-2.9c-.2 0-.2 0-.2.2 0 1 .2 1.5 1.2 1.5v2.4l-.2-.2c-.2-.2-.7-.5-1.7-.5-2.2 0-3.4 2-3.4 5.9 0 3.2 1.2 4.9 3.2 4.9 1.7 0 2.7-1.2 2.7-1.2l.2.5c0 .2 0 .5.5.5h2.7c.2 0 .2 0 .2-.2-.6-1.4-.9-1.9-1.9-1.9z"/></g><g id="AC" class="st0"><g class="st1"><path class="st3" d="M67.6 37.1c-1.8 0-5.2-1-5.2-11.8s3.4-11.7 5.2-11.7c.9 0 1.4.2 1.4.2v1.3c-.3-.1-.5-.2-.9-.2-1.6 0-3.9 1.4-3.9 10.3 0 9.1 2.4 10.4 4 10.4.3 0 .5 0 .8-.1v1.3c.1.1-.5.3-1.4.3zm9.1-8.9c.7.9 1.5 2 2.1 3.5.7 1.9 1.1 3.8 1.1 5.4h-1.8c0-1.5-.3-3.3-.8-4.6-.6-1.5-1.4-2.8-2-3.5v8h-1.8V13.8h1.4c2.5 0 5.3 1.2 5.3 6.7 0 4.6-2.4 6.8-3.5 7.7zm-1.4-13v12.2c.6-.2 2.9-2 2.9-6.7.1-4.7-1.6-5.5-2.9-5.5zm9.6 21.7v-8h-.7v-1.4h.7V13.8h5.9v1.4h-4v12.3h3.1v1.4h-3.1v6.7h4V37l-5.9-.1zm19 0h-1l-2.3-15-2.3 15h-1l-3.6-23.2h1.8l2.3 15.8 2.3-15.8h.9l2.3 15.8 2.3-15.8h1.6l-3.3 23.2zm3.8-.8c.1.1.2.3.2.5s-.1.4-.2.5-.3.2-.5.2-.4-.1-.5-.2c-.1-.1-.2-.3-.2-.5s.1-.4.2-.5.3-.2.5-.2c.2-.1.4-.1.5.2zm-.1 0c-.1-.1-.3-.2-.5-.2s-.3.1-.5.2-.2.3-.2.5c0 .1.1.3.2.5s.3.2.5.2.3-.1.5-.2c.1-.1.2-.3.2-.5s0-.4-.2-.5zm-.1.2c0 .1-.1.2-.2.2l.2.4h-.1l-.2-.4h-.2v.4h-.1V36h.3c.2.1.3.2.3.3zm-.5-.1v.3h.1c.1 0 .3 0 .3-.1s-.1-.1-.3-.1h-.1v-.1zM63.7 4.7l-.2-.7H63l-.1.7h-.5L63 .3h.5l.6 4.4h-.4zm-.4-3.1L63 3.5h.5l-.2-1.9zm7.1 3.1V2.4L70 3.6h-.3l-.3-1.2v2.3h-.5V.3h.3l.8 2.2.8-2.2h.2v4.4h-.6zm5.3 0V3.3h-.2v-.5h.2V.3h1.4v.5h-.8v2h.7v.5h-.6v1h.8v.5h-1.5v-.1zM82.8 3c.1.1.3.4.4.7s.2.7.2 1h-.6c0-.3 0-.5-.1-.7s-.3-.5-.3-.6v1.4h-.6V.3h.5c.6 0 1.2.3 1.2 1.3-.1.9-.5 1.3-.7 1.4zM82.3.8v1.9c.1 0 .5-.3.5-1.1 0-.6-.3-.8-.5-.8zM88 4.7V.3h.6v4.4H88zm6.4 0c-.5 0-1.2-.2-1.2-2.2S93.9.3 94.4.3h.3v.5h-.2c-.3 0-.7.2-.7 1.7s.4 1.7.7 1.7h.2v.5c0-.1-.1 0-.3 0zm6.1 0l-.1-.7h-.6l-.1.7h-.5l.7-4.4h.5l.6 4.4h-.5zm-.4-3.1l-.3 1.8h.5l-.2-1.8zm7 3.1l-1-2.5v2.5h-.5V.3h.3l1 2.5V.3h.6v4.4h-.4zM64.8 46.5c-.3-.3-.6-.4-1-.4s-.7.1-1 .3c-.3.3-.5.7-.5 1.2 0 .4.1.8.4 1.1.3.3.6.4 1 .4.9 0 1.4-.6 1.4-1.5.1-.5 0-.8-.3-1.1zm-1-.1c.3 0 .5.1.7.3.1.2.3.5.3.8s0 .7-.3 1c-.1.1-.4.3-.7.3s-.6-.1-.7-.4c-.1-.2-.3-.5-.3-.8s.1-.6.3-.8c.1-.3.4-.4.7-.4zm2.9-.2h-.3c-.5 0-.5.4-.5.5v.4h-.3v.2h.3V49h.3v-1.6h.3v-.3h-.3v-.3c0-.1 0-.3.3-.3h.2v-.3zm1.3 0h-.3c-.5 0-.5.4-.5.5v.4h-.3v.2h.3V49h.3v-1.6h.3v-.3h-.3v-.3c0-.1 0-.3.3-.3h.2v-.3zm.4.9h.3V49h-.3v-1.9zm0-1h.3v.4h-.3v-.4zm2.4 2.2c0 .1-.1.5-.5.5-.2 0-.3-.1-.5-.3-.1-.1-.1-.3-.1-.5s.1-.7.5-.7.5.3.5.4h.3c-.1-.5-.7-.6-.9-.6-.3 0-.5.1-.7.3-.1.2-.2.4-.2.7s.1.5.2.7.4.3.7.3c.4 0 .6-.1.7-.4.1-.1.1-.3.1-.3l-.1-.1zm.8-1.2h.3V49h-.3v-1.9zm0-1h.3v.4h-.3v-.4zm2.6 2.6c-.2 0-.2-.1-.2-.3v-.6c0-.3 0-.5-.2-.6-.2-.2-.5-.2-.6-.2-.3 0-.5.1-.7.3-.1.1-.1.2-.1.3h.3c0-.1 0-.4.4-.4s.4.3.4.5v.1h-.3c-.6.1-.7.2-.9.3-.1.1-.1.2-.1.3 0 .3.3.5.6.5s.5-.2.6-.3c0 .2.1.3.3.3h.1l.4-.2zm-1.1 0c-.3 0-.3-.1-.3-.3s.1-.3.4-.3c.1 0 .3-.1.4-.1h.1c0 .3 0 .3-.1.4 0 .3-.3.3-.5.3zm1.6-2.6h.3V49h-.3v-2.9zm4.3 1.3c-.1-.1-.2-.1-.3-.1h-.1l-.3-.1c-.3-.1-.5-.1-.5-.4 0-.2.1-.4.6-.4.2 0 .4.1.5.1.2.1.2.4.2.5h.4c0-.1-.1-.5-.4-.7s-.5-.2-.7-.2c-.1 0-.5 0-.7.3-.1.1-.3.3-.3.5 0 .6.6.7 1 .8l.3.1c.3.1.5.1.5.5 0 .3-.3.5-.7.5-.3 0-.4-.1-.5-.2-.2-.2-.2-.4-.2-.5l-.6-.1c0 .4.2.7.5.8.2.1.4.1.7.1.3 0 .5-.1.7-.2.3-.1.4-.4.4-.7 0 0-.1-.4-.5-.6zm2.3-.3v1c0 .2 0 .4-.1.5s-.3.2-.4.2-.3 0-.4-.3v-1.4H80v1.1c0 .3 0 .5.1.6s.2.2.5.2c.4 0 .5-.2.6-.3v.3h.3v-2l-.2.1zm2.5.1c-.1-.1-.4-.3-.6-.3-.1 0-.4.1-.5.1l-.1.1V47h-.3v2.8h.3v-1.1c.1.2.4.3.6.3.5 0 .9-.4.9-1 0-.3-.1-.6-.3-.8zm0 .8c0 .4-.2.6-.3.6-.1.1-.2.1-.3.1-.4 0-.6-.3-.6-.7s.2-.7.5-.7c.5.1.7.3.7.7zm2.4-.8c-.1-.1-.4-.3-.6-.3-.1 0-.4.1-.5.1l-.1.1V47h-.3v2.8h.3v-1.1c.1.2.4.3.6.3.5 0 .9-.4.9-1 0-.3-.1-.6-.3-.8zm0 .8c0 .4-.2.6-.3.6-.1.1-.2.1-.3.1-.4 0-.6-.3-.6-.7s.2-.7.5-.7c.5.1.7.3.7.7zm.8-1.9h.3V49H87v-2.9zm1 1h.3V49H88v-1.9zm0-1h.3v.4H88v-.4zm2.3 2.2c-.1.4-.3.4-.5.4s-.3-.1-.4-.1c-.1-.1-.2-.3-.2-.5h1.4v-.4c-.1-.5-.6-.7-.8-.7-.2 0-.5.1-.6.2-.2.2-.3.4-.3.7 0 .6.3 1 1 1 .4 0 .7-.2.9-.6h-.5zm-1.1-.5c0-.3.3-.5.5-.5.5 0 .5.5.5.5h-1zm3-.8c-.1 0-.5 0-.6.3V47h-.3v1.9h.3V48c0-.1 0-.3.1-.5.1-.1.3-.2.4-.2h.1V47zm2.8.4v-.3h-.3v-.6h-.3v.6h-.3v.3h.3v1.2c0 .1 0 .3.1.3.1.1.1.1.3.1h.3v-.3c-.1 0-.1.1-.2.1s-.1-.1-.1-.3v-1.1h.2zm1.9-.2c-.1-.1-.4-.3-.6-.3-.3 0-.6.1-.7.3s-.2.4-.2.7c0 .5.3 1 1 1 .5 0 .9-.4 1-1-.2-.2-.3-.5-.5-.7zm-.1.8c0 .6-.3.7-.5.7-.3 0-.5-.3-.5-.7 0-.6.4-.7.6-.7.1 0 .5.1.5.5-.1 0-.1.1-.1.2zm4.8-1.9l-.9 2.4-.8-2.4h-.5V49h.4l-.1-2.3.9 2.3h.3l.9-2.4-.1 2.4h.4v-2.9h-.5zm2.5 2.2c-.1.4-.3.4-.5.4s-.3-.1-.4-.1c-.1-.1-.2-.3-.2-.5h1.4v-.4c-.1-.5-.5-.7-.8-.7-.2 0-.5.1-.6.2-.2.2-.3.4-.3.7 0 .6.3 1 1 1 .4 0 .7-.2.9-.6h-.5zm-1-.5c0-.3.3-.5.5-.5.5 0 .5.5.5.5h-1zm3.4-.4c-.1-.3-.4-.4-.6-.4-.1 0-.4 0-.6.3V47h-.3v2h.3v-1.1c0-.1 0-.3.1-.4.1-.1.2-.1.3-.1.1 0 .3.1.4.3v1.4h.3v-1.2c.2-.2.2-.3.1-.5zM106.4 46.2h.2v.5h.1v-.5h.2v-.1l-.5.1zm.9-.1l-.2.4-.1-.4h-.1v.6h.1v-.4l.1.4h.1l.2-.4v.4l-.1-.6zM62.3 9.2h45v.1h-45v-.1zm0 32.3h45v.1l-45-.1z"/></g></g></g><g class="st0"><g class="st1"><path class="st20" d="M64.2 27.6c-.3 1.6-.6 3.2-.8 4.7-.1.5-.2.6-.7.6h-3.1c.8-4.5 1.7-8.9 2.5-13.3.3-1.4.5-2.7.6-4.1.1-.6.2-.6.6-.6h2.2c.4 0 .6.1.5.5s-.1.8-.2 1.5c.5-.6.8-.9 1.3-1.3 2.6-1.9 5.7-.7 6.1 2.3.1.6.1 1.1.1 1.7-.1 2.4-.8 4.5-2.5 6.3-1.7 2.1-4.2 2.6-6.6 1.7zm5.4-7.9c-.1-.8-.1-1.6-1-1.9-.6-.3-1.4.1-2 .8-.5.6-.7 1.1-.9 1.8-.4 1.3-.6 2.7-.8 4.1-.1.4.2.5.4.6.9.5 2 .2 2.9-.8.8-1.4 1.3-2.9 1.4-4.6zM41 16.3c.8-.7 1.7-1.4 2.9-1.6 2.2-.4 3.6.8 3.7 3.1 0 1.8-.5 3.4-.7 5.1-.3 1.5-.6 2.9-.8 4.4-.1.5-.2.6-.6.6h-2.6c-.4 0-.5-.1-.4-.5.5-2.3.8-4.6 1.3-6.9.1-.6.2-1.1.1-1.7-.1-1-.9-1.5-1.9-.9-.6.4-1 .9-1.4 1.7-.7 1.4-.8 3-1.1 4.5-.3 1.2-.5 2.3-.6 3.5-.1.4-.2.5-.6.5h-2.7c-.5 0-.5-.2-.5-.6.6-3.5 1.4-7.1 2-10.7.4-2.1.8-4.3 1.2-6.4.1-.5.2-.6.7-.6h3.1c-.4 2.1-.8 4.3-1.1 6.5-.1 0-.1.1-.1.2 0 0 0-.1.1-.2zm53 7.2c.3-.1.3-.4.4-.6.8-2.5 1.9-4.9 2.8-7.4.2-.4.3-.6.7-.5h2.8c.3 0 .5 0 .3.4-2.2 4.5-3.9 9-6.6 13.2-1.2 1.9-2.7 3.7-4.9 4.5-1 .5-1 .5-1.4-.6-.2-.6-.4-1.1-.6-1.7-.2-.4-.1-.6.4-.7 1.4-.6 2.5-1.4 3.3-2.7.2-.4.3-.7.2-1.1-.6-3.6-1.3-7.1-2-10.8-.1-.6 0-.6.6-.6.8 0 1.8.1 2.6 0 .6 0 .6.3.6.6.3 2.5.5 5 .7 7.6.1.2.1.3.1.4zm-33.5-3.1c-.1 2.3-1 4.7-3.3 6.4-1.6 1.1-3.3 1.5-5.2 1s-3.3-1.9-3.5-4.1c-.3-3.1.6-5.7 3.1-7.7 1.6-1.3 3.4-1.7 5.4-1.2 2.1.5 3.5 2.5 3.5 5.6zm-3.7-.5v-.7c-.1-.6-.4-1.3-1-1.5-.6-.3-1.3-.1-1.9.4-1.3 1.1-2.1 4.5-1.6 6 .4 1.1 1.6 1.5 2.6.7.6-.4.8-.9 1.1-1.5.4-1.1.7-2.2.8-3.4zm25.1 8c-.6 0-1.4.2-1.7-.1-.3-.3.1-1 .2-1.6.5-2.6.9-5.2 1.5-7.8.1-.5 0-.6-.5-.6-1 0-1 0-.8-1v-.5c.3-1.2.3-1.2 1.5-1.2.4-.1.5-.1.6-.5.2-.9.5-1.9.9-2.8 1.4-2.7 4.3-3.1 6.3-2.6.3.1.4.2.3.5-.2.6-.4 1.4-.6 2 0 .5-.1.5-.5.5-2-.6-2.8 1.2-3 2.6-.1.3.2.3.4.3h1.7c.4 0 .5.1.4.4 0 .1 0 .2-.1.2-.1.6-.1 1.6-.5 1.9-.4.4-1.3.1-1.9.1-.4 0-.5.2-.6.6-.6 3-1.1 5.9-1.7 8.9-.1.5-.2.7-.7.6-.4.1-.8.1-1.2.1zm-53.1.1c-1.1 0-2.1-.2-3.2-.6-.4-.2-.5-.4-.3-.7.2-.6.4-1.1.6-1.7.1-.4.3-.5.6-.3.7.4 1.6.6 2.4.6.6 0 1.3-.1 1.6-.8.3-.7-.2-1.2-.7-1.6s-1-.6-1.6-1c-1.9-1.5-2-4.2-.1-5.7 2-1.6 4.3-1.6 6.6-.8.4.1.4.3.3.6-.1.1-.1.2-.1.4-.2.6-.2 1.3-.6 1.7-.4.4-1-.3-1.6-.3-.5 0-1-.1-1.5.1-.9.4-1.1 1.2-.4 1.9.3.2.6.4.8.6.4.3.7.5 1.1.7 2.8 1.9 1.5 5.5-.6 6.5-1 .1-2.1.4-3.3.4z"/><path class="st21" d="M104.7 26.3c-.4 1.9-.6 3.6-1 5.3 0 .3-.1.6-.2.7-.2.4-.5.6-.8.6-.5-.1-.5-.6-.4-.8.4-2 .7-4.1 1.2-6.1.6-3.2 1.2-6.3 1.9-9.5v-.2c.1-.6.2-1.2.9-1.2.8.1.4.8.5 1.3.3.1.4-.2.6-.3 1.8-1.3 3.7-1.5 5.7-.8 1.7.5 2.4 1.8 2.5 3.4.2 3-.4 5.7-2.6 7.8-1.8 1.7-3.9 1.9-6.1 1.4-1-.3-1.6-.9-2.2-1.6zm.7-3.4c0 2.2.6 3.4 2 3.7 2 .6 4.1 0 5.3-1.9 1.1-1.8 1.6-3.8 1.5-5.9-.1-1.1-.6-2-1.7-2.5-1.9-.8-4.4-.2-5.6 1.5-1.1 1.7-1.4 3.6-1.5 5.1z"/><path class="st20" d="M77.6 15.1c.6 0 1.4-.4 1.7.1.4.4-.1 1.1-.2 1.7-.6 3.5-1.4 7-2 10.6-.1.4-.3.5-.7.5H74c-.6 0-.6-.2-.6-.6.6-3.4 1.3-6.8 1.9-10.2 0-.1 0-.2.1-.2.1-.6.1-1.4.4-1.7.5-.4 1.3-.2 1.8-.2z"/><path class="st21" d="M137.8 28.1c-1.3 0-2.5-.3-3.5-.9-.4-.3-.6-.6-.9-.9-.2-.4-.2-.6.2-.9.4-.2.6-.2.9.1 1.4 1.5 3.9 1.9 5.7 1 .6-.3 1-.7 1.3-1.4.4-.9.2-1.6-.6-2.1-.6-.4-1.3-.6-2-.9-.6-.3-1.2-.5-1.9-.8-1.9-1-2.2-2.8-1-4.5 1.5-2.1 5.7-2.4 7.6-.6.1.1.2.2.2.3.3.4.3.7-.1 1-.4.3-.6.3-.9-.1-1.2-1.4-2.7-1.4-4.3-1-.4.1-.7.3-1 .5-1.1.8-1 2.3.2 3.1.6.4 1.2.6 1.9.8.6.2 1.1.4 1.7.6 2 1 2.5 3 1 4.7-1.2 1.6-2.8 1.9-4.5 2zm-11.5-1.3c2.6 0 3.8-1 4.4-3.5.1-.5.2-.9.3-1.3.1-.6.4-.8.9-.7.6.1.5.6.4.9-.3 1.4-.5 2.9-1.5 4.1-1.6 1.9-3.6 2-5.8 1.8-2.5-.4-3.5-1.9-3.1-4.3.5-2.5.9-5 1.4-7.5 0-.1.1-.2.1-.4.1-.5.4-.8.9-.6.6.1.5.6.4.9-.4 2-.8 4.1-1.2 6.2l-.3 1.8c-.2 1.5.6 2.6 2.1 2.8.3-.2.6-.2 1-.2zm-9.6-1.4c.3-1.5.6-3.2.9-5 .6-3.5 1.4-7 2-10.6 0-.2.1-.5.2-.7.2-.4.5-.6.9-.6.5.1.4.5.4.8l-.9 4.8c-.6 3.5-1.4 7.1-2 10.7 0 .2-.1.5-.1.7 0 .6.2 1.1.9 1.2.4 0 .7.1.6.6s-.4.6-.8.6c-1.4.1-2.1-.9-2.1-2.5z"/><path class="st20" d="M78.5 9.6c1.1 0 1.9.7 1.9 1.9s-.9 2.1-2.1 2.1c-1 0-1.8-.7-1.8-1.9-.2-1.2.8-2.1 2-2.1z"/><path class="st21" d="M131.4 19.6c0-.5.4-1 .1-1.3-.2-.2-.8-.1-1.2-.1-.3 0-.5-.2-.5-.6s.3-.6.6-.7.6 0 .9 0c.4 0 .6-.1.6-.5s.1-.6.2-.9c.2-.4.5-.6.8-.5.4.1.5.5.4.8v.1c-.2 1-.2 1 .8 1 .4 0 .8.1.8.6s-.3.7-.8.7h-.2c-1 0-1 0-1.3 1.1-.1.3-.1.6-.5.8-.2.1-.5.2-.6 0s-.1-.2-.1-.5z"/><path class="st22" d="M41 16.3c0 .1-.1.2-.2.1v-.3c0 .1.1.2.2.2z"/></g></g><g class="st0"><path class="st13" d="M101.7 42v-5.7h3.9v.9h-3v1.5h2.9v.9h-2.9v1.6h3v.9l-3.9-.1zm10.2 0l-1.6-2.2-1.6 2.2h-1.2l2.1-3-2-2.8h1.2l1.5 2.1 1.5-2.1h1.2l-2 2.8 2.1 3h-1.2zm3.2 0v-5.7h2.5c1.2 0 1.9.8 1.9 1.8s-.6 1.8-1.9 1.8h-1.5V42h-1zm3.3-4c0-.6-.4-.9-1-.9H116V39h1.4c.7-.1 1-.5 1-1zm3.3 4v-5.7h3.9v.9h-3v1.5h2.9v.9h-2.9v1.6h3v.9l-3.9-.1zm9.6 0l-1.3-2.1h-1V42h-1v-5.7h2.5c1.1 0 1.9.7 1.9 1.8s-.6 1.6-1.4 1.7l1.4 2.2h-1.1zm.1-4c0-.6-.4-.9-1-.9H129V39h1.4c.6-.1 1-.5 1-1zm4.7 4v-4.8h-1.8v-.9h4.5v.9h-1.7V42h-1zm4.6-.9l.6-.7c.4.4 1 .8 1.9.8s1.1-.4 1.1-.8c0-.6-.6-.6-1.3-.8-.9-.2-2-.5-2-1.8 0-.9.8-1.7 2.1-1.7.9 0 1.7.3 2.1.8l-.6.7c-.5-.5-1-.6-1.7-.6-.6 0-1 .3-1 .7 0 .5.6.6 1.3.7.9.3 2 .6 2 1.8 0 .9-.6 1.8-2.2 1.8-1 .1-1.8-.3-2.3-.9z"/></g><path class="st23" d="M50.2 11.6c2.6 0 5.2 1.1 6.7 2.6.6-1.8 1.7-3.5 2.9-5.2-2.6-2-5.9-3.3-9.6-3.3-8.5 0-15.7 7-15.7 15.8 0 8.5 6.8 15.7 15.7 15.7 3.7 0 6.8-1.2 9.6-3.3-1.2-1.7-2-3.3-2.9-5.2-1.8 1.7-4.1 2.6-6.7 2.6-5.5 0-10-4.4-10-10 0-5.3 4.4-9.7 10-9.7zM17.8 0c-1.1 0-1.8.6-2.3 1.4L0 35.9h6.1L8.4 31h18.7l2.3 4.9h6.1L20.2 1.7C19.8.8 18.7 0 17.8 0zM11 25.6l7-15.4 7 15.4H11zm80.9-4.1c0-8.5-6.7-15.4-15.1-15.7-.2 0-.5.2-.2.5.6 1.2 2 4.1 4.4 5.9 3.3 2.4 5.2 5.5 5.2 9.1 0 4.7-3.7 10-9.7 10-6.1 0-9.7-5.3-9.7-10 0-3.7 2-6.7 5.2-9.1 2.4-2 4.1-4.9 4.4-6.1.2-.2 0-.5-.2-.5-8.5.2-15.4 7.2-15.4 15.7 0 6.8 5.9 15.1 15.5 15.1 4.3 0 7.9-1.2 10.7-3.5l3 2.9h8.5l-8.1-7.6c.9-1.9 1.5-4 1.5-6.7zm37.9-15.1h5.9v29.5h-5.9V6.4zm-11.4 14.9c0 6.1-3 10-8.2 10-5.2 0-8.2-3.8-8.2-10V6.4h-6v14.9c0 9 5.9 15.5 14 15.5s14-6.5 14-15.5V6.4h-5.6v14.9zm45.5-14.9v4.4l-1.1-1.1c-2.6-2.9-5.8-4.3-9.1-4.3-3.8 0-7.3 1.4-9.7 4.4-2.6 2.9-3.8 6.7-3.8 11 0 4.4 1.4 8.4 3.8 11.3 2.6 2.9 6.1 4.4 10 4.4 3.3 0 6.1-1.4 9-3.8l1.1-1.1v4.1h5.9V6.4h-6.1zm-2.1 22.5c-1.8 2-4.1 2.9-6.8 2.9-2.6 0-4.9-1.1-6.5-3s-2.4-4.4-2.4-7.6c0-2.9.8-5.3 2.6-7.3s4.1-3 6.5-3c2.9 0 5.2 1.1 6.7 3 1.7 2 2.6 4.4 2.6 7.6 0 2.9-.9 5.3-2.7 7.4z" id="Acquia"/><g class="st0"><path class="st13" d="M72 37.2l-2.2 10h1.8l.5-2.4H74l.5 2.4h1.8l-2-10H72zm.2 6.2l.4-2.2c.1-.6.3-1.6.4-2.3.1.7.2 1.7.3 2.3l.4 2.2h-1.5zM82 37h-1.8v3.7c-.2-.4-.6-.8-1.2-.8-1.2 0-2.3 1.2-2.3 3.8 0 2.1.7 3.7 2.2 3.7.7 0 1.3-.4 1.5-1l.1.8H82c0-.6-.1-1.4-.1-2.1L82 37zm-1.9 7.7c0 .2 0 .3-.1.5-.2.6-.5.7-.7.7-.6 0-1-.8-1-2.2 0-1.2.3-2.3 1-2.3.4 0 .7.4.8.9v2.4zm5.6-4.8c-1.4 0-2.8 1.2-2.8 3.8 0 2.4 1 3.7 2.7 3.7 1.1 0 2.7-.8 2.7-3.8.1-2.3-.9-3.7-2.6-3.7zm0 6.1c-.8 0-1-1.1-1-2.4 0-1 .2-2.4.9-2.4s.9 1.3.9 2.4c.1 1.1-.1 2.4-.8 2.4zm7.1-6.1c-.7 0-1.2.3-1.5.9V37h-1.8v8.2c0 .7 0 1.5-.1 2.1H91l.1-.9c.4.7.8 1 1.4 1 1.3 0 2.3-1.4 2.3-3.9 0-2.1-.7-3.6-2-3.6zm-.8 6c-.2 0-.6-.1-.7-.8 0-.1-.1-.3-.1-.5v-2c0-.1 0-.3.1-.5.1-.4.4-.8.7-.8.7 0 1 .9 1 2.2 0 1.5-.3 2.4-1 2.4zm8.8-2.7c0-2.1-.9-3.4-2.4-3.4-1.6 0-2.8 1.5-2.8 3.9 0 2.3 1.1 3.6 3 3.6.7 0 1.4-.1 1.9-.3l-.2-1.3c-.3.1-.8.3-1.4.3-.9 0-1.5-.4-1.6-1.7h3.4c.1-.3.1-.6.1-1.1zm-3.5-.3c0-.8.3-1.7 1-1.7.6 0 .9.7.9 1.7h-1.9z"/></g><g class="st0"><path class="st24" d="M89.2 4.2l11.6 27.7V4.2H89.2zm-19.7 0v27.7L81.1 4.2H69.5zm10.6 22.1h5.4l2.2 5.6h4.8l-7.3-17.5-5.1 11.9z"/></g><g id="Drupal" class="st0"><path class="st25" d="M81.7 17H77v8.7c0 2.5-1.1 4.6-3.6 4.6s-3.7-2.1-3.7-4.6V17h-4.6v8.7c0 5 3.2 9.1 8.3 9.1 5 0 8.3-4.1 8.3-9.1V17zm42-5.3h4.6v22.7h-4.6V11.7z"/><g class="st1"><path class="st26" d="M131.8 12.5v-.8h3.6v.8h-1.3v3.6h-1v-3.6h-1.3zm5.5-.8l1 3 1-3h1.4v4.4h-.9V13l-1.1 3.1h-.7l-1.1-3.1v3.1h-.9v-4.4h1.3z"/></g><path class="st25" d="M61.3 16.8c-4-.9-6.5 3-6.6 3.3-.1.1-.1.2-.2.2s-.2-.2-.2-.2l-.5-3h-4.2v17.3h4.7V25c0-.8 2.1-4.4 6.1-3.5 2 .5 2.9 1.3 2.9 1.3v-5.3c-.8-.3-1.3-.5-2-.7zM88 40.1v-8.5s0-.2.2-.2.2.1.2.2c.4.9 2.3 4.2 6.6 3.2 3.9-1.1 6.7-4.6 6.7-8.8 0-5.1-4.1-9.2-9.2-9.2s-9.2 4.1-9.2 9.2v14.2H88v-.1zm4.6-18.9c2.6 0 4.6 2.1 4.6 4.6 0 2.6-2.1 4.6-4.6 4.6-2.6 0-4.6-2.1-4.6-4.6-.1-2.5 2-4.6 4.6-4.6zm24.6 13.2h4.7v-8.5c0-5.1-4.1-9.2-9.2-9.2s-9.2 4.1-9.2 9.2c0 4.2 2.8 7.7 6.7 8.8 4.3 1 6.2-2.3 6.6-3.2 0-.1.1-.2.2-.2.2 0 .2.2.2.2m.1-5.7c0 2.6-2.1 4.6-4.6 4.6-2.6 0-4.6-2.1-4.6-4.6 0-2.6 2.1-4.6 4.6-4.6s4.6 2.1 4.6 4.6z"/><g class="st1"><path class="st26" d="M35.1 34.3h-5.3V11.7h5.7c6.9 0 12.1 1.3 12.1 11.3s-5.5 11.3-12.5 11.3zm1.3-18.7h-1.9v14.8h1.9c3.9 0 6.5-.4 6.5-7.4 0-6.8-2.2-7.4-6.5-7.4z"/></g></g><g id="Mailchimp" class="st0"><path class="st13" d="M138.4 24.4c-.7-.7-1.5-1.2-2.5-1.2-1.4 0-2.7 1.1-3.9 3.2l-.1.2-.1-.2c-.3-.9-.6-1.7-.7-2.1-.1-.3-.2-.5-.2-.5-.1-.2-.2-.4-.5-.4-.2 0-.3.1-.5.2s-.2.2-.2.4c-1.2 3.9-2.3 5.9-3.2 5.9-.2 0-.2-.1-.3-.2-.2-.2-.2-.9-.1-1.7.1-.7.2-1.3.1-2-.1-1.4-.8-2.3-2-2.3-1.6 0-2.6 1.7-3.1 2.7l-.2.3v-.3c-.1-1.2-.6-2.8-1.9-2.8-1.6 0-2.7 1.8-3.4 3.3l-.2.4v-.5c.1-2 .2-3.3.2-3.6.1-.3 0-.6-.1-.7-.1-.2-.3-.2-.6-.2-.5 0-.7.3-1.1 1.3-.7 1.6-2.2 5.5-3.5 5.5-.2 0-.5-.1-.6-.2-.6-.7-.3-2.3 0-4.6v-.2c.2-1.1-.1-1.3-.7-1.4h-.2c-.5 0-.7.5-1.1 1.7-.8 2.2-1.8 4.6-2.9 4.6h-.2c-.7-.1-.6-1.1-.6-2.2 0-.7 0-1.4-.1-2-.2-1.1-.9-1.9-1.8-1.9-1.9 0-3.1 2.4-3.7 3.8l-.2.3-.3-.4c-.1-.7-.2-1.5-.2-2.7 3.4-4.3 5-7.5 5.1-10.2 0-1.7-.8-2.8-2.1-2.8-1 0-3.3.8-4.1 8.4-.2 1.4-.2 2.9-.2 4.2-1.5 2.3-5 6.2-8.2 6.2-3 0-5.4-2.4-5.4-6.7 0-5.7 4-9.2 7.1-9.2.7 0 1.2.2 1.6.6.4.3.7.9.7 1.5 0 .8-.2 1.2-.5 1.6-.1.1-.2.2-.2.3-.1.1-.1.2 0 .4s.3.2.6.2c.7 0 1.8-1.1 1.8-2.6 0-1.6-1.4-3.3-3.8-3.3-3.8 0-8.8 4.2-8.8 10.9 0 4.7 2.9 8 7 8 2.9 0 5.7-2 8.2-5.5l.2-.2v.2c.1 1.2.2 2.2.2 2.9.1.5.1.8.1 1 0 .4.1.7.2.9.2.2.3.2.7.2.6 0 .7-.4.9-1.3l.1-.2c.2-1.1 1.3-4.9 2.9-4.9.2 0 .4.1.6.2.3.3.3 1.1.2 2 0 .6-.1 1.1 0 1.6.2 1.5.7 2.1 1.9 2.2 1.1 0 2.4-1.2 3-2.4l.2-.2.1.2c.2.7.7 2.7 2.4 2.7 1.6 0 2.8-1.6 4.2-4.9l.2-.4v.5c0 1.2-.1 2.8-.1 3.9 0 .9.1 1.2.5 1.2h.1c.4 0 .7-.2.8-.7 1.1-3.8 2-5.5 2.9-5.5s1 1.6 1.1 4.6v.2c0 1 .1 1.5.7 1.5.5 0 .6-.4.8-1.3.1-.2.1-.4.2-.6.9-3 1.6-4.2 2.4-4.2.7 0 .8.8.8 1.1 0 .6 0 1.1-.1 1.7-.1.5-.1 1.1-.1 1.6.1 1.1.7 1.8 1.8 1.8 1.5 0 2.8-1.7 3.9-5.1l.1-.2.1.2c.2.5.5 1.2.7 2.1-1.1 2.4-1.9 5.2-1.9 6.7 0 2 .9 3.2 2.2 3.2.7 0 2.4-.3 2.5-3.1 0-1.1-.2-2.8-.8-4.8l-.1-.2.2.2c.6.5 1.3.7 2.1.7 2.3 0 3.8-1.5 3.9-3.8 0-1-.3-2-.9-2.8zm-40.5-2.7c0-.7.1-1.4.2-2 .6-4.1 1.6-7 2.8-7 .5 0 .7.4.7 1.1 0 1.9-1.2 4.6-3.5 7.9l-.2.2v-.2zM132 36.4c-.2.2-.4.3-.7.3s-.6-.2-.7-.3c-.5-.7-.3-2.2.5-5 .1-.3.2-.7.3-1l.1-.2.1.2c.8 3.3 1 5.3.4 6zm4.8-7.3c-.4.3-1 .6-1.6.6-1.5 0-2.4-.8-2.9-1.5l-.1-.2c1.1-2.2 2.3-3.4 3.3-3.4 1.2 0 2 1.1 2 2.6.2 1-.3 1.6-.7 1.9zm-56.2 0c0-.2 0-.4-.2-.5-.2-.2-.3-.2-.5 0l-.1.1c-.4.3-1.1 1.1-1.8 1.1-.9.1-1.6-.5-2-1.6v-.3c2.5-3.3 4.3-8.4 4.2-11.8-.1-1.6-.6-3.4-2.3-3.4h-.2c-.7 0-1.2.3-1.8.9-1.6 1.8-2.4 6.2-2.1 11.2.1 1.1.2 2 .6 2.9v.2c-1 1.1-1.9 1.7-2.6 1.7-1.8 0-1.7-3-1.6-5.5 0-.6.1-.9-.1-1.1-.1-.2-.3-.2-.6-.2-.7 0-.7.2-1.1 1.1-.7 2-2 5.3-3.3 5.3-.4 0-.7-.2-.8-.4-.7-.8-.2-2.9.2-4.6.1-.3.2-.6.2-.9.1-.4.1-.7-.1-.9-.2-.2-.4-.2-.8-.2-.6.1-1 .3-1.1 1.4v.2l-.2-.2c-.2-.4-.7-.8-1.6-.8h-.2c-1 .1-2.1.7-2.9 1.8-1 1.2-1.4 2.7-1.3 4.2v.2c-.6.7-1.1.9-1.7.9-.9 0-1.4-.7-1.4-1.8 0-1.9 1.2-7.4 1.2-9.4 0-2.1-1-3.3-2.6-3.3-2.4 0-4.3 2.8-6.1 8.4-.2.5-.3 1.1-.5 1.6l-.2.8.1-.9c.2-2 .3-3.9.3-5.7.1-2.7-.2-4.5-1.1-5.4-.5-.5-1.1-.7-1.9-.7-2.9 0-4.4 5-5.4 8.5-.2.8-.6 2.3-1 3.8.2-2.4.6-6.7.6-9.1 0-3-1.1-4.3-3.3-4.4-1.1 0-2 .6-2.4 1.1-.8.8-1.2 2-1.2 2.9 0 .6.4 1.1.7 1.1.2 0 .3-.2.3-.4.7-2.3 1.6-3.3 2.7-3.3.5 0 .8.2 1.1.4.9 1 .7 3.5.4 8.2-.1 1.5-.2 3.2-.3 5.1 0 .3 0 .7-.1 1-.1 1.3-.2 2.4.3 2.5.7.1 1.1-.2 1.3-.8.2-.6 1-3.3 2.4-8.2 1.4-4.7 2.4-6.4 3.8-6.4 1.6 0 1.6 2.6 1.4 8.2-.1 1.1-.2 2.5-.2 3.9v.6c-.1 1.2-.1 2.1.2 2.5.1.1.2.2.4.2.7 0 .9-.6 1.2-1.5.1-.2.2-.3.2-.6 2.3-6.3 3.9-11.7 6.2-11.7.7 0 1.2.6 1.2 1.6 0 2.4-1.2 7.3-1.2 9.6 0 .9.2 1.6.7 2.2s1.1.9 2 .9c.7 0 1.5-.4 2.4-1.1l.1-.1.1.1c.5.7 1.4 1.1 2.3 1 1.4-.1 2.6-1.4 3-2.5l.1-.2.1.2c.1.9.8 2 2.3 1.8 1.6-.2 2.9-2.4 3.4-3.3l.2-.2.1.2c.2 1.3 1 3.6 3.3 3.6 1 0 2.1-.6 3.3-1.7l.1-.1.1.1c.7 1.3 1.8 2 2.9 1.9 1.2-.1 2.1-1.3 2.2-2zm-21.6.7h-.2c-.7 0-1.1-.5-1.1-1.4-.1-1.1.4-2.4 1.2-3.3.6-.6 1.1-.9 1.7-.9.7 0 1.2.6 1.5 1.1-.5 2-1.4 4.4-3.1 4.5zm16.5-3.7l-.2.2v-.2c-.1-.7-.2-1.6-.2-2.2-.2-4.8 1.2-9.5 2.4-9.5.2 0 .3.1.4.2.6.7.6 3.5-.4 6.6-.5 1.8-1.2 3.4-2 4.9z"/><path class="st13" d="M70 20.4c.7 0 1.1-.5 1.1-1.1 0-.7-.5-1.1-1.1-1.1-.7 0-1.1.5-1.1 1.1s.4 1.1 1.1 1.1zm39.3 0c.7 0 1.1-.5 1.1-1.1-.1-.7-.6-1.1-1.1-1.1-.7 0-1.1.5-1.1 1.1s.4 1.1 1.1 1.1zm30.6 9.4c-.4 0-.7.3-.7.7 0 .4.3.7.7.7s.7-.3.7-.7c0-.4-.3-.7-.7-.7zm.4 1.2l-.2-.4c0-.1.2-.1.2-.2 0-.2-.1-.2-.2-.2h-.1c.1 0 .2 0 .2.2s-.1.2-.2.2h-.1v-.3h-.1v.7h.1v-.4h.2l.2.4c-.1.1-.3.2-.4.2-.3 0-.7-.3-.7-.7 0-.3.3-.7.7-.7.3 0 .7.3.7.7-.1.2-.2.4-.3.5zm-76 8.4l3.2.2v-.7h-2.4v-1.3h2.3v-.8h-2.3v-1.2h2.4v-.7h-3.2v4.5zm10.1-4.5h-1.1l-1.1 1.7-1.2-1.7h-1l1.7 2.2-1.7 2.3h.9l1.3-1.7 1.3 1.7h1l-1.7-2.3 1.6-2.2zm4.9 0h-2v4.6l.8.1v-1.7h1.2c.9 0 1.5-.7 1.5-1.5s-.5-1.5-1.5-1.5zm-.1 2.2h-1.1v-1.5h1.1c.5 0 .8.3.8.7s-.3.8-.8.8zm4.5 2.3l3.1.2v-.7h-2.3v-1.3h2.3v-.8h-2.3v-1.2h2.3v-.7h-3.1v4.5zm9.7-3.1c0-.9-.6-1.5-1.5-1.5h-2v4.6h.8v-1.7h.8l1 1.7 1 .1-1.1-1.8c.4-.1 1-.5 1-1.4zm-1.7.8h-1.1v-1.5h1.1c.5 0 .8.3.8.7s-.4.8-.8.8zm4.3-1.6h1.4v3.9h.8v-3.9h1.4v-.7H96v.7zm7.8 0c.5 0 1 .2 1.3.5l.5-.6c-.4-.4-1-.7-1.7-.7-1 0-1.6.6-1.6 1.3 0 1 .9 1.2 1.6 1.4.6.1 1.1.2 1.1.7 0 .3-.2.7-.9.7s-1.1-.3-1.5-.7l-.5.7c.4.5 1.1.7 1.7.7 1.2 0 1.8-.7 1.8-1.4 0-1-.9-1.2-1.6-1.4-.5-.2-1-.3-1-.7 0-.2.3-.5.8-.5z"/></g><g id="Rackspace" class="st0"><g class="st1"><path d="M56 5.3c5.4-.3 9.6 3.2 9.9 8.5.4 6.1-4.5 12.4-10.9 14-2.2.6-4.3.5-6.1-.1-.1-2.4.3-4.9 1.4-6.7 1.7-2.9 4.3-2.6 5.7.5.6 1.2.9 2.6 1 4.1l1.5-.9c-1.6-3.8-2.3-8.4 3.4-16.4-1.6-1.3-4.2-2-7.4-1.6.5-.4 1-.9 1.5-1.4z"/><path class="st27" d="M54.3 9c-4.8 5.9-6.8 13.5-6.5 20.3-2.8-1.1-4.9-3.9-5.1-7.3-.4-6.1 4.5-12.4 10.9-14.1 2.5-.6 4.8-.5 6.8.3-.4 1.2-1.1 2.5-1.8 3.5-1.4 2.1-3.5 3.4-4.5 3-1.1-.5-.8-2.6.6-4.7.3-.5.7-.9 1.1-1.3-.6.1-1.1.2-1.5.3zm.4 2.8c-.5 1-.3 1.8.4 1.8s1.6-.8 2.1-1.7c.5-1 .3-1.8-.4-1.8-.7-.1-1.6.7-2.1 1.7z"/></g><g class="st1"><path d="M99.1 29.9c.6-.7 1.5-1.1 2.3-1.1 1.6 0 2.7 1.2 2.7 3.1 0 1.4-.5 2.8-1.3 3.8-.9 1.1-2.1 1.7-3.4 1.7-.6 0-1.1-.2-1.3-.3l-.5 2.6s0 .1-.1.1H95v-.1L97 29s0-.1.1-.1h2.2l-.2 1zm-.4 3.4l-.3 1.7c.3.2.6.3.9.3 1.2 0 2.1-1.7 2.1-3.3 0-.5-.1-1.2-.9-1.2s-1.5 1-1.8 2.5zM74.7 33.9c0 2 1.4 3.4 3.5 3.4.9 0 1.8-.2 2.3-.4v-.1l.4-2v-.1h-.1c-.7.4-1.3.5-1.9.5-.7 0-1.5-.4-1.5-1.6 0-1.4 1-2.8 2.6-2.8.5 0 .9.1 1.3.3h.1V31l.4-1.9V29c-.4-.2-1.1-.3-1.7-.3-3.1.1-5.4 2.3-5.4 5.2zm16.4-4.3c-.7.5-1 1.2-1 2.1 0 .9.6 1.6 1.7 2.2.7.3 1 .6 1 1s-.4.6-.9.6c-.8 0-1.8-.4-2.3-.7h-.1v.1l-.3 1.8v.1c.5.4 1.5.6 2.5.6 1.3 0 2.3-.3 3-1 .5-.5.8-1.1.8-1.9 0-1.2-1-1.8-1.8-2.2-.6-.3-.9-.6-.9-.9 0-.4.4-.6 1-.6.7 0 1.4.2 1.8.4h.1v-.1l.3-1.8v-.1c-.4-.2-1.1-.4-2.1-.4-1.3 0-2.1.2-2.8.8zM64.3 30.2c.1-.4.2-1.2.2-1.2h-2.2s-.1 0-.1.1l-1.5 8.1v.1h2.5s.1 0 .1-.1l.6-3.1c.2-1.3.9-2.8 2.4-2.8h.5l.5-2.3v-.1h-.5c-1-.1-1.9.4-2.5 1.3zm19.1-4.1c-.1 0-.1.1 0 0L81.2 37v.1h2.4s.1 0 .1-.1c0 0 .7-3.8.8-4.1.1.3 1.9 4.1 1.9 4.1h2.7s-1.9-4.2-2-4.3c.1-.1 3.2-3.7 3.2-3.7H87.5s-2.8 3.2-3 3.5c.1-.4 1.2-6.2 1.2-6.2h-2.3v-.2zM120.4 30.4c.9-1 2.1-1.6 3.5-1.6 1.7 0 2.9 1 2.9 2.5 0 .7-.2 1.3-.7 1.7-.8.8-2.3 1.1-4.5 1.1 0 .2.1.5.2.7.3.4.8.6 1.5.6 1 0 1.8-.2 2.7-.8h.1v.1l-.4 2v.1c-1.1.6-2.5.6-3 .6-2.3 0-3.5-1.3-3.5-3.5 0-1.3.4-2.6 1.2-3.5zm3.2.3c-1 0-1.6.8-1.8 1.5 1.3 0 2.1-.1 2.4-.5.1-.1.2-.3.2-.4 0-.4-.3-.6-.8-.6zm-11.1 3.2c0 2 1.4 3.4 3.4 3.4.9 0 1.8-.2 2.3-.4v-.1l.4-2v-.1h-.1c-.7.4-1.3.5-1.9.5-.7 0-1.5-.4-1.5-1.6 0-1.4 1-2.8 2.6-2.8.5 0 .9.1 1.3.3h.1V31l.4-1.9V29c-.4-.2-1.1-.3-1.7-.3-3.1.1-5.3 2.3-5.3 5.2zm14.5 2.9l.2-.5h.1c.1 0 .2.1.2.2v.3h.1v-.3c0-.1 0-.2-.1-.2.1 0 .3-.2.3-.3s0-.1-.1-.2-.2-.1-.3-.1h-.3l-.1 1.1zm.3-1c.2 0 .3.1.3.2s-.1.3-.3.3h-.1l.1-.5zm.1-.4c.5 0 .8.4.8.9s-.5.9-.9.9c-.5 0-.8-.4-.8-.9s.5-.9.9-.9zm-1.1.9c.1-.6.5-1 1.1-1s1 .5.9 1c-.1.6-.5 1-1.1 1-.5 0-.9-.5-.9-1zM71 37l.2-.9v-.2c-.1.4-.5.8-.7 1-.5.3-1 .5-1.6.5-1.6 0-2.4-1.4-2.4-2.9 0-1.6.6-3.2 1.7-4.3.9-.9 2-1.4 3.3-1.4 1.8 0 2.8.8 2.8 2.3 0 .5-.1 1-.2 1.5l-.9 4.5s0 .1-.1.1L71 37c0 .1 0 .1 0 0 0 .1 0 .1 0 0zm-1.9-3.1c0 .4.1 1.3.8 1.3.8 0 1.6-.9 1.8-2.2l.1-.7c0-.3.1-.5.1-.9 0-.5-.3-.8-.8-.8-.3 0-.6.2-.9.5-.6.7-1.1 1.9-1.1 2.8zm39.6 3.1l.2-.9v-.2c-.1.4-.5.8-.7 1-.5.3-1 .5-1.6.5-1.6 0-2.4-1.4-2.4-2.9 0-1.6.6-3.2 1.7-4.3.9-.9 2-1.4 3.3-1.4 1.8 0 2.8.8 2.8 2.3 0 .5-.1 1-.2 1.5l-.9 4.5s0 .1-.1.1l-2.1-.2c.1.1.1.1 0 0 0 .1 0 .1 0 0zm-1.8-3.1c0 .4.1 1.3.8 1.3.8 0 1.6-.9 1.8-2.2l.1-.7c0-.3.1-.5.1-.9 0-.5-.3-.8-.8-.8-.3 0-.6.2-.9.5-.7.7-1.1 1.9-1.1 2.8z"/></g><g class="st1"><path class="st27" d="M105.6 43.1c.3-.3.6-.5 1.1-.5.7 0 1.1.4 1.1 1.1 0 .4-.1.8-.4 1.2-.3.3-.7.4-1.1.4-.6 0-1-.5-1.1-1.1 0-.4.2-.8.4-1.1zm1.7.6c0-.3-.2-.6-.6-.6-.6 0-.9.7-.9 1.2 0 .3.2.6.6.6.6 0 .9-.7.9-1.2zm3.1-1.1c.2 0 .5 0 .7.1l-.1.4c-.2-.1-.4-.1-.6-.1s-.4.1-.4.3.2.3.3.3c.1 0 .1.1.2.1.2.1.5.3.5.7 0 .6-.5.9-1.1.9-.3 0-.5-.1-.7-.1l.1-.5c.2.1.4.2.7.2.2 0 .5-.1.5-.4 0-.2-.1-.3-.3-.4-.1 0-.1-.1-.2-.1-.2-.1-.5-.3-.5-.6 0-.6.4-.8.9-.8zm13.3 0c.3 0 .6 0 .8.1l-.1.5c-.2-.1-.5-.2-.7-.2-.6 0-1 .5-1 1.1 0 .4.3.8.7.8h.3l.1-.7h-.5l.1-.4h1.1l-.3 1.4c-.2.1-.4.1-.7.1-.8 0-1.3-.4-1.3-1.2-.1-.9.5-1.5 1.5-1.5zm-3.6 2l.4-2h.5l-.5 2.6h-.7l-.6-2-.4 2h-.5l.5-2.6h.7l.6 2zm-6.7-1.5h-.7l.1-.4h2l-.1.4h-.7l-.4 2.2h-.5l.3-2.2zm-11.6 2.2h-.5l.5-2.6h.5l-.2 1h1l.2-1h.5l-.5 2.6h-.5l.2-1.1h-1l-.2 1.1zm14.5-2.3h-.3l.1-.4h1.1l-.1.4h-.3l-.4 1.9h.3l-.1.4h-1.1l.1-.4h.3l.4-1.9z"/></g></g></svg>