<svg xmlns="http://www.w3.org/2000/svg" viewBox="0 0 600.1 294.4"><path d="M539.9 0h19.3c1 .2 2 .4 3 .5 7.3 1.1 14.7 2 22 3.3 5.4 1 10.6 2.6 15.9 3.9v1.7c-.2.4-.5.8-.6 1.2-3.7 11.2-7.4 22.4-11 33.6-1.3 3.8-2.5 7.7-3.7 11.2-3.9-2.2-7.4-4.6-11.2-6.2-16.3-7-33.1-7.4-49.9-2.3-10.2 3.1-19.6 7.9-27.5 15.1-8.4 7.6-14.7 16.8-20.5 26.5-3.4 5.8-6.4 11.8-8.1 19.1h110.6c-1.8 7.5-3.3 14.4-5 21.4-6.9 28.4-13.7 56.8-20.6 85.2-4.8 20-9.8 39.9-14.6 59.9-1.6 6.7-3.1 13.5-4.7 20.3H37.1c25.5-46.7 51.1-93.1 76.9-139.9-8.9.6-17.2 1.2-25.5 1.8-1.7 13.1-3.3 25.8-5.1 39.1-12.2-11.5-24-22.6-35.9-33.8-5.2 4.1-10.1 8-15.1 12-10.8 8.5-21.6 17.1-32.4 25.6v-1.1c.2-.2.4-.4.5-.6 8.2-18.2 16.3-36.3 24.4-54.5.4-.9 0-2.5-.6-3.4-5.2-7.7-10.6-15.3-15.9-22.9-1.2-1.7-2.3-3.4-3.6-5.3.9-.3 1.4-.4 2-.5 13.7-2.4 27.5-4.9 41.2-7.3 2-.4 3.3-1.3 4.4-3.1 8.9-15.4 17.9-30.8 26.9-46.2.3-.6.8-1.1 1.6-2.3 1 18.6 2 36.4 2.9 54.3.9 0 1.4.1 1.9.1 17.4 0 34.8 0 52.2.1 2 0 2.9-.8 3.8-2.4 17.9-32.7 35.9-65.4 53.8-98.1 1-1.9 2.1-2.6 4.3-2.6 17.8.1 35.7 0 53.5 0h3.7c1.5 34.5 3.1 68.7 4.6 103.1.9.1 1.7.2 2.4.2 9.4 0 18.8 0 28.1.1 2.3 0 3.3-.6 3.9-3 8.1-32.5 16.4-65 24.5-97.5.6-2.6 1.7-3 4.1-3 38.3.3 76.5.2 114.7.2h4.2c-3.8 14.8-7.6 29.5-11.4 44.3h-69.7c-3.7 15.6-7.3 31-11 46.7h58c-.9 4.3-1.7 8.2-2.5 12.2 5.2.7 5.1.7 6.7-3.9 1.1-3.4 2.2-6.8 3.7-10.1 7.3-16.3 16.9-31.2 28-45.1 20.1-25.3 46.2-40.4 78.1-45.5 5.4-.8 11-1.4 16.5-2.1zM210.3 211.9c.6-21.4 1.1-42.6 1.7-64-1.5 0-2.5-.1-3.5 0-8.2.5-16.5 1.1-24.7 1.7-6 .4-11.9 1-17.8 1.3-1.7.1-2.5.9-3.2 2.4-9.1 18-18.2 36-27.3 53.9-.8 1.5-1.4 3-2.2 4.7h77zm228.7 0c-3.3-2.4-6.5-4.2-9.1-6.6-17.2-15.7-23.2-35.8-22.8-58.3.1-4.1.4-8.2.6-12.5h-2.1c-12.4.8-24.7 1.6-37.1 2.4-7.6.5-15.2 1.1-22.8 1.6-4.8.3-4.8.2-5.9 4.8l-6.3 25.2c-.6 2.6-1.2 5.2-1.9 8.2h72.1c-3.4 11.9-6.7 23.5-10.1 35.3 15.2-.1 30.1-.1 45.4-.1zm24.3-81.4c-.8 11.8.4 22.9 5.5 33.2 3.4 6.9 8.3 12.3 16.1 14.4 9.2 2.5 18 1.2 26.6-2.6 1.1-.5 2.1-2 2.4-3.3 2.5-10.1 4.8-20.2 7.1-30.2 1.2-5.1 2.3-10.3 3.5-15.7-20.5 1.4-40.7 2.8-61.2 4.2zm-199.9 13.7v3.5c.7 14.6 1.5 29.2 2.1 43.7.3 6.1.4 12.1.7 18.2 0 .8.8 1.6 1.2 2.4.6-.6 1.3-1.3 1.9-2 .3-.3.3-.9.4-1.3 4.5-17.7 8.9-35.4 13.4-53.1 1-4.1 2-8.3 3.2-12.9-7.9.5-15.3 1-22.9 1.5zm-49.1-91.6c-.2 0-.4-.1-.5-.1-9 17.9-18.1 35.8-27.3 53.9h26.6c.3-18.1.8-35.9 1.2-53.8z" fill="#fff"/></svg>