<?xml version="1.0" encoding="utf-8"?>
<!-- Generator: Adobe Illustrator 19.2.1, SVG Export Plug-In . SVG Version: 6.00 Build 0)  -->
<svg version="1.1" id="Layer_1" xmlns="http://www.w3.org/2000/svg" xmlns:xlink="http://www.w3.org/1999/xlink" x="0px" y="0px"
	 viewBox="0 0 616.1 308" style="enable-background:new 0 0 616.1 308;" xml:space="preserve">
<style type="text/css">
	.st0{fill:#222222;}
</style>
<path class="st0" d="M547.9,3.5c6.4,0,12.9,0,19.3,0c1,0.2,2,0.4,3,0.5c7.3,1.1,14.7,2,22,3.3c5.4,1,10.6,2.6,15.9,3.9
	c0,0.6,0,1.1,0,1.7c-0.2,0.4-0.5,0.8-0.6,1.2c-3.7,11.2-7.4,22.4-11,33.6c-1.3,3.8-2.5,7.7-3.7,11.2c-3.9-2.2-7.4-4.6-11.2-6.2
	c-16.3-7-33.1-7.4-49.9-2.3c-10.2,3.1-19.6,7.9-27.5,15.1c-8.4,7.6-14.7,16.8-20.5,26.5c-3.4,5.8-6.4,11.8-8.1,19.1
	c37,0,73.7,0,110.6,0c-1.8,7.5-3.3,14.4-5,21.4c-6.9,28.4-13.7,56.8-20.6,85.2c-4.8,20-9.8,39.9-14.6,59.9
	c-1.6,6.7-3.1,13.5-4.7,20.3c-165.4,0-330.8,0-496.2,0C70.6,251.2,96.2,204.8,122,158c-8.9,0.6-17.2,1.2-25.5,1.8
	c-1.7,13.1-3.3,25.8-5.1,39.1c-12.2-11.5-24-22.6-35.9-33.8c-5.2,4.1-10.1,8-15.1,12c-10.8,8.5-21.6,17.1-32.4,25.6
	c0-0.4,0-0.7,0-1.1c0.2-0.2,0.4-0.4,0.5-0.6c8.2-18.2,16.3-36.3,24.4-54.5c0.4-0.9,0-2.5-0.6-3.4c-5.2-7.7-10.6-15.3-15.9-22.9
	c-1.2-1.7-2.3-3.4-3.6-5.3c0.9-0.3,1.4-0.4,2-0.5c13.7-2.4,27.5-4.9,41.2-7.3c2-0.4,3.3-1.3,4.4-3.1c8.9-15.4,17.9-30.8,26.9-46.2
	c0.3-0.6,0.8-1.1,1.6-2.3c1,18.6,2,36.4,2.9,54.3c0.9,0,1.4,0.1,1.9,0.1c17.4,0,34.8,0,52.2,0.1c2,0,2.9-0.8,3.8-2.4
	c17.9-32.7,35.9-65.4,53.8-98.1c1-1.9,2.1-2.6,4.3-2.6c17.8,0.1,35.7,0,53.5,0c1.2,0,2.3,0,3.7,0c1.5,34.5,3.1,68.7,4.6,103.1
	c0.9,0.1,1.7,0.2,2.4,0.2c9.4,0,18.8,0,28.1,0.1c2.3,0,3.3-0.6,3.9-3c8.1-32.5,16.4-65,24.5-97.5c0.6-2.6,1.7-3,4.1-3
	C370.9,7.1,409.1,7,447.3,7c1.3,0,2.6,0,4.2,0c-3.8,14.8-7.6,29.5-11.4,44.3c-23.4,0-46.5,0-69.7,0c-3.7,15.6-7.3,31-11,46.7
	c19.7,0,38.7,0,58,0c-0.9,4.3-1.7,8.2-2.5,12.2c5.2,0.7,5.1,0.7,6.7-3.9c1.1-3.4,2.2-6.8,3.7-10.1c7.3-16.3,16.9-31.2,28-45.1
	c20.1-25.3,46.2-40.4,78.1-45.5C536.8,4.8,542.4,4.2,547.9,3.5z M218.3,215.4c0.6-21.4,1.1-42.6,1.7-64c-1.5,0-2.5-0.1-3.5,0
	c-8.2,0.5-16.5,1.1-24.7,1.7c-6,0.4-11.9,1-17.8,1.3c-1.7,0.1-2.5,0.9-3.2,2.4c-9.1,18-18.2,36-27.3,53.9c-0.8,1.5-1.4,3-2.2,4.7
	C167,215.4,192.4,215.4,218.3,215.4z M447,215.4c-3.3-2.4-6.5-4.2-9.1-6.6c-17.2-15.7-23.2-35.8-22.8-58.3c0.1-4.1,0.4-8.2,0.6-12.5
	c-0.8,0-1.4,0-2.1,0c-12.4,0.8-24.7,1.6-37.1,2.4c-7.6,0.5-15.2,1.1-22.8,1.6c-4.8,0.3-4.8,0.2-5.9,4.8c-2.1,8.4-4.2,16.8-6.3,25.2
	c-0.6,2.6-1.2,5.2-1.9,8.2c24.2,0,48,0,72.1,0c-3.4,11.9-6.7,23.5-10.1,35.3C416.8,215.4,431.7,215.4,447,215.4z M471.3,134
	c-0.8,11.8,0.4,22.9,5.5,33.2c3.4,6.9,8.3,12.3,16.1,14.4c9.2,2.5,18,1.2,26.6-2.6c1.1-0.5,2.1-2,2.4-3.3
	c2.5-10.1,4.8-20.2,7.1-30.2c1.2-5.1,2.3-10.3,3.5-15.7C512,131.2,491.8,132.6,471.3,134z M271.4,147.7c0,1.3,0,2.4,0,3.5
	c0.7,14.6,1.5,29.2,2.1,43.7c0.3,6.1,0.4,12.1,0.7,18.2c0,0.8,0.8,1.6,1.2,2.4c0.6-0.6,1.3-1.3,1.9-2c0.3-0.3,0.3-0.9,0.4-1.3
	c4.5-17.7,8.9-35.4,13.4-53.1c1-4.1,2-8.3,3.2-12.9C286.4,146.7,279,147.2,271.4,147.7z M222.3,56.1c-0.2,0-0.4-0.1-0.5-0.1
	c-9,17.9-18.1,35.8-27.3,53.9c9.2,0,17.8,0,26.6,0C221.4,91.8,221.9,74,222.3,56.1z"/>
</svg>
