<?xml version="1.0" encoding="utf-8"?>
<!-- Generator: Adobe Illustrator 19.2.1, SVG Export Plug-In . SVG Version: 6.00 Build 0)  -->
<svg version="1.1" id="Layer_1" xmlns="http://www.w3.org/2000/svg" xmlns:xlink="http://www.w3.org/1999/xlink" x="0px" y="0px"
	 viewBox="0 0 194 83.5" style="enable-background:new 0 0 194 83.5;" xml:space="preserve">
<style type="text/css">
	.st0{fill:#EE0D47;}
	.st1{fill:#FFFFFF;}
</style>
<title>Group 2</title>
<desc>Created with Sketch.</desc>
<g id="Page-1">
	<path id="Fill-1" class="st0" d="M2.5,65.9c0,0,106.6-26,185.6-7.7l0.2-0.8c0,0-68.9-20.2-184.5,4.4L2.5,65.9z"/>
	<path id="Fill-3" class="st1" d="M53.6,14.9v4.3c0.4-0.9,0.9-2,2.2-3.1c1.5-1.2,3.6-1.9,5.6-1.9c1.1,0,2.1,0.2,3.2,0.6
		c3.3,1.2,4.2,3.8,4.6,4.9c2.6-4.7,6.6-5.4,8.8-5.4c2.7,0,5,1,6.6,2.5c2.8,2.7,2.9,5.7,2.9,13v17h-8.2V31.7c0-5.1-0.1-6.1-0.9-7.5
		c-0.9-1.5-2.2-1.8-3.4-1.8c-2.2,0-3.3,1.6-3.5,1.8c-0.9,1.5-0.9,4.2-0.9,6.8v15.7h-8.2v-16c0-3.4,0-5-0.8-6.4
		c-0.6-1-1.8-1.9-3.3-1.9c-0.7,0-1.5,0.2-2.1,0.6c-2.4,1.4-2.5,3.7-2.5,9.7v14.1h-8.2V14.9H53.6z"/>
	<polygon id="Fill-4" class="st1" points="120.2,14.9 128.5,14.9 120.2,46.7 112.5,46.7 107.7,25.2 102.9,46.7 95.1,46.7 86.8,14.9 
		95.1,14.9 99.5,34.8 104,14.9 111.3,14.9 115.8,34.8 	"/>
	<path id="Fill-5" class="st1" d="M146.2,46.7h8V14.8h-7.9V19c-1.5-3.1-4-4.9-7.1-4.9c-5.5,0-12.6,4.7-12.6,17.2
		c0,10,5.1,16.1,12,16.1c4.7,0,6.6-2.7,7.6-4.2L146.2,46.7L146.2,46.7z M145.8,30.5c0,2.9-0.4,5.7-2.1,7.7c-1.5,1.7-3.1,1.8-3.6,1.8
		c-1.6,0-3.5-1-4.6-3.8c-0.7-1.6-0.9-3.5-0.9-5.5c0-2.5,0.3-5,1.7-7c1-1.4,2.6-2.3,4.1-2.3c1.2,0,2.5,0.6,3.3,1.6
		C144.7,24.2,145.8,26.3,145.8,30.5L145.8,30.5z"/>
	<path id="Fill-6" class="st1" d="M173.1,14.9h8.3l-9.2,31.6c-0.7,2.2-1.7,5.8-3.3,7.6c-1.5,1.6-3.3,2.3-9.9,2.3
		c-0.9,0-1.3-0.1-2.2-0.1v-7.1h2.2c0.8,0,2.6,0,3.5-0.8c0.7-0.6,1.2-1.9,1.2-3.2c0-0.7-0.3-1.9-0.6-2.7l-8.9-27.7h8.9l5.2,21.5
		L173.1,14.9z"/>
	<path id="Fill-7" class="st1" d="M21.9,3.2L8.2,46.7h10.1l2.6-9.2h12.9l2.6,9.2h10.2L32.2,3.2H21.9z M27.1,12.8l4.4,16.8H23
		L27.1,12.8z"/>
	<path id="Fill-8" class="st1" d="M180.5,46.8h-1.6v-6.2h-2.4v-1.3h6.3v1.3h-2.3V46.8z M191.2,46.8h-1.6l0.1-4.3
		c0-0.4,0.1-1.3,0.1-1.5c-0.1,0.3-0.2,0.8-0.3,1.2l-1.4,4.6h-1.4l-1.5-4.6c0-0.2-0.3-1-0.3-1.2c0.1,0.4,0.1,0.9,0.1,1.5l0.1,4.3
		h-1.6v-7.5h2.1l1.8,5.6l1.7-5.6h2.1L191.2,46.8L191.2,46.8z"/>
</g>
</svg>
