<svg xmlns="http://www.w3.org/2000/svg" viewBox="0 0 188.7 62.7"><path style="fill:#ed174b" d="M0 62.7s106.6-26 185.6-7.7l.2-.8S116.9 34 1.3 58.6L0 62.7z"/><path style="fill:#fff" d="M51.1 11.7V16c.4-.9.9-2 2.2-3.1 1.5-1.2 3.6-1.9 5.6-1.9 1.1 0 2.1.2 3.2.6 3.3 1.2 4.2 3.8 4.6 4.9 2.6-4.7 6.6-5.4 8.8-5.4 2.7 0 5 1 6.6 2.5 2.8 2.7 2.9 5.7 2.9 13v17h-8.2V28.5c0-5.1-.1-6.1-.9-7.5-.9-1.5-2.2-1.8-3.4-1.8-2.2 0-3.3 1.6-3.5 1.8-.9 1.5-.9 4.2-.9 6.8v15.7h-8.2v-16c0-3.4 0-5-.8-6.4-.6-1-1.8-1.9-3.3-1.9-.7 0-1.5.2-2.1.6-2.4 1.4-2.5 3.7-2.5 9.7v14.1H43V11.7h8.1z"/><path style="fill:#fff" d="M117.7 11.7h8.3l-8.3 31.8H110L105.2 22l-4.8 21.5h-7.8l-8.3-31.8h8.3L97 31.6l4.5-19.9h7.3l4.5 19.9 4.4-19.9z"/><path style="fill:#fff" d="M143.7 43.5h8V11.6h-7.9v4.2c-1.5-3.1-4-4.9-7.1-4.9-5.5 0-12.6 4.7-12.6 17.2 0 10 5.1 16.1 12 16.1 4.7 0 6.6-2.7 7.6-4.2v3.5zm-.4-16.2c0 2.9-.4 5.7-2.1 7.7-1.5 1.7-3.1 1.8-3.6 1.8-1.6 0-3.5-1-4.6-3.8-.7-1.6-.9-3.5-.9-5.5 0-2.5.3-5 1.7-7 1-1.4 2.6-2.3 4.1-2.3 1.2 0 2.5.6 3.3 1.6 1 1.2 2.1 3.3 2.1 7.5z"/><path style="fill:#fff" d="M170.6 11.7h8.3l-9.2 31.6c-.7 2.2-1.7 5.8-3.3 7.6-1.5 1.6-3.3 2.3-9.9 2.3-.9 0-1.3-.1-2.2-.1V46h2.2c.8 0 2.6 0 3.5-.8.7-.6 1.2-1.9 1.2-3.2 0-.7-.3-1.9-.6-2.7l-8.9-27.7h8.9l5.2 21.5 4.8-21.4z"/><path style="fill:#fff" d="M19.4 0L5.7 43.5h10.1l2.6-9.2h12.9l2.6 9.2h10.2L29.7 0H19.4zm5.2 9.6L29 26.4h-8.5l4.1-16.8z"/><path style="fill:#fff" d="M178 43.6h-1.6v-6.2H174v-1.3h6.3v1.3H178v6.2zm10.7 0h-1.6l.1-4.3c0-.4.1-1.3.1-1.5-.1.3-.2.8-.3 1.2l-1.4 4.6h-1.4l-1.5-4.6c0-.2-.3-1-.3-1.2.1.4.1.9.1 1.5l.1 4.3H181v-7.5h2.1l1.8 5.6 1.7-5.6h2.1v7.5z"/></svg>