<svg width="137" height="48" viewBox="0 0 137 48" xmlns="http://www.w3.org/2000/svg" xmlns:xlink="http://www.w3.org/1999/xlink"><title>Slice 1</title><defs><path id="a" d="M0 .098h132V46H0V.098z"/></defs><g fill="none" fill-rule="evenodd"><path d="M126.392 30.878h4.79l-8.98 10.697h-4.662l-.008-20.083c.555.236 2.236.715 4.96.715 3.24 0 6.586-1.641 6.586-5.457 0-3.156-2.323-4.514-3.814-4.95a4.49 4.49 0 0 0 1.475-3.317c0-4.404-4.47-4.514-4.75-4.514H121.744c-2.132 0-3.686 1.1-4.213 1.53V1.01c1.14-.502 2.56-.911 4.213-.911.099 0 .201.003.303.008a9.947 9.947 0 0 1 4.196 1.02c2.805 1.406 4.412 4.083 4.412 7.357 0 .667-.08 1.33-.236 1.97 1.488 1.469 2.58 3.556 2.58 6.297 0 3-1.315 5.591-3.706 7.293-1.833 1.304-4.25 2.027-6.802 2.027-.299 0-.739-.01-1.266-.033v11l5.166-6.159zm2.335 10.697h.257v-1.587h.622v-.22h-1.505v.22h.626v1.587zm1.09 0h.253l.09-1.138c.007-.11.005-.268.005-.268h.004s.057.174.096.268l.367.815h.227l.363-.815c.044-.097.097-.264.097-.264h.007s-.007.155.002.264l.093 1.138h.252l-.146-1.806h-.272l-.417.977c-.042.1-.09.245-.09.245h-.007s-.05-.145-.088-.245l-.42-.977h-.272l-.145 1.806z" fill="#9ACA3B"/><g transform="translate(1)"><mask id="b" fill="#fff"><use xlink:href="#a"/></mask><path d="M14.69 33.609c0-.317-.17-.462-.468-.462h-.853v-2.27h2.468c.958 0 1.448.402 1.448 1.308v.629c0 .396-.04.667-.04.667h.04c.492-1.53 1.787-2.748 3.45-2.748.235 0 .488.04.488.04v2.626s-.276-.044-.66-.044c-1.15 0-2.465.652-2.956 2.25a6.347 6.347 0 0 0-.236 1.742v4.244h-2.682V33.61zm8.856 0c0-.317-.171-.462-.472-.462h-.85v-2.27H24.8c.998 0 1.426.445 1.426 1.434v6.57c0 .292.169.46.467.46h.853v2.25H24.97c-1 0-1.424-.42-1.424-1.43V33.61zm14.575-2.731c-.848 0-1.19.508-1.19.985v.275h-.044s-.829-1.506-3.342-1.506c-3.126 0-4.81 2.39-4.81 5.33s1.768 5.415 4.875 5.415c1.446 0 2.387-.48 3.022-1.383h.041s-.02.318-.02.569v.503c0 1.93-1.426 2.623-3.065 2.623-1.657 0-3-.712-3-.712l-.832 2.1c1.047.546 2.492.923 3.854.923 2.83 0 5.725-1.386 5.725-5.06v-7.372c0-.276.19-.421.47-.421h.832v-2.27h-2.516zm-3.938 8.255c-1.743 0-2.7-1.39-2.7-3.257 0-1.806.895-2.98 2.532-2.98 1.468 0 2.705.647 2.705 3.09 0 2.411-1.237 3.147-2.537 3.147zm8.578-9.724c0-.317-.17-.463-.47-.463h-.847v-2.27h2.573c1 0 1.446.447 1.446 1.41v3.758c0 .53-.044.906-.044.906h.044c.511-1.028 1.853-2.118 3.724-2.118 2.427 0 3.788 1.231 3.788 4.07v4.18c0 .291.172.458.47.458h.852v2.251h-2.575c-1 0-1.428-.42-1.428-1.43v-4.914c0-1.302-.361-2.182-1.723-2.182-1.426 0-2.533.923-2.938 2.226-.128.42-.17.883-.17 1.386v4.914h-2.702V29.41zm13.513 3.593h-1.403v-2.124h1.469v-2.916h2.638v2.916h2.469v2.124h-2.47v4.326c0 1.764 1.409 2.012 2.152 2.012.298 0 .487-.041.487-.041v2.33s-.34.063-.828.063c-1.51 0-4.514-.44-4.514-4.03v-4.66zm6.918-3.53c-.128-.356-.3-.462-.656-.462h-.386v-2.334h1.767c1.065 0 1.444.281 1.786 1.223l2.897 8.314c.292.84.572 2.184.572 2.184h.041s.279-1.345.574-2.184l2.898-8.314c.34-.942.701-1.223 1.763-1.223h1.79v2.334h-.404c-.364 0-.533.106-.659.462l-4.513 12.12h-2.938l-4.532-12.12zm30.646 6.239c0-2.834-1.704-5.08-4.809-5.08-3.26 0-5.514 2.308-5.514 5.6 0 3.049 2.236 5.612 5.831 5.612 2.707 0 4.363-1.619 4.363-1.619l-1.128-1.848s-1.295 1.197-3.045 1.197c-1.637 0-3.038-.988-3.257-2.874h7.495s.064-.674.064-.988zm-7.472-.863c.301-1.342 1.28-2.163 2.663-2.163 1.106 0 1.996.883 2.044 2.163h-4.707zm9.43-1.32c-.106-.318-.28-.381-.598-.381h-.296v-2.27h1.85c.894 0 1.322.272 1.535 1.098l1.596 5.939c.147.568.21 1.133.21 1.133h.043s.084-.565.255-1.133l2.002-6.993h2.383l2.019 6.993c.174.568.238 1.133.238 1.133h.041s.067-.565.213-1.133l1.575-5.94c.214-.825.638-1.096 1.532-1.096h1.853v2.269h-.3c-.32 0-.467.063-.595.38l-2.596 8.064h-3.043l-1.855-6.117c-.168-.564-.254-1.152-.254-1.152h-.042s-.105.588-.275 1.152l-1.829 6.117h-3.067l-2.594-8.063zM24.65 29.43c.824 0 1.492-.66 1.492-1.469 0-.81-.668-1.468-1.492-1.468-.82 0-1.486.659-1.486 1.468 0 .809.666 1.469 1.486 1.469zm53.677 4.178c0-.317-.175-.462-.47-.462h-.852v-2.27h2.575c.998 0 1.424.445 1.424 1.434v6.57c0 .292.167.46.47.46h.85v2.25h-2.577c-1 0-1.42-.42-1.42-1.43V33.61zm1.103-4.178a1.48 1.48 0 0 0 1.488-1.469c0-.81-.666-1.468-1.488-1.468-.819 0-1.485.659-1.485 1.468 0 .809.666 1.469 1.485 1.469zM12.05 37.265c0-1.515-.788-3.027-2.425-3.51v-.04c.915-.461 1.826-1.53 1.826-3.194 0-2.457-1.958-3.845-4.682-3.845H0v2.334h1.617v11.152c0 .923.38 1.351 1.209 1.414h4.459c2.611-.138 4.766-1.494 4.766-4.31zM4.407 29.01h2.34c1.237 0 1.875.776 1.875 1.85 0 1.067-.659 1.906-1.831 1.906H4.407V29.01zm0 9.786v-3.842H7.05c1.34 0 2.13.906 2.13 2.138 0 1.264-.77 2.167-2.13 2.167H4.874c-.298 0-.467-.167-.467-.463z" fill="#007CD6" mask="url(#b)"/></g></g></svg>