<svg xmlns="http://www.w3.org/2000/svg" viewBox="0 0 132 46" enable-background="new 0 0 132 46"><style>.st0{fill:#9aca3b}.st1{filter:url(#Adobe_OpacityMaskFilter)}.st2{fill:#fff}.st3{mask:url(#b);fill:#007cd6}</style><title>Slice 1</title><path class="st0" d="M125.4 30.9h4.8l-9 10.7h-4.7V21.5c.6.2 2.2.7 5 .7 3.2 0 6.6-1.6 6.6-5.5 0-3.2-2.3-4.5-3.8-4.9.9-.8 1.5-2.1 1.5-3.3 0-4.4-4.5-4.5-4.8-4.5h-.2c-2.1 0-3.7 1.1-4.2 1.5V1c1.1-.5 2.6-.9 4.2-.9h.3c1.5 0 2.9.4 4.2 1 2.8 1.4 4.4 4.1 4.4 7.4 0 .7-.1 1.3-.2 2 1.5 1.5 2.6 3.6 2.6 6.3 0 3-1.3 5.6-3.7 7.3-1.8 1.3-4.2 2-6.8 2h-1.3v11l5.1-6.2zm2.3 10.7h.3V40h.6v-.2h-1.5v.2h.6v1.6zm1.1 0h.3l.1-1.1v-.3s.1.2.1.3l.4.8h.2l.4-.8c0-.1.1-.3.1-.3v.3l.1 1.1h.3l-.1-1.8h-.3l-.4 1c0 .1-.1.2-.1.2s-.1-.1-.1-.2l-.4-1h-.4l-.2 1.8z"/><g transform="translate(1)"><defs><filter id="Adobe_OpacityMaskFilter" filterUnits="userSpaceOnUse" x="-1" y="26.5" width="112.2" height="19.5"><feColorMatrix values="1 0 0 0 0 0 1 0 0 0 0 0 1 0 0 0 0 0 1 0"/></filter></defs><mask maskUnits="userSpaceOnUse" x="-1" y="26.5" width="112.2" height="19.5" id="b"><g class="st1"><path id="a" class="st2" d="M-1 .1h132V46H-1V.1z"/></g></mask><path class="st3" d="M13.7 33.6c0-.3-.2-.5-.5-.5h-.9v-2.3h2.5c1 0 1.4.4 1.4 1.3V33.4c.5-1.5 1.8-2.7 3.5-2.7h.5v2.6h-.7c-1.1 0-2.5.7-3 2.2-.2.6-.2 1.2-.2 1.7v4.2h-2.7l.1-7.8zm8.8 0c0-.3-.2-.5-.5-.5h-.9v-2.3h2.6c1 0 1.4.4 1.4 1.4v6.6c0 .3.2.5.5.5h.9v2.2H24c-1 0-1.4-.4-1.4-1.4v-6.5h-.1zm14.6-2.7c-.8 0-1.2.5-1.2 1v.3s-.8-1.5-3.3-1.5c-3.1 0-4.8 2.4-4.8 5.3s1.8 5.4 4.9 5.4c1.4 0 2.4-.5 3-1.4v1.1c0 1.9-1.4 2.6-3.1 2.6-1.7 0-3-.7-3-.7l-.8 2.1c1 .5 2.5.9 3.9.9 2.8 0 5.7-1.4 5.7-5.1v-7.4c0-.3.2-.4.5-.4h.8v-2.3l-2.6.1zm-3.9 8.2c-1.7 0-2.7-1.4-2.7-3.3 0-1.8.9-3 2.5-3 1.5 0 2.7.6 2.7 3.1s-1.2 3.2-2.5 3.2zm8.6-9.7c0-.3-.2-.5-.5-.5h-.8v-2.3H43c1 0 1.4.4 1.4 1.4v4.7c.5-1 1.9-2.1 3.7-2.1 2.4 0 3.8 1.2 3.8 4.1v4.2c0 .3.2.5.5.5h.9v2.3h-2.6c-1 0-1.4-.4-1.4-1.4v-4.9c0-1.3-.4-2.2-1.7-2.2-1.4 0-2.5.9-2.9 2.2-.1.4-.2.9-.2 1.4v4.9h-2.7V29.4zM55.3 33h-1.4v-2.1h1.5V28H58v2.9h2.5V33H58v4.3c0 1.8 1.4 2 2.2 2h.5v2.3s-.3.1-.8.1c-1.5 0-4.5-.4-4.5-4-.1 0-.1-4.7-.1-4.7zm6.9-3.5c-.1-.4-.3-.5-.7-.5h-.4v-2.3h1.8c1.1 0 1.4.3 1.8 1.2l2.9 8.3c.3.8.6 2.2.6 2.2s.3-1.3.6-2.2l2.9-8.3c.3-.9.7-1.2 1.8-1.2h1.8V29h-.4c-.4 0-.5.1-.7.5l-4.5 12.1h-2.9c-.1 0-4.6-12.1-4.6-12.1zm30.6 6.2c0-2.8-1.7-5.1-4.8-5.1-3.3 0-5.5 2.3-5.5 5.6 0 3 2.2 5.6 5.8 5.6 2.7 0 4.4-1.6 4.4-1.6l-1.1-1.8s-1.3 1.2-3 1.2c-1.6 0-3-1-3.3-2.9h7.5v-1zm-7.4-.9c.3-1.3 1.3-2.2 2.7-2.2 1.1 0 2 .9 2 2.2h-4.7zm9.4-1.3c-.1-.3-.3-.4-.6-.4h-.3v-2.3h1.8c.9 0 1.3.3 1.5 1.1l1.6 5.9c.1.6.2 1.1.2 1.1s.1-.6.3-1.1l2-7h2.4l2 7c.3.7.3 1.2.3 1.2s.1-.6.2-1.1l1.6-5.9c.2-.8.6-1.1 1.5-1.1h1.9v2.3h-.3c-.3 0-.5.1-.6.4l-2.6 8.1h-3l-1.9-6.1-.3-1.2s-.1.6-.3 1.2l-1.8 6.1h-3.1l-2.5-8.2zm-71.2-4.1c.8 0 1.5-.7 1.5-1.5s-.7-1.5-1.5-1.5-1.5.7-1.5 1.5c.1.9.7 1.5 1.5 1.5zm53.7 4.2c0-.3-.2-.5-.5-.5H76v-2.3h2.6c1 0 1.4.4 1.4 1.4v6.6c0 .3.2.5.5.5h.8v2.2h-2.6c-1 0-1.4-.4-1.4-1.4v-6.5zm1.1-4.2c.8 0 1.5-.7 1.5-1.5s-.7-1.5-1.5-1.5-1.5.7-1.5 1.5c.1.9.7 1.5 1.5 1.5zM11 37.3c0-1.5-.8-3-2.4-3.5.9-.5 1.8-1.5 1.8-3.2 0-2.5-2-3.8-4.7-3.8H-1V29H.6v11.2c0 .9.4 1.4 1.2 1.4h4.5c2.6-.2 4.8-1.5 4.7-4.3zM3.4 29h2.3c1.2 0 1.9.8 1.9 1.9 0 1.1-.7 1.9-1.8 1.9H3.4V29zm0 9.8V35H6c1.3 0 2.1.9 2.1 2.1 0 1.3-.8 2.2-2.1 2.2H3.9c-.3 0-.5-.2-.5-.5z"/></g></svg>