<svg id="Layer_1" xmlns="http://www.w3.org/2000/svg" viewBox="0 0 229.2 55.5"><style>.st0{fill:#1394d1}.st1{fill:#a2dd3c}</style><path class="st0" d="M1.5 13.4c-.2.4-.5.8-.6 1.3l-.1.2L1.9 18l5.5 3.3.2-.6c2.9-7.3 9.8-12 17.6-12 5.2 0 10.1 2.1 13.8 5.9l.1.2h.1l10.1-.8c-5-8.6-14.2-14-24.1-14C15.4 0 6.6 5 1.5 13.4M116.8 26.9c2.9 0 4.7 2.1 5.1 5.2h-10.4c.5-3.2 2.4-5.2 5.3-5.2m8.7 13.8h-7.9c-3.1 0-5.3-1.2-6-4.3h17c.1-.6.1-1.3.1-1.8 0-6.9-3.7-13.3-11.9-13.3-7.1 0-12.1 5.8-12.1 12.7v.1c0 7.5 5.4 12.6 12.8 12.6h4.1l3.9-6zm7.7-19h6.9v4.9c1.4-3.4 3.7-5.6 7.8-5.4v7.3c-4.6 0-7.8 2.8-7.8 8.6v9h-6.9V21.7zm58.2 5.2c2.9 0 4.8 2.1 5.2 5.2h-10.5c.6-3.2 2.5-5.2 5.3-5.2m8.7 13.8h-7.9c-3.1 0-5.3-1.2-6-4.3h17c.4-8.2-3.6-15.1-11.8-15.1-7.1 0-12.1 5.8-12.1 12.7v.1c0 7.5 5.4 12.6 12.8 12.6h4.1l3.9-6zm7.8-19h6.9v4.9c1.4-3.4 3.7-5.6 7.8-5.4v7.3c-4.6 0-7.8 2.8-7.8 8.6v9h-6.9V21.7zm-48.5 10.9c0-3.3 1.7-5 4.3-5s4.2 1.7 4.2 5v13.7h6.9V30.4c0-5.6-3.1-9.1-8.3-9.1-3.5 0-5.6 1.9-7.2 3.9v-3.5h-6.9v24.5h6.9V32.6h.1zm-57.5 7.7l-4.2 6.5h-5.9c-9.2-.3-15.9-7.4-15.9-16.5v-.1c0-9.1 6.9-16.6 16.7-16.6 6.1 0 9.7 2 12.6 4.9l-4.5 5.2c-2.5-2.2-5-3.6-8.2-3.6-5.4 0-9.3 4.5-9.3 10v.1c0 5.5 3.8 10.1 9.3 10.1M1.9 37.5L.8 40.7l.1.2c.2.4.4.8.6 1.3 5.1 8.4 13.9 13.4 23.7 13.4 9.7 0 18.7-5.1 23.7-13.4-4.1.9-10.7 1.4-13.3 1.6-3.1 2-6.6 3.1-10.4 3.1-7.8 0-14.7-4.7-17.6-12l-.2-.6-5.5 3.2z"/><path class="st1" d="M0 18.4v.2c0 1.7.5 3.2 1.7 4.4 0 0 3.8 5.6 23.7 6.5 12.1.6 36.4-3.3 36.4-3.3l5.6-8.7s-30.2 3.3-41.8 3.3c-18.1 0-21.5-5.3-21.5-5.3-1.9-1.8-1.6-3.8-1.6-3.8C1.6 13 .1 15.1 0 18.4"/><path class="st1" d="M26.9 32.8c-8.2 0-13.9-1.4-17.7-2.2-3.8-.8-6.5 1-7.4 1.9C.5 33.6 0 35.2 0 36.9v.1c.1 3.2 1.5 5.4 2.4 6.7 0 0-.1-2 1.7-3.8 0 0 2.4-2.4 4.9-1.5 4.1 1.6 17.4 2.5 17.4 2.5 13.3 0 27.9-3 27.9-3l5.6-8.6c.1-.1-17.3 3.5-33 3.5"/><path class="st0" d="M224 21.2h2.3v.3h-1v2.2h-.4v-2.2h-.9v-.3zm4.8 0h.4v2.5h-.4v-1.9l-.8.9h-.1l-.9-.9v1.9h-.4v-2.5h.4l.9 1 .9-1z"/></svg>