<svg class="logo-mobile" width="130px" height="24px" viewBox="0 0 130 24" version="1.1" xmlns="http://www.w3.org/2000/svg" xmlns:xlink="http://www.w3.org/1999/xlink"><title>The Coffee Bean &amp; Tea Leaf</title><g id="Site" stroke="none" stroke-width="1" fill="none" fill-rule="evenodd"><g id="account-settings-sm" transform="translate(-19.000000, -21.000000)" fill="#111820"><g id="Group-2"><g id="Page-1" transform="translate(19.000000, 21.000000)"><polygon id="Fill-1" points="0.0660248963 0.248533333 0.0660248963 2.15413333 2.70648133 2.15413333 2.70648133 9.49066667 4.96448963 9.49066667 4.96448963 2.15413333 7.60494606 2.15413333 7.60494606 0.248533333"></polygon><polygon id="Fill-2" points="15.1964066 9.4904 15.1964066 5.6264 11.5526307 5.6264 11.5526307 9.4904 9.29516183 9.4904 9.29516183 0.248266667 11.5526307 0.248266667 11.5526307 3.7464 15.1964066 3.7464 15.1964066 0.248266667 17.4544149 0.248266667 17.4544149 9.4904"></polygon><polygon id="Fill-3" points="19.7777469 9.4904 19.7777469 0.248266667 26.0625187 0.248266667 26.0625187 2.12826667 21.9559212 2.12826667 21.9559212 3.87653333 25.8375809 3.87653333 25.8375809 5.66533333 21.9559212 5.66533333 21.9559212 7.58426667 26.2998631 7.58426667 26.2998631 9.4904"></polygon><path d="M39.6347884,9.32693333 C39.0274025,9.6016 38.3272365,9.73813333 37.5359087,9.73813333 C36.8136266,9.73813333 36.1469046,9.6208 35.5352033,9.3856 C34.9235021,9.15093333 34.3932531,8.8176 33.9444564,8.3872 C33.4956598,7.95626667 33.1434191,7.44106667 32.8882739,6.84053333 C32.6331286,6.23946667 32.5058257,5.57813333 32.5058257,4.856 C32.5058257,4.1168 32.6347469,3.4464 32.8947469,2.84586667 C33.1542075,2.2448 33.5129212,1.7344 33.970888,1.312 C34.4283154,0.890133333 34.9655768,0.565866667 35.5815934,0.339733333 C36.19761,0.113066667 36.8621743,0 37.5752863,0 C38.2355353,0 38.8844564,0.1152 39.5225892,0.346133333 C40.160722,0.576533333 40.6780249,0.914133333 41.0739585,1.35733333 L39.5425477,2.872 C39.3310954,2.58453333 39.053834,2.37173333 38.7102241,2.23253333 C38.3671535,2.09333333 38.0149129,2.02293333 37.6545809,2.02293333 C37.2581079,2.02293333 36.8956183,2.09493333 36.5654938,2.23893333 C36.2353693,2.3824 35.9516349,2.58026667 35.713751,2.83306667 C35.4758672,3.08533333 35.2913859,3.38346667 35.1592282,3.72693333 C35.0270705,4.07093333 34.960722,4.44693333 34.960722,4.856 C34.960722,5.2736 35.0270705,5.65706667 35.1592282,6.0048 C35.2913859,6.35306667 35.4737095,6.6512 35.707278,6.89866667 C35.9397676,7.1472 36.2197261,7.3408 36.5455353,7.48 C36.870805,7.61973333 37.227361,7.68906667 37.6146639,7.68906667 C38.0634606,7.68906667 38.4556183,7.6016 38.7895187,7.42773333 C39.1244979,7.25333333 39.3925892,7.0272 39.5954108,6.7488 L41.1661992,8.2112 C40.7524647,8.68106667 40.2421743,9.0528 39.6347884,9.32693333" id="Fill-4"></path><path d="M49.9592697,4.82992 C49.9592697,4.42992 49.8934606,4.05552 49.7613029,3.70725333 C49.6291452,3.35952 49.4462822,3.06085333 49.2132531,2.81285333 C48.9802241,2.56538667 48.6986473,2.36965333 48.3685228,2.22565333 C48.0383983,2.08218667 47.6753693,2.01018667 47.2794357,2.01018667 C46.8829627,2.01018667 46.5220913,2.08218667 46.1968216,2.22565333 C45.8710124,2.36965333 45.5894357,2.56538667 45.3515519,2.81285333 C45.1142075,3.06085333 44.9313444,3.35952 44.8035021,3.70725333 C44.6761992,4.05552 44.6120083,4.42992 44.6120083,4.82992 C44.6120083,5.24752 44.6783568,5.63312 44.8099751,5.98565333 C44.9421328,6.33765333 45.1249959,6.64005333 45.3580249,6.89232 C45.5910539,7.14458667 45.8710124,7.34298667 46.1968216,7.48645333 C46.5220913,7.62992 46.8829627,7.70192 47.2794357,7.70192 C47.6753693,7.70192 48.0362407,7.62992 48.3620498,7.48645333 C48.6873195,7.34298667 48.9688963,7.14458667 49.2067801,6.89232 C49.4446639,6.64005333 49.6291452,6.33765333 49.7613029,5.98565333 C49.8934606,5.63312 49.9592697,5.24752 49.9592697,4.82992 M52.3758672,4.82992 C52.3758672,5.56112 52.2474855,6.22938667 51.9928797,6.83365333 C51.737195,7.43845333 51.3833361,7.95632 50.9296846,8.38725333 C50.4765726,8.81765333 49.9371535,9.15098667 49.3125062,9.38565333 C48.6873195,9.62085333 48.0098091,9.73818667 47.2794357,9.73818667 C46.5485228,9.73818667 45.8731701,9.62085333 45.2528382,9.38565333 C44.6319668,9.15098667 44.0952448,8.81765333 43.6415934,8.38725333 C43.1884813,7.95632 42.834083,7.43845333 42.5789378,6.83365333 C42.3237925,6.22938667 42.1964896,5.56112 42.1964896,4.82992 C42.1964896,4.09072 42.3237925,3.42245333 42.5789378,2.82618667 C42.834083,2.22992 43.1884813,1.72325333 43.6415934,1.30565333 C44.0952448,0.888053333 44.6319668,0.56592 45.2528382,0.339786667 C45.8731701,0.11312 46.5485228,5.33333332e-05 47.2794357,5.33333332e-05 C48.0098091,5.33333332e-05 48.6873195,0.11312 49.3125062,0.339786667 C49.9371535,0.56592 50.4765726,0.888053333 50.9296846,1.30565333 C51.3833361,1.72325333 51.737195,2.22992 51.9928797,2.82618667 C52.2474855,3.42245333 52.3758672,4.09072 52.3758672,4.82992" id="Fill-7"></path><polygon id="Fill-10" points="56.4944938 2.15392 56.4944938 4.05952 60.1123776 4.05952 60.1123776 5.90058667 56.4944938 5.90058667 56.4944938 9.49045333 54.2634564 9.49045333 54.2634564 0.24832 60.4160705 0.24832 60.4160705 2.15392"></polygon><polygon id="Fill-12" points="64.7593112 2.15392 64.7593112 4.05952 68.377195 4.05952 68.377195 5.90058667 64.7593112 5.90058667 64.7593112 9.49045333 62.5282739 9.49045333 62.5282739 0.24832 68.680888 0.24832 68.680888 2.15392"></polygon><polygon id="Fill-14" points="70.7930913 9.4904 70.7930913 0.248266667 77.0778631 0.248266667 77.0778631 2.12826667 72.9712656 2.12826667 72.9712656 3.87653333 76.8529253 3.87653333 76.8529253 5.66533333 72.9712656 5.66533333 72.9712656 7.58426667 77.3152075 7.58426667 77.3152075 9.4904"></polygon><polygon id="Fill-16" points="79.4674357 9.4904 79.4674357 0.248266667 85.751668 0.248266667 85.751668 2.12826667 81.64561 2.12826667 81.64561 3.87653333 85.5272697 3.87653333 85.5272697 5.66533333 81.64561 5.66533333 81.64561 7.58426667 85.9895519 7.58426667 85.9895519 9.4904"></polygon><path d="M97.6607469,6.59210667 C97.6607469,6.20970667 97.5156432,5.94410667 97.2254357,5.79584 C96.9346888,5.64810667 96.5473859,5.57397333 96.063527,5.57397333 L94.8088382,5.57397333 L94.8088382,7.68864 L96.076473,7.68864 C96.2528631,7.68864 96.4351867,7.67317333 96.6239834,7.64330667 C96.8138589,7.61290667 96.9853942,7.55797333 97.1391286,7.48010667 C97.2934025,7.40170667 97.4185477,7.29077333 97.5156432,7.14677333 C97.6127386,7.00330667 97.6607469,6.81877333 97.6607469,6.59210667 M97.3570539,2.92384 C97.3570539,2.61077333 97.2362241,2.38250667 96.9940249,2.23850667 C96.7523651,2.09504 96.393112,2.02304 95.9184232,2.02304 L94.8088382,2.02304 L94.8088382,3.92917333 L96.02361,3.92917333 C96.4459751,3.92917333 96.7739419,3.84437333 97.0075104,3.67477333 C97.2405394,3.50464 97.3570539,3.25504 97.3570539,2.92384 M99.9187552,6.80117333 C99.9187552,7.30624 99.8173444,7.73024 99.6150622,8.07370667 C99.4122407,8.41770667 99.14361,8.69397333 98.8097095,8.90304 C98.4747303,9.11157333 98.0944398,9.26144 97.6677593,9.35317333 C97.2405394,9.44437333 96.8025311,9.49024 96.3537344,9.49024 L92.6306639,9.49024 L92.6306639,0.248106667 L96.3537344,0.248106667 C96.7146058,0.248106667 97.0846473,0.28544 97.4627801,0.35904 C97.8409129,0.433173333 98.1845228,0.559573333 98.4925311,0.737706667 C98.8005394,0.916373333 99.0519087,1.15797333 99.2450207,1.46197333 C99.4386722,1.76650667 99.5357676,2.15370667 99.5357676,2.62357333 C99.5357676,3.13717333 99.3949793,3.56170667 99.1134025,3.89664 C98.8312863,4.23157333 98.4617842,4.47317333 98.0043568,4.62090667 L98.0043568,4.64704 C98.2681328,4.69077333 98.516805,4.77130667 98.7503734,4.88864 C98.9834025,5.00597333 99.1862241,5.15584 99.3572199,5.33930667 C99.5292946,5.52224 99.6657676,5.73504 99.7671784,5.97877333 C99.8680498,6.22250667 99.9187552,6.49664 99.9187552,6.80117333" id="Fill-18"></path><polygon id="Fill-20" points="102.070606 9.4904 102.070606 0.248266667 108.354838 0.248266667 108.354838 2.12826667 104.24878 2.12826667 104.24878 3.87653333 108.13044 3.87653333 108.13044 5.66533333 104.24878 5.66533333 104.24878 7.58426667 108.592722 7.58426667 108.592722 9.4904"></polygon><path d="M114.837523,2.71525333 L113.649183,5.88752 L115.999432,5.88752 L114.837523,2.71525333 Z M117.345822,9.49018667 L116.619763,7.67578667 L113.002419,7.67578667 L112.315739,9.49018667 L109.860303,9.49018667 L113.78134,0.248053333 L115.973,0.248053333 L119.85412,9.49018667 L117.345822,9.49018667 Z" id="Fill-22"></path><polygon id="Fill-24" points="127.23483 9.4904 123.471842 3.44613333 123.432465 3.44613333 123.485328 9.4904 121.293668 9.4904 121.293668 0.248266667 123.868315 0.248266667 127.617278 6.2792 127.657195 6.2792 127.604332 0.248266667 129.795992 0.248266667 129.795992 9.4904"></polygon><path d="M4.55480083,15.7616533 C4.55480083,15.60272 4.50139834,15.46672 4.39405394,15.3552533 C4.28724896,15.2432533 4.14106639,15.1872533 3.95658506,15.1872533 C3.78397095,15.1872533 3.63940664,15.2421867 3.52343154,15.3504533 C3.40745643,15.4597867 3.34919917,15.5968533 3.34919917,15.7616533 C3.34919917,15.9088533 3.3896556,16.0501867 3.47002905,16.18512 C3.55040249,16.3205867 3.66799585,16.4501867 3.82226971,16.57392 C4.02509129,16.4912533 4.19770539,16.3824533 4.34065145,16.2469867 C4.48359751,16.1120533 4.55480083,15.94992 4.55480083,15.7616533 L4.55480083,15.7616533 Z M3.42957261,17.9072533 C3.2510249,17.9781867 3.09459336,18.07632 2.96081743,18.2032533 C2.82650207,18.3301867 2.75961411,18.5104533 2.75961411,18.7461867 C2.75961411,18.86992 2.7849668,18.98032 2.8356722,19.0773867 C2.88637759,19.1744533 2.9516473,19.2565867 3.03202075,19.32432 C3.11239419,19.3920533 3.2030166,19.4437867 3.30442739,19.4789867 C3.40583817,19.5141867 3.50994606,19.5317867 3.61675104,19.5317867 C3.813639,19.5317867 3.98895021,19.49072 4.1443029,19.4080533 C4.29857676,19.32592 4.43289212,19.2080533 4.54617012,19.0549867 L3.42957261,17.9072533 Z M6.01069295,20.5472533 L5.41247718,19.93872 C5.2096556,20.14992 4.96152282,20.3253867 4.66646058,20.46352 C4.37193776,20.6021867 4.00405394,20.6709867 3.56334855,20.6709867 C3.27745643,20.6709867 2.99749793,20.6341867 2.72401245,20.56112 C2.44998755,20.48752 2.20724896,20.3728533 1.9963361,20.2165867 C1.78488382,20.0608533 1.6149668,19.86672 1.48712448,19.6336533 C1.35874274,19.40112 1.29509129,19.1253867 1.29509129,18.8080533 C1.29509129,18.5904533 1.33069295,18.38992 1.40189627,18.20752 C1.473639,18.0245867 1.57019502,17.8629867 1.69264315,17.7216533 C1.81455187,17.58032 1.95587967,17.45712 2.11662656,17.3504533 C2.27737344,17.2448533 2.44405394,17.1536533 2.61720747,17.0768533 C2.4203195,16.8885867 2.26226971,16.68272 2.14359751,16.4592533 C2.02438589,16.2357867 1.96451037,15.98832 1.96451037,15.7173867 C1.96451037,15.43472 2.02438589,15.19312 2.14359751,14.99312 C2.26226971,14.7925867 2.41600415,14.62832 2.60318257,14.49872 C2.79090041,14.36912 3.0023527,14.2752533 3.23753942,14.2160533 C3.47272614,14.1573867 3.70629461,14.12752 3.93878423,14.12752 C4.17666805,14.12752 4.41185477,14.1584533 4.6443444,14.2208533 C4.87629461,14.2821867 5.08343154,14.3781867 5.26521577,14.5072533 C5.44646058,14.6368533 5.59210373,14.8016533 5.70268465,15.0021867 C5.81272614,15.2021867 5.86774689,15.4405867 5.86774689,15.7173867 C5.86774689,15.9173867 5.83484232,16.0981867 5.76957261,16.26032 C5.70376349,16.4224533 5.61314108,16.56912 5.49716598,16.70192 C5.38119087,16.8341867 5.24579668,16.9536533 5.09044398,17.0597867 C4.93617012,17.1653867 4.77218672,17.2624533 4.59957261,17.3504533 L5.39413693,18.15472 L6.02849378,17.19152 L7.6543029,17.19152 L6.28741494,19.0021867 L7.85982158,20.5472533 L6.01069295,20.5472533 Z" id="Fill-26"></path><polygon id="Fill-28" points="16.5737054 16.2827733 16.5737054 23.6187733 14.3156971 23.6187733 14.3156971 16.2827733 11.6752407 16.2827733 11.6752407 14.3771733 19.2141618 14.3771733 19.2141618 16.2827733"></polygon><polygon id="Fill-30" points="20.9043776 23.61888 20.9043776 14.3767467 27.18861 14.3767467 27.18861 16.2567467 23.0825519 16.2567467 23.0825519 18.00608 26.9642116 18.00608 26.9642116 19.7943467 23.0825519 19.7943467 23.0825519 21.71328 27.4264938 21.71328 27.4264938 23.61888"></polygon><path d="M33.6712407,16.8441067 L32.4829004,20.0163733 L34.8331494,20.0163733 L33.6712407,16.8441067 Z M36.1795394,23.61904 L35.4534813,21.80464 L31.8361369,21.80464 L31.1494564,23.61904 L28.6940207,23.61904 L32.6150581,14.3769067 L34.8067178,14.3769067 L38.6878382,23.61904 L36.1795394,23.61904 Z" id="Fill-32"></path><polygon id="Fill-34" points="44.3787635 23.61888 44.3787635 14.3767467 46.6497178 14.3767467 46.6497178 21.6738133 50.2670622 21.6738133 50.2670622 23.61888"></polygon><polygon id="Fill-36" points="52.2474855 23.61888 52.2474855 14.3767467 58.5317178 14.3767467 58.5317178 16.2567467 54.4256598 16.2567467 54.4256598 18.00608 58.3073195 18.00608 58.3073195 19.7943467 54.4256598 19.7943467 54.4256598 21.71328 58.7696017 21.71328 58.7696017 23.61888"></polygon><path d="M65.0141328,16.8441067 L63.826332,20.0163733 L66.1760415,20.0163733 L65.0141328,16.8441067 Z M67.5224315,23.61904 L66.7963734,21.80464 L63.179029,21.80464 L62.4923485,23.61904 L60.0369129,23.61904 L63.9579502,14.3769067 L66.14961,14.3769067 L70.0312697,23.61904 L67.5224315,23.61904 Z" id="Fill-38"></path><polygon id="Fill-40" points="73.701639 16.2827733 73.701639 18.1883733 77.3195228 18.1883733 77.3195228 20.0289067 73.701639 20.0289067 73.701639 23.6187733 71.4706017 23.6187733 71.4706017 14.3771733 77.6232158 14.3771733 77.6232158 16.2827733"></polygon><polygon id="Fill-42" points="0 23.6283733 9.06062241 23.6283733 9.06062241 22.4763733 0 22.4763733"></polygon><polygon id="Fill-44" points="78.7408921 14.3779733 79.8947095 14.3779733 79.8947095 14.5913067 79.4415975 14.5913067 79.4415975 15.7875733 79.1923859 15.7875733 79.1923859 14.5913067 78.7408921 14.5913067"></polygon><polygon id="Fill-45" points="80.0566432 14.3779733 80.407805 14.3779733 80.8010415 15.48144 80.8053568 15.48144 81.1883444 14.3779733 81.5357303 14.3779733 81.5357303 15.7875733 81.2983859 15.7875733 81.2983859 14.6995733 81.29461 14.6995733 80.8986763 15.7875733 80.6931577 15.7875733 80.2983029 14.6995733 80.2939876 14.6995733 80.2939876 15.7875733 80.0566432 15.7875733"></polygon></g></g></g></g></svg>