<svg xmlns="http://www.w3.org/2000/svg" viewBox="0 0 228 228"><path d="M131.7 72.1c-1.8-.8-3.5-1.3-5.4-1.7-1.8-.4-3.5-.7-5.4-.8-1.8-.1-3.7-.2-5.5-.3-1.5-.1-3-.1-4.5-.1-1.3 0-2.6.1-3.9.2-4.2.4-8.5 1.6-12.3 3.5-1.6.8-3.1 2.2-4.4 3.4-1 .9-1.9 2.4-2.6 3.6-.8 1.4-1.5 3-1.7 4.6-.2 1.7.2 3.3.6 4.9 1.1 4.1 4.2 7.2 7.8 9.4 3.6 2.1 7.5 3.2 11.6 3.7 2.4.3 4.8.4 7.2.4 4.1 0 8.2-.4 12.1-1.4 1.9-.5 3.7-1.1 5.5-1.9.7-.4 1.6-.7 2.2-1.2 2-1.5 3.5-3.1 4.9-5.1.6-.9 1.1-2.2 1.6-3.2 1.7-4.1 1.4-8.7-1-12.6-1.7-2.6-4.1-4.2-6.8-5.4zm6.7 11.1c.3 0 .5 0 .7.1-.1 0-3.5 2.3-3.9 2.5-1.7.7-3.4 1.3-5.2 1.7-3.1.7-6.6.3-9.7 0-2.2-.2-4.3-.7-6.5-.8-2.2-.1-4.3.4-6.4.7-.9.1-1.7.3-2.6.3-3.7.3-7.4.2-11-.2-2.2-.3-5-.4-6.3-2.5 3 1.7 7 1.5 10.3.8 4.2-.9 8-2.2 12.4-2 3.3.1 6.5.7 9.8.9 4.7.3 9.3-.1 14-.7l2.4-.3c.4 0 1.3-.5 2-.5zm-29 80.4c.1-1.2.2-2.3.5-3.4l.6-1.8c.4-.8.7-1.5 1.3-2.2.6-.8 1.4-1.6 2.1-2.3 2.2-1.9 4.8-3.2 7.4-4.4 2.1-1 4.2-2 6.4-2.7 1.4-.5 2.8-1 4.2-1.4 2.3-.7 4.6-1.3 6.9-2 1-.3 2-.8 3-1.3 1.7-.8 3.2-1.7 4.6-3 1.3-1.2 2.4-2.7 3.4-4.1.9-1.3 1.6-2.5 2.3-3.8.9-1.8 1.8-3.7 2.7-5.5l-1.1.3c-2.6.6-5.2 1-7.8 1.3-4.1.5-8.2.8-12.1 2.4-5.5 2.2-10.5 6-14.1 10.8-2 2.6-3.5 5.4-4.9 8.3-1.4 2.7-2.8 5.8-5.4 7.6 1-2.3 3.1-5.3 2.4-8-.4.4-.7.8-1.2 1-.2-.9.2-2.4-.5-3.2-.3.4-.9 1.7-.7 2.2-.2-.5-.4-1.2-.9-1.3-1.4 2.2-.9 5.3-.4 7.7.4 1.9.6 3.6.3 5.5-.1.3-.6 1.8-.4 2-1.3-1.6-1.3-3.7-1.5-5.7-.2-2.3-.5-4.5-1.1-6.7-.7-2.7-1.7-5.2-3.2-7.5s-3.3-4.3-5.3-6.2c-3.1-2.9-6.6-5.4-9.9-8.1-.2-.1-3.3-2.7-3.4-2.2-.1.4 0 1 0 1.4.1 3.1.2 6.3.7 9.4.4 2.9 1.1 5.7 2.2 8.4 1.1 2.5 2.7 4.9 4.6 6.8 2 2.1 4.4 3.8 6.9 5.3 1.3.8 2.7 1.5 4.1 2.3.7.4 1.4.7 2.1 1.1 1.2.6 2.1.6 2.6 2 .4 1.1.8 2.2 1 3.3.1.6.1 1.2.2 1.8.1.5-.2 1.1 0 1.6.2.3.9.6 1.2.4.3-.3.1-1 .2-1.3v-.8c-.1-1.3-.1-2.6 0-4zm10.3-17.1c2.1-1.9 4.4-3.5 6.8-5 1.4-.9 2.8-1.7 4.3-2.4 1.4-.7 2.8-1.3 4.3-2 1.6-.7 3.3-1.5 4.9-2.3 1.1-.6 2.2-1 3.3-1.6 2.2-1.2 4.3-2.7 6.5-4 .2-.1.5-.3.7-.5v.1c-.1.6-.9.9-1.3 1.3-2.1 2.3-4.7 3.6-7.2 5.3-3.2 2.1-6.6 3.5-10 5.2-3.3 1.6-6.6 3.4-9.6 5.5-1.7 1.2-3.3 2.4-4.8 3.8-.2.2-1.5 1.5-1.8 1.2-1-.9 3.4-4.2 3.9-4.6zm-16.4 10.8l-1.2-2.1c-3.2-5.4-6.7-10.6-10.1-15.8-1-1.5-1.9-3-2.9-4.5l-1.8-2.7c-.5-.8-1-1.8-1.6-2.5 3.3 3.8 6.8 7.3 9.5 11.6 1.6 2.6 3.3 5.1 4.9 7.7.9 1.6 2 3.3 2.8 5 .4.8.9 1.7 1.4 2.5.3.6 1 1.4 1.1 2.2-1.5.2-1.4-.1-2.1-1.4zm110.9-42.4H14.6v7.3h199.6v-7.3zm-166.3-5.8h7.6c2.6-30.2 27.9-53.8 58.7-53.8s56.1 23.7 58.7 53.8h7.6c-2.6-34.3-31.3-61.4-66.3-61.4s-63.7 27.1-66.3 61.4zm66.3 71.6c32.2 0 59.1-23 65.2-53.4h-7.8c-5.9 26.2-29.4 45.8-57.4 45.8s-51.5-19.6-57.4-45.8H49c6.1 30.5 33 53.4 65.2 53.4zM114 0C51 0 0 51 0 114c0 52.4 35.3 96.5 83.5 109.9v-3.6C37.2 207 3.4 164.5 3.4 114 3.4 52.9 52.9 3.4 114 3.4S224.6 52.9 224.6 114c0 49.9-33.1 92.1-78.5 105.8v3.6C193.4 209.5 228 165.8 228 114 228 51 177 0 114 0zM95 15.3c-3.9 1.2-5.3 5.6-5.3 10.1v1.7l-.8.3c-1.9.6-1.1 2.7.3 2.3l.7-.2.8 9.4c.1 1.2-.2 1.7-1.7 2.6-.9.5-.2 1.7.8 1.4l6.4-2c.8-.3.6-1.5-.8-1.3-1 .1-1.2-.6-1.2-1.5l-.7-9.7 1.4-.4c1.9-.6 1.1-2.7-.4-2.2l-1.3.2-.3-3.1c-.3-3.3.2-5.7 1.3-6.1.9-.3 1.5 2.6 3.5 2 .8-.3 1-1.5.7-2.3-.5-1.7-2-1.6-3.4-1.2zm4 23.5c-.9.4-.4 1.7.6 1.5l6.6-1.5c.9-.2.7-1.4-.6-1.4-1 0-1.1-.7-1.1-1.6l.1-9.7 1.4-.3c2-.4 1.3-2.6-.2-2.3l-1.2.3v-3.1c0-3.3.7-5.7 1.8-5.9.9-.2 1.3 2.7 3.3 2.2.9-.2 1.1-1.4.9-2.2-.4-1.8-1.9-1.8-3.4-1.5-3.9.9-5.7 5.1-6.1 9.6l-.1 1.6-.8.2c-2 .4-1.3 2.6.1 2.3l.7-.2v9.4c-.1 1.3-.4 1.8-2 2.6zm-43-4c2-1.6 4.4-1.7 7.1.9 1.3 1.2 2.9.2 1.5-1.4-.9-1-3.4-3.8-4.3-5.2-.7-1-1.7-.3-1.6.8 0 .6-.1 1.5-.7 1.9-.8.6-2 .2-4 1.8-6 4.8-6.1 15-1.7 20.5 4 4.9 9.8 5.6 14.8 1.6 5.1-4.1 5.4-11.3 3.1-14.1-.8-1-2-1.3-3-.5-1.2 1-1.7 3.1.9 4.2.3.1.6.3.8.5 1.4 1.7.6 5.8-2.4 8.2-3.7 3-7.8.8-10.4-2.4-3.3-4.1-5.3-12.6-.1-16.8zm25.7 11.6c5.2-2.5 6.9-8.2 4.6-12.9-1.6-3.4-4.8-4.7-8.3-3.1-5.2 2.4-6.9 8-4.8 12.5 1.6 3.4 4.9 5.2 8.5 3.5zm-3.4-14.6c2.1-1 3.5.9 4.3 2.5 1.2 2.5 2.5 8.9-.7 10.4-2.3 1.1-4-1.4-4.9-3.1-1.3-2.6-2-8.3 1.3-9.8zm-30.9 28c-3.2-2.2-6.1-.1-7.8 2.3-3.3 4.9-1.3 10.3 2.3 12.8 3 2.1 6.9 2 9.7-2 1.6-2.4 2.9-7.8.3-9.6-.9-.6-2-.5-2.6.3-1 1.4 0 2.8 1 3.3.6.3.9.8 1.1 1.3.3 1 0 2.4-.6 3.3-1.6 2.3-4.1 1.9-6.1.5-.8-.6-1.7-1.3-2.5-2.2l6.2-9c-.3-.4-.7-.7-1-1zm-6.5 8.3c-2.8-3.2.9-8.5 3.9-5.6l-3.9 5.6zm-24.5 37.3c2 .7 4-.5 4.7-2.4.5-1.6.2-3.7-1.6-4.5-.8-.3-1.5 0-1.8 1-.7 1.9 1.8 2.2 1.3 3.5-.4 1-1.4 1.3-2.5.9-1.8-.6-1.9-3.6-1-5.8.6-1.7 1.9-3.1 3.5-4.9 2.8 6.9 7.1 9.8 10.6 11.1 6.4 2.4 13.3-1 15.5-7 2.2-6.1.2-12.1-5.4-13.8-2.5-.8-5.3-.2-7.3 1.6-1.6-1.3-1.7-3-1.1-4.9 1.3-3.4 3.7-2.4 5.9-.9l6.4 4.4c.8.6 1.3.6 1.5 0l1.8-4c.3-.9-.6-1.8-1.8-.8-.5.5-1.6.2-2.4-.4l-4.2-2.9c-4-2.8-7.1-1.5-8.8 3.2-.3.8-.6 2.7-.5 3.6-3.3-2.6-6.1-7.6-4.7-11.5.5-1.3 1.4-1.9 2.8-1.9 2.3-.1 2.4-2.8.5-3.5-1.8-.6-3.8 2-4.4 3.6-2.6 7 .9 14.8 6.6 19.2-1.3 3.1-1.1 6.4 2.5 7.7 3.1 1.1 4.5-2.5 2.5-3.2-.8-.3-1.8.4-2.7.5-1.1 0-1.9-1.8-.9-4 .3.2.5.3.5.3l5.9 4.1c1.1.7.6 2.9 1.5 3.2.6.2 1-.1 1.3-.9l1.5-5.3c.1-.4-.2-1-.6-1.1-1.3-.5-1 1.5-2.8.3 0 0-3.2-2.1-5.1-3.5 1.3-1 3.1-1.7 5.5-.7 4.4 1.9 5.8 5.6 4.2 10-2 5.4-7.9 6.3-12.8 4.6-4.4-1.6-8-4.7-10-10.1.7-1.1 1.4-2.4 2-3.9 2.3-6.4-2.8-10-4.8-4.4-1 2.7-.7 6-.2 8.1-2 2.4-3.1 4.1-3.7 6-1.3 3.7-1 8 2.6 9.4zm3.6-23c.9-2.4 2.9-1.5 1.6 1.9-.3.9-1.3 2.7-1.9 3.4-.3-1.6-.4-3.6.3-5.3zm103.7-52.8c.1-.5.1-.9.1-1.4 0-3.8-3.4-5.1-6.2-5.1-5.8 0-9.1 4.8-9.1 9 0 3.6 2.2 6.8 7.1 6.8 2.9 0 8-2 8-5.2 0-1-.7-1.9-1.7-1.9-1.7 0-2.2 1.6-2.1 2.7.1.7-.1 1.2-.5 1.6-.7.9-1.9 1.4-3 1.4-2.8 0-3.9-2.3-3.9-4.7 0-1 .1-2.1.4-3.3h10.9v.1zm-3.6-2h-6.7c1-4.1 7.4-4.1 6.7 0zM81.5 187.5c.5-.6 1.1-.5 2.3.1 2 1 7.7 2 9-.3.5-1-.2-1.5-1.1-1.3-1.2.3-1.7.4-2.5.2-.5-.2-1.1-.3-1.7-.6-3.2-1.7-10.7-6.7-11.7-7.2-5-2.6-11.3-4-14.2 1.5-1.6 3.1-.3 6.4 2.8 8 2.1 1.1 6.3 1.1 7.6-1.5.5-.9.2-2.3-.9-2.9-1.4-.7-2.4 0-3.1 1.3-.8 1.5-1.4 1.9-2.8 1.2-2.2-1.1-2.8-2.9-1.5-5.4 1.7-3.2 5.7-3.3 8.9-1.6 2.3 1.2 4.1 3 4.7 3.6.7.6 1.6 1.7.3 3.1l-10 11.7c-1 1.2-2.3 1-3.6.9-1.3-.2-1.6 1-.3 1.8.8.5 1.9 1.1 3 1.7 1.1.6 2.3 1.1 3.3 1.6 1.5.8 1.8-.5.8-1.9-.3-.5-.3-1.2.4-2.1l10.3-11.9zm63.9 13c-.5.1-.8.9-1.1 1.9-1.2 3.3-2.8 5.8-6.2 6.5-1.2.3-3.1.5-3.3-.4-.1-.3 0-.8 0-1.5l.5-15.2c0-1.2.5-2.3 3.3-3.6.9-.4 1.7-1 1.8-1.9 0-.5-.3-.8-1.4-.5-.4.1-1 .3-1.8.6s-1.7.7-2.8.9c-3.1.7-6.8 1.1-9.1 1.3-1.1.1-2.1.2-3.1.4-4.6 1-8.1 3.9-7 8.8.7 3.1 3.9 4.2 6.7 3.6 2.1-.5 4.3-2.4 3.9-4.3-.3-1.4-1.1-2-2.5-1.7-.7.1-1.7.9-1.3 2.5.1.7-.5 1.3-1.3 1.5-1.7.4-3.2-.7-3.5-2.3-.8-3.7 1.5-5.5 5.8-6.4 1.1-.2 3-.4 4.9-.3 2 0 2.8.6 3.1 1.8.1.5.1 1.1.1 1.8l-.4 13.6c-.1 1.8-.2 2.3-2.7 3.5-1.1.5-.8 2.5 2.2 1.6 2.1-.6 5.2-1.3 7.9-1.9 2.5-.6 4.7-1 5.5-1.1 2.1-.4 2.2-1.4 2.3-2.3.1-2 .2-3.3.6-5.5 0-1-.5-1.5-1.1-1.4zm-88-31.4c1.8-1.5 1.6-4.1.2-5.8-2.5-3.1-7.6-1.9-10.5.4-.3.2-.5.5-.7.7-3.6-1.4-7.6-2.3-10.7.2-3.5 2.9-3.2 8.1-.5 11.4 1.5 1.8 3.5 3.3 5.9 4.1.2 2.3.9 4 1.9 5.2 1.3 1.6 5.2 3.4 6.7 2.1.8-.6 1-1.9.2-2.8-.2-.3-.6-.5-1.1-.5-.7 0-2 1.2-3 1.1-.4 0-.9-.2-1.3-.7-.6-.7-1-1.9-.6-4.1 4.7.2 7.8-.6 9.3-1.9 1.2-1 1.8-2.3 1-3.2-.8-1-2.1-1.2-2.9-.5-.8.7-1.1 1.7-2.1 2.5-1.2 1-2.9 1.7-5.1 1.3 0-3 2.4-8.2 3.7-10.1 2.8 1.1 7.1 2.5 9.6.6zm-6.6-4.2c1.6-1.3 4.3-2.6 5.7-.8.9 1.1.6 2.3-.4 3.1-1.5 1.2-4.9.2-6.7-1 .4-.4.9-.8 1.4-1.3zm-9.7 13.2c-1.5-.6-2.7-1.3-3.4-2.2-2-2.4-1.8-6.1.8-8.2 1.6-1.3 3.7-1.5 5.5-.6-2.2 4.2-2.9 8.9-2.9 11zm140.8 9.9l4.8-4.7c.6-.6-.1-1.6-1.2-.9-.8.5-1.3 0-1.8-.8l-5.2-8.5 1.1-1c1.5-1.4-.3-3-1.4-1.9l-.9.8-1.7-2.7c-1.8-2.9-2.5-5.3-1.6-6.1.7-.7 2.6 1.7 4.1.2.6-.6.1-1.8-.4-2.4-1.3-1.4-2.8-.5-3.9.5-2.9 2.8-2.1 7.3.1 11.5l.8 1.5-.6.6c-1.5 1.4.3 3 1.4 2l.6-.5 5.1 8.3c.6 1 .7 1.6-.3 3.1-.9.9.3 1.7 1 1zm-15.9 1.8c-1.5 1.5-3.4 4.6-1.2 7.5 1.7 2.2 3.8 1.7 6 .1 1.9-1.5 3.1-3.6 3.3-5.3 1.3.8 2.9.4 4.3-.6 1.8-1.4 1.3-3.6-.2-2.5-.8.6-1.6.1-2.1-1l-1.7-4.1c-.4-.9-.8-1.7-1.3-2.3-2.1-2.8-4.9-2.2-8.4.5-2.3 1.7-4.5 4.8-3 6.9.6.8 1.6.9 2.3.4 1.3-1 1.5-2.2.9-3.2-.6-1.1-.8-1.9.8-3.1 1.4-1.1 3-1.2 4 0 1 1.4.7 2.5-.4 3.6-.7.9-2.4 2.2-3.3 3.1zm5.8-3l.6.9c1.4 2.3.3 5.6-1.9 7.3-.9.7-2 .8-2.9-.3-2.2-2.8 2.6-5.9 4.2-7.9zm-11.8 4.6c-1.8-3.4-5.3-2.9-7.9-1.6-5.2 2.7-5.9 8.4-3.9 12.2 1.6 3.1 5.1 5 9.5 2.8 2.6-1.3 6.1-5.4 4.7-8.3-.5-.9-1.5-1.4-2.4-.9-1.5.8-1.3 2.2-.6 3.4.9 1.8-.2 3.5-1.7 4.3-2.5 1.3-4.5-.2-5.6-2.4-.5-.9-.8-2-1.1-3.1l9.6-5c-.2-.6-.4-1-.6-1.4zm-9.5 4.2c-.9-4 4.7-7 6-3.1l-6 3.1zm-43.9 16.5c-1-.1-1.2-1.1-.7-2.2l1.7-4.1c.4-.9.7-1.8.8-2.5.5-3.5-1.9-5-6.3-5.6-2.8-.4-6.6.2-7 2.7-.1 1 .4 1.8 1.3 1.9 1.7.2 2.6-.5 2.9-1.6.4-1.2.8-1.9 2.8-1.6 1.8.3 3 1.3 2.8 2.8-.2 1.7-1.3 2.2-2.9 2.3-1.2 0-3.4-.2-4.6-.2-2.1 0-5.6.8-6.2 4.4-.4 2.8 1.4 3.9 4.2 4.3 2.4.4 4.7-.3 6.1-1.3.4 1.4 1.8 2.4 3.5 2.6 2.2.3 3.4-1.6 1.6-1.9zm-3.4-5.1c-.7 2.6-3.8 4.1-6.6 3.7-1.1-.2-2-.9-1.8-2.3.5-3.4 6.1-2.2 8.6-2.5l-.2 1.1zM81 208.7c2.7.9 8.2.7 9.2-2.3.3-1 0-2-1-2.4-1.6-.6-2.5.6-2.9 1.8-.7 1.9-2.7 2.3-4.3 1.7-2.6-.9-2.9-3.4-2.1-5.7.3-.9.9-1.9 1.5-2.9l10.3 3.5c.2-.4.4-.9.5-1.2 1.3-3.6-1.5-5.9-4.3-6.8-5.6-1.9-10.2 1.5-11.5 5.6-1.1 3.3 0 7.2 4.6 8.7zm8-9.3l-6.4-2.2c2.4-3.4 8.4-1.4 6.4 2.2zM195.6 84l-8.7 1.1c-1.2.2-1.2-.1-1.5-.4-.5-.7-1.7-.4-1.4.4l1.7 4.5c.5 1.3 1.9 1.4 1.9.1 0-.5.4-1 1-1.1l5.7-.7c3-.4 5.1 1.1 5.9 3.2.7 1.8.3 3-1.3 3.6-.5.2-1.1.3-1.7.3l-6.1.5c-4.1.4-7.5 3.5-5.9 7.9 1 2.6 4.2 4.3 6.8 3.3 1.1-.4 1.7-1.7 1.2-3-.4-1-1.4-1.3-2.1-1.1-.8.3-1.3 1.1-2 1.4-.9.3-2.3-.2-2.6-1.2-1-2.8 2.7-3.5 4.3-3.6l7-.5c1-.1 1.9-.2 2.7-.5 2.5-1 3.5-3.6 2.6-6.1-.5-1.4-1.8-3.2-4.5-4.6l1.6-.2c.3 0 .6-.2.4-.6-.2-.5-1.2-3.6-2.3-4.8-.6-.7-1.9-.6-1.5.9.1.9-.3 1.1-1.2 1.2zm-3.7-9.9c-1.5.9-2.6.4-3.6-.8-.8-.9-2-2.8-2.7-3.8-1.3-1.6-4.1-3.9-7.3-2.1-2.4 1.4-2.2 3.6-.8 6 1.2 2.1 3.2 3.5 4.8 4-.9 1.1-.8 2.9.1 4.4 1.1 2 3.4 1.7 2.5.1-.5-.9.1-1.6 1.2-1.9l4.2-1.3c1-.3 1.8-.6 2.4-1 3.1-1.8 2.8-4.6.6-8.4-1.5-2.5-4.3-5.1-6.5-3.8-.9.5-1.1 1.4-.7 2.2.8 1.5 2 1.7 3.1 1.3 1.2-.4 2-.6 3 1.2 1.1 1.5 1 3.1-.3 3.9zm-5 2c-2.4 1.1-5.7-.4-7-2.8-.6-1-.6-2.1.7-2.8 3-1.7 5.5 3.4 7.3 5.2l-1 .4zm-17.2-22.9c-2.6 2.4-3.5 6.3-.2 9.8 2 2.1 6.8 4.5 9.2 2.3.8-.7 1-1.8.2-2.6-1.2-1.3-2.4-.6-3.4.3-1.5 1.4-3.4.7-4.5-.5-1.9-2.1-1-4.4.9-6 .7-.7 1.7-1.3 2.7-1.9l7.3 7.9c.4-.3.8-.5 1.1-.8 2.8-2.6 1.4-5.9-.5-8.1-4-4.1-9.7-3.3-12.8-.4zm11.3 5.5l-4.6-4.9c3.7-2 8.1 2.7 4.6 4.9zm-28.6-13.8c-1.2 1.2-2.4.6-4.1-.4-1-.6-1.6 1.2-1.2 1.4 1.5.9 3.4 1.8 5 2.8 1.9 1.2 3.7 2.5 5.7 3.7 3.6 2.2 9.1 2.4 11.2-1.1.8-1.4 1.4-3.2-.1-6.1 2.3.6 5.3-.3 6.6-2.3 2.5-4.1-.3-8.3-3.9-10.5-.6-.4-2.8-1.6-3.7-2.2-1.5-1-3-2-4.6-2.9-5.3-3.2-11.4-4.9-14.4.1-1.4 2.3-.7 5.9 1.7 7.3 1.7 1 4.4 1.3 5.4-.3.7-1.1.3-2.7-1.5-2.5-.9.1-1.8.9-2.8.3-1.3-.8-1.5-2.8-.8-4.1 2.1-3.4 6.4-2.3 10.7.2 2.5 1.5 4 3.1 1.5 5.6l-10.7 11zm13.1 4.2c-1.2 2-4.5 3-7.3 1.3-2.1-1.3-2.4-2-3.2-2.3l6.3-6.5 2.8 1.7c2.4 1.5 2.6 3.7 1.4 5.8zm1.2-13c1.9-2 3.2-2.2 4.6-1.3 2 1.2 2.2 3.4.9 5.6-1.2 1.9-4.4 2.9-6.4 1.7l-3-1.8 3.9-4.2zM130.2 31l10.6 2.4c.2-.5.3-.9.4-1.3.8-3.7-2.2-5.7-5-6.3-5.7-1.3-10 2.6-10.9 6.8-.8 3.5.7 7.1 5.4 8.2 2.8.6 8.2-.2 8.9-3.3.2-1-.2-2-1.2-2.3-1.7-.4-2.6 1-2.7 2.2-.1.7-.4 1.1-.8 1.5-.8.7-2.2.9-3.2.7-2.7-.6-3.3-3.1-2.7-5.5.3-1 .7-2 1.2-3.1zm7.6-.3l-6.6-1.5c1.9-3.7 8.1-2.3 6.6 1.5zm53.5 103.1h.8l1.5 2.5h1.2l-1.6-2.6c.8-.1 1.5-.6 1.5-1.7 0-1.2-.7-1.9-2.2-1.9h-2.4v6.2h1.1l.1-2.5zm0-2.7h.8c.7 0 1.5 0 1.5.9 0 .8-.8.9-1.5.9h-.8v-1.8zm1 7.5c3 0 5.4-2.4 5.4-5.4s-2.4-5.4-5.4-5.4-5.4 2.4-5.4 5.4 2.4 5.4 5.4 5.4zm0-9.8c2.5 0 4.4 2 4.4 4.4 0 2.5-2 4.4-4.4 4.4-2.5 0-4.4-2-4.4-4.4-.1-2.4 1.9-4.4 4.4-4.4zm-82.7 97.8c-.3 0-.7.3-.8.6-.1.3.1.6.3.7.2.1.6 0 .7-.1.3-.1.4-.4.4-.6.1-.3-.2-.7-.6-.6zm-5.9-4c-.4-.3-1.1-.3-1.6-.3-.3 0-.5.1-.8.1-.4.1-.9.4-1.1.8-.2.3-.2.8-.1 1.1s.5.6.8.7c.4.2.8.3 1.2.5.2.1.3.4.3.7-.1.5-.7.7-1.2.6-.3-.1-.5-.2-.7-.4s-.3-.4-.6-.5c-.2-.1-.5.1-.6.3-.1.6.5.9 1 1 .4.1.7.2 1.1.2.3 0 .5 0 .8-.1.8-.2 1.6-.7 1.6-1.6 0-.5-.3-.7-.7-1-.3-.2-.7-.3-1-.4-.2-.1-.7-.3-.7-.6-.1-.4.1-.7.4-.9.4-.2.9-.1 1.2.3.1.1.2.4.4.5.2.1.5.1.6-.2 0-.1.1-.2.1-.3 0-.2-.2-.4-.4-.5zm3.6.3s.1-.5.1-.6c0-.2.3-.7 0-.8h-.2c-.2.1-.3.5-.4.6-.2.2-.4.5-.7.6-.2.1-.6.1-.8.3-.3.4.3.5.6.5-.1.3-.2.6-.2.9-.1.5-.3 1-.4 1.4s-.3.9-.2 1.3c.1.3.4.4.7.5.5.1 1 0 1.5-.2.3-.1.7-.3.7-.7 0-.3-.2-.4-.5-.3-.2.1-.4.2-.7.3h-.4c-.2-.1 0-.5 0-.7.2-.8.4-1.7.6-2.5h.7c.3 0 .5-.2.5-.5.1-.2-.6-.1-.9-.1zm-7.8-2.3c0-.4-.1-.8-.1-1.2v-.3c0-.1-1.1-.2-1.2-.2l-2.1-.3c-.4-.1-.8-.1-1.3-.2l-1.5-.3c-1-.2-2.1-.2-3 .3-.6.3-1.1.9-1.1 1.6 0 .2 0 .5.1.7.2.6.5 1.1 1.1 1.3.4.1.8.1 1.2 0 .4-.1.7-.4.6-.8 0-.2-.1-.4-.3-.5-.2-.1-.5 0-.7.2-.1.1-.3.3-.5.3-.4.1-.7-.4-.8-.7-.1-.3.2-.7.4-1 .2-.3.5-.4.8-.5s.6-.2 1-.2c.5 0 .9.1 1.4.2.3.1.8.2.9.5.1.4-.1.8-.3 1.2-.2.4-.4.9-.6 1.3-.3.8-.7 1.7-1.1 2.5-.1.4-.3.8-.8.8-.2 0-.5-.1-.7-.1s-.2.2-.2.4v.1c0 .2.5.1.6.2.1 0 .3 0 .4.1.3 0 .6.1 1 .1 1.4.2 2.9.5 4.3.7l.4.1c.2-.3.4-.5.6-.8.1-.2.3-.4.4-.6.2-.2.4-.5.5-.7 0-.3-.2-.5-.4-.4-.1 0-.3.2-.4.3-.2.2-.3.3-.5.4-.3.2-.6.4-.9.5-.6.2-1.3.2-1.9.2-.2 0-.4 0-.5-.1-.2-.1-.4-.1-.5-.3v-.1l1-2.4h.3c.4.1.8.1 1 .4.1.1.2.2.2.4s-.1.4 0 .5c.1.2.2.2.4.2s.3-.3.3-.5c.1-.2.2-.4.2-.6.1-.3.3-.7.4-1 .1-.2.5-.8.1-1-.2-.1-.5.3-.6.4-.2.2-.5.4-.8.5-.4.1-.9 0-1.3-.1l.8-1.9c.1-.2.2-.6.5-.7.2-.1.5-.1.7 0h.2c.4.1.8.2 1.1.5.3.3.5.7.7 1.1.1.2.1.7.5.7.2-.3 0-.9 0-1.2zm36.9 1.4c.4-.2.8-.5 1.1-.8.7-.8.2-1.9-.7-2.2-.6-.2-1.4-.1-2 .1-.2.1-.4.1-.6.2-.4.2-.7.4-.9.8-.1.2-.2.4-.2.6 0 .2 0 .5.1.6.3.3.8.2 1-.1.1-.1.1-.2.1-.4s-.1-.3-.1-.5c0-.4.4-.6.8-.7.4-.1.9 0 1.3.2.6.4.4 1.4-.1 1.8-.2.1-.3.3-.5.4-.3.1-.6.1-.8.2v.5c0-.1.9 0 1 0 .3.1.6.3.7.6.1.3.2.7.1 1 0 .2-.1.5-.2.7-.2.4-.6.6-1 .7-.2.1-.4.1-.6 0-.2 0-.5-.2-.7-.3-.3-.3.1-.6 0-.9-.1-.3-.5-.4-.7-.3-.6.2-.7 1.1-.3 1.5.1.2.3.3.5.4.8.4 1.9.1 2.8-.2.9-.4 1.7-1.1 1.7-2.1 0-.3-.1-.7-.3-1-.5-.7-1-.7-1.5-.8zm-19.3-1c-.1 0-.4.1-.5.2-.2.1-.5.2-.7.2-.4 0-.7.1-1 .1h-.5c-.2.1-.2.3 0 .4.1.1.2 0 .4 0s.6.1.7.2c.2.2.1.4.1.6-.1.3-.1.6-.2.9-.2.7-.3 1.3-.5 2 0 .1 0 .3-.1.4 0 .2-.1.5-.2.6l-.3.3c-.3.2-.6.3-.9.3-.1 0-.3.1-.3.3 0 .4.9.3 1.1.3h2.4c.2 0 .4-.1.4-.3s-.3-.3-.5-.4c-.2 0-.5-.1-.6-.3-.1-.3.1-.8.2-1 .1-.4.2-.9.3-1.3.2-.9.4-1.9.7-2.8 0-.2.1-.4 0-.7zm5.5-.3c-1-.2-2.3.2-3 .9-.4.3-.6.8-.7 1.3s-.1.9.1 1.4c.1.2.2.3.3.4.2.1.4.3.6.4.2.1.5.1.7.1.4 0 .9-.1 1.3-.2s.8-.4 1.1-.7c0 .2-.1.4-.2.6-.2.5-.3.9-.6 1.4-.3.4-1.6 1.4-2.3.9-.4-.3-.1-1.2-.9-1-.3.1-.6.3-.6.7 0 .2 0 .4.1.5.2.3.6.4.9.4.3.1.6.1 1 .1h.4c.3 0 .5-.1.7-.2 1-.3 1.7-.9 2.2-1.7.6-1 .8-2.3.7-3.5-.2-1-.9-1.6-1.8-1.8zm-.5 3.7c-.4.2-.9.3-1.3.1-.5-.2-.7-.8-.6-1.3 0-.5.2-.9.4-1.3.3-.4.8-.7 1.3-.7.2 0 .5 0 .7.2.2.1.3.4.4.6.2.8-.2 1.9-.9 2.4zm5.3-1.7l.1-.3c.1-.3.2-.6.4-.9.2-.4.5-.7 1-.9.4-.2 1.3-.3 1.4.4 0 .2 0 .4.2.6.1.1.2.2.4.2.3 0 .6-.3.6-.6s-.1-.6-.3-.8c-.2-.3-.5-.3-.9-.4-.5-.1-1-.1-1.5.1-.6.2-1.2.5-1.6.9-.3.3-.5.6-.7 1s-.4.8-.5 1.2-.1.9-.1 1.3c0 .6.1 1.2.4 1.7.4.8 1.3 1 2.2 1 .4 0 .8-.1 1.1-.2.5-.2 1.1-.5 1.4-1 .5-.7.7-1.7.3-2.4-.1-.2-.3-.4-.5-.5-.4-.3-1-.4-1.5-.4-.7.1-1.2.4-1.7.7l-.2.2.1-.6-.1-.3zm.2 1.1c.3-.4.7-.5 1.1-.6h.1c.3 0 .7 0 .9.3.6.6.4 1.9-.1 2.5-.1.1-.2.3-.4.4-.5.3-1.1.3-1.6 0-.4-.3-.5-1-.4-1.5 0-.4.1-.8.4-1.1z" fill="#fff"/></svg>