<svg xmlns="http://www.w3.org/2000/svg" width="228" height="228" viewBox="0 0 228 228"><style type="text/css">  
	.st0{fill-rule:evenodd;clip-rule:evenodd;fill:#B52C3A;}
</style><path class="st0" d="M131.7 72.1c-1.8-0.8-3.5-1.3-5.4-1.7 -1.8-0.4-3.5-0.7-5.4-0.8 -1.8-0.1-3.7-0.2-5.5-0.3 -1.5-0.1-3-0.1-4.5-0.1 -1.3 0-2.6 0.1-3.9 0.2 -4.2 0.4-8.5 1.6-12.3 3.5 -1.6 0.8-3.1 2.2-4.4 3.4 -1 0.9-1.9 2.4-2.6 3.6 -0.8 1.4-1.5 3-1.7 4.6 -0.2 1.7 0.2 3.3 0.6 4.9 1.1 4.1 4.2 7.2 7.8 9.4 3.6 2.1 7.5 3.2 11.6 3.7 2.4 0.3 4.8 0.4 7.2 0.4 4.1 0 8.2-0.4 12.1-1.4 1.9-0.5 3.7-1.1 5.5-1.9 0.7-0.4 1.6-0.7 2.2-1.2 2-1.5 3.5-3.1 4.9-5.1 0.6-0.9 1.1-2.2 1.6-3.2 1.7-4.1 1.4-8.7-1-12.6C136.8 74.9 134.4 73.3 131.7 72.1zM138.4 83.2c0.3 0 0.5 0 0.7 0.1 -0.1 0-3.5 2.3-3.9 2.5 -1.7 0.7-3.4 1.3-5.2 1.7 -3.1 0.7-6.6 0.3-9.7 0 -2.2-0.2-4.3-0.7-6.5-0.8 -2.2-0.1-4.3 0.4-6.4 0.7 -0.9 0.1-1.7 0.3-2.6 0.3 -3.7 0.3-7.4 0.2-11-0.2 -2.2-0.3-5-0.4-6.3-2.5 3 1.7 7 1.5 10.3 0.8 4.2-0.9 8-2.2 12.4-2 3.3 0.1 6.5 0.7 9.8 0.9 4.7 0.3 9.3-0.1 14-0.7 0.8-0.1 1.6-0.2 2.4-0.3C136.8 83.7 137.7 83.2 138.4 83.2zM109.4 163.6c0.1-1.2 0.2-2.3 0.5-3.4 0.2-0.6 0.4-1.2 0.6-1.8 0.4-0.8 0.7-1.5 1.3-2.2 0.6-0.8 1.4-1.6 2.1-2.3 2.2-1.9 4.8-3.2 7.4-4.4 2.1-1 4.2-2 6.4-2.7 1.4-0.5 2.8-1 4.2-1.4 2.3-0.7 4.6-1.3 6.9-2 1-0.3 2-0.8 3-1.3 1.7-0.8 3.2-1.7 4.6-3 1.3-1.2 2.4-2.7 3.4-4.1 0.9-1.3 1.6-2.5 2.3-3.8 0.9-1.8 1.8-3.7 2.7-5.5l-1.1 0.3c-2.6 0.6-5.2 1-7.8 1.3 -4.1 0.5-8.2 0.8-12.1 2.4 -5.5 2.2-10.5 6-14.1 10.8 -2 2.6-3.5 5.4-4.9 8.3 -1.4 2.7-2.8 5.8-5.4 7.6 1-2.3 3.1-5.3 2.4-8 -0.4 0.4-0.7 0.8-1.2 1 -0.2-0.9 0.2-2.4-0.5-3.2 -0.3 0.4-0.9 1.7-0.7 2.2 -0.2-0.5-0.4-1.2-0.9-1.3 -1.4 2.2-0.9 5.3-0.4 7.7 0.4 1.9 0.6 3.6 0.3 5.5 -0.1 0.3-0.6 1.8-0.4 2 -1.3-1.6-1.3-3.7-1.5-5.7 -0.2-2.3-0.5-4.5-1.1-6.7 -0.7-2.7-1.7-5.2-3.2-7.5 -1.5-2.3-3.3-4.3-5.3-6.2 -3.1-2.9-6.6-5.4-9.9-8.1 -0.2-0.1-3.3-2.7-3.4-2.2 -0.1 0.4 0 1 0 1.4 0.1 3.1 0.2 6.3 0.7 9.4 0.4 2.9 1.1 5.7 2.2 8.4 1.1 2.5 2.7 4.9 4.6 6.8 2 2.1 4.4 3.8 6.9 5.3 1.3 0.8 2.7 1.5 4.1 2.3 0.7 0.4 1.4 0.7 2.1 1.1 1.2 0.6 2.1 0.6 2.6 2 0.4 1.1 0.8 2.2 1 3.3 0.1 0.6 0.1 1.2 0.2 1.8 0.1 0.5-0.2 1.1 0 1.6 0.2 0.3 0.9 0.6 1.2 0.4 0.3-0.3 0.1-1 0.2-1.3 0-0.3 0-0.5 0-0.8C109.3 166.3 109.3 165 109.4 163.6zM119.7 146.5c2.1-1.9 4.4-3.5 6.8-5 1.4-0.9 2.8-1.7 4.3-2.4 1.4-0.7 2.8-1.3 4.3-2 1.6-0.7 3.3-1.5 4.9-2.3 1.1-0.6 2.2-1 3.3-1.6 2.2-1.2 4.3-2.7 6.5-4 0.2-0.1 0.5-0.3 0.7-0.5 0 0 0 0.1 0 0.1 -0.1 0.6-0.9 0.9-1.3 1.3 -2.1 2.3-4.7 3.6-7.2 5.3 -3.2 2.1-6.6 3.5-10 5.2 -3.3 1.6-6.6 3.4-9.6 5.5 -1.7 1.2-3.3 2.4-4.8 3.8 -0.2 0.2-1.5 1.5-1.8 1.2C114.8 150.2 119.2 146.9 119.7 146.5zM103.3 157.3c-0.4-0.7-0.8-1.4-1.2-2.1 -3.2-5.4-6.7-10.6-10.1-15.8 -1-1.5-1.9-3-2.9-4.5 -0.6-0.9-1.2-1.8-1.8-2.7 -0.5-0.8-1-1.8-1.6-2.5 3.3 3.8 6.8 7.3 9.5 11.6 1.6 2.6 3.3 5.1 4.9 7.7 0.9 1.6 2 3.3 2.8 5 0.4 0.8 0.9 1.7 1.4 2.5 0.3 0.6 1 1.4 1.1 2.2C103.9 158.9 104 158.6 103.3 157.3zM214.2 114.9H14.6v7.3h199.6V114.9zM47.9 109.1h7.6c2.6-30.2 27.9-53.8 58.7-53.8 30.8 0 56.1 23.7 58.7 53.8h7.6c-2.6-34.3-31.3-61.4-66.3-61.4C79.2 47.7 50.5 74.8 47.9 109.1zM114.2 180.7c32.2 0 59.1-23 65.2-53.4h-7.8c-5.9 26.2-29.4 45.8-57.4 45.8 -28 0-51.5-19.6-57.4-45.8H49C55.1 157.8 82 180.7 114.2 180.7zM114 0C51 0 0 51 0 114c0 52.4 35.3 96.5 83.5 109.9v-3.6C37.2 207 3.4 164.5 3.4 114 3.4 52.9 52.9 3.4 114 3.4c61.1 0 110.6 49.5 110.6 110.6 0 49.9-33.1 92.1-78.5 105.8v3.6C193.4 209.5 228 165.8 228 114 228 51 177 0 114 0zM95 15.3c-3.9 1.2-5.3 5.6-5.3 10.1v1.7l-0.8 0.3c-1.9 0.6-1.1 2.7 0.3 2.3l0.7-0.2 0.8 9.4c0.1 1.2-0.2 1.7-1.7 2.6 -0.9 0.5-0.2 1.7 0.8 1.4l6.4-2c0.8-0.3 0.6-1.5-0.8-1.3 -1 0.1-1.2-0.6-1.2-1.5l-0.7-9.7 1.4-0.4c1.9-0.6 1.1-2.7-0.4-2.2L93.2 26l-0.3-3.1c-0.3-3.3 0.2-5.7 1.3-6.1 0.9-0.3 1.5 2.6 3.5 2 0.8-0.3 1-1.5 0.7-2.3C97.9 14.8 96.4 14.9 95 15.3zM99 38.8c-0.9 0.4-0.4 1.7 0.6 1.5l6.6-1.5c0.9-0.2 0.7-1.4-0.6-1.4 -1 0-1.1-0.7-1.1-1.6l0.1-9.7 1.4-0.3c2-0.4 1.3-2.6-0.2-2.3l-1.2 0.3 0-3.1c0-3.3 0.7-5.7 1.8-5.9 0.9-0.2 1.3 2.7 3.3 2.2 0.9-0.2 1.1-1.4 0.9-2.2 -0.4-1.8-1.9-1.8-3.4-1.5 -3.9 0.9-5.7 5.1-6.1 9.6l-0.1 1.6 -0.8 0.2c-2 0.4-1.3 2.6 0.1 2.3l0.7-0.2 0 9.4C100.9 37.5 100.6 38 99 38.8zM56 34.8c2-1.6 4.4-1.7 7.1 0.9 1.3 1.2 2.9 0.2 1.5-1.4 -0.9-1-3.4-3.8-4.3-5.2 -0.7-1-1.7-0.3-1.6 0.8 0 0.6-0.1 1.5-0.7 1.9 -0.8 0.6-2 0.2-4 1.8 -6 4.8-6.1 15-1.7 20.5 4 4.9 9.8 5.6 14.8 1.6 5.1-4.1 5.4-11.3 3.1-14.1 -0.8-1-2-1.3-3-0.5 -1.2 1-1.7 3.1 0.9 4.2 0.3 0.1 0.6 0.3 0.8 0.5 1.4 1.7 0.6 5.8-2.4 8.2 -3.7 3-7.8 0.8-10.4-2.4C52.8 47.5 50.8 39 56 34.8zM81.7 46.4c5.2-2.5 6.9-8.2 4.6-12.9 -1.6-3.4-4.8-4.7-8.3-3.1 -5.2 2.4-6.9 8-4.8 12.5C74.8 46.3 78.1 48.1 81.7 46.4zM78.3 31.8c2.1-1 3.5 0.9 4.3 2.5 1.2 2.5 2.5 8.9-0.7 10.4 -2.3 1.1-4-1.4-4.9-3.1C75.7 39 75 33.3 78.3 31.8zM47.4 59.8c-3.2-2.2-6.1-0.1-7.8 2.3 -3.3 4.9-1.3 10.3 2.3 12.8 3 2.1 6.9 2 9.7-2 1.6-2.4 2.9-7.8 0.3-9.6 -0.9-0.6-2-0.5-2.6 0.3 -1 1.4 0 2.8 1 3.3 0.6 0.3 0.9 0.8 1.1 1.3 0.3 1 0 2.4-0.6 3.3 -1.6 2.3-4.1 1.9-6.1 0.5 -0.8-0.6-1.7-1.3-2.5-2.2l6.2-9C48.1 60.4 47.7 60.1 47.4 59.8zM40.9 68.1c-2.8-3.2 0.9-8.5 3.9-5.6L40.9 68.1zM16.4 105.4c2 0.7 4-0.5 4.7-2.4 0.5-1.6 0.2-3.7-1.6-4.5 -0.8-0.3-1.5 0-1.8 1 -0.7 1.9 1.8 2.2 1.3 3.5 -0.4 1-1.4 1.3-2.5 0.9 -1.8-0.6-1.9-3.6-1-5.8 0.6-1.7 1.9-3.1 3.5-4.9 2.8 6.9 7.1 9.8 10.6 11.1 6.4 2.4 13.3-1 15.5-7 2.2-6.1 0.2-12.1-5.4-13.8 -2.5-0.8-5.3-0.2-7.3 1.6 -1.6-1.3-1.7-3-1.1-4.9 1.3-3.4 3.7-2.4 5.9-0.9l6.4 4.4c0.8 0.6 1.3 0.6 1.5 0l1.8-4c0.3-0.9-0.6-1.8-1.8-0.8 -0.5 0.5-1.6 0.2-2.4-0.4l-4.2-2.9c-4-2.8-7.1-1.5-8.8 3.2 -0.3 0.8-0.6 2.7-0.5 3.6 -3.3-2.6-6.1-7.6-4.7-11.5 0.5-1.3 1.4-1.9 2.8-1.9 2.3-0.1 2.4-2.8 0.5-3.5 -1.8-0.6-3.8 2-4.4 3.6 -2.6 7 0.9 14.8 6.6 19.2 -1.3 3.1-1.1 6.4 2.5 7.7 3.1 1.1 4.5-2.5 2.5-3.2 -0.8-0.3-1.8 0.4-2.7 0.5 -1.1 0-1.9-1.8-0.9-4 0.3 0.2 0.5 0.3 0.5 0.3l5.9 4.1c1.1 0.7 0.6 2.9 1.5 3.2 0.6 0.2 1-0.1 1.3-0.9l1.5-5.3c0.1-0.4-0.2-1-0.6-1.1 -1.3-0.5-1 1.5-2.8 0.3 0 0-3.2-2.1-5.1-3.5 1.3-1 3.1-1.7 5.5-0.7 4.4 1.9 5.8 5.6 4.2 10 -2 5.4-7.9 6.3-12.8 4.6 -4.4-1.6-8-4.7-10-10.1 0.7-1.1 1.4-2.4 2-3.9 2.3-6.4-2.8-10-4.8-4.4 -1 2.7-0.7 6-0.2 8.1 -2 2.4-3.1 4.1-3.7 6C12.5 99.7 12.8 104 16.4 105.4zM20 82.4c0.9-2.4 2.9-1.5 1.6 1.9 -0.3 0.9-1.3 2.7-1.9 3.4C19.4 86.1 19.3 84.1 20 82.4zM123.7 29.6c0.1-0.5 0.1-0.9 0.1-1.4 0-3.8-3.4-5.1-6.2-5.1 -5.8 0-9.1 4.8-9.1 9 0 3.6 2.2 6.8 7.1 6.8 2.9 0 8-2 8-5.2 0-1-0.7-1.9-1.7-1.9 -1.7 0-2.2 1.6-2.1 2.7 0.1 0.7-0.1 1.2-0.5 1.6 -0.7 0.9-1.9 1.4-3 1.4 -2.8 0-3.9-2.3-3.9-4.7 0-1 0.1-2.1 0.4-3.3H123.7zM120.1 27.6h-6.7C114.4 23.5 120.8 23.5 120.1 27.6zM81.5 187.5c0.5-0.6 1.1-0.5 2.3 0.1 2 1 7.7 2 9-0.3 0.5-1-0.2-1.5-1.1-1.3 -1.2 0.3-1.7 0.4-2.5 0.2 -0.5-0.2-1.1-0.3-1.7-0.6 -3.2-1.7-10.7-6.7-11.7-7.2 -5-2.6-11.3-4-14.2 1.5 -1.6 3.1-0.3 6.4 2.8 8 2.1 1.1 6.3 1.1 7.6-1.5 0.5-0.9 0.2-2.3-0.9-2.9 -1.4-0.7-2.4 0-3.1 1.3 -0.8 1.5-1.4 1.9-2.8 1.2 -2.2-1.1-2.8-2.9-1.5-5.4 1.7-3.2 5.7-3.3 8.9-1.6 2.3 1.2 4.1 3 4.7 3.6 0.7 0.6 1.6 1.7 0.3 3.1l-10 11.7c-1 1.2-2.3 1-3.6 0.9 -1.3-0.2-1.6 1-0.3 1.8 0.8 0.5 1.9 1.1 3 1.7 1.1 0.6 2.3 1.1 3.3 1.6 1.5 0.8 1.8-0.5 0.8-1.9 -0.3-0.5-0.3-1.2 0.4-2.1L81.5 187.5zM145.4 200.5c-0.5 0.1-0.8 0.9-1.1 1.9 -1.2 3.3-2.8 5.8-6.2 6.5 -1.2 0.3-3.1 0.5-3.3-0.4 -0.1-0.3 0-0.8 0-1.5l0.5-15.2c0-1.2 0.5-2.3 3.3-3.6 0.9-0.4 1.7-1 1.8-1.9 0-0.5-0.3-0.8-1.4-0.5 -0.4 0.1-1 0.3-1.8 0.6 -0.8 0.3-1.7 0.7-2.8 0.9 -3.1 0.7-6.8 1.1-9.1 1.3 -1.1 0.1-2.1 0.2-3.1 0.4 -4.6 1-8.1 3.9-7 8.8 0.7 3.1 3.9 4.2 6.7 3.6 2.1-0.5 4.3-2.4 3.9-4.3 -0.3-1.4-1.1-2-2.5-1.7 -0.7 0.1-1.7 0.9-1.3 2.5 0.1 0.7-0.5 1.3-1.3 1.5 -1.7 0.4-3.2-0.7-3.5-2.3 -0.8-3.7 1.5-5.5 5.8-6.4 1.1-0.2 3-0.4 4.9-0.3 2 0 2.8 0.6 3.1 1.8 0.1 0.5 0.1 1.1 0.1 1.8l-0.4 13.6c-0.1 1.8-0.2 2.3-2.7 3.5 -1.1 0.5-0.8 2.5 2.2 1.6 2.1-0.6 5.2-1.3 7.9-1.9 2.5-0.6 4.7-1 5.5-1.1 2.1-0.4 2.2-1.4 2.3-2.3 0.1-2 0.2-3.3 0.6-5.5C146.5 200.9 146 200.4 145.4 200.5zM57.4 169.1c1.8-1.5 1.6-4.1 0.2-5.8 -2.5-3.1-7.6-1.9-10.5 0.4 -0.3 0.2-0.5 0.5-0.7 0.7 -3.6-1.4-7.6-2.3-10.7 0.2 -3.5 2.9-3.2 8.1-0.5 11.4 1.5 1.8 3.5 3.3 5.9 4.1 0.2 2.3 0.9 4 1.9 5.2 1.3 1.6 5.2 3.4 6.7 2.1 0.8-0.6 1-1.9 0.2-2.8 -0.2-0.3-0.6-0.5-1.1-0.5 -0.7 0-2 1.2-3 1.1 -0.4 0-0.9-0.2-1.3-0.7 -0.6-0.7-1-1.9-0.6-4.1 4.7 0.2 7.8-0.6 9.3-1.9 1.2-1 1.8-2.3 1-3.2 -0.8-1-2.1-1.2-2.9-0.5 -0.8 0.7-1.1 1.7-2.1 2.5 -1.2 1-2.9 1.7-5.1 1.3 0-3 2.4-8.2 3.7-10.1C50.6 169.6 54.9 171 57.4 169.1zM50.8 164.9c1.6-1.3 4.3-2.6 5.7-0.8 0.9 1.1 0.6 2.3-0.4 3.1 -1.5 1.2-4.9 0.2-6.7-1C49.8 165.8 50.3 165.4 50.8 164.9zM41.1 178.1c-1.5-0.6-2.7-1.3-3.4-2.2 -2-2.4-1.8-6.1 0.8-8.2 1.6-1.3 3.7-1.5 5.5-0.6C41.8 171.3 41.1 176 41.1 178.1zM181.9 188l4.8-4.7c0.6-0.6-0.1-1.6-1.2-0.9 -0.8 0.5-1.3 0-1.8-0.8l-5.2-8.5 1.1-1c1.5-1.4-0.3-3-1.4-1.9l-0.9 0.8 -1.7-2.7c-1.8-2.9-2.5-5.3-1.6-6.1 0.7-0.7 2.6 1.7 4.1 0.2 0.6-0.6 0.1-1.8-0.4-2.4 -1.3-1.4-2.8-0.5-3.9 0.5 -2.9 2.8-2.1 7.3 0.1 11.5l0.8 1.5 -0.6 0.6c-1.5 1.4 0.3 3 1.4 2l0.6-0.5 5.1 8.3c0.6 1 0.7 1.6-0.3 3.1C180 187.9 181.2 188.7 181.9 188zM166 189.8c-1.5 1.5-3.4 4.6-1.2 7.5 1.7 2.2 3.8 1.7 6 0.1 1.9-1.5 3.1-3.6 3.3-5.3 1.3 0.8 2.9 0.4 4.3-0.6 1.8-1.4 1.3-3.6-0.2-2.5 -0.8 0.6-1.6 0.1-2.1-1l-1.7-4.1c-0.4-0.9-0.8-1.7-1.3-2.3 -2.1-2.8-4.9-2.2-8.4 0.5 -2.3 1.7-4.5 4.8-3 6.9 0.6 0.8 1.6 0.9 2.3 0.4 1.3-1 1.5-2.2 0.9-3.2 -0.6-1.1-0.8-1.9 0.8-3.1 1.4-1.1 3-1.2 4 0 1 1.4 0.7 2.5-0.4 3.6C168.6 187.6 166.9 188.9 166 189.8zM171.8 186.8l0.6 0.9c1.4 2.3 0.3 5.6-1.9 7.3 -0.9 0.7-2 0.8-2.9-0.3C165.4 191.9 170.2 188.8 171.8 186.8zM160 191.4c-1.8-3.4-5.3-2.9-7.9-1.6 -5.2 2.7-5.9 8.4-3.9 12.2 1.6 3.1 5.1 5 9.5 2.8 2.6-1.3 6.1-5.4 4.7-8.3 -0.5-0.9-1.5-1.4-2.4-0.9 -1.5 0.8-1.3 2.2-0.6 3.4 0.9 1.8-0.2 3.5-1.7 4.3 -2.5 1.3-4.5-0.2-5.6-2.4 -0.5-0.9-0.8-2-1.1-3.1l9.6-5C160.4 192.2 160.2 191.8 160 191.4zM150.5 195.6c-0.9-4 4.7-7 6-3.1L150.5 195.6zM106.6 212.1c-1-0.1-1.2-1.1-0.7-2.2l1.7-4.1c0.4-0.9 0.7-1.8 0.8-2.5 0.5-3.5-1.9-5-6.3-5.6 -2.8-0.4-6.6 0.2-7 2.7 -0.1 1 0.4 1.8 1.3 1.9 1.7 0.2 2.6-0.5 2.9-1.6 0.4-1.2 0.8-1.9 2.8-1.6 1.8 0.3 3 1.3 2.8 2.8 -0.2 1.7-1.3 2.2-2.9 2.3 -1.2 0-3.4-0.2-4.6-0.2 -2.1 0-5.6 0.8-6.2 4.4 -0.4 2.8 1.4 3.9 4.2 4.3 2.4 0.4 4.7-0.3 6.1-1.3 0.4 1.4 1.8 2.4 3.5 2.6C107.2 214.3 108.4 212.4 106.6 212.1zM103.2 207c-0.7 2.6-3.8 4.1-6.6 3.7 -1.1-0.2-2-0.9-1.8-2.3 0.5-3.4 6.1-2.2 8.6-2.5L103.2 207zM81 208.7c2.7 0.9 8.2 0.7 9.2-2.3 0.3-1 0-2-1-2.4 -1.6-0.6-2.5 0.6-2.9 1.8 -0.7 1.9-2.7 2.3-4.3 1.7 -2.6-0.9-2.9-3.4-2.1-5.7 0.3-0.9 0.9-1.9 1.5-2.9l10.3 3.5c0.2-0.4 0.4-0.9 0.5-1.2 1.3-3.6-1.5-5.9-4.3-6.8 -5.6-1.9-10.2 1.5-11.5 5.6C75.3 203.3 76.4 207.2 81 208.7zM89 199.4l-6.4-2.2C85 193.8 91 195.8 89 199.4zM195.6 84l-8.7 1.1c-1.2 0.2-1.2-0.1-1.5-0.4 -0.5-0.7-1.7-0.4-1.4 0.4l1.7 4.5c0.5 1.3 1.9 1.4 1.9 0.1 0-0.5 0.4-1 1-1.1l5.7-0.7c3-0.4 5.1 1.1 5.9 3.2 0.7 1.8 0.3 3-1.3 3.6 -0.5 0.2-1.1 0.3-1.7 0.3l-6.1 0.5c-4.1 0.4-7.5 3.5-5.9 7.9 1 2.6 4.2 4.3 6.8 3.3 1.1-0.4 1.7-1.7 1.2-3 -0.4-1-1.4-1.3-2.1-1.1 -0.8 0.3-1.3 1.1-2 1.4 -0.9 0.3-2.3-0.2-2.6-1.2 -1-2.8 2.7-3.5 4.3-3.6l7-0.5c1-0.1 1.9-0.2 2.7-0.5 2.5-1 3.5-3.6 2.6-6.1 -0.5-1.4-1.8-3.2-4.5-4.6l1.6-0.2c0.3 0 0.6-0.2 0.4-0.6 -0.2-0.5-1.2-3.6-2.3-4.8 -0.6-0.7-1.9-0.6-1.5 0.9C196.9 83.7 196.5 83.9 195.6 84zM191.9 74.1c-1.5 0.9-2.6 0.4-3.6-0.8 -0.8-0.9-2-2.8-2.7-3.8 -1.3-1.6-4.1-3.9-7.3-2.1 -2.4 1.4-2.2 3.6-0.8 6 1.2 2.1 3.2 3.5 4.8 4 -0.9 1.1-0.8 2.9 0.1 4.4 1.1 2 3.4 1.7 2.5 0.1 -0.5-0.9 0.1-1.6 1.2-1.9l4.2-1.3c1-0.3 1.8-0.6 2.4-1 3.1-1.8 2.8-4.6 0.6-8.4 -1.5-2.5-4.3-5.1-6.5-3.8 -0.9 0.5-1.1 1.4-0.7 2.2 0.8 1.5 2 1.7 3.1 1.3 1.2-0.4 2-0.6 3 1.2C193.3 71.7 193.2 73.3 191.9 74.1zM186.9 76.1c-2.4 1.1-5.7-0.4-7-2.8 -0.6-1-0.6-2.1 0.7-2.8 3-1.7 5.5 3.4 7.3 5.2L186.9 76.1zM169.7 53.2c-2.6 2.4-3.5 6.3-0.2 9.8 2 2.1 6.8 4.5 9.2 2.3 0.8-0.7 1-1.8 0.2-2.6 -1.2-1.3-2.4-0.6-3.4 0.3 -1.5 1.4-3.4 0.7-4.5-0.5 -1.9-2.1-1-4.4 0.9-6 0.7-0.7 1.7-1.3 2.7-1.9l7.3 7.9c0.4-0.3 0.8-0.5 1.1-0.8 2.8-2.6 1.4-5.9-0.5-8.1C178.5 49.5 172.8 50.3 169.7 53.2zM181 58.7l-4.6-4.9C180.1 51.8 184.5 56.5 181 58.7zM152.4 44.9c-1.2 1.2-2.4 0.6-4.1-0.4 -1-0.6-1.6 1.2-1.2 1.4 1.5 0.9 3.4 1.8 5 2.8 1.9 1.2 3.7 2.5 5.7 3.7 3.6 2.2 9.1 2.4 11.2-1.1 0.8-1.4 1.4-3.2-0.1-6.1 2.3 0.6 5.3-0.3 6.6-2.3 2.5-4.1-0.3-8.3-3.9-10.5 -0.6-0.4-2.8-1.6-3.7-2.2 -1.5-1-3-2-4.6-2.9 -5.3-3.2-11.4-4.9-14.4 0.1 -1.4 2.3-0.7 5.9 1.7 7.3 1.7 1 4.4 1.3 5.4-0.3 0.7-1.1 0.3-2.7-1.5-2.5 -0.9 0.1-1.8 0.9-2.8 0.3 -1.3-0.8-1.5-2.8-0.8-4.1 2.1-3.4 6.4-2.3 10.7 0.2 2.5 1.5 4 3.1 1.5 5.6L152.4 44.9zM165.5 49.1c-1.2 2-4.5 3-7.3 1.3 -2.1-1.3-2.4-2-3.2-2.3l6.3-6.5 2.8 1.7C166.5 44.8 166.7 47 165.5 49.1zM166.7 36.1c1.9-2 3.2-2.2 4.6-1.3 2 1.2 2.2 3.4 0.9 5.6 -1.2 1.9-4.4 2.9-6.4 1.7l-3-1.8L166.7 36.1zM130.2 31l10.6 2.4c0.2-0.5 0.3-0.9 0.4-1.3 0.8-3.7-2.2-5.7-5-6.3 -5.7-1.3-10 2.6-10.9 6.8 -0.8 3.5 0.7 7.1 5.4 8.2 2.8 0.6 8.2-0.2 8.9-3.3 0.2-1-0.2-2-1.2-2.3 -1.7-0.4-2.6 1-2.7 2.2 -0.1 0.7-0.4 1.1-0.8 1.5 -0.8 0.7-2.2 0.9-3.2 0.7 -2.7-0.6-3.3-3.1-2.7-5.5C129.3 33.1 129.7 32.1 130.2 31zM137.8 30.7l-6.6-1.5C133.1 25.5 139.3 26.9 137.8 30.7zM191.3 133.8h0.8l1.5 2.5h1.2l-1.6-2.6c0.8-0.1 1.5-0.6 1.5-1.7 0-1.2-0.7-1.9-2.2-1.9h-2.4v6.2h1.1V133.8zM191.3 131.1h0.8c0.7 0 1.5 0 1.5 0.9 0 0.8-0.8 0.9-1.5 0.9h-0.8V131.1zM192.3 138.6c3 0 5.4-2.4 5.4-5.4 0-3-2.4-5.4-5.4-5.4 -3 0-5.4 2.4-5.4 5.4C186.9 136.2 189.3 138.6 192.3 138.6zM192.3 128.8c2.5 0 4.4 2 4.4 4.4 0 2.5-2 4.4-4.4 4.4 -2.5 0-4.4-2-4.4-4.4C187.8 130.8 189.8 128.8 192.3 128.8zM109.6 226.6c-0.3 0-0.7 0.3-0.8 0.6 -0.1 0.3 0.1 0.6 0.3 0.7 0.2 0.1 0.6 0 0.7-0.1 0.3-0.1 0.4-0.4 0.4-0.6C110.3 226.9 110 226.5 109.6 226.6zM103.7 222.6c-0.4-0.3-1.1-0.3-1.6-0.3 -0.3 0-0.5 0.1-0.8 0.1 -0.4 0.1-0.9 0.4-1.1 0.8 -0.2 0.3-0.2 0.8-0.1 1.1 0.1 0.3 0.5 0.6 0.8 0.7 0.4 0.2 0.8 0.3 1.2 0.5 0.2 0.1 0.3 0.4 0.3 0.7 -0.1 0.5-0.7 0.7-1.2 0.6 -0.3-0.1-0.5-0.2-0.7-0.4 -0.2-0.2-0.3-0.4-0.6-0.5 -0.2-0.1-0.5 0.1-0.6 0.3 -0.1 0.6 0.5 0.9 1 1 0.4 0.1 0.7 0.2 1.1 0.2 0.3 0 0.5 0 0.8-0.1 0.8-0.2 1.6-0.7 1.6-1.6 0-0.5-0.3-0.7-0.7-1 -0.3-0.2-0.7-0.3-1-0.4 -0.2-0.1-0.7-0.3-0.7-0.6 -0.1-0.4 0.1-0.7 0.4-0.9 0.4-0.2 0.9-0.1 1.2 0.3 0.1 0.1 0.2 0.4 0.4 0.5 0.2 0.1 0.5 0.1 0.6-0.2 0-0.1 0.1-0.2 0.1-0.3C104.1 222.9 103.9 222.7 103.7 222.6zM107.3 222.9c0 0 0.1-0.5 0.1-0.6 0-0.2 0.3-0.7 0-0.8 -0.1 0-0.2 0-0.2 0 -0.2 0.1-0.3 0.5-0.4 0.6 -0.2 0.2-0.4 0.5-0.7 0.6 -0.2 0.1-0.6 0.1-0.8 0.3 -0.3 0.4 0.3 0.5 0.6 0.5 -0.1 0.3-0.2 0.6-0.2 0.9 -0.1 0.5-0.3 1-0.4 1.4 -0.1 0.4-0.3 0.9-0.2 1.3 0.1 0.3 0.4 0.4 0.7 0.5 0.5 0.1 1 0 1.5-0.2 0.3-0.1 0.7-0.3 0.7-0.7 0-0.3-0.2-0.4-0.5-0.3 -0.2 0.1-0.4 0.2-0.7 0.3 -0.1 0-0.2 0-0.4 0 -0.2-0.1 0-0.5 0-0.7 0.2-0.8 0.4-1.7 0.6-2.5l0.7 0c0.3 0 0.5-0.2 0.5-0.5C108.3 222.8 107.6 222.9 107.3 222.9zM99.5 220.6c0-0.4-0.1-0.8-0.1-1.2 0-0.1 0-0.2 0-0.3 0-0.1-1.1-0.2-1.2-0.2 -0.7-0.1-1.4-0.2-2.1-0.3 -0.4-0.1-0.8-0.1-1.3-0.2 -0.5-0.1-1-0.2-1.5-0.3 -1-0.2-2.1-0.2-3 0.3 -0.6 0.3-1.1 0.9-1.1 1.6 0 0.2 0 0.5 0.1 0.7 0.2 0.6 0.5 1.1 1.1 1.3 0.4 0.1 0.8 0.1 1.2 0 0.4-0.1 0.7-0.4 0.6-0.8 0-0.2-0.1-0.4-0.3-0.5 -0.2-0.1-0.5 0-0.7 0.2 -0.1 0.1-0.3 0.3-0.5 0.3 -0.4 0.1-0.7-0.4-0.8-0.7 -0.1-0.3 0.2-0.7 0.4-1 0.2-0.3 0.5-0.4 0.8-0.5 0.3-0.1 0.6-0.2 1-0.2 0.5 0 0.9 0.1 1.4 0.2 0.3 0.1 0.8 0.2 0.9 0.5 0.1 0.4-0.1 0.8-0.3 1.2 -0.2 0.4-0.4 0.9-0.6 1.3 -0.3 0.8-0.7 1.7-1.1 2.5 -0.1 0.4-0.3 0.8-0.8 0.8 -0.2 0-0.5-0.1-0.7-0.1 -0.2 0-0.2 0.2-0.2 0.4 0 0 0 0.1 0 0.1 0 0.2 0.5 0.1 0.6 0.2 0.1 0 0.3 0 0.4 0.1 0.3 0 0.6 0.1 1 0.1 1.4 0.2 2.9 0.5 4.3 0.7 0 0 0.4 0.1 0.4 0.1 0.2-0.3 0.4-0.5 0.6-0.8 0.1-0.2 0.3-0.4 0.4-0.6 0.2-0.2 0.4-0.5 0.5-0.7 0-0.3-0.2-0.5-0.4-0.4 -0.1 0-0.3 0.2-0.4 0.3 -0.2 0.2-0.3 0.3-0.5 0.4 -0.3 0.2-0.6 0.4-0.9 0.5 -0.6 0.2-1.3 0.2-1.9 0.2 -0.2 0-0.4 0-0.5-0.1 -0.2-0.1-0.4-0.1-0.5-0.3l0-0.1 0 0 0 0 0 0 1-2.4c0 0 0.3 0 0.3 0 0.4 0.1 0.8 0.1 1 0.4 0.1 0.1 0.2 0.2 0.2 0.4 0 0.2-0.1 0.4 0 0.5 0.1 0.2 0.2 0.2 0.4 0.2 0.2 0 0.3-0.3 0.3-0.5 0.1-0.2 0.2-0.4 0.2-0.6 0.1-0.3 0.3-0.7 0.4-1 0.1-0.2 0.5-0.8 0.1-1 -0.2-0.1-0.5 0.3-0.6 0.4 -0.2 0.2-0.5 0.4-0.8 0.5 -0.4 0.1-0.9 0-1.3-0.1l0.8-1.9c0.1-0.2 0.2-0.6 0.5-0.7 0.2-0.1 0.5-0.1 0.7 0 0.1 0 0.1 0 0.2 0 0.4 0.1 0.8 0.2 1.1 0.5 0.3 0.3 0.5 0.7 0.7 1.1 0.1 0.2 0.1 0.7 0.5 0.7C99.7 221.5 99.5 220.9 99.5 220.6zM136.4 222c0.4-0.2 0.8-0.5 1.1-0.8 0.7-0.8 0.2-1.9-0.7-2.2 -0.6-0.2-1.4-0.1-2 0.1 -0.2 0.1-0.4 0.1-0.6 0.2 -0.4 0.2-0.7 0.4-0.9 0.8 -0.1 0.2-0.2 0.4-0.2 0.6 0 0.2 0 0.5 0.1 0.6 0.3 0.3 0.8 0.2 1-0.1 0.1-0.1 0.1-0.2 0.1-0.4 0-0.2-0.1-0.3-0.1-0.5 0-0.4 0.4-0.6 0.8-0.7 0.4-0.1 0.9 0 1.3 0.2 0.6 0.4 0.4 1.4-0.1 1.8 -0.2 0.1-0.3 0.3-0.5 0.4 -0.3 0.1-0.6 0.1-0.8 0.2 0 0 0 0.4 0 0.5 0-0.1 0.9 0 1 0 0.3 0.1 0.6 0.3 0.7 0.6 0.1 0.3 0.2 0.7 0.1 1 0 0.2-0.1 0.5-0.2 0.7 -0.2 0.4-0.6 0.6-1 0.7 -0.2 0.1-0.4 0.1-0.6 0 -0.2 0-0.5-0.2-0.7-0.3 -0.3-0.3 0.1-0.6 0-0.9 -0.1-0.3-0.5-0.4-0.7-0.3 -0.6 0.2-0.7 1.1-0.3 1.5 0.1 0.2 0.3 0.3 0.5 0.4 0.8 0.4 1.9 0.1 2.8-0.2 0.9-0.4 1.7-1.1 1.7-2.1 0-0.3-0.1-0.7-0.3-1C137.4 222.1 136.9 222.1 136.4 222zM117.1 221c-0.1 0-0.4 0.1-0.5 0.2 -0.2 0.1-0.5 0.2-0.7 0.2 -0.4 0-0.7 0.1-1 0.1 -0.2 0-0.4 0-0.5 0 -0.2 0.1-0.2 0.3 0 0.4 0.1 0.1 0.2 0 0.4 0 0.2 0 0.6 0.1 0.7 0.2 0.2 0.2 0.1 0.4 0.1 0.6 -0.1 0.3-0.1 0.6-0.2 0.9 -0.2 0.7-0.3 1.3-0.5 2 0 0.1 0 0.3-0.1 0.4 0 0.2-0.1 0.5-0.2 0.6 -0.1 0.1-0.2 0.2-0.3 0.3 -0.3 0.2-0.6 0.3-0.9 0.3 -0.1 0-0.3 0.1-0.3 0.3 0 0.4 0.9 0.3 1.1 0.3 0.8 0 1.6 0 2.4 0 0.2 0 0.4-0.1 0.4-0.3 0-0.2-0.3-0.3-0.5-0.4 -0.2 0-0.5-0.1-0.6-0.3 -0.1-0.3 0.1-0.8 0.2-1 0.1-0.4 0.2-0.9 0.3-1.3 0.2-0.9 0.4-1.9 0.7-2.8 0-0.2 0.1-0.4 0.1-0.6v-0.1L117.1 221 117.1 221zM122.6 220.7c-1-0.2-2.3 0.2-3 0.9 -0.4 0.3-0.6 0.8-0.7 1.3 -0.1 0.5-0.1 0.9 0.1 1.4 0.1 0.2 0.2 0.3 0.3 0.4 0.2 0.1 0.4 0.3 0.6 0.4 0.2 0.1 0.5 0.1 0.7 0.1 0.4 0 0.9-0.1 1.3-0.2 0.4-0.1 0.8-0.4 1.1-0.7 0 0.2-0.1 0.4-0.2 0.6 -0.2 0.5-0.3 0.9-0.6 1.4 -0.3 0.4-1.6 1.4-2.3 0.9 -0.4-0.3-0.1-1.2-0.9-1 -0.3 0.1-0.6 0.3-0.6 0.7 0 0.2 0 0.4 0.1 0.5 0.2 0.3 0.6 0.4 0.9 0.4 0.3 0.1 0.6 0.1 1 0.1 0.1 0 0.2 0 0.4 0 0.3 0 0.5-0.1 0.7-0.2 1-0.3 1.7-0.9 2.2-1.7 0.6-1 0.8-2.3 0.7-3.5C124.2 221.5 123.5 220.9 122.6 220.7zM122.1 224.4c-0.4 0.2-0.9 0.3-1.3 0.1 -0.5-0.2-0.7-0.8-0.6-1.3 0-0.5 0.2-0.9 0.4-1.3 0.3-0.4 0.8-0.7 1.3-0.7 0.2 0 0.5 0 0.7 0.2 0.2 0.1 0.3 0.4 0.4 0.6C123.2 222.8 122.8 223.9 122.1 224.4zM127.4 222.7l0.1-0.3c0.1-0.3 0.2-0.6 0.4-0.9 0.2-0.4 0.5-0.7 1-0.9 0.4-0.2 1.3-0.3 1.4 0.4 0 0.2 0 0.4 0.2 0.6 0.1 0.1 0.2 0.2 0.4 0.2 0.3 0 0.6-0.3 0.6-0.6 0-0.3-0.1-0.6-0.3-0.8 -0.2-0.3-0.5-0.3-0.9-0.4 -0.5-0.1-1-0.1-1.5 0.1 -0.6 0.2-1.2 0.5-1.6 0.9 -0.3 0.3-0.5 0.6-0.7 1 -0.2 0.4-0.4 0.8-0.5 1.2 -0.1 0.4-0.1 0.9-0.1 1.3 0 0.6 0.1 1.2 0.4 1.7 0.4 0.8 1.3 1 2.2 1 0.4 0 0.8-0.1 1.1-0.2 0.5-0.2 1.1-0.5 1.4-1 0.5-0.7 0.7-1.7 0.3-2.4 -0.1-0.2-0.3-0.4-0.5-0.5 -0.4-0.3-1-0.4-1.5-0.4 -0.7 0.1-1.2 0.4-1.7 0.7l-0.2 0.2 0.1-0.6L127.4 222.7zM127.6 223.8c0.3-0.4 0.7-0.5 1.1-0.6 0 0 0 0 0.1 0 0.3 0 0.7 0 0.9 0.3 0.6 0.6 0.4 1.9-0.1 2.5 -0.1 0.1-0.2 0.3-0.4 0.4 -0.5 0.3-1.1 0.3-1.6 0 -0.4-0.3-0.5-1-0.4-1.5C127.2 224.5 127.3 224.1 127.6 223.8z"/></svg>
 
