<svg id="Layer_1" xmlns="http://www.w3.org/2000/svg" viewBox="0 0 360 144.5"><style>.st0{fill:#37455a}</style><path class="st0" d="M201.8 17.1c-7.1 0-15.3 12.2-19.8 20l1.3-23h-9.6l-5.2 106.1h8.7l2.5-43.2c2.2.5 5.2.8 9.5.8 20.7-.1 31.7-60.7 12.6-60.7zm-16.9 56c-2.1 0-3.7-.1-4.9-.3l1.6-28c3.3-7.3 10.7-21.5 18.3-21.5 6.9 0-1.2 49.8-15 49.8zM360 91.4c-3 0-6 .3-8.8 1 2.4-22.2 1.5-43.1 1.5-43.1h-7.9s-.1 5.2-.6 13.2c-1.1 4.1-9.3 32.4-19.4 32.4-5 0 6-45.5 6-45.5h-8.3s-3.1 9.2-5.5 19.9C312.2 81.7 304.7 97 297.5 97c-5.8 0-1.2-29.8 3.4-53.7 15.2-.3 31.2-1.4 31.2-4.4l-30-1.6c2.6-13.1 5-23.2 5-23.2h-9.4s-2.5 9.7-5.1 22.7l-18.4-1v7.5s7.5.2 17.1.1c-1.5 8.3-3 17.3-3.9 25.8-3.2 8.2-11.7 29.2-14.7 29.2-7.3 0 1-23.2 1.6-39.9.1-3.9-4.9-4.3-9.1-5.8.8-1.3 1.6-3.5 1.6-7.3 0-6.3-4.9-6.7-4.9-6.7-7.2 0-9.9 10.9-4.5 16C255.7 65.1 250 94 241.5 94c-8.1 0 2.9-44.6 2.9-44.6H234s-.3 1.4-.9 3.6c-1.9-.6-4.4-1.1-7.8-1.1-18.6 0-26.6 51-11.9 51 5.6 0 11.2-5.8 15.6-13.5.6 7.6 3.1 13.2 8.8 13.2 14 0 20.8-32.7 23-46 1.1.4 2.4.6 3.9.6 4.9 0-12.8 45.1 6.1 45.1 5.9 0 12.3-14.2 15.8-23.3-.6 13.4 1 23.6 7.4 23.6 8.8 0 15.8-10.5 20.9-21.5-1.6 11.4-1 21.6 6 21.6 9.6 0 17.6-14.5 22.4-26.1-.5 6.1-1.1 12.7-1.9 19.2-26.1 12.8-38 48.8-16.8 48.8 16 0 23.1-23.9 26.1-47.7 3-.7 6.1-1.1 9.4-1.1v-4.4h-.1zm-141.7 4.4c-9.2.9.6-40.9 10.6-40.9 1.6 0 2.7.3 3.6.9-1.2 5.6-2.8 14.1-3.4 22.4-2.9 8.5-6.8 17.1-10.8 17.6zM262.1 41c3.6 0 3 8.5.6 10.5-1.8-1.1-3.1-2.7-3.1-5.4.1-.9.7-5.1 2.5-5.1zm62.8 100.1c-13.9 0-5.9-28.7 15.8-40.4-2.9 21-7.7 40.4-15.8 40.4zM47.4 103.3v-4H47c-4 0-7.6.3-11 .9 2.1-14.9 3.3-31.2 4.2-44.9 7.4-18.6 9.9-38.1 3.7-38.1-10.8 0-13.2 25.5-14.6 53.3-4.5 7.2-9.7 12.4-14.8 12.4-14.7 0 5.1-68.7 5.1-68.7h-9s-23.5 74.6-.3 74.6c6.8 0 13.2-5.1 18.8-12.6-.4 8.9-.8 17.8-1.5 26.1-29.9 10-30.5 42.4-12.2 42.4 10.5 0 16.4-18.1 20-40.4 3-.5 6.4-.8 10-.8.2-.1 2-.2 2-.2zm-4-80.2c2.4 0 1.1 9.5-2.5 21 .8-12.5 1.4-21 2.5-21zM14.7 140C4 140 3.5 114.9 27.2 106.3c-1.6 19.1-4.7 33.7-12.5 33.7z"/><path class="st0" d="M158.6 102.6s-1.2 3.6-4.9 3.6c-7.3 0 .5-30.9 1.1-47.7.1-3.9-4.9-4.3-9.1-5.8.8-1.3 1.6-3.5 1.6-7.3 0-6.3-4.9-6.7-4.9-6.7-7.5 0-10.2 11.9-3.7 16.6-1.7 11.5-13.5 43-21.4 43-2.7 0 7.6-48.9 7.6-48.9h-8.8s-2.3 10-4.1 21.4C109 78.6 102 95 96.9 95c-8 0 10.6-45.7-4-45.7-5.9 0-12.3 6.3-16.5 10.6-1-1.9-2.4-2.9-4.1-2.9-4.6 0-5.4 4.5-5.4 5.1 0 2.5 1.3 4.2 4.7 4.2 1 0 2.1-.6 3.2-1.6.3 2.4.5 5.9.5 10.7 0 12.6-8.4 22.8-13.6 22.8-7.3 0-10.7-46.4 11.3-46.4v-1s-1.9-1.1-6.9-1.1c-18.8 0-30.1 53.2-7 53.2C77.5 102.8 82 74 77.5 62c3.5-3.7 7.6-8.6 12.8-8.6 2.8 0-13 49.2 2.2 49.2 8.4 0 14.5-11.3 18.2-20.7-1.1 11.1-.6 20.7 4 20.7 17.3 0 25.2-37.7 26.7-46 1.1.3 2.4.5 3.8.5 4.9 0-12.8 52.9 6.1 52.9 8.1 0 10.5-7.5 10.5-7.5l-3.2.1zM71.9 63.7c-2.2 0-2.3-1.4-2.3-1.7 0-1.5 1.8-2 2.6-2 .9 0 1.6.6 2.1 2.1-1.1.9-1.9 1.6-2.4 1.6zm68.2-17.6c0-.9.6-5.1 2.5-5.1 3.6 0 3 8.5.6 10.5-1.8-1.1-3.1-2.7-3.1-5.4zm-93.9 74s91.9-1.4 91.9-8.3l-91.9 2.6v5.7zM80.2.2c0-.7-23.3 1-23.3 1v4.4s1.1-.1 2.8-.4l1.9 30.2h6.6l-.8-18.5 7.7-.8v-2.9l-7.8.8-.3-9.9c6.3-1 13.2-2.5 13.2-3.9zm9.3.2c-14.5 0-13.3 35.9 2 35.9C104 36.2 108.1.4 89.5.4zm3.1 32c-8.9 0-7.1-29.6-2-29.6 12.1 0 10.3 29.6 2 29.6zm27.6-12.2c12-4.7 11.5-19.8 2.4-19.8-4.7 0-8.2 4.3-9.9 7l-.1-7h-7.2l1.7 35h6.2l-.3-13.9h.7c1.2 3 6.9 16.1 12.2 16.1 4.2 0 5.1-2.3 5.1-2.3-3.6-.1-9.8-12.9-10.8-15.1zm-7.3-9.1c1.7-3 5-7.7 9.1-7.7 3.7 0-.7 15.4-8.9 16.4l-.2-8.7z"/></svg>