<svg id="Layer_1" xmlns="http://www.w3.org/2000/svg" viewBox="0 0 362.1 295.8"><style>.st0{fill:#fff}</style><path class="st0" d="M132 123.6s-2-1.1-5.7-1c-6.5.1-11.1 4.3-11.1 4.3l-1.7-4.3h-12.6l-.1 67.1h15.7V149c0-3.7 1.8-5.5 3.2-6.8 4.2-3.8 12.3-3.9 12.3-3.9v-14.7zm196.5 0s-2.1-1.1-5.7-1c-6.5.1-11.1 4.3-11.1 4.3l-1.7-4.3h-12.6l-.1 67.1H313V149c0-3.7 1.7-5.5 3.2-6.8 4.2-3.8 12.3-3.9 12.3-3.9v-14.7zm-80.8 77.5h.8c.3 0 .5.1.6.1.2.1.4.3.5.5 0 .1.1.4.1.9 0 .4 0 .7.1 1h1.8v-.2-.2-.8c0-.7-.2-1.2-.6-1.6-.2-.2-.6-.3-1-.4.5 0 .9-.2 1.2-.5.3-.3.5-.7.5-1.3 0-.8-.3-1.3-.9-1.7-.4-.2-.8-.3-1.4-.4H246v7h1.8l-.1-2.4zm1.7-1.6c-.2.2-.6.2-1 .2h-.7v-2h.4c.5 0 .8 0 1.1.2.4.2.6.4.6.8s-.2.7-.4.8m3.7-4c-1.2-1.2-2.7-1.8-4.5-1.8-1.6 0-3.1.6-4.3 1.7-1.3 1.2-2 2.7-2 4.6 0 1.8.6 3.3 1.8 4.5 1.2 1.2 2.7 1.8 4.5 1.8 1.7 0 3.2-.6 4.4-1.8 1.3-1.3 1.9-2.8 1.9-4.5 0-1.7-.6-3.2-1.8-4.5m-.8.8c1 1 1.5 2.3 1.5 3.7 0 1.4-.5 2.7-1.5 3.7s-2.2 1.5-3.7 1.5-2.7-.5-3.7-1.5-1.5-2.3-1.5-3.7c0-1.4.5-2.7 1.5-3.7s2.2-1.6 3.7-1.6c1.5.1 2.7.6 3.7 1.6M147.1 156c0-12 3-20.7 10.5-20.7 7.6 0 10.5 8.7 10.5 20.7s-3 20.7-10.6 20.7c-7.4.1-10.4-8.6-10.4-20.7m36.3.1c0-18.6-8.8-33.6-25.8-33.6-16.6 0-25.8 15-25.8 33.6 0 18.5 7.9 33.6 25.8 33.6 17.6 0 25.8-15.1 25.8-33.6m83.7-20.8c5.1 0 8.1 4 9.6 10.2h-19.1c1.4-6.2 4.4-10.2 9.5-10.2m11.2 27.3c-1 8.5-4 14.1-10.1 14.1-7.4 0-10.4-8.4-10.5-20H294c.2-6.1-1-11.2-1-11.2-2.8-13.4-11.1-23-24.8-23-16.6 0-25.8 15-25.8 33.6 0 18.5 7.9 33.6 25.8 33.6 15.4 0 23.7-11.6 25.4-27l-15.3-.1z"/><path class="st0" d="M212.9 176.8c-7.6 0-10.6-8.7-10.6-20.8 0-12.1 3-20.8 10.6-20.8s10.6 8.8 10.6 20.8c0 12.1-2.9 20.8-10.6 20.8m25.8 15v-69.4H222v3.7c-2-2.1-6.2-3.5-9.1-3.5-16.7-.4-25.9 14.9-25.9 33.5s8 33.6 25.9 33.6c3.5 0 6.6-1.5 9.4-2.6.8 13.1 1.2 56.4-27.5 57.3-31.2.7-27.8-44.4-28.1-45.7h-17c0 .1-2.3 57 43.2 57 49.2 0 45.8-59 45.8-63.9M124.1 52.1c-21.9 0-34.3 12.3-40.4 26.7-.1.3-.2.5-.3.8 0 .1-.1.1-.1.2-2.9 7.7-3.3 14.1-3.3 14.9 1 36.1-16.3 38.4-16.3 38.4-.3-3.1 0-42.1 0-42.1H47.1v98.6h16.7v-41.1c0-1.7 14.8-.1 15.8 18.7.1 1.7 0 22.4 0 22.4h17.6c-.4-2.7 3.6-46.7-18.5-47-3.5-.1 18.2-5 17.5-37.5-.2-7.3.7-13.8 2.2-19.4 3.6-11.6 10.2-22.1 23.8-22.2 30.5-.4 27 49.3 27.4 50.1h17c.1-.2 3.1-61.5-42.5-61.5"/><path class="st0" d="M165.8 295.6C96.2 290 38 254.4 12.5 201.9-1.7 172.7-3.9 139.5 6.3 109c7.2-21.4 17.4-37.6 34.9-55 13.5-13.5 26.1-22.8 42.4-31.1 20.3-10.5 39.1-16.7 63.1-21 14.2-2.5 54.2-2.5 68.6 0 43.7 7.7 78 24.6 105.6 52.1 13.4 13.3 20.8 23.4 28.1 38.1 18.8 37.8 17.4 81.4-3.8 118.5-22.1 38.7-65 68.4-115.7 80-16.6 3.8-47.7 6.2-63.7 5zm51.4-11.4c40-7.1 73-23.7 98.5-49.4 51-51.4 50.7-124-.6-175.2-13-12.9-25.6-21.9-43.4-30.8C210.6-1.8 133.9 1 76.8 36 19.7 71-4.7 131 15.5 187.2c18.3 50.9 71.9 89.2 137.7 98.3 15.6 2.2 48.2 1.5 64-1.3z"/></svg>