<svg xmlns="http://www.w3.org/2000/svg" viewBox="0 0 360.4 77.7"><path style="#592202" d="M282.8 0c1 .3 2.1.3 3.2.4 3.5.4 6.9 1.4 10.2 2.3.4.1.4.3.4.6-.8 3.3-1.3 6.6-1.3 10 0 .3-.1.4-.4.5-1.9.1-1.9.1-1.9-1.7v-2c.1-1.9-.8-3.3-2.4-4.3-2.3-1.3-4.7-2.1-7.3-2.5-3.9-.5-7.8-.7-11.6.1-7.4 1.6-12.2 6.1-14.2 13.4-1.8 6.8-1.4 13.5 1.5 19.9 3.1 6.8 8.5 10.6 15.8 11.8 4 .7 8.1.6 12.1-.6.1 0 .1 0 .2-.1 2.1-.7 2.6-1.3 2.6-3.6v-7.9c0-1.9-.6-2.5-2.5-2.6-1.8-.1-3.6-.3-5.4-.4-.4 0-.6-.1-.6-.6.1-2-.5-1.7 1.7-1.6 4.2.1 8.4.1 12.7 0 .9 0 1.8 0 2.7-.1.4 0 .5.1.6.5.2 1.3.2 1.3-1 1.8-.2.1-.5.2-.7.2-.6.2-.9.5-.9 1.1v12.8c0 .6-.1.8-.7 1-5.1 1.4-10.2 2.9-15.5 3.3-7.6.6-14.8-.6-21.3-4.9-5.4-3.6-8.5-8.8-9.6-15.2-.9-5-.8-10 1-14.8 2.5-6.8 7.4-11.3 13.9-14.2 3.5-1.5 7.2-2.4 11-2.7.1 0 .3 0 .4-.1 2.4.2 4.8.2 7.3.2zM.1 1.4h54.6c.7 0 .8.2.8.8v38.2c0 4.6-1.5 8.8-3.6 12.8-2.6 4.8-6 9-9.7 12.9-4.2 4.4-8.9 8.3-14 11.5-.1 0-.1.1-.2.2h-.5c-.1-.2-.3-.3-.5-.4-7.6-5-14.1-11-19.6-18.3C4.3 55 1.8 50.5.6 45.4c-.2-.7-.1-1.5-.5-2.2V1.4zM27.9 3H2.5c-.6 0-.8.1-.8.8v37c0 1.1.1 2.2.3 3.2.8 4.3 2.7 8.2 5.2 11.8 5.3 7.8 12 14.2 19.8 19.5.6.4 1 .4 1.6 0 4.8-3.3 9.3-7 13.2-11.3 3.7-3.9 6.9-8.1 9.3-13C53 47.4 54 43.6 54 39.5c-.1-11.9 0-23.8 0-35.6 0-.8-.2-.9-.9-.9H27.9z"/><path style="fill:#5e290a" d="M360.1 60.2c-.8.6-1.3 1.5-1.9 2.3-1.1 1.5-2.2 3-3 4.6-.3.6-.5 1.3-.5 2v3.5c0 .7.3 1.1 1.1 1h.5c.3 0 .4.1.4.4 0 .3-.2.4-.4.3-1.8-.1-3.5-.1-5.3 0-.2 0-.4 0-.4-.3s.1-.4.4-.4c1.7-.3 1.5-.3 1.7-2 .2-2.4-.3-4.4-1.7-6.3-.7-.9-1.1-2-1.8-2.9-.6-.8-1.2-1.6-2.3-1.7-.2 0-.3-.1-.3-.3 0-.2.1-.3.3-.4.7-.2 1.5-.3 2.2-.5.3-.1.5.2.7.4.5.5.9 1.1 1.2 1.7.8 1.6 1.7 3.1 2.6 4.6.1.2.2.5.5.7 1.2-2 2.6-3.8 3.6-5.9.5-1.2 1.3-1.6 2.4-1.3v.5z"/><path style="#592202" d="M331.6 26.1c-4.5-.1-8.9-.1-13.4 0-.7 0-.9.2-.9.9 0 5.8 0 11.6.1 17.4 0 .6.1 1.3.2 1.9.3 1.5.9 2 2.5 2.2 1.3.1 2.5.2 3.8.3.4 0 .6.1.6.6 0 1.6 0 1.6-1.6 1.6-4.5-.1-9-.2-13.5-.1-1.8 0-3.5.1-5.3.2-.5 0-.7-.1-.7-.7 0-1.4 0-1.5 1.4-1.6 1-.1 2.1-.1 3.1-.2 1.5-.1 2.1-.7 2.3-2.1s.3-2.9.3-4.4V10.4c0-1.4 0-2.8-.2-4.2-.3-1.7-.9-2.3-2.7-2.4-1.2-.1-2.3-.2-3.5-.2-.5 0-.7-.1-.7-.7 0-1.5 0-1.5 1.4-1.4 5.1.2 10.3.2 15.4.1 1.2 0 2.4-.1 3.6-.1.4 0 .6.1.6.5-.1 1.9.4 1.6-1.7 1.7-1.1.1-2.2.1-3.3.3-1 .2-1.6.8-1.8 1.8-.3 1.5-.3 3-.3 4.4v12c0 .6.2.8.7.8 8.2.1 16.4 0 24.6.1.9 0 1.8-.1 2.7-.1.4 0 .5-.1.5-.5-.1-5.2.1-10.3-.1-15.5 0-.2 0-.4-.1-.6-.3-1.8-.9-2.4-2.8-2.5-1.2-.1-2.4-.2-3.6-.2-.5 0-.6-.2-.6-.6 0-1.6 0-1.6 1.5-1.5 5.1.2 10.3.2 15.4.1 1.2 0 2.4-.1 3.6-.1.4 0 .6.1.6.5-.1 2 .4 1.6-1.7 1.8-1.1.1-2.2.1-3.3.3-1 .2-1.6.8-1.8 1.8-.2 1.1-.3 2.1-.3 3.2v34.5c0 1 .1 2 .3 3 .3 1.4.9 2 2.4 2.1l3.9.3c.5 0 .6.2.6.6 0 1.6 0 1.6-1.5 1.5-4.5-.1-8.9-.2-13.4-.1-1.8 0-3.6.1-5.4.2-.5 0-.7-.1-.7-.7 0-1.4 0-1.4 1.4-1.6 1-.1 2.1-.1 3.1-.2 1.5-.1 2-.7 2.3-2.1.2-1.2.3-2.4.3-3.6V27.6c0-.8-.3-1-1-1-4.4-.5-8.8-.5-13.3-.5zm-143-3.3c4.4 0 8.8.1 13.3-.1 1 0 1 0 1-1v-14c0-.5-.1-1.1-.1-1.6-.2-1.7-.9-2.3-2.6-2.5-1.1-.1-2.3-.2-3.4-.2-.7 0-.9-.2-.9-.9.1-1.3 0-1.3 1.4-1.3 5.2.2 10.4.2 15.6.1 1.2 0 2.3-.1 3.5-.1.4 0 .5.1.5.5 0 1.7.1 1.7-1.7 1.8-1.1.1-2.1.1-3.2.3-1.3.2-1.8.7-2 2-.3 1.4-.3 2.8-.3 4.2v32.1c0 1.4 0 2.7.3 4.1.3 1.5.9 2.1 2.4 2.2l3.9.3c.4 0 .5.1.5.5 0 1.7.1 1.7-1.6 1.6-4.5-.1-8.9-.2-13.4-.1-1.8 0-3.5.1-5.3.2-.5 0-.7-.1-.7-.7 0-1.5 0-1.5 1.5-1.6 1-.1 2-.1 2.9-.2 1.6-.1 2.2-.7 2.4-2.3.1-.9.2-1.9.2-2.8V27.2c0-1.2.2-1.1-1.1-1.1-7.5-.2-15-.1-22.5-.1-1.4 0-2.8.1-4.2.1-.5 0-.6.2-.6.7V43c0 1.1.1 2.1.2 3.2.3 1.5.9 2.1 2.4 2.2l3.9.3c.4 0 .5.1.5.5 0 1.7.1 1.7-1.6 1.6-4.4-.1-8.9-.2-13.3-.1-1.8 0-3.6.1-5.4.2-.5 0-.7-.1-.7-.7 0-1.5 0-1.5 1.5-1.6 1-.1 2-.1 3-.2 1.4-.1 2-.7 2.3-2.1.2-1 .2-2.1.2-3.2V8.8c0-.9 0-1.8-.2-2.6-.2-1.8-.9-2.5-2.7-2.6-1.2-.1-2.4-.2-3.6-.2-.5 0-.6-.2-.6-.6 0-1.6 0-1.6 1.6-1.5 5.1.2 10.2.2 15.2.1 1.2 0 2.4-.1 3.6-.1.5 0 .7.1.6.6 0 1.6 0 1.6-1.6 1.7-1.1 0-2.2.1-3.2.3-1.3.2-1.7.8-2 2-.2 1.2-.3 2.4-.3 3.5v12.3c0 1.1 0 1.1 1.1 1.1 4.5.1 8.9 0 13.3 0zM135 1.4c5-.2 10-.2 14.9-.1 1.2 0 2.5.1 3.7.1.4 0 .5.1.4.5-.7 3.2-1 6.5-1 9.8 0 .4-.1.6-.6.6-.6-.1-1.4.2-1.8-.1-.4-.3-.1-1.2-.1-1.8 0-1.2 0-2.3-.1-3.5 0-.7-.4-1.1-1.1-1.3-2.6-.8-5.2-1.1-7.8-1.2-3.5-.1-6.9-.3-10.4.2-1.3.2-1.3.2-1.3 1.4v17.1c0 .5.1.7.7.8 4.3.1 8.7.3 13-.1h.2c2.2-.3 2.4-.5 2.6-2.7.1-1 .2-2 .3-2.9 0-.4.1-.5.5-.5 1.8-.1 1.8-.1 1.7 1.6-.3 4.7-.2 9.3 0 14 0 .5-.1.6-.6.6-1.5 0-1.5 0-1.7-1.5-.1-1.2-.2-2.4-.3-3.5-.1-.8-.5-1.2-1.2-1.4-.9-.3-1.9-.4-2.8-.4-3.9-.2-7.7-.2-11.6 0-.5 0-.6.2-.6.7v18.7c0 .6.2.8.7.8.9.1 1.8.3 2.7.3 5.1.1 10.1.1 15.1-.4 1.7-.2 2.7-.9 3.2-2.6.5-1.7.9-3.4 1.1-5.1.1-.6.2-.9.9-.8h1.1c.6-.1.6.2.6.7-.7 3.5-1 6.9-1 10.5 0 .3.1.6-.5.6-4.4.2-8.8.2-13.3.2-5.7 0-11.4-.2-17.1-.2-1.9 0-3.9.1-5.8.2-.5 0-.8 0-.7-.7 0-1.5 0-1.5 1.6-1.6.9 0 1.7-.1 2.6-.3 1.1-.2 1.7-.8 1.8-1.9.2-1.2.3-2.4.3-3.6V9.2c0-1.2-.1-2.5-.3-3.7-.2-1-.8-1.7-1.8-1.8-1.4-.2-2.9-.2-4.3-.3-.6 0-.7-.2-.7-.8 0-1.4 0-1.5 1.5-1.4 5.4.1 10.9.2 16.3.1.1.1.6.1 1 .1zM93.4 50.9c-4.7-.1-9.3-.3-14-.2-1.1 0-2.2.1-3.3.2-.4 0-.6 0-.6-.6-.1-.8.2-1.3 1-1.6 2.4-.8 3.1-2.7 3.1-5V9.2c0-1.1 0-2.1-.2-3.2-.3-1.7-.9-2.3-2.7-2.4-1.2-.1-2.4-.2-3.6-.2-.5 0-.6-.2-.6-.7 0-1.5 0-1.6 1.5-1.5 5 .2 10 .2 15.1.1 1.2 0 2.4-.1 3.6-.1.4 0 .7 0 .7.6 0 1.6 0 1.6-1.6 1.7-1.1.1-2.3.1-3.4.3-.9.2-1.5.8-1.7 1.7-.3 1.2-.3 2.4-.3 3.5v37.5c0 .7.3.9.9 1 2.9.5 5.7.3 8.6.3 3.4 0 6.7-.1 10-.6h.2c1.7-.1 2.6-1 3-2.7.4-1.9.9-3.8 1.3-5.7.1-.4.2-.5.6-.5 1.9-.1 1.9-.1 1.7 1.8-.4 3.3-.8 6.5-1.2 9.8-.1.6-.3.8-.9.8-4.2.1-8.3.1-12.5.2h-4.7zM236.8 26v16.5c0 1.2 0 2.4.3 3.6.3 1.5.8 2.1 2.4 2.2l3.9.3c.5 0 .6.1.6.6 0 1.6 0 1.6-1.5 1.5-4.5-.1-9-.2-13.6-.1-1.7 0-3.5.1-5.2.2-.5 0-.7-.1-.7-.6 0-1.5 0-1.5 1.5-1.6 1-.1 2-.1 3-.2 1.4-.1 2-.7 2.3-2.1.2-1.1.3-2.2.3-3.3V9.1c0-1 0-2-.2-2.9-.2-1.7-.9-2.4-2.7-2.5-1.2-.1-2.4-.2-3.6-.2-.5 0-.6-.2-.6-.6 0-1.6 0-1.6 1.6-1.5 5.1.2 10.2.2 15.2.1 1.2 0 2.4-.1 3.6-.1.5 0 .6.1.6.6 0 1.6 0 1.6-1.6 1.7-1.1.1-2.2.1-3.3.3-1.1.2-1.7.9-1.9 2-.2 1.2-.3 2.4-.3 3.5-.1 5.3-.1 10.9-.1 16.5z"/><path style="fill:#5e290a" d="M239.5 67c1.6 2.1 3.2 4.2 4.8 6.2.2.3.5.4.9.4.3 0 .3.2.3.4 0 .3-.2.3-.4.3-.8-.1-1.5-.1-2.3 0-.3 0-.4-.2-.6-.4-1.5-1.9-2.9-3.9-4.4-5.8-.3-.3-.5-.7-.8-1-.1-.1-.3-.3-.3-.5.1-.3.3-.1.5-.1.6 0 1.1 0 1.7-.2 1.4-.4 2.4-1.5 2.4-2.9s-.8-2.4-2.3-2.7c-.8-.1-1.7-.1-2.5 0-.4.1-.6.2-.6.7 0 3.7 0 7.3.1 11 0 1 .2 1.1 1.2 1.2h.4c.3 0 .5.1.5.4 0 .4-.3.3-.5.3h-5.2c-.2 0-.4 0-.4-.3s.1-.4.4-.4c1.6-.2 1.6-.3 1.6-1.9v-9.6c0-1.1 0-1.6-1.4-1.5-.3 0-.6 0-.5-.4 0-.4.4-.3.6-.3h7c.4 0 .7 0 1.1.1 1.2.2 2.3.8 2.6 2.1.4 1.4 0 2.6-1 3.6-.8.6-1.8 1-2.9 1.3zm-127.2-4.8v10c0 1.2.1 1.3 1.3 1.4.3 0 .7-.1.6.4 0 .5-.4.3-.6.3-1.3-.1-2.5-.1-3.8 0-.2 0-.5.1-.6-.3 0-.4.3-.4.6-.4 1.3-.1 1.4-.2 1.4-1.5V61.9c0-1.3-.1-1.3-1.4-1.5-.3 0-.7.1-.6-.4 0-.5.4-.3.6-.3.6 0 1.1.2 1.7 0 1.2-.3 1.8.4 2.4 1.3 2.8 3.5 5.7 7 8.5 10.5l.3.3c.2-.2.1-.5.1-.7V62c0-1.8-.3-1.7-1.5-1.7-.3 0-.5 0-.5-.4s.3-.3.5-.3h3.9c.2 0 .5-.1.5.3s-.3.3-.5.4c-1.4.2-1.5.2-1.5 1.6V74c0 .5-.1.5-.5.5-1-.1-1.6-.5-2.2-1.3-2.8-3.6-5.7-7.1-8.6-10.7.2 0 .1-.1-.1-.3zm-34.9 3.7v-4.5c0-.7-.3-1-1-1h-.2c-.3-.1-.8.2-.8-.4 0-.6.5-.3.8-.3H81c.2 0 .5-.2.6.3 0 .4-.2.4-.5.4h-.5c-.9.1-1 .2-1.1 1.1v8.3c.1 2.1 1.1 3.2 3.2 3.3h1.7c2.1-.1 3.6-1.4 3.6-3.5.1-2.8 0-5.5 0-8.3 0-.7-.3-1-1-1-.2 0-.5 0-.7-.1-.2 0-.2-.2-.3-.4 0-.2.1-.3.3-.3h4.3c.2 0 .3 0 .3.3 0 .2 0 .4-.3.4h-.2c-1.5.2-1.5.2-1.5 1.8 0 2.6.2 5.2-.1 7.8-.3 2.8-1.5 4.1-4.3 4.5-1.3.2-2.7.2-4-.1-2.2-.5-3.2-1.9-3.2-4.5.1-1.1.1-2.4.1-3.8zm129.4-6.1h5.3c.5 0 .6.1.5.6-.1.7-.2 1.5-.3 2.3 0 .3-.1.4-.4.4-.3 0-.4-.1-.4-.4v-.1c0-1.5-.1-1.5-1.5-1.7-1.3-.2-2.5-.2-3.8-.1-.5 0-.7.2-.7.8v4.2c0 .6.2.7.7.7 1.1 0 2.1 0 3.2-.1.6-.1.9-.3.9-.9 0-.2 0-.5.1-.7 0-.2.2-.2.4-.2s.2.1.2.3v4.2c0 .2 0 .3-.2.3s-.4 0-.4-.2c0-.1 0-.3-.1-.4-.1-1.2-.1-1.3-1.4-1.3H206c-.4 0-.5.2-.5.5v4.9c0 .4.1.5.5.6 1.7.2 3.3 0 5-.1.6 0 .7-.5.9-.9.1-.4.2-.8.2-1.2.1-.4.3-.4.6-.4.4 0 .2.3.2.4-.1.9-.2 1.8-.2 2.6 0 .5-.3.4-.6.4-2.9.1-5.7 0-8.6 0h-1.4c-.2 0-.4 0-.4-.3s.1-.4.4-.4c1.3-.2 1.3-.2 1.4-1.6.1-3.5.1-7 0-10.5 0-.7-.3-1-1-1.1-.3 0-1 .3-.9-.4.1-.6.7-.3 1-.3 1.5.1 3 .2 4.2.1zm60.4 14.9c-1 0-2.1-.2-3-.6-.4-.1-.6-.3-.5-.8.1-.7.1-1.5.1-2.2 0-.2-.1-.5.4-.5.4 0 .4.2.4.5.4 1.8 1.1 2.4 3 2.6 1.7.2 3.4-.7 4-2.1.6-1.6 0-2.9-1.6-3.5-1-.3-2-.3-3-.6h-.3c-1.3-.4-2.6-.8-2.9-2.4-.3-1.7 0-3.2 1.4-4.3 1.8-1.5 3.9-1.6 6.1-1.1 1.6.4 1.6.5 1.4 2.1 0 .4-.1.8-.1 1.1 0 .2-.1.4-.3.4-.2 0-.4 0-.4-.3v-.2c.1-1.6-.9-2.1-2.1-2.3-1-.2-2-.2-2.9.4-1 .7-1.4 1.7-1.2 2.9.1 1.1.9 1.6 1.9 1.9 1 .3 2 .3 3 .5 1.3.3 2.7.6 3.2 2.1.5 1.6.1 3.1-1 4.4-1.8 1.4-3.6 1.9-5.6 2zm-90.7-3.1c.5-1.3 1-2.5 1.4-3.8.8-2 1.6-4 2.3-6 .4-1 .3-1.2-.8-1.3h-.5c-.3 0-.2-.2-.3-.4 0-.2.1-.3.3-.3h3.9c.2 0 .3 0 .3.3 0 .2 0 .4-.3.4-.8 0-1.1.6-1.3 1.2-1.7 4.1-3.5 8.1-5 12.3-.1.4-.3.6-.7.5-.4 0-.5-.2-.7-.5-1.5-4.3-3.4-8.4-5-12.6-.2-.5-.5-.8-1.1-.8-.2 0-.5 0-.5-.4s.3-.3.5-.3h4.5c.2 0 .5-.1.5.3s-.2.4-.5.4c-1.5.1-1.5.2-.9 1.5 1.1 3 2.3 5.9 3.4 8.9.3.1.4.3.5.6zM323.6 67v5.2c0 1.2.2 1.3 1.3 1.4h.4c.3 0 .3.1.3.4 0 .3-.1.3-.4.3-1.8-.1-3.6-.1-5.4 0-.2 0-.4 0-.4-.3 0-.2.1-.4.3-.4h.7c.7 0 1-.3 1-1 .1-3.7.1-7.4 0-11.1 0-.4-.1-.6-.6-.6h-2.6c-.6 0-.9.3-.9.9v1.1c0 .3-.1.4-.4.4-.3 0-.3-.1-.3-.4 0-.9-.1-1.8-.1-2.7 0-.5.3-.3.5-.3 1.4 0 2.8.1 4.2.1 2.2 0 4.5 0 6.7-.1.6 0 .7.2.6.7-.1.7-.1 1.5-.1 2.2 0 .2.1.5-.3.5s-.4-.2-.4-.5c-.2-1.9-.2-1.9-2.1-1.9-.6 0-1.5-.3-1.9.1-.4.4-.2 1.3-.2 2 .1 1.3.1 2.6.1 4zM295 59.8h2.6c.2 0 .5-.1.5.3 0 .3-.1.4-.4.4-1.6.3-1.6.3-1.6 1.9v10.2c0 .7.4.9 1 .9h.5c.3 0 .5.1.5.4 0 .4-.3.3-.5.3-1.7-.1-3.5-.1-5.2 0-.2 0-.5 0-.5-.3s.2-.4.4-.4c1.6-.2 1.6-.2 1.6-1.9v-10c0-1-.2-1.1-1.2-1.2h-.5c-.3 0-.3-.2-.3-.4 0-.3.2-.3.4-.3l2.7.1zm-147.6 0h2.6c.2 0 .5-.1.5.3 0 .3-.2.4-.4.4-1.6.2-1.6.2-1.6 1.9v10c.1 1 .2 1.1 1.2 1.2h.2c.3 0 .6-.1.6.4s-.3.3-.6.3H145c-.3 0-.7.2-.7-.3s.4-.3.7-.4h.6c.4 0 .7-.3.7-.7 0-.4.1-.7.1-1.1V61.4c-.1-.6-.3-.9-1-.9-.4 0-1.1.3-1.1-.4s.7-.2 1.1-.3c.7-.1 1.3 0 2 0z"/><path style="fill:#faf9f7" d="M27.9 3h25.3c.6 0 .8.1.8.8 0 11.9-.1 23.8 0 35.6 0 4.1-1 7.9-2.8 11.6-2.4 4.9-5.6 9.1-9.3 13-4 4.2-8.4 8-13.2 11.3-.6.4-1 .4-1.6 0C19.3 70 12.6 63.6 7.3 55.8 4.8 52.3 2.9 48.4 2 44c-.2-1.1-.3-2.1-.3-3.2v-37c0-.7.2-.8.8-.8h25.4zm0 1.4H4c-.7 0-.8.2-.8.8v34.9c0 .7 0 1.4.1 2.1.3 3.6 1.6 6.8 3.3 9.8 5.2 9 12.4 16 20.8 21.9.4.3.6.1.9-.1 2.1-1.5 4.2-3.1 6.2-4.8 5.8-5 11-10.6 14.7-17.4 1.9-3.5 3.2-7.2 3.2-11.3V5.2c0-.7-.1-.8-.8-.8H27.9z"/><path style="#592202" d="M27.9 4.4h23.8c.7 0 .8.2.8.8v35.1c0 4.1-1.3 7.8-3.2 11.3C45.5 58.4 40.4 64 34.5 69c-2 1.7-4 3.3-6.2 4.8-.3.2-.6.4-.9.1C19 68 11.8 61 6.6 52c-1.7-3-3-6.3-3.4-9.8-.1-.7-.1-1.4-.1-2.1V5.2c0-.6.1-.8.8-.8h24zm15.6 18.2l.1.1c-.6.9-1.3 1.8-1.9 2.7-1.3 1.9-2.7 3.7-4.1 5.6-.2.3 0 1.4.4 1.6.4.2.5-.3.7-.4 1.8-1.6 3.8-2.8 6.3-2.7 1.7.1 3.1.8 4.2 2.4-2-.7-3.6-.1-5 1.2-.4.3-.8.7-1.1 1-1.1 1-2.3 1.6-3.8 1.4-.2 0-.5-.1-.5.2 0 .3.3.2.5.3l3.3.3c.4 0 .6-.1.9-.3.8-.6 1.6-1.3 2.4-1.9 1.2-.9 2.4-.8 3.6.1.2.2.5.4.7.6.2.2.4.3.6 0 .7-1.2.9-2.5.3-3.8-1.2-2.6-4.1-4.1-6.9-3.6-.5.1-1.1.2-1.7.3l1.3-2 5.9-9.3.1-.2-.1.1c-.2.1-.3.1-.5.2-2.5 1.6-5.1 3.2-7.6 4.8-1.2.8-2.4 1.5-3.7 2.3v-.9c0-2.6.8-4 3.6-4.2.4 0 .4-.2.3-.5-.4-1.4-1.3-2.3-2.7-2.7-2.8-.9-5.7.3-7.4 3-.2.3-.3.5-.6.9L28.1 6H28l-3.4 14.8c-.9-1-2-1.8-2.2-3.1-.3-1.4.6-2.3 1.3-3.3-1.3-.7-2.6-1-4-.3-1.9 1-3 2.5-3.4 4.6-.3 1.3.1 2.6.4 3.9l-.1.1c-.2-.1-.5-.2-.7-.3-3-1.9-6.1-3.8-9.1-5.7-.1-.1-.3-.3-.6-.1l8 12.5c-1.4 0-2.6.3-3.9.2-1.1-.1-1.9-.6-2.3-1.7-.2-.4-.3-.9-.4-1.3-.1-.3-.1-.5-.5-.3-1.2.6-2.1 1.4-2.4 2.7-.6 2.4.4 5 2.4 6.5 1.4 1 3 1.5 4.6 1.8h.4c.2-.6.8-.4 1.2-.4 1.1-.1 2.2-.2 3.2-.3.4 0 .5-.2.5-.5 0-.5-.4-.2-.5-.2-1.3.1-2.7.1-4-.1-2-.3-3.8-.9-5-2.7-.6-.9-.9-1.8-.8-3 1.3 1.8 3.1 2.2 5 1.8 2.2-.4 4.4-.4 5.9 1.8.2-.3.2-.6.4-.8.5-.7.3-1.2-.2-1.8L12.1 23l.1-.1c.2.1.4.2.6.4 2.3 1.7 4.7 3.4 7 5.1.6.5 1.1.5 1.7 0 .5-.4.4-.5.1-1-1.4-1.5-2.5-3.1-3.2-5.1-.5-1.6-.3-3 .5-4.5.3-.5.7-1 1.3-1.2-.1.4-.1.8-.1 1.2-.1 1.5.6 2.7 1.7 3.6 1.6 1.4 3 2.8 2.6 5.1 0 .1 0 .2.2.3.6.2 1.6-.5 1.7-1.1.3-1.7.5-3.4.8-5.2.3-1.8.6-3.7.9-5.8.1.4.2.7.2.9.5 3.3 1 6.7 1.6 10 0 .3 0 .7.4.8.4.1.9.2 1.4.3v-1.2c.2-2.3.7-4.5 2.3-6.4 1.1-1.4 3-2 4.5-1.5-1.6.9-2.4 2.3-2.4 4.1v1.2c.2 1.8-.2 3.4-1.8 4.5-.1.1-.3.2-.1.4.6.7 1.3.8 2 .3 2.3-1.9 4.9-3.7 7.4-5.5zM28.2 64.4c1.2-1.2 2.4-2.2 3.7-3 2.9-2 6-3.3 9.6-3.3.5 0 .5-.2.5-.6V38.7c0-.6-.1-.9-.8-.9-1.1 0-2.1-.1-3.2-.2-2.6-.1-5.1.2-7.5 1.2-1.5.6-2.2 1.7-2.2 3.3v.2c.1.6-.3.7-.7.6-.5-.1-.3-.5-.3-.7 0-1.6-.6-2.8-2.2-3.4-.9-.3-1.7-.7-2.6-.9-2.6-.6-5.3-.4-7.9-.2-.8 0-.9.3-.9 1.1v17.7c0 1.4 0 1.4 1.3 1.5 3.3.3 6.2 1.6 8.9 3.4 1.2.8 2.3 1.8 3.5 2.9v-6.9c0-.3-.2-.7.4-.7.6 0 .3.4.3.7.1 2.3.1 4.5.1 7zm-.4-36.3c-4.1 0-7.7 2.9-8.6 7-.2.8-.2.8.7.9 2.3.1 4.7.5 6.6 1.8 1 .6 1.6.6 2.6 0 2-1.3 4.3-1.7 6.7-1.8.6 0 .8-.1.7-.8-.8-4.1-4.6-7.1-8.7-7.1zM16.1 62.7c.1.2.1.2.2.3 3.4 3.5 7.1 6.7 11.1 9.5.4.3.6.2 1 0 4-2.8 7.6-6 11-9.4.1-.1.3-.2.1-.4h-5.8c-.5 0-.9.1-1.3.4-1.6 1.2-3.1 2.6-4.5 4.1-1.4-1.6-2.9-2.9-4.5-4.1-.3-.2-.5-.4-.9-.4h-6.4zm30.2-8.3c.1-.1.1-.1.2-.1 3.3-4.9 5.4-10.2 5-16.3 0-.5-.2-.5-.6-.5h-6.3c-1.1 0-.9-.1-1 1-.1.7.2 1 .9.9h.9c.7-.1.9.1.8.8v13.4c0 .2-.1.5.1.8zm-36.8-.1v-13c0-1.9 0-2 1.9-1.9.6 0 .8-.2.7-.8v-.5c0-.4-.1-.6-.5-.6H4.8c-.4 0-.5.1-.5.5-.5 6.1 1.6 11.4 5.2 16.3zm34.1 3.6c.1 0 .1.1.2.1.3-.8 1.2-1.2 1.2-2.2V41.2c0-.5-.1-.7-.6-.7s-.8 0-.8.7v16.7zm-31.5.2V41.3c0-.6-.1-.8-.7-.8-.7 0-.7.4-.7.8 0 4.6.1 9.3 0 13.9 0 1.3.6 2 1.4 2.9zm23.1 3.3h5.2c.2 0 .4 0 .5-.1.5-.5.9-1 1.5-1.7-2.7 0-5 .6-7.2 1.8zm-14.7 0c-2.2-1.3-4.5-1.9-7.2-1.8.5.6.9 1 1.2 1.4.2.2.4.4.7.4h5.3z"/><path style="fill:#fefefd" d="M28.2 64.4v-7c0-.2.2-.6-.3-.7-.6 0-.4.4-.4.7v6.9c-1.2-1.1-2.3-2-3.5-2.9-2.7-1.9-5.6-3.2-8.9-3.4-1.3-.1-1.3-.2-1.3-1.5V38.8c0-.7.1-1 .9-1.1 2.6-.2 5.3-.4 7.9.2.9.2 1.7.5 2.6.9 1.6.6 2.2 1.8 2.2 3.4 0 .3-.2.7.3.7.4.1.8.1.7-.6v-.2c0-1.6.7-2.7 2.2-3.3 2.4-1 4.9-1.3 7.5-1.2 1.1 0 2.1.2 3.2.2.7 0 .8.3.8.9v18.8c0 .4-.1.6-.5.6-3.6 0-6.7 1.4-9.6 3.3-1.4.8-2.6 1.8-3.8 3zm-.4-9.1c.3-.5.8-.9 1.2-1.3.9-.8 1.9-1.6 2.8-2.5 1-.9 1.8-1.9 2.3-3.1.5-1.4.2-3-1-4-.9-.9-2.4-1-3.7-.4-.7.3-1.2.8-1.7 1.4-.3-.3-.5-.6-.7-.8-2.1-1.9-4.9-1.1-5.7 1.5-.4 1.2 0 2.2.6 3.2.9 1.4 2.1 2.4 3.3 3.5 1 .9 1.9 1.5 2.6 2.5z"/><path style="fill:#fbd03f" d="M49.7 16.3l-5.9 9.3-1.3 2c.6-.1 1.2-.3 1.7-.3 2.8-.5 5.7 1 6.9 3.6.6 1.3.4 2.6-.3 3.8-.2.3-.3.3-.6 0-.2-.2-.4-.4-.7-.6-1.2-.9-2.4-1-3.6-.1-.8.6-1.6 1.3-2.4 1.9-.3.2-.5.3-.9.3l-3.3-.3c-.2 0-.5 0-.5-.3s.3-.2.5-.2c1.5.2 2.7-.5 3.8-1.4.4-.3.8-.7 1.1-1 1.4-1.3 3-1.9 5-1.2-1.1-1.6-2.4-2.3-4.2-2.4-2.5-.1-4.5 1.1-6.3 2.7-.2.2-.3.7-.7.4-.4-.2-.6-1.3-.4-1.6 1.3-1.9 2.7-3.7 4.1-5.6.7-.9 1.3-1.8 1.9-2.7.1-.1.2-.2.1-.3-.1-.1-.2.1-.3.2L35.8 28c-.7.5-1.4.4-2-.3-.2-.2 0-.3.1-.4 1.6-1.1 2-2.7 1.8-4.5v-1.2c0-1.8.7-3.2 2.4-4.1-1.5-.5-3.4.1-4.5 1.5-1.5 1.8-2 4.1-2.3 6.4v1.2c-.5-.1-1-.2-1.4-.3-.5-.1-.4-.5-.4-.8-.5-3.3-1-6.7-1.6-10 0-.2-.1-.4-.2-.9-.3 2.1-.6 3.9-.9 5.8-.3 1.7-.5 3.4-.8 5.2 0 .4-1 1-1.6.8-.2-.1-.2-.2-.2-.3.4-2.3-1-3.8-2.6-5.1-1.1-.9-1.7-2.1-1.7-3.6 0-.4.1-.7.1-1.2-.6.2-1 .7-1.3 1.2-.8 1.4-1 2.9-.5 4.5.6 2 1.8 3.6 3.2 5.1.4.4.4.6-.1 1-.6.5-1.1.5-1.7 0-2.3-1.7-4.6-3.4-7-5.1-.2-.1-.4-.2-.6-.4l-.3-.2c-.1.2.1.2.1.3 1.9 2.6 3.7 5.2 5.7 7.8.5.6.7 1.1.2 1.8-.2.2-.2.5-.4.8-1.5-2.2-3.7-2.2-5.9-1.8-2 .3-3.7 0-5-1.8-.1 1.2.2 2.1.8 3 1.2 1.8 3 2.4 5 2.7 1.3.2 2.7.2 4 .1.2 0 .5-.2.5.2 0 .3-.1.5-.5.5-1.1.1-2.2.1-3.2.3-.4 0-.9-.2-1.2.4 0 .1-.3.1-.4 0-1.6-.3-3.2-.8-4.6-1.8-2-1.5-3-4.1-2.4-6.5.5-1.3 1.4-2.1 2.6-2.6.3-.2.4 0 .5.3.1.4.2.9.4 1.3.4 1 1.2 1.6 2.3 1.7 1.2.1 2.5-.2 3.9-.2L6 16.3c.3-.2.4 0 .6.1 3 1.9 6.1 3.8 9.1 5.7.2.1.4.2.7.3 0 .1.1.1.1 0l-.1-.1c-.3-1.3-.6-2.5-.4-3.9.4-2.1 1.5-3.6 3.4-4.6 1.4-.7 2.7-.4 4 .3-.8 1-1.6 1.9-1.3 3.3.3 1.3 1.3 2.1 2.2 3.1l3.4-14.8h.1l3 13.2c.2-.4.4-.6.6-.9 1.7-2.7 4.6-3.8 7.4-3 1.4.4 2.2 1.4 2.7 2.7.1.3.1.5-.3.5-2.8.1-3.5 1.6-3.6 4.2v.9c1.3-.8 2.5-1.6 3.7-2.3 2.5-1.6 5.1-3.2 7.6-4.8.4.1.5.1.8.1-.1-.1-.1 0 0 0z"/><path style="fill:#fbd03f" d="M27.8 28.1c4.1 0 7.8 3 8.7 7.1.1.6-.1.8-.7.8-2.4.1-4.7.5-6.7 1.8-1 .6-1.6.7-2.6 0-2-1.3-4.3-1.7-6.6-1.8-.9 0-.9 0-.7-.9.9-4.1 4.5-7 8.6-7zM16.1 62.7h6.3c.4 0 .7.2.9.4 1.6 1.2 3.1 2.5 4.5 4.1 1.3-1.5 2.8-2.9 4.5-4.1.4-.3.8-.4 1.3-.4h5.8c.1.2-.1.3-.1.4-3.4 3.5-7 6.6-11 9.4-.4.3-.6.3-1 0-4-2.8-7.7-6-11.1-9.5 0-.1 0-.2-.1-.3zm30.2-8.3c-.2-.3-.1-.6-.1-.8V40.2c0-.7-.2-.9-.8-.8h-.9c-.7.1-1-.1-.9-.9.1-1.1-.1-.9 1-1h6.3c.4 0 .6 0 .6.5.4 6.1-1.7 11.3-5 16.3-.1 0-.1 0-.2.1zm-36.8-.1C5.9 49.4 3.8 44.1 4.2 38c0-.4.1-.5.5-.5h6.8c.5 0 .6.2.5.6v.5c.1.6-.1.8-.7.8-1.9 0-1.9 0-1.9 1.9.1 0 .1 13 .1 13z"/><path style="fill:#faf9f7" d="M43.6 57.9V41.2c0-.6.3-.7.8-.7.6 0 .7.2.6.7v14.6c0 1-.9 1.4-1.2 2.2l-.2-.1zm-31.5.2c-.8-.9-1.4-1.6-1.4-2.8.1-4.6 0-9.3 0-13.9 0-.5-.1-.9.7-.8.6 0 .7.2.7.8v16.7zm23.1 3.3c2.2-1.3 4.5-1.9 7.2-1.8-.6.6-1 1.2-1.5 1.7-.1.2-.3.1-.5.1h-5.2zm-14.7 0h-5.2c-.3 0-.5-.1-.7-.4-.4-.4-.8-.9-1.2-1.4 2.6 0 4.9.6 7.1 1.8z"/><path style="fill:#fbd03f" d="M49.6 16.2l.1-.1-.1.1z"/><path style="fill:#e71332" d="M27.8 55.3c-.7-1-1.7-1.6-2.5-2.4-1.2-1.1-2.4-2.1-3.3-3.5-.6-1-1-2-.6-3.2.8-2.6 3.7-3.4 5.7-1.5.3.2.5.5.7.8.5-.6 1-1.1 1.7-1.4 1.3-.6 2.8-.4 3.7.4 1.1 1.1 1.5 2.7 1 4-.5 1.2-1.4 2.2-2.3 3.1-.9.9-1.8 1.6-2.8 2.5-.5.3-.9.7-1.3 1.2z"/><path style="#592202" d="M43.5 22.6c.1-.1.2-.2.3-.2.1.1-.1.2-.1.3-.1 0-.2-.1-.2-.1zm-31.4.1c-.1-.1-.3-.2-.1-.3l.3.2c-.2 0-.2 0-.2.1zm4.3-.3c0 .1.1.1 0 0 0 .2 0 .2 0 0 0 .1 0 0 0 0z"/></svg>