<?xml version="1.0" encoding="utf-8"?>
<!-- Generator: Adobe Illustrator 16.0.4, SVG Export Plug-In . SVG Version: 6.00 Build 0)  -->
<!DOCTYPE svg PUBLIC "-//W3C//DTD SVG 1.1//EN" "http://www.w3.org/Graphics/SVG/1.1/DTD/svg11.dtd">
<svg version="1.1" id="Layer_1" xmlns="http://www.w3.org/2000/svg" xmlns:xlink="http://www.w3.org/1999/xlink" x="0px" y="0px"
	 width="377px" height="97.25px" viewBox="27.5 93.5 377 97.25" enable-background="new 27.5 93.5 377 97.25" xml:space="preserve">
<g id="_x39_MM4nk.tif">
	<g>
		<path fill="#592202" d="M318.63,103.289c1.028,0.319,2.106,0.291,3.16,0.423c3.494,0.436,6.874,1.351,10.239,2.338
			c0.376,0.11,0.445,0.275,0.354,0.647c-0.806,3.271-1.293,6.584-1.309,9.958c-0.001,0.306-0.057,0.428-0.406,0.451
			c-1.876,0.125-1.875,0.138-1.875-1.709c0-0.657-0.02-1.314,0.003-1.971c0.067-1.907-0.774-3.312-2.388-4.253
			c-2.271-1.326-4.736-2.114-7.34-2.461c-3.875-0.516-7.758-0.689-11.605,0.146c-7.426,1.611-12.199,6.143-14.173,13.445
			c-1.83,6.773-1.415,13.482,1.528,19.891c3.105,6.759,8.55,10.575,15.82,11.769c4.049,0.663,8.103,0.56,12.088-0.563
			c0.071-0.021,0.146-0.033,0.22-0.059c2.108-0.693,2.608-1.349,2.631-3.568c0.026-2.629,0.034-5.256,0.024-7.885
			c-0.006-1.875-0.601-2.488-2.451-2.64c-1.786-0.146-3.571-0.312-5.358-0.441c-0.407-0.03-0.583-0.146-0.562-0.584
			c0.1-2.03-0.473-1.681,1.69-1.626c4.22,0.105,8.437,0.146,12.654,0.026c0.907-0.025,1.817-0.021,2.726-0.066
			c0.396-0.02,0.512,0.13,0.566,0.5c0.195,1.314,0.21,1.312-1.049,1.754c-0.237,0.084-0.471,0.182-0.713,0.249
			c-0.557,0.154-0.861,0.489-0.857,1.086c0.003,0.303-0.038,0.605-0.038,0.908c-0.003,3.968-0.014,7.938,0.013,11.905
			c0.004,0.564-0.117,0.842-0.703,1.002c-5.112,1.391-10.227,2.85-15.525,3.26c-7.574,0.588-14.811-0.615-21.253-4.937
			c-5.408-3.626-8.474-8.824-9.621-15.163c-0.904-4.991-0.813-9.957,0.979-14.773c2.522-6.781,7.381-11.309,13.896-14.188
			c3.494-1.544,7.17-2.379,10.965-2.722c0.139-0.013,0.312,0.047,0.385-0.147C313.775,103.289,316.202,103.289,318.63,103.289z"/>
		<path fill="#592202" d="M36,104.654c18.205,0,36.409,0.005,54.613-0.02c0.702-0.001,0.801,0.209,0.8,0.837
			c-0.018,12.718-0.027,25.436-0.007,38.153c0.008,4.602-1.452,8.771-3.591,12.754c-2.579,4.8-5.958,9.007-9.736,12.9
			c-4.237,4.367-8.862,8.269-14.012,11.527c-0.06,0.037-0.102,0.104-0.152,0.155c-0.152,0-0.303,0-0.455,0
			c-0.106-0.226-0.344-0.282-0.527-0.401c-7.576-4.955-14.137-11.004-19.564-18.252c-3.105-4.146-5.618-8.607-6.847-13.705
			c-0.179-0.742-0.139-1.537-0.521-2.229C36,132.467,36,118.561,36,104.654z M63.708,106.272c-8.444,0-16.888,0.008-25.332-0.016
			c-0.661-0.002-0.838,0.148-0.837,0.827c0.023,12.338,0.014,24.675,0.022,37.012c0,1.086,0.127,2.164,0.329,3.233
			c0.82,4.343,2.741,8.215,5.182,11.836c5.281,7.833,12.034,14.183,19.815,19.485c0.631,0.431,1.029,0.393,1.629-0.015
			c4.834-3.269,9.251-7.021,13.242-11.276c3.679-3.922,6.941-8.147,9.325-12.998c1.794-3.649,2.779-7.469,2.755-11.588
			c-0.068-11.882-0.03-23.765-0.007-35.646c0.001-0.696-0.174-0.874-0.869-0.871C80.545,106.28,72.127,106.272,63.708,106.272z"/>
		<path fill="#5E290A" d="M396,163.517c-0.764,0.635-1.282,1.476-1.872,2.252c-1.114,1.469-2.163,2.982-3.036,4.612
			c-0.332,0.621-0.482,1.263-0.473,1.96c0.02,1.163,0.02,2.326,0.016,3.488c-0.002,0.725,0.34,1.07,1.068,1.037
			c0.176-0.008,0.354,0.021,0.529,0.02c0.261-0.005,0.43,0.055,0.438,0.372c0.01,0.339-0.184,0.358-0.434,0.349
			c-1.768-0.075-3.535-0.073-5.303-0.002c-0.215,0.01-0.41,0.002-0.423-0.293c-0.011-0.279,0.104-0.387,0.392-0.432
			c1.66-0.259,1.541-0.277,1.688-1.996c0.202-2.351-0.341-4.415-1.717-6.318c-0.662-0.916-1.074-2.002-1.776-2.897
			c-0.604-0.771-1.187-1.606-2.302-1.687c-0.243-0.019-0.282-0.143-0.281-0.347c0.002-0.2,0.055-0.346,0.27-0.391
			c0.74-0.153,1.479-0.319,2.225-0.452c0.307-0.055,0.516,0.174,0.7,0.383c0.469,0.531,0.896,1.092,1.235,1.719
			c0.841,1.551,1.693,3.097,2.551,4.64c0.129,0.233,0.201,0.513,0.501,0.712c1.216-1.959,2.59-3.811,3.556-5.883
			c0.544-1.168,1.258-1.57,2.448-1.301C396,163.213,396,163.365,396,163.517z"/>
		<path fill="#592202" d="M367.484,129.385c-4.473-0.056-8.945-0.115-13.418-0.009c-0.666,0.016-0.896,0.167-0.891,0.888
			c0.049,5.788,0.045,11.576,0.075,17.364c0.003,0.628,0.082,1.264,0.197,1.881c0.284,1.516,0.879,2.039,2.452,2.178
			c1.257,0.11,2.517,0.203,3.776,0.266c0.427,0.021,0.611,0.097,0.612,0.592c0.003,1.583,0.027,1.613-1.559,1.562
			c-4.496-0.144-8.994-0.191-13.491-0.117c-1.767,0.029-3.534,0.08-5.3,0.158c-0.537,0.023-0.678-0.141-0.67-0.67
			c0.023-1.447-0.002-1.455,1.416-1.576c1.031-0.088,2.067-0.123,3.098-0.225c1.476-0.144,2.051-0.686,2.326-2.132
			s0.274-2.915,0.275-4.378c0.008-10.567,0.006-21.134,0.001-31.701c0-1.389,0.001-2.782-0.235-4.155
			c-0.297-1.717-0.93-2.257-2.688-2.38c-1.158-0.08-2.316-0.166-3.479-0.214c-0.512-0.021-0.739-0.136-0.721-0.736
			c0.047-1.472,0.008-1.505,1.44-1.448c5.128,0.2,10.257,0.17,15.386,0.093c1.211-0.019,2.422-0.067,3.633-0.13
			c0.424-0.021,0.577,0.101,0.557,0.542c-0.09,1.934,0.437,1.574-1.664,1.737c-1.106,0.086-2.219,0.087-3.316,0.286
			c-1.02,0.187-1.576,0.784-1.795,1.787c-0.318,1.472-0.299,2.963-0.307,4.45c-0.018,3.994,0.009,7.988-0.021,11.982
			c-0.005,0.597,0.165,0.764,0.746,0.773c8.188,0.142,16.379,0.027,24.568,0.059c0.907,0.003,1.815-0.072,2.724-0.08
			c0.372-0.003,0.535-0.088,0.528-0.507c-0.082-5.154,0.142-10.312-0.14-15.464c-0.011-0.201-0.028-0.404-0.062-0.604
			c-0.304-1.849-0.921-2.408-2.798-2.53c-1.184-0.076-2.368-0.164-3.553-0.217c-0.455-0.021-0.578-0.188-0.576-0.644
			c0.004-1.562-0.016-1.595,1.5-1.535c5.128,0.202,10.257,0.167,15.386,0.093c1.187-0.018,2.372-0.069,3.558-0.129
			c0.403-0.02,0.592,0.069,0.569,0.528c-0.091,1.956,0.418,1.591-1.651,1.751c-1.105,0.085-2.217,0.093-3.315,0.283
			c-1.029,0.179-1.593,0.788-1.798,1.782c-0.221,1.067-0.299,2.149-0.299,3.237c-0.004,11.502-0.004,23.004,0,34.506
			c0,1.011,0.057,2.021,0.268,3.012c0.309,1.447,0.867,1.953,2.359,2.089c1.283,0.114,2.567,0.211,3.854,0.264
			c0.468,0.02,0.586,0.16,0.587,0.617c0.003,1.562,0.021,1.588-1.503,1.541c-4.471-0.14-8.942-0.194-13.415-0.117
			c-1.792,0.031-3.585,0.08-5.376,0.158c-0.542,0.023-0.744-0.086-0.728-0.688c0.041-1.434,0.006-1.441,1.438-1.559
			c1.032-0.084,2.068-0.123,3.099-0.225c1.459-0.143,2.039-0.697,2.317-2.142c0.229-1.196,0.267-2.408,0.269-3.621
			c0.004-5.182-0.021-10.364,0.024-15.546c0.007-0.832-0.271-0.999-1.011-0.995C376.329,129.397,371.907,129.385,367.484,129.385z"
			/>
		<path fill="#592202" d="M224.445,126.125c4.424-0.046,8.847,0.061,13.27-0.078c0.988-0.031,0.99-0.02,0.988-1.038
			c-0.008-4.676-0.012-9.353-0.029-14.029c-0.003-0.527-0.078-1.057-0.146-1.582c-0.215-1.684-0.893-2.326-2.611-2.459
			c-1.133-0.088-2.268-0.183-3.4-0.2c-0.681-0.011-0.888-0.239-0.855-0.924c0.059-1.31,0.018-1.337,1.369-1.283
			c5.203,0.204,10.406,0.168,15.611,0.094c1.16-0.017,2.321-0.071,3.481-0.128c0.369-0.019,0.519,0.055,0.528,0.481
			c0.045,1.73,0.062,1.716-1.67,1.805c-1.058,0.054-2.121,0.095-3.164,0.259c-1.293,0.203-1.762,0.745-1.998,2.025
			c-0.258,1.397-0.271,2.816-0.274,4.227c-0.019,10.693-0.019,21.387,0.001,32.08c0.002,1.358,0.02,2.728,0.256,4.077
			c0.266,1.514,0.854,2.093,2.401,2.23c1.307,0.115,2.616,0.197,3.928,0.274c0.351,0.021,0.515,0.081,0.522,0.507
			c0.035,1.66,0.056,1.694-1.606,1.641c-4.471-0.143-8.94-0.188-13.413-0.115c-1.767,0.029-3.533,0.08-5.3,0.16
			c-0.528,0.022-0.683-0.123-0.671-0.662c0.027-1.471-0.001-1.479,1.473-1.596c0.981-0.08,1.967-0.119,2.946-0.205
			c1.556-0.141,2.188-0.744,2.437-2.293c0.147-0.925,0.189-1.857,0.188-2.795c-0.002-5.358,0.005-10.719-0.006-16.078
			c-0.002-1.24,0.247-1.102-1.134-1.132c-7.506-0.164-15.014-0.05-22.521-0.074c-1.414-0.004-2.828,0.082-4.242,0.081
			c-0.514,0-0.628,0.187-0.627,0.667c0.015,5.41-0.003,10.82,0.021,16.229c0.004,1.057,0.055,2.119,0.244,3.167
			c0.272,1.508,0.874,2.09,2.412,2.224c1.308,0.113,2.618,0.197,3.929,0.274c0.35,0.021,0.514,0.082,0.523,0.507
			c0.034,1.66,0.055,1.693-1.603,1.641c-4.445-0.141-8.891-0.189-13.337-0.115c-1.792,0.029-3.585,0.08-5.376,0.158
			c-0.521,0.022-0.687-0.106-0.677-0.653c0.027-1.479-0.001-1.485,1.468-1.603c1.006-0.08,2.017-0.115,3.021-0.213
			c1.434-0.14,2.009-0.662,2.307-2.066c0.221-1.043,0.246-2.104,0.247-3.166c0.001-11.427,0.002-22.854-0.001-34.279
			c0-0.884-0.046-1.766-0.16-2.646c-0.235-1.812-0.9-2.462-2.738-2.589c-1.184-0.082-2.369-0.168-3.554-0.217
			c-0.453-0.019-0.586-0.171-0.587-0.632c-0.003-1.57-0.022-1.611,1.551-1.549c5.077,0.201,10.155,0.163,15.233,0.091
			c1.186-0.018,2.372-0.067,3.557-0.13c0.455-0.023,0.656,0.054,0.65,0.594c-0.02,1.619,0.01,1.617-1.633,1.688
			c-1.083,0.047-2.173,0.059-3.24,0.266c-1.28,0.247-1.74,0.754-1.976,2.049c-0.214,1.173-0.259,2.36-0.265,3.546
			c-0.02,4.095-0.007,8.19-0.007,12.285c0,1.104,0,1.09,1.069,1.124C215.651,126.187,220.049,126.078,224.445,126.125z"/>
		<path fill="#592202" d="M170.888,104.653c4.978-0.166,9.956-0.19,14.934-0.122c1.236,0.017,2.472,0.101,3.708,0.134
			c0.362,0.009,0.459,0.073,0.367,0.477c-0.742,3.238-1.003,6.532-1.039,9.846c-0.004,0.447-0.09,0.643-0.58,0.6
			c-0.624-0.055-1.44,0.19-1.83-0.122c-0.415-0.332-0.109-1.181-0.128-1.802c-0.035-1.161-0.031-2.323-0.053-3.484
			c-0.014-0.722-0.376-1.118-1.087-1.338c-2.557-0.789-5.182-1.085-7.837-1.19c-3.458-0.138-6.917-0.305-10.364,0.187
			c-1.27,0.181-1.271,0.179-1.271,1.448c0,5.714,0.009,11.428-0.014,17.142c-0.002,0.545,0.125,0.734,0.68,0.753
			c4.343,0.145,8.686,0.314,13.025-0.074c0.05-0.005,0.101-0.01,0.151-0.016c2.179-0.272,2.379-0.486,2.561-2.671
			c0.082-0.981,0.205-1.959,0.277-2.941c0.026-0.351,0.143-0.456,0.499-0.475c1.804-0.093,1.805-0.104,1.709,1.61
			c-0.259,4.669-0.211,9.339,0.032,14.006c0.028,0.533-0.107,0.639-0.598,0.639c-1.532,0.002-1.542,0.021-1.703-1.461
			c-0.128-1.18-0.234-2.361-0.334-3.544c-0.065-0.77-0.518-1.154-1.22-1.35c-0.932-0.258-1.889-0.369-2.843-0.411
			c-3.862-0.174-7.725-0.165-11.588,0.048c-0.52,0.029-0.648,0.191-0.646,0.71c0.021,6.22,0.022,12.438-0.002,18.658
			c-0.002,0.552,0.165,0.761,0.682,0.815c0.903,0.096,1.8,0.31,2.703,0.325c5.052,0.097,10.1,0.087,15.142-0.395
			c1.726-0.165,2.712-0.941,3.189-2.572c0.491-1.676,0.883-3.368,1.062-5.103c0.06-0.574,0.213-0.885,0.86-0.792
			c0.372,0.054,0.761,0.044,1.135,0.002c0.607-0.07,0.647,0.21,0.55,0.704c-0.685,3.453-0.958,6.946-1.034,10.461
			c-0.007,0.326,0.071,0.602-0.467,0.619c-4.419,0.151-8.84,0.217-13.26,0.197c-5.684-0.025-11.367-0.249-17.053-0.206
			c-1.944,0.015-3.888,0.099-5.831,0.179c-0.513,0.021-0.752-0.039-0.732-0.668c0.048-1.526,0.008-1.529,1.551-1.627
			c0.857-0.055,1.709-0.135,2.558-0.281c1.096-0.188,1.659-0.84,1.847-1.906c0.212-1.2,0.28-2.408,0.281-3.62
			c0.004-11.149,0.004-22.299,0-33.447c0-1.238-0.063-2.474-0.297-3.694c-0.198-1.029-0.776-1.661-1.831-1.844
			c-1.423-0.247-2.866-0.249-4.3-0.335c-0.559-0.034-0.703-0.219-0.689-0.769c0.036-1.45,0.008-1.482,1.466-1.445
			c5.432,0.14,10.864,0.22,16.297,0.147C169.979,104.648,170.434,104.654,170.888,104.653z"/>
		<path fill="#592202" d="M129.208,154.188c-4.673-0.117-9.344-0.316-14.019-0.199c-1.084,0.027-2.169,0.087-3.252,0.152
			c-0.42,0.024-0.602-0.045-0.642-0.554c-0.065-0.815,0.154-1.334,0.96-1.604c2.406-0.808,3.068-2.687,3.066-4.996
			c-0.009-11.501,0-23.003-0.011-34.504c-0.001-1.059-0.042-2.121-0.23-3.168c-0.31-1.717-0.925-2.263-2.677-2.383
			c-1.183-0.081-2.366-0.172-3.55-0.217c-0.485-0.018-0.633-0.175-0.629-0.67c0.011-1.535-0.01-1.572,1.521-1.513
			c5.077,0.199,10.155,0.167,15.233,0.092c1.186-0.018,2.373-0.068,3.557-0.129c0.449-0.022,0.661,0.047,0.655,0.592
			c-0.015,1.627,0.013,1.616-1.638,1.693c-1.134,0.054-2.272,0.068-3.391,0.294c-0.94,0.189-1.499,0.755-1.707,1.699
			c-0.257,1.169-0.306,2.353-0.307,3.54c-0.003,12.487,0.006,24.975-0.023,37.461c-0.002,0.713,0.279,0.879,0.865,0.984
			c2.859,0.522,5.746,0.335,8.621,0.326c3.357-0.011,6.715-0.119,10.046-0.615c0.05-0.008,0.101-0.01,0.151-0.014
			c1.687-0.107,2.64-0.977,2.978-2.656c0.382-1.902,0.901-3.775,1.328-5.67c0.083-0.371,0.213-0.483,0.589-0.497
			c1.903-0.067,1.907-0.078,1.681,1.788c-0.395,3.258-0.807,6.514-1.185,9.773c-0.066,0.57-0.251,0.764-0.869,0.785
			c-4.166,0.149-8.333,0.137-12.5,0.203C132.289,154.211,130.748,154.188,129.208,154.188z"/>
		<path fill="#592202" d="M272.688,129.303c0,5.51-0.004,11.021,0.004,16.53c0.002,1.212,0.041,2.424,0.254,3.621
			c0.271,1.539,0.847,2.088,2.396,2.229c1.281,0.116,2.566,0.211,3.852,0.268c0.457,0.021,0.589,0.15,0.589,0.615
			c-0.001,1.562,0.02,1.59-1.498,1.541c-4.521-0.143-9.041-0.193-13.562-0.116c-1.742,0.028-3.484,0.079-5.225,0.157
			c-0.514,0.021-0.691-0.097-0.682-0.649c0.025-1.481-0.004-1.489,1.463-1.606c1.006-0.08,2.017-0.115,3.021-0.211
			c1.421-0.138,2.011-0.669,2.306-2.066c0.23-1.094,0.254-2.206,0.254-3.317c0.002-11.299,0.002-22.597,0-33.896
			c0-0.985-0.043-1.969-0.174-2.948c-0.229-1.725-0.898-2.379-2.651-2.514c-1.208-0.093-2.418-0.174-3.63-0.224
			c-0.453-0.019-0.584-0.173-0.586-0.631c-0.002-1.573-0.021-1.612,1.552-1.549c5.077,0.202,10.153,0.163,15.231,0.091
			c1.186-0.018,2.371-0.06,3.557-0.133c0.509-0.03,0.627,0.145,0.623,0.632c-0.01,1.584,0.011,1.579-1.596,1.654
			c-1.107,0.052-2.216,0.091-3.314,0.27c-1.131,0.185-1.708,0.866-1.902,1.953c-0.209,1.173-0.27,2.358-0.271,3.544
			C272.682,118.131,272.688,123.717,272.688,129.303z"/>
		<path fill="#5E290A" d="M275.336,170.276c1.63,2.115,3.21,4.176,4.803,6.225c0.211,0.27,0.541,0.359,0.879,0.381
			c0.284,0.018,0.291,0.211,0.297,0.428c0.012,0.314-0.195,0.311-0.402,0.293c-0.758-0.063-1.516-0.078-2.27,0.006
			c-0.324,0.035-0.433-0.194-0.58-0.394c-1.455-1.938-2.91-3.88-4.369-5.815c-0.258-0.342-0.543-0.664-0.812-0.998
			c-0.123-0.15-0.338-0.283-0.251-0.512c0.099-0.254,0.345-0.138,0.533-0.14c0.558-0.005,1.108-0.035,1.653-0.168
			c1.449-0.354,2.399-1.511,2.396-2.914c-0.006-1.447-0.837-2.433-2.265-2.683c-0.831-0.146-1.662-0.082-2.491,0.02
			c-0.41,0.051-0.64,0.195-0.634,0.713c0.044,3.664,0.039,7.329,0.066,10.994c0.008,0.966,0.178,1.105,1.174,1.155
			c0.125,0.006,0.252,0.022,0.377,0.018c0.301-0.014,0.481,0.07,0.469,0.423c-0.016,0.371-0.275,0.297-0.487,0.295
			c-1.339-0.011-2.678-0.033-4.017-0.041c-0.404-0.002-0.809,0.029-1.211,0.043c-0.209,0.006-0.409,0.016-0.416-0.293
			c-0.004-0.278,0.095-0.388,0.386-0.432c1.64-0.25,1.639-0.26,1.639-1.934c0-3.211,0.001-6.422-0.001-9.633
			c0-1.127-0.02-1.578-1.35-1.539c-0.277,0.008-0.564-0.015-0.523-0.443c0.043-0.443,0.368-0.264,0.569-0.264
			c2.349-0.015,4.696-0.014,7.045-0.004c0.353,0,0.706,0.043,1.053,0.104c1.245,0.217,2.267,0.755,2.624,2.074
			c0.375,1.385,0.02,2.597-1.012,3.596C277.43,169.59,276.448,169.968,275.336,170.276z"/>
		<path fill="#5E290A" d="M148.136,165.452c0,3.447-0.016,6.732,0.008,10.017c0.009,1.239,0.139,1.328,1.338,1.413
			c0.278,0.021,0.655-0.096,0.63,0.411c-0.024,0.481-0.394,0.312-0.621,0.302c-1.262-0.051-2.523-0.056-3.785,0.006
			c-0.226,0.01-0.536,0.112-0.559-0.303c-0.023-0.425,0.26-0.396,0.55-0.417c1.321-0.096,1.411-0.174,1.416-1.479
			c0.012-3.387,0.013-6.771,0-10.157c-0.005-1.277-0.072-1.318-1.351-1.462c-0.271-0.03-0.663,0.061-0.614-0.44
			c0.047-0.481,0.418-0.264,0.642-0.271c0.554-0.014,1.138,0.152,1.658,0.027c1.227-0.297,1.796,0.44,2.444,1.252
			c2.82,3.532,5.677,7.034,8.521,10.547c0.076,0.095,0.158,0.184,0.258,0.299c0.202-0.223,0.124-0.456,0.124-0.662
			c0.006-3.032,0.008-6.064,0.003-9.096c-0.003-1.78-0.305-1.652-1.463-1.676c-0.255-0.004-0.51,0.008-0.51-0.381
			c0-0.436,0.307-0.316,0.531-0.318c1.312-0.008,2.623-0.008,3.934-0.002c0.229,0.002,0.517-0.102,0.514,0.33
			c-0.003,0.4-0.27,0.344-0.512,0.375c-1.419,0.178-1.462,0.18-1.47,1.594c-0.021,4.018-0.013,8.035,0.016,12.052
			c0.003,0.46-0.064,0.526-0.519,0.479c-0.966-0.098-1.625-0.537-2.233-1.312c-2.822-3.595-5.711-7.138-8.576-10.697
			C148.418,165.772,148.322,165.667,148.136,165.452z"/>
		<path fill="#5E290A" d="M113.243,169.224c0-1.49-0.005-2.979,0.003-4.471c0.003-0.665-0.309-0.98-0.973-0.953
			c-0.075,0.003-0.165,0.023-0.225-0.008c-0.266-0.139-0.81,0.21-0.795-0.398c0.015-0.646,0.519-0.297,0.792-0.303
			c1.589-0.029,3.179-0.027,4.769-0.02c0.21,0,0.536-0.178,0.583,0.254c0.045,0.418-0.223,0.438-0.524,0.438
			c-0.151,0-0.301,0.026-0.452,0.035c-0.87,0.055-1.039,0.211-1.071,1.104c-0.029,0.809-0.026,1.617-0.026,2.427
			c0.001,1.971-0.026,3.942,0.026,5.913c0.055,2.059,1.136,3.154,3.181,3.312c0.553,0.043,1.112,0.043,1.667,0.022
			c2.115-0.079,3.554-1.396,3.618-3.511c0.083-2.752,0.019-5.508,0.025-8.262c0.002-0.695-0.326-1.021-1.018-1.009
			c-0.226,0.003-0.452-0.036-0.678-0.055c-0.244-0.021-0.249-0.19-0.26-0.38c-0.015-0.241,0.103-0.307,0.314-0.305
			c1.438,0.002,2.876,0,4.314,0c0.188,0,0.347,0.016,0.343,0.275c-0.003,0.227-0.028,0.406-0.307,0.415
			c-0.05,0.002-0.102,0.002-0.151,0.01c-1.505,0.237-1.491,0.238-1.52,1.787c-0.049,2.601,0.155,5.206-0.113,7.801
			c-0.285,2.755-1.53,4.079-4.254,4.505c-1.328,0.207-2.676,0.176-3.992-0.13c-2.172-0.503-3.182-1.913-3.226-4.481
			c-0.023-1.338-0.004-2.678-0.004-4.019C113.273,169.224,113.258,169.224,113.243,169.224z"/>
		<path fill="#5E290A" d="M242.699,163.082c1.963,0,3.63,0.017,5.296-0.011c0.476-0.008,0.618,0.103,0.532,0.596
			c-0.129,0.743-0.192,1.499-0.254,2.253c-0.021,0.269-0.063,0.424-0.381,0.416c-0.287-0.007-0.426-0.106-0.395-0.403
			c0.005-0.05,0.002-0.101,0-0.15c-0.048-1.5-0.05-1.486-1.536-1.674c-1.259-0.156-2.519-0.155-3.78-0.097
			c-0.509,0.024-0.664,0.243-0.652,0.753c0.035,1.413,0.041,2.829-0.002,4.243c-0.019,0.581,0.166,0.726,0.727,0.716
			c1.059-0.021,2.118,0.047,3.178-0.054c0.56-0.052,0.903-0.251,0.855-0.886c-0.018-0.223,0.046-0.451,0.083-0.676
			c0.039-0.244,0.231-0.217,0.409-0.221c0.201-0.005,0.248,0.108,0.248,0.284c-0.002,1.39-0.002,2.778,0,4.167
			c0,0.161-0.01,0.311-0.228,0.305c-0.17-0.004-0.373,0.049-0.426-0.197c-0.032-0.146-0.047-0.299-0.063-0.448
			c-0.146-1.248-0.145-1.271-1.393-1.319c-0.958-0.035-1.92,0.012-2.878-0.013c-0.412-0.009-0.511,0.158-0.506,0.537
			c0.016,1.616,0.021,3.233-0.002,4.851c-0.007,0.397,0.137,0.51,0.508,0.551c1.668,0.19,3.327,0.039,4.987-0.084
			c0.568-0.043,0.731-0.481,0.853-0.929c0.104-0.389,0.175-0.788,0.229-1.187c0.05-0.355,0.281-0.365,0.552-0.353
			c0.354,0.017,0.218,0.253,0.2,0.438c-0.079,0.879-0.189,1.757-0.227,2.638c-0.021,0.485-0.31,0.417-0.611,0.431
			c-2.854,0.129-5.707-0.029-8.56,0c-0.454,0.006-0.907,0.029-1.36,0.045c-0.217,0.008-0.408-0.004-0.418-0.297
			c-0.008-0.275,0.099-0.384,0.388-0.431c1.321-0.215,1.346-0.226,1.382-1.573c0.095-3.484,0.072-6.97,0.007-10.455
			c-0.014-0.717-0.308-1.037-1.049-1.074c-0.324-0.017-1.024,0.306-0.947-0.438c0.066-0.609,0.662-0.254,0.988-0.257
			C239.968,163.065,241.48,163.151,242.699,163.082z"/>
		<path fill="#5E290A" d="M303.052,177.957c-1.049,0.003-2.052-0.22-3.04-0.552c-0.389-0.131-0.57-0.293-0.52-0.75
			c0.078-0.727,0.066-1.463,0.09-2.193c0.009-0.249-0.051-0.504,0.355-0.518c0.381-0.01,0.383,0.238,0.432,0.481
			c0.354,1.765,1.074,2.371,3.033,2.556c1.736,0.164,3.41-0.717,3.951-2.082c0.617-1.551-0.03-2.935-1.633-3.498
			c-0.986-0.346-2.039-0.336-3.046-0.569c-0.099-0.022-0.202-0.021-0.3-0.047c-1.336-0.353-2.625-0.831-2.943-2.372
			c-0.344-1.657,0.006-3.188,1.351-4.331c1.803-1.534,3.896-1.64,6.073-1.063c1.606,0.424,1.597,0.453,1.418,2.051
			c-0.043,0.375-0.071,0.754-0.077,1.132c-0.005,0.248-0.062,0.377-0.341,0.356c-0.217-0.015-0.412-0.019-0.43-0.301
			c-0.005-0.074-0.02-0.15-0.015-0.227c0.103-1.582-0.915-2.055-2.103-2.295c-1.006-0.201-2.021-0.191-2.918,0.426
			c-1.02,0.699-1.377,1.699-1.229,2.9c0.136,1.1,0.931,1.557,1.862,1.853c0.968,0.308,1.994,0.294,2.98,0.511
			c1.331,0.292,2.704,0.621,3.166,2.11c0.498,1.604,0.114,3.118-1.004,4.375C306.814,177.431,305.01,177.909,303.052,177.957z"/>
		<path fill="#5E290A" d="M212.394,174.862c0.51-1.324,0.977-2.543,1.447-3.76c0.773-1.994,1.555-3.984,2.321-5.982
			c0.398-1.038,0.26-1.243-0.827-1.329c-0.176-0.015-0.352-0.036-0.528-0.046c-0.256-0.014-0.242-0.193-0.254-0.376
			c-0.015-0.224,0.064-0.313,0.297-0.313c1.311,0.008,2.623,0.006,3.933,0.002c0.193,0,0.344,0.018,0.333,0.276
			c-0.009,0.214-0.003,0.431-0.292,0.421c-0.805-0.025-1.075,0.568-1.312,1.155c-1.654,4.106-3.515,8.132-4.966,12.321
			c-0.136,0.393-0.305,0.552-0.741,0.543c-0.413-0.01-0.534-0.174-0.658-0.535c-1.466-4.293-3.353-8.42-5.006-12.637
			c-0.201-0.515-0.528-0.842-1.13-0.824c-0.239,0.007-0.504,0-0.502-0.394c0.002-0.433,0.293-0.323,0.519-0.323
			c1.512-0.006,3.024-0.008,4.537,0c0.223,0.002,0.533-0.117,0.531,0.319c-0.002,0.386-0.249,0.351-0.509,0.376
			c-1.467,0.146-1.473,0.155-0.946,1.52c1.144,2.959,2.295,5.914,3.445,8.869C212.164,174.349,212.257,174.545,212.394,174.862z"/>
		<path fill="#5E290A" d="M359.418,170.299c0,1.742-0.009,3.485,0.003,5.228c0.009,1.16,0.151,1.295,1.304,1.352
			c0.125,0.007,0.252,0.016,0.379,0.012c0.271-0.008,0.336,0.146,0.342,0.385c0.006,0.27-0.116,0.347-0.368,0.334
			c-1.791-0.078-3.583-0.075-5.374-0.002c-0.229,0.01-0.393-0.031-0.391-0.318c0.002-0.238,0.069-0.391,0.334-0.396
			c0.229-0.006,0.455-0.029,0.683-0.022c0.7,0.017,0.995-0.332,1.009-1.021c0.075-3.709,0.071-7.42-0.003-11.131
			c-0.009-0.427-0.082-0.631-0.583-0.603c-0.855,0.048-1.718,0.034-2.575,0.006c-0.646-0.021-0.934,0.259-0.93,0.892
			c0.002,0.354-0.034,0.706-0.036,1.061c0,0.273-0.085,0.426-0.393,0.414c-0.264-0.01-0.334-0.135-0.342-0.381
			c-0.028-0.906-0.058-1.814-0.123-2.721c-0.035-0.48,0.301-0.318,0.5-0.316c1.389,0.009,2.775,0.062,4.164,0.058
			c2.246-0.005,4.493-0.019,6.738-0.08c0.615-0.019,0.7,0.183,0.635,0.729c-0.086,0.724-0.064,1.459-0.096,2.188
			c-0.01,0.231,0.094,0.524-0.332,0.526c-0.354,0.001-0.393-0.17-0.416-0.467c-0.154-1.896-0.163-1.905-2.058-1.893
			c-0.65,0.006-1.499-0.279-1.9,0.113c-0.438,0.428-0.157,1.291-0.166,1.963C359.406,167.571,359.418,168.935,359.418,170.299z"/>
		<path fill="#5E290A" d="M330.854,163.06c0.883,0,1.767-0.002,2.649,0.002c0.208,0.002,0.466-0.088,0.46,0.303
			c-0.005,0.303-0.132,0.357-0.402,0.397c-1.648,0.253-1.648,0.263-1.648,1.942c0,3.133,0,6.268,0.003,9.4
			c0,0.275,0.04,0.554,0.039,0.83c-0.004,0.683,0.362,0.947,1.004,0.931c0.177-0.005,0.354,0.024,0.53,0.02
			c0.293-0.009,0.48,0.056,0.473,0.414c-0.008,0.375-0.26,0.312-0.475,0.304c-1.741-0.07-3.482-0.069-5.226,0.002
			c-0.239,0.011-0.463,0.013-0.462-0.33c0.002-0.303,0.167-0.358,0.432-0.394c1.627-0.208,1.643-0.215,1.644-1.864
			c0.003-3.336-0.003-6.672-0.024-10.007c-0.008-1.028-0.152-1.144-1.193-1.212c-0.176-0.012-0.352-0.042-0.526-0.044
			c-0.278-0.003-0.321-0.17-0.328-0.399c-0.009-0.311,0.195-0.295,0.404-0.295C329.087,163.06,329.971,163.06,330.854,163.06z"/>
		<path fill="#5E290A" d="M183.247,163.062c0.858,0,1.715-0.008,2.572,0.004c0.194,0.004,0.475-0.125,0.504,0.261
			c0.026,0.349-0.153,0.397-0.448,0.438c-1.628,0.225-1.628,0.232-1.629,1.904c-0.001,3.107,0,6.217,0,9.324
			c0,0.229-0.003,0.456,0.018,0.682c0.099,1.049,0.198,1.141,1.237,1.191c0.075,0.004,0.151,0.015,0.226,0.019
			c0.265,0.017,0.589-0.073,0.593,0.372c0.004,0.473-0.346,0.344-0.592,0.342c-0.808-0.002-1.615-0.037-2.423-0.037
			c-0.833,0-1.666,0.041-2.498,0.033c-0.251-0.002-0.667,0.194-0.663-0.339c0.004-0.503,0.401-0.335,0.669-0.369
			c0.2-0.024,0.403-0.019,0.605-0.034c0.439-0.031,0.701-0.265,0.749-0.705c0.038-0.351,0.069-0.703,0.07-1.056
			c0.005-3.184,0.004-6.366,0.001-9.552c0-0.277-0.007-0.557-0.034-0.832c-0.055-0.583-0.335-0.879-0.968-0.932
			c-0.366-0.03-1.102,0.31-1.055-0.402c0.043-0.672,0.72-0.229,1.097-0.271c0.647-0.074,1.309-0.021,1.965-0.021
			C183.247,163.075,183.247,163.067,183.247,163.062z"/>
		<path fill="#FAF9F7" d="M63.708,106.272c8.418,0,16.837,0.009,25.255-0.016c0.695-0.003,0.87,0.175,0.869,0.871
			c-0.023,11.882-0.061,23.764,0.007,35.646c0.024,4.121-0.961,7.938-2.755,11.59c-2.384,4.85-5.646,9.074-9.325,12.998
			c-3.991,4.255-8.408,8.008-13.242,11.275c-0.601,0.406-0.998,0.444-1.629,0.014c-7.781-5.303-14.534-11.651-19.815-19.484
			c-2.441-3.621-4.362-7.493-5.182-11.836c-0.202-1.069-0.329-2.148-0.329-3.232c-0.008-12.338,0.001-24.675-0.022-37.013
			c-0.001-0.679,0.177-0.829,0.837-0.827C46.82,106.279,55.264,106.272,63.708,106.272z M63.723,107.708
			c-7.964,0-15.928,0.011-23.892-0.019c-0.69-0.002-0.812,0.19-0.811,0.834c0.021,11.63,0.013,23.261,0.019,34.89
			c0,0.707,0.021,1.416,0.091,2.119c0.352,3.527,1.615,6.761,3.364,9.8c5.155,8.957,12.412,15.923,20.792,21.813
			c0.381,0.269,0.623,0.125,0.933-0.086c2.149-1.472,4.218-3.049,6.187-4.752c5.805-5.025,10.993-10.582,14.704-17.373
			c1.92-3.513,3.242-7.211,3.235-11.297c-0.018-11.706-0.012-23.412,0.009-35.117c0.001-0.651-0.13-0.834-0.814-0.831
			C79.601,107.719,71.662,107.708,63.723,107.708z"/>
		<path fill="#592202" d="M63.723,107.708c7.938,0,15.877,0.011,23.816-0.018c0.684-0.003,0.815,0.18,0.814,0.831
			c-0.021,11.705-0.027,23.411-0.009,35.117c0.006,4.086-1.315,7.784-3.235,11.297c-3.711,6.791-8.899,12.348-14.704,17.373
			c-1.968,1.703-4.037,3.28-6.187,4.752c-0.31,0.211-0.552,0.354-0.933,0.086c-8.38-5.892-15.637-12.856-20.792-21.813
			c-1.749-3.039-3.012-6.271-3.364-9.8c-0.07-0.703-0.09-1.412-0.091-2.119c-0.005-11.629,0.002-23.26-0.019-34.89
			c-0.001-0.644,0.12-0.836,0.811-0.834C47.795,107.719,55.759,107.708,63.723,107.708z M79.36,125.863
			c0.039,0.039,0.077,0.078,0.115,0.117c-0.646,0.904-1.287,1.812-1.939,2.712c-1.35,1.861-2.708,3.717-4.057,5.578
			c-0.229,0.316-0.008,1.399,0.374,1.608c0.409,0.225,0.524-0.257,0.737-0.442c1.817-1.58,3.786-2.812,6.313-2.685
			c1.723,0.086,3.107,0.813,4.157,2.431c-2.043-0.689-3.623-0.092-5.032,1.169c-0.376,0.337-0.756,0.671-1.131,1.01
			c-1.072,0.964-2.268,1.596-3.771,1.434c-0.172-0.019-0.458-0.118-0.465,0.204c-0.007,0.294,0.262,0.249,0.453,0.265
			c1.107,0.09,2.217,0.16,3.322,0.271c0.366,0.037,0.637-0.087,0.899-0.299c0.806-0.65,1.584-1.338,2.423-1.942
			c1.245-0.896,2.402-0.849,3.625,0.077c0.241,0.183,0.474,0.383,0.678,0.604c0.226,0.245,0.372,0.283,0.554-0.048
			c0.679-1.236,0.936-2.49,0.306-3.837c-1.2-2.565-4.053-4.065-6.891-3.59c-0.534,0.09-1.061,0.215-1.694,0.345
			c0.464-0.729,0.871-1.365,1.276-2.002c1.967-3.088,3.934-6.175,5.901-9.264c0.018-0.052,0.035-0.104,0.053-0.156
			c-0.046,0.023-0.092,0.047-0.137,0.07c-0.157,0.077-0.321,0.143-0.469,0.234c-2.547,1.594-5.092,3.191-7.639,4.786
			c-1.211,0.758-2.425,1.512-3.706,2.311c0-0.392-0.001-0.665,0-0.938c0.015-2.613,0.786-4.036,3.551-4.164
			c0.425-0.02,0.415-0.2,0.304-0.537c-0.448-1.362-1.287-2.312-2.692-2.74c-2.811-0.855-5.702,0.299-7.432,2.991
			c-0.165,0.257-0.327,0.514-0.571,0.897c-1.037-4.501-2.035-8.836-3.033-13.171c-0.036,0.003-0.072,0.005-0.108,0.007
			c-1.129,4.902-2.259,9.806-3.419,14.839c-0.948-1.015-1.961-1.802-2.236-3.128c-0.284-1.371,0.574-2.311,1.337-3.312
			c-1.329-0.731-2.641-1.032-4.01-0.314c-1.862,0.975-2.973,2.518-3.399,4.575c-0.277,1.338,0.077,2.605,0.352,3.886
			c-0.021,0.021-0.042,0.042-0.064,0.062c-0.221-0.115-0.452-0.215-0.663-0.347c-3.041-1.898-6.077-3.803-9.12-5.699
			c-0.145-0.091-0.281-0.319-0.557-0.102c2.644,4.124,5.286,8.246,7.986,12.458c-1.405-0.034-2.623,0.289-3.868,0.179
			c-1.113-0.098-1.902-0.637-2.306-1.681c-0.163-0.421-0.28-0.866-0.356-1.312c-0.055-0.316-0.128-0.476-0.466-0.312
			c-1.183,0.571-2.127,1.358-2.448,2.708c-0.571,2.404,0.4,5.028,2.408,6.514c1.375,1.018,2.965,1.486,4.611,1.808
			c0.141,0.027,0.403,0.032,0.426-0.024c0.235-0.592,0.761-0.392,1.172-0.435c1.079-0.112,2.162-0.198,3.245-0.257
			c0.365-0.02,0.499-0.175,0.497-0.498c-0.004-0.466-0.354-0.249-0.544-0.23c-1.34,0.13-2.675,0.087-4.006-0.084
			c-2.021-0.259-3.839-0.921-5.034-2.707c-0.577-0.863-0.923-1.805-0.781-2.991c1.333,1.806,3.079,2.18,5.05,1.839
			c2.238-0.388,4.365-0.433,5.895,1.773c0.159-0.347,0.229-0.622,0.389-0.828c0.516-0.666,0.284-1.176-0.171-1.789
			c-1.913-2.573-3.771-5.187-5.65-7.784c0.035-0.037,0.069-0.074,0.104-0.11c0.192,0.116,0.395,0.219,0.576,0.351
			c2.331,1.694,4.677,3.366,6.975,5.104c0.648,0.491,1.086,0.539,1.729,0c0.464-0.389,0.449-0.535,0.063-0.955
			c-1.375-1.498-2.548-3.14-3.186-5.103c-0.504-1.554-0.324-3.046,0.486-4.454c0.304-0.528,0.69-1.001,1.308-1.25
			c-0.053,0.433-0.123,0.805-0.141,1.18c-0.071,1.483,0.604,2.651,1.669,3.583c1.566,1.37,2.993,2.775,2.612,5.124
			c-0.019,0.116-0.019,0.235,0.152,0.287c0.568,0.174,1.596-0.472,1.687-1.066c0.265-1.723,0.528-3.444,0.801-5.165
			c0.293-1.848,0.597-3.692,0.932-5.762c0.098,0.45,0.158,0.669,0.192,0.892c0.524,3.343,1.042,6.687,1.573,10.028
			c0.047,0.297-0.034,0.691,0.421,0.791c0.45,0.099,0.896,0.21,1.414,0.332c0-0.45-0.028-0.806,0.004-1.155
			c0.216-2.32,0.715-4.546,2.262-6.395c1.141-1.362,3.033-1.987,4.495-1.466c-1.648,0.896-2.377,2.301-2.386,4.112
			c-0.002,0.404-0.022,0.812,0.011,1.213c0.153,1.819-0.208,3.426-1.815,4.54c-0.137,0.095-0.304,0.175-0.118,0.408
			c0.578,0.725,1.272,0.843,2.009,0.312C74.278,129.522,76.819,127.693,79.36,125.863z M64.066,167.669
			c1.237-1.164,2.405-2.161,3.681-3.023c2.894-1.955,6.007-3.297,9.565-3.345c0.473-0.006,0.526-0.202,0.523-0.592
			c-0.013-2.072-0.006-4.146-0.006-6.218c0-4.195-0.011-8.391,0.012-12.586c0.003-0.599-0.059-0.905-0.784-0.896
			c-1.057,0.013-2.114-0.145-3.172-0.184c-2.572-0.094-5.069,0.206-7.477,1.228c-1.532,0.65-2.199,1.741-2.208,3.334
			c0,0.076-0.013,0.154,0,0.229c0.113,0.637-0.295,0.651-0.725,0.579c-0.457-0.074-0.297-0.469-0.295-0.732
			c0.009-1.627-0.615-2.802-2.216-3.401c-0.851-0.318-1.691-0.651-2.579-0.851c-2.625-0.59-5.266-0.374-7.914-0.216
			c-0.807,0.048-0.949,0.313-0.945,1.057c0.032,5.914,0.018,11.828,0.019,17.742c0,1.373-0.003,1.41,1.341,1.524
			c3.314,0.285,6.226,1.584,8.925,3.449c1.213,0.838,2.317,1.812,3.496,2.879c0-2.401-0.004-4.672,0.006-6.939
			c0.001-0.277-0.187-0.696,0.409-0.668c0.551,0.025,0.333,0.421,0.335,0.661C64.073,162.968,64.066,165.237,64.066,167.669z
			 M63.677,131.386c-4.133,0.026-7.713,2.918-8.622,6.964c-0.194,0.862-0.193,0.853,0.712,0.896c2.348,0.112,4.66,0.51,6.644,1.801
			c0.998,0.65,1.602,0.605,2.575-0.014c2.021-1.286,4.348-1.702,6.724-1.78c0.569-0.019,0.804-0.139,0.667-0.785
			C71.511,134.396,67.802,131.359,63.677,131.386z M51.932,165.942c0.113,0.166,0.146,0.231,0.194,0.283
			c3.386,3.528,7.08,6.7,11.068,9.532c0.369,0.263,0.638,0.247,1.002-0.01c3.957-2.792,7.593-5.953,10.967-9.421
			c0.089-0.092,0.268-0.178,0.143-0.385c-1.938,0-3.884,0.016-5.83-0.01c-0.508-0.008-0.917,0.121-1.322,0.424
			c-1.624,1.211-3.115,2.562-4.466,4.117c-1.352-1.578-2.853-2.925-4.488-4.123c-0.279-0.205-0.543-0.42-0.943-0.416
			C56.187,165.953,54.117,165.942,51.932,165.942z M82.154,157.664c0.067-0.056,0.133-0.09,0.169-0.144
			c3.294-4.922,5.394-10.205,4.97-16.268c-0.035-0.493-0.246-0.5-0.608-0.498c-2.097,0.009-4.194-0.002-6.291,0.007
			c-1.095,0.004-0.915-0.15-0.992,0.954c-0.053,0.749,0.197,1.004,0.92,0.896c0.296-0.044,0.61,0.028,0.907-0.015
			c0.664-0.094,0.854,0.147,0.849,0.825c-0.031,4.472-0.018,8.942-0.011,13.415C82.067,157.101,81.988,157.38,82.154,157.664z
			 M45.31,157.629c0-0.271,0-0.538,0-0.808c0-4.092,0-8.185,0-12.276c0-1.925,0-1.951,1.907-1.925
			c0.61,0.009,0.828-0.177,0.741-0.765c-0.026-0.173-0.02-0.355-0.001-0.53c0.045-0.409-0.087-0.578-0.538-0.574
			c-2.273,0.021-4.547,0.019-6.82,0.001c-0.4-0.003-0.489,0.125-0.515,0.515C39.671,147.379,41.787,152.701,45.31,157.629z
			 M79.428,161.22c0.062,0.026,0.123,0.053,0.185,0.078c0.345-0.753,1.21-1.154,1.206-2.162c-0.023-4.874-0.017-9.748,0-14.621
			c0.001-0.5-0.084-0.722-0.649-0.697c-0.497,0.021-0.771,0.039-0.757,0.677c0.044,2.146,0.017,4.293,0.017,6.438
			C79.428,154.36,79.428,157.791,79.428,161.22z M47.946,161.379c0-0.343,0-0.534,0-0.726c0-5.353-0.007-10.704,0.01-16.057
			c0.001-0.55-0.078-0.773-0.722-0.795c-0.737-0.023-0.672,0.36-0.671,0.833c0.005,4.646,0.051,9.291-0.03,13.937
			C46.512,159.796,47.144,160.49,47.946,161.379z M71.054,164.731c1.741,0,3.482,0,5.224-0.002c0.172,0,0.356,0.039,0.494-0.121
			c0.452-0.523,0.907-1.047,1.468-1.692C75.557,162.869,73.232,163.464,71.054,164.731z M56.317,164.731
			c-2.188-1.258-4.507-1.887-7.158-1.797c0.49,0.568,0.867,1.006,1.242,1.444c0.184,0.215,0.37,0.364,0.696,0.36
			C52.837,164.722,54.578,164.731,56.317,164.731z"/>
		<path fill="#FEFEFD" d="M64.066,167.669c0-2.432,0.007-4.701-0.009-6.971c-0.002-0.24,0.216-0.637-0.335-0.661
			c-0.595-0.028-0.407,0.391-0.409,0.668c-0.011,2.269-0.006,4.538-0.006,6.938c-1.178-1.064-2.282-2.039-3.496-2.877
			c-2.699-1.865-5.611-3.164-8.925-3.449c-1.345-0.115-1.341-0.152-1.341-1.525c0-5.914,0.014-11.828-0.019-17.742
			c-0.004-0.743,0.139-1.009,0.945-1.057c2.648-0.158,5.29-0.374,7.914,0.216c0.888,0.199,1.729,0.532,2.579,0.851
			c1.601,0.6,2.225,1.774,2.216,3.401c-0.001,0.265-0.161,0.658,0.295,0.733c0.43,0.07,0.838,0.057,0.725-0.58
			c-0.013-0.073,0-0.151,0-0.229c0.009-1.593,0.676-2.684,2.208-3.334c2.407-1.021,4.904-1.321,7.477-1.228
			c1.058,0.039,2.115,0.196,3.172,0.184c0.725-0.009,0.787,0.298,0.784,0.896c-0.023,4.195-0.012,8.391-0.012,12.586
			c0,2.071-0.007,4.146,0.006,6.218c0.003,0.389-0.051,0.586-0.523,0.592c-3.558,0.047-6.671,1.391-9.565,3.346
			C66.471,165.508,65.303,166.505,64.066,167.669z M63.699,158.587c0.341-0.506,0.79-0.876,1.226-1.26
			c0.93-0.816,1.878-1.614,2.778-2.465c0.957-0.902,1.842-1.877,2.345-3.125c0.547-1.357,0.156-2.965-0.97-4.017
			c-0.924-0.862-2.38-1.022-3.69-0.42c-0.702,0.323-1.23,0.847-1.691,1.449c-0.26-0.286-0.479-0.567-0.738-0.806
			c-2.057-1.885-4.904-1.11-5.729,1.541c-0.372,1.193-0.035,2.238,0.611,3.229c0.895,1.371,2.116,2.436,3.325,3.512
			C62.012,156.979,62.953,157.633,63.699,158.587z"/>
		<path fill="#FBD03F" d="M85.514,119.58c-1.967,3.088-3.934,6.175-5.901,9.263c-0.406,0.637-0.812,1.273-1.276,2.002
			c0.633-0.13,1.161-0.255,1.694-0.345c2.837-0.476,5.691,1.024,6.891,3.59c0.63,1.347,0.374,2.601-0.306,3.837
			c-0.182,0.331-0.328,0.293-0.554,0.048c-0.205-0.221-0.438-0.421-0.678-0.604c-1.223-0.926-2.381-0.974-3.625-0.077
			c-0.839,0.604-1.617,1.292-2.423,1.942c-0.262,0.212-0.533,0.336-0.899,0.299c-1.105-0.111-2.215-0.182-3.322-0.271
			c-0.191-0.016-0.46,0.029-0.453-0.265c0.008-0.322,0.293-0.223,0.465-0.204c1.504,0.162,2.699-0.47,3.771-1.434
			c0.375-0.339,0.755-0.673,1.131-1.01c1.409-1.261,2.989-1.858,5.032-1.169c-1.05-1.617-2.434-2.345-4.157-2.431
			c-2.528-0.127-4.496,1.104-6.313,2.685c-0.213,0.186-0.328,0.667-0.737,0.442c-0.382-0.209-0.603-1.292-0.374-1.608
			c1.349-1.861,2.707-3.717,4.057-5.578c0.652-0.9,1.293-1.808,1.939-2.712c0.073-0.09,0.243-0.182,0.143-0.291
			c-0.062-0.066-0.195,0.072-0.258,0.174c-2.541,1.83-5.082,3.659-7.623,5.488c-0.737,0.531-1.432,0.413-2.009-0.312
			c-0.186-0.233-0.019-0.313,0.118-0.408c1.607-1.114,1.968-2.721,1.815-4.54c-0.033-0.401-0.013-0.809-0.011-1.213
			c0.008-1.812,0.738-3.216,2.386-4.112c-1.462-0.521-3.354,0.104-4.495,1.466c-1.547,1.849-2.046,4.074-2.262,6.395
			c-0.032,0.35-0.004,0.705-0.004,1.155c-0.517-0.122-0.964-0.233-1.414-0.332c-0.455-0.1-0.374-0.494-0.421-0.791
			c-0.531-3.342-1.049-6.686-1.573-10.028c-0.035-0.223-0.094-0.441-0.192-0.892c-0.335,2.069-0.639,3.914-0.932,5.762
			c-0.273,1.721-0.536,3.442-0.801,5.165c-0.091,0.595-1.119,1.24-1.687,1.066c-0.171-0.052-0.17-0.171-0.152-0.287
			c0.38-2.349-1.046-3.754-2.612-5.124c-1.065-0.932-1.741-2.1-1.669-3.583c0.018-0.375,0.087-0.747,0.141-1.18
			c-0.618,0.249-1.004,0.722-1.308,1.25c-0.81,1.408-0.991,2.9-0.486,4.454c0.638,1.963,1.811,3.604,3.186,5.104
			c0.386,0.42,0.4,0.566-0.063,0.955c-0.643,0.539-1.081,0.491-1.729,0c-2.297-1.738-4.644-3.41-6.975-5.104
			c-0.181-0.132-0.384-0.234-0.576-0.351c-0.084-0.074-0.168-0.148-0.252-0.223c-0.104,0.179,0.073,0.233,0.147,0.333
			c1.878,2.598,3.737,5.211,5.65,7.784c0.456,0.613,0.688,1.123,0.171,1.789c-0.16,0.206-0.23,0.481-0.389,0.828
			c-1.53-2.206-3.657-2.161-5.895-1.773c-1.971,0.341-3.717-0.033-5.05-1.839c-0.142,1.187,0.204,2.128,0.781,2.991
			c1.195,1.786,3.013,2.448,5.034,2.707c1.331,0.171,2.667,0.214,4.006,0.084c0.19-0.019,0.54-0.235,0.544,0.23
			c0.002,0.323-0.132,0.479-0.497,0.498c-1.083,0.059-2.166,0.145-3.245,0.257c-0.411,0.043-0.937-0.157-1.172,0.435
			c-0.023,0.057-0.285,0.052-0.426,0.024c-1.646-0.321-3.236-0.79-4.611-1.808c-2.008-1.485-2.979-4.109-2.408-6.514
			c0.321-1.35,1.265-2.137,2.448-2.708c0.338-0.163,0.412-0.004,0.466,0.312c0.077,0.445,0.193,0.891,0.356,1.312
			c0.404,1.044,1.193,1.583,2.306,1.681c1.245,0.11,2.463-0.213,3.868-0.179c-2.7-4.212-5.342-8.334-7.986-12.458
			c0.275-0.218,0.412,0.011,0.557,0.102c3.042,1.896,6.079,3.801,9.12,5.699c0.211,0.132,0.441,0.231,0.663,0.347
			c0.036,0.069,0.078,0.127,0.144,0.031c0.006-0.009-0.052-0.062-0.081-0.094c-0.275-1.28-0.629-2.548-0.352-3.886
			c0.426-2.058,1.538-3.601,3.399-4.575c1.369-0.718,2.681-0.417,4.01,0.314c-0.763,1.001-1.621,1.94-1.337,3.312
			c0.274,1.326,1.288,2.113,2.236,3.128c1.16-5.033,2.29-9.937,3.419-14.839c0.036-0.002,0.072-0.004,0.108-0.007
			c0.998,4.335,1.996,8.67,3.033,13.171c0.244-0.384,0.406-0.641,0.571-0.897c1.73-2.692,4.621-3.847,7.432-2.991
			c1.405,0.428,2.244,1.378,2.692,2.74c0.111,0.337,0.121,0.518-0.304,0.537c-2.765,0.128-3.536,1.551-3.551,4.164
			c-0.001,0.273,0,0.547,0,0.938c1.281-0.799,2.495-1.553,3.706-2.311c2.546-1.595,5.091-3.192,7.639-4.786
			c0.147-0.092,0.312-0.157,0.469-0.234C85.457,119.522,85.485,119.552,85.514,119.58z"/>
		<path fill="#FBD03F" d="M63.677,131.386c4.125-0.026,7.834,3.01,8.7,7.081c0.137,0.646-0.098,0.767-0.667,0.785
			c-2.376,0.078-4.703,0.494-6.724,1.78c-0.973,0.619-1.577,0.664-2.575,0.014c-1.984-1.291-4.296-1.688-6.644-1.801
			c-0.906-0.043-0.906-0.033-0.712-0.896C55.964,134.304,59.544,131.412,63.677,131.386z"/>
		<path fill="#FBD03F" d="M51.932,165.942c2.185,0,4.255,0.011,6.325-0.008c0.4-0.004,0.664,0.211,0.943,0.416
			c1.635,1.199,3.136,2.547,4.488,4.123c1.351-1.554,2.842-2.906,4.466-4.117c0.405-0.301,0.814-0.431,1.322-0.424
			c1.946,0.025,3.892,0.01,5.83,0.01c0.125,0.209-0.054,0.293-0.143,0.386c-3.374,3.468-7.01,6.629-10.967,9.421
			c-0.365,0.257-0.633,0.271-1.002,0.01c-3.988-2.832-7.682-6.004-11.068-9.533C52.078,166.175,52.045,166.108,51.932,165.942z"/>
		<path fill="#FBD03F" d="M82.154,157.664c-0.166-0.284-0.086-0.563-0.086-0.826c-0.006-4.472-0.02-8.942,0.011-13.415
			c0.005-0.678-0.186-0.919-0.849-0.825c-0.297,0.043-0.611-0.029-0.907,0.015c-0.723,0.109-0.973-0.146-0.92-0.896
			c0.078-1.104-0.103-0.95,0.992-0.954c2.097-0.009,4.194,0.002,6.291-0.007c0.362-0.002,0.573,0.005,0.608,0.498
			c0.424,6.062-1.676,11.347-4.97,16.267C82.287,157.574,82.221,157.608,82.154,157.664z"/>
		<path fill="#FBD03F" d="M45.31,157.629c-3.523-4.928-5.639-10.25-5.226-16.362c0.026-0.39,0.115-0.518,0.515-0.515
			c2.273,0.018,4.547,0.02,6.82-0.001c0.451-0.004,0.583,0.165,0.538,0.574c-0.019,0.175-0.025,0.357,0.001,0.53
			c0.087,0.588-0.131,0.773-0.741,0.765c-1.907-0.026-1.907,0-1.907,1.925c0,4.093,0,8.185,0,12.276
			C45.31,157.091,45.31,157.358,45.31,157.629z"/>
		<path fill="#FAF9F7" d="M79.428,161.22c0-3.429,0-6.857,0-10.287c0-2.146,0.027-4.293-0.017-6.438
			c-0.013-0.638,0.26-0.656,0.757-0.677c0.565-0.023,0.651,0.197,0.649,0.697c-0.017,4.873-0.023,9.747,0,14.621
			c0.005,1.008-0.861,1.409-1.206,2.162C79.551,161.272,79.489,161.246,79.428,161.22z"/>
		<path fill="#FAF9F7" d="M47.946,161.379c-0.802-0.889-1.434-1.583-1.413-2.808c0.081-4.646,0.035-9.29,0.03-13.937
			c-0.001-0.473-0.066-0.856,0.671-0.833c0.644,0.021,0.723,0.245,0.722,0.795c-0.017,5.353-0.01,10.704-0.01,16.057
			C47.946,160.845,47.946,161.036,47.946,161.379z"/>
		<path fill="#FAF9F7" d="M71.054,164.731c2.179-1.269,4.503-1.862,7.185-1.815c-0.561,0.646-1.016,1.169-1.468,1.692
			c-0.138,0.16-0.322,0.121-0.494,0.121C74.536,164.731,72.795,164.731,71.054,164.731z"/>
		<path fill="#FAF9F7" d="M56.317,164.731c-1.74,0-3.48-0.01-5.22,0.009c-0.326,0.004-0.513-0.146-0.696-0.36
			c-0.375-0.439-0.752-0.876-1.242-1.445C51.811,162.847,54.129,163.474,56.317,164.731z"/>
		<path fill="#FBD03F" d="M85.429,119.493c0.045-0.023,0.091-0.047,0.137-0.07c-0.018,0.053-0.035,0.104-0.053,0.157
			C85.485,119.552,85.457,119.522,85.429,119.493z"/>
		<path fill="#E71332" d="M63.699,158.587c-0.746-0.954-1.687-1.607-2.534-2.361c-1.209-1.074-2.43-2.14-3.325-3.511
			c-0.646-0.989-0.983-2.034-0.611-3.229c0.825-2.65,3.673-3.426,5.729-1.539c0.259,0.236,0.478,0.519,0.738,0.805
			c0.46-0.604,0.989-1.126,1.691-1.449c1.31-0.604,2.766-0.443,3.69,0.42c1.126,1.051,1.517,2.658,0.97,4.016
			c-0.503,1.25-1.388,2.224-2.345,3.127c-0.9,0.85-1.848,1.646-2.778,2.464C64.489,157.711,64.04,158.081,63.699,158.587z"/>
		<path fill="#592202" d="M79.36,125.863c0.063-0.102,0.197-0.24,0.258-0.174c0.1,0.109-0.07,0.201-0.143,0.291
			C79.438,125.941,79.399,125.902,79.36,125.863z"/>
		<path fill="#592202" d="M47.907,125.976c-0.075-0.1-0.251-0.154-0.147-0.333c0.084,0.074,0.168,0.148,0.252,0.223
			C47.976,125.901,47.941,125.938,47.907,125.976z"/>
		<path fill="#592202" d="M52.261,125.715c0.028,0.032,0.086,0.085,0.081,0.094c-0.066,0.096-0.108,0.038-0.144-0.031
			C52.218,125.757,52.239,125.735,52.261,125.715z"/>
	</g>
</g>
</svg>
