<?xml version="1.0" encoding="utf-8"?>
<!-- Generator: Adobe Illustrator 18.1.1, SVG Export Plug-In . SVG Version: 6.00 Build 0)  -->
<svg version="1.1" id="Layer_1" xmlns="http://www.w3.org/2000/svg" xmlns:xlink="http://www.w3.org/1999/xlink" x="0px" y="0px"
	 viewBox="0 0 1000.7 555.8" enable-background="new 0 0 1000.7 555.8" xml:space="preserve">
<g>
	<path fill="#FFFFFF" d="M16.2,4.9h169.9v58.2H85.8v41.3h85.8v58.2H85.8v46.9h104.4v58.2H16.2V4.9z"/>
	<path fill="#FFFFFF" d="M352.3,267.8L307,179.6h-26.7v88.2h-69.6V4.9h99.5c14,0,27.4,1.4,40.2,4c12.8,2.7,24,7.3,33.6,13.8
		c9.6,6.5,17.2,15.2,22.9,26.1c5.7,10.9,8.5,24.6,8.5,41.1c0,18.9-3.8,34.5-11.5,46.9c-7.7,12.4-18,22.1-30.9,29.1l57,101.9H352.3z
		 M280.3,124.6h25.1c28,0,42.1-11.6,42.1-34.8c0-11.3-3.6-19.1-10.7-23.5c-7.1-4.3-17.6-6.5-31.3-6.5h-25.1V124.6z"/>
	<path fill="#FFFFFF" d="M448.2,4.9h69.6v262.9h-69.6V4.9z"/>
	<path fill="#FFFFFF" d="M531.1,138.3c0-22.1,3.5-41.7,10.5-58.9c7-17.1,16.4-31.6,28.3-43.3c11.9-11.7,25.5-20.7,41.1-26.9
		C626.5,3.1,642.7,0,659.7,0c16.7,0,31.9,3.4,45.5,10.3c13.6,6.9,25.1,15,34.6,24.5l-38,42.9c-6.5-5.7-12.8-10-19-13.1
		c-6.2-3.1-13.6-4.7-22.2-4.7c-7.8,0-15.3,1.8-22.5,5.3c-7.1,3.5-13.3,8.5-18.6,15c-5.3,6.5-9.4,14.4-12.5,23.9
		c-3.1,9.4-4.7,20.1-4.7,32c0,24.8,5.2,43.8,15.6,57c10.4,13.2,24.1,19.8,41.1,19.8c10.2,0,19.1-2,26.5-5.9c7.4-3.9,14-9,19.6-15.2
		l38,42.1c-11.3,12.9-24.3,22.7-38.8,29.1c-14.6,6.5-29.9,9.7-46.1,9.7c-17.3,0-33.6-2.8-48.9-8.3c-15.4-5.5-28.9-13.9-40.5-25.1
		c-11.6-11.2-20.8-25.2-27.5-42.1C534.5,180.3,531.1,160.7,531.1,138.3z"/>
	<path fill="#FFFFFF" d="M39.6,470.4c9.4,7.6,19.6,13.7,30.5,18.4c10.9,4.7,21.2,7.1,30.9,7.1c10.5,0,18.1-1.6,22.9-4.9
		c4.7-3.2,7.1-7.8,7.1-13.8c0-3.2-0.8-5.9-2.4-8.1c-1.6-2.2-4-4.2-7.1-6.1c-3.1-1.9-6.8-3.7-11.1-5.5c-4.3-1.7-9.3-3.7-15-5.9
		l-32.8-13.8c-7-2.7-13.8-6.3-20.2-10.7c-6.5-4.4-12.1-9.7-17-15.8c-4.9-6.1-8.7-13-11.5-20.8c-2.8-7.8-4.2-16.4-4.2-25.9
		c0-11.3,2.4-21.9,7.3-31.8c4.9-9.8,11.6-18.5,20.2-25.9c8.6-7.4,18.9-13.3,30.9-17.6c12-4.3,25.1-6.5,39.4-6.5
		c15.1,0,30.4,2.8,45.9,8.5c15.5,5.7,29.3,14.6,41.5,26.7L160.2,362c-8.9-6.2-17.5-10.9-25.7-14.2c-8.2-3.2-17.2-4.9-26.9-4.9
		c-8.6,0-15.4,1.5-20.2,4.4c-4.9,3-7.3,7.4-7.3,13.3c0,6.2,3.4,11,10.3,14.4c6.9,3.4,16.4,7.4,28.5,11.9l32,12.5
		c16.4,6.5,29.1,15.5,38,27.1c8.9,11.6,13.3,26.6,13.3,44.9c0,11.1-2.3,21.7-6.9,32c-4.6,10.3-11.3,19.2-20,26.9
		c-8.8,7.7-19.5,13.8-32.2,18.4c-12.7,4.6-27.2,6.9-43.7,6.9c-16.7,0-33.9-3-51.6-9.1c-17.7-6.1-33.6-15.6-47.9-28.5L39.6,470.4z"/>
	<path fill="#FFFFFF" d="M210.7,288h69.6v97.9h78.5V288h69.6v262.9h-69.6V446.6h-78.5v104.4h-69.6V288z"/>
	<path fill="#FFFFFF" d="M448.2,288h169.9v58.2H517.8v41.3h85.8v58.2h-85.8v46.9h104.4v58.2H448.2V288z"/>
	<path fill="#FFFFFF" d="M642.3,288h69.6v204.7h99.5v58.2H642.3V288z"/>
	<path fill="#FFFFFF" d="M831.6,288h69.6v204.7h99.5v58.2H831.6V288z"/>
</g>
</svg>
