<svg xmlns="http://www.w3.org/2000/svg" viewBox="0 0 205.4 123.9"><style>.st0{fill:#fff}.st1{fill:#e1003b}.st2{fill:#ffcb00}</style><title>cup_1</title><path class="st0" d="M86.5 69.7h15.1l-.1 52.6-17.6-.1c-1 .2-2 .3-2.9.3-6.2 0-11.7-2.5-14.5-9.5-4 7.4-10.2 10.2-17.1 10.2-2.1 0-4.2-.3-6.1-1.1 0 .1-43.3-.1-43.3-.1l.1-50.1H21c8.1 0 15.8 6.2 15.8 16.3 0 2.7-.8 5.4-2.1 7.7 2.9-5.6 8.9-8.3 14.9-8.3 6.1 0 12.5 1.8 16.2 11.2 2.8-7 6.8-10.9 15.7-10.8 1.7 0 3.4.3 5.1.8l-.1-19.1zm89.1.3h29.9l-.1 52.4h-37.8c-2.4.9-5 1.4-7.6 1.5-4.9 0-13.3-1.7-15.7-9.6-1.8 4.2-9.2 8-12.6 8h-24.2l.1-49.9h19.6c8 0 15.6 3.9 15.6 14.1 0 1-.2 1.9-.4 2.9h33.2V70z"/><path class="st1" d="M44.1 102.3c0-3 2.4-5.4 5.4-5.4 3 0 5.4 2.4 5.4 5.4H44.1zm45.7 13.5c-2.3 2.4-5.5 3.8-8.9 3.8-7.2 0-13.2-6.5-13.2-14.4s5.9-14.4 13.2-14.4c3.3 0 6.5 1.4 8.9 3.7V72.7h8.8l-.1 46.6h-8.8l.1-3.5zM18.1 82.7h-5.6l-.1 36.4H3.1V75l15.4.1H20c7.2-.1 13.1 5.7 13.1 12.9.1 6.1-4.1 11.4-10 12.8L36 119.2H25l-9.3-14.5V94.2h2.2c3.3.1 6.1-2.4 6.3-5.7 0-3.2-2.7-5.8-5.9-5.8h-.2zm45.4 24.7c.1-.6.1-1.3.1-1.9.1-9.5-6.2-14.8-14.2-14.8-8.1 0-14.7 6.6-14.8 14.7s6.6 14.7 14.7 14.8c6.1 0 10.9-2.8 13.4-7.1l-7.1-3.3c-1 2.1-3.2 3.4-5.5 3.3-3.1.2-5.8-2.3-6-5.4 0-.2-.1-.1-.1-.3h19.5zm73-28.5c2.1 2.1 3.2 5 3.2 7.9 0 3.3-1.5 6.4-3.9 8.6 5.9 2.8 7.7 6.3 7.7 11.3 0 6.9-6.1 12.6-13.5 12.7h-19.5l.1-43.9 15.1.1c4.9 0 8.7 1 10.8 3.3zm66 40.6h-8.8l.1-46.4h8.8l-.1 46.4zm-14.9 0h-8.8l.1-46.3h8.8l-.1 46.3zm-32.3-11.2V92.5h-8.7V110c0 5.9 6.1 10.8 13.7 10.8S174 116 174 110.1V92.5h-8.7v15.9c0 2.8-2.3 5-5.1 5-2.7 0-5-2.3-4.9-5.1z"/><path class="st2" d="M73.2 31.7c.1-17.6 14.4-31.8 32-31.7s31.8 14.4 31.7 32c-.1 17.6-14.4 31.8-31.9 31.7-17.6 0-31.8-14.2-31.8-31.8v-.2z"/><path class="st0" d="M130.5 43.5c.2-.3.3-.6.5-.9.1-.3.3-.6.5-.8-.4 0-.8 0-1.2-.1-.2 0-.5 0-.7-.1.2.6.6 1.3.9 1.9zm-.4 5.8c-.4 1.4-1.6 2.5-3.1 2.6-1-.1-1.9-.3-2.8-.7-.4-.2-.9-.4-1.4-.5-.3-.1-.6-.2-.9-.2h-1.1c-.5.1-1.1.1-1.6.1-1 0-2-.3-2.8-1-1.6 1.7-3.9 2.7-6.3 2.6-.9 0-2.5-.6-2.2-1.9-2.5 0-3.6-2.1-2-3.3.3-.2.6-.4.8-.6.5-.4 1-.9 1.4-1.4 1.2-1.3 2.2-2.8 2.7-4.5.6-1.8 1.1-3.6 1.5-5.5.9-3.8 1.9-8 4.9-11.3 2.3-2.5 4.1-3.9 8.7-7.2 1.3-1 2.7-2.3 4-3.3 1.3-1 2.7-2.1 3.9-2.2 2.1-.2 5.6.5 8.3 4l.1.1.4.1c.4.1.9.3 1.4.4 1.4.3 2.7.8 3.9 1.4.7.4 1.4.9 2 1.4.2.2.5.3.8.5.2.2.5.4.8.5.3.2.7.4 1.1.3.2 0 .4.1.7.2.3 0 .6.1.9.2 1 .3 1.9.8 2.7 1.3.8.5 1.6 1.1 2.4 1.6.8.5 1.8.8 2.8 1l1.7.4c.7.2 1.3.4 2 .7 1.3.6 2.5 1.3 3.6 2 1 .6 1.9 1.2 2.7 1.8 1.3 1 2.8 1.7 4.4 1.8 1 .1 1.9-.6 2-1.6v-.2c-.1-.7-.4-1.4-.9-1.9-.3-.3-.7-.7-1-1.1s-.9-.8-1.2-1.2c-.9-.8-1.7-1.6-2.4-2.6-.7-.9-1.1-2-1.1-3.1.1-1.2.6-2.3 1.5-3.2 1.3-1.2 3-2 4.7-2.5.6-.2 1.2-.3 1.7-.5.4-.1.8-.4 1.2-.6.4-.3.8-.6 1-.8.1-.1.3-.2.5-.3.3-.1.7 0 .9.3.4.7.7 1.5.9 2.3.1.6.1 1.1.1 1.7 0 2.7-1.4 5-4.8 5.8 2.6 2.4 4.6 5.3 4.6 8 0 5.2-4.6 7.6-8.1 7.6-.2 0-.6 0-1.2-.1.2 1 .2 2.1-.1 3.2-.1.5-.2 1-.4 1.4l-.1.4c0 .2 0 .3.5.4.3.1.6.1.9.1h.5c.2.1.4.1.5.1 1.3.4 2.2 1.5 2.3 2.8.1.5.2 1 .4 1.5.1.1.1.2.2.4.6-.7 1.4-1.1 2.3-1.2 1.1 0 3.4 2 3.8 2.7.1.3.2.6.2.9v.3c.1-.6 1.2-.5 1.8.6.5.7.7 1.5.5 2.3 0 .1 0 .1.1.2s.1.4.2.6c.1.3.2.5.3.8.1.3.1.6 0 .9-.1.4-.3.8-.7 1.1-.3.2-.6.4-1 .5-.7.2-1.4.4-2.1.4-.3 0-.6-.1-.9-.3-.8.1-1.7.1-2.5.1-1.4.1-2.7-.5-3.5-1.6l-.6-.9c-.2 0-.4.1-.5.2l-.6.3c-.1 0-.2 0-.2.1-.1.1-.2.1-.3.1-1.2 0-2.4-.5-3.2-1.4-.4-.3-.9-.7-1.4-1-.5-.3-1.1-.6-1.7-.7-.5-.1-.9-.2-1.4-.3-.6-.1-1.2-.1-1.8.1-1.7.4-3.5-.1-4.9-1.2-.3-.2-.6-.4-1-.6-.4-.2-.7-.5-1-.9-.9-1.4-1.5-2.9-1.7-4.6-.7.2-1.4.3-2.1.3l-3.3-.2c-2.5 0-3.6.3-5.5.4-1.1.1-2.8 0-3.6 0-.1.1-.2.1-.2.2.4.1.7.3.8.6.1-.1.2-.1.4-.1h3.6c1-.1 1.8.6 1.9 1.6v.3c0 .7-1.2 4.1-3.6 4.5-.3 1.3-1.3 3.5-3.7 3.4-2.6-.3-5.1-.9-7.5-1.8-.2-.1-.4-.2-.6-.4-.1-.1-.2-.2-.4-.3l-.2-.2h-1.3c-.3 0-.7-.2-.9-.4-.7-.6-1.1-1.4-1.4-2.3 0-.4-.1-.6-.1-.8zm-49-8.1c-.9.1-1.8.3-2.5.5.2.6.5 1.2.9 1.7.3-.5.6-1 1-1.4.2-.3.4-.5.6-.8zm-44.1.3c-.8-1.6-1.2-3.3-1.2-5.1-7.5 1.2-11-3.7-10.7-8.1.2-3.4 1-4.7 4.8-7.7-3.7-.6-5.8-3.8-5.5-6.5 0-1.3.4-2.5 1.1-3.6l.4-.5.6.4c1.2.9 2.6 1.7 3.9 2.5.1.1.2.1.4.1.3 0 .5.1.8.1.8.1 1.5.3 2.3.5 1.6.5 3.4 1.4 3.9 3.6.5 1.6.2 3.4-.9 4.7-.5.6-1.1 1.2-1.8 1.8-.7.6-1.4 1.2-2.3 1.8-1.1.7-1.7 2-1.7 3.2.2 1.2 1.2 2 2.4 1.9 1.5 0 2.9-.8 4.6-1.9.8-.6 1.7-1.2 2.5-1.8.9-.6 1.8-1.2 2.8-1.7.7-.4 1.5-.7 2.4-.8.8-.1 1.4-.2 2-.2 1.1 0 2.1-.3 3.1-.9.4-.3.7-.6 1.1-.9.4-.4.9-.8 1.4-1.2 1.1-1 2.5-1.6 3.9-1.7.4 0 .9 0 1.3-.1s.8-.1.9-.1c.2-.1.4-.3.6-.4.2-.3.6-.6.9-.9.9-.9 2-1.6 3.2-2 1.8-.6 3.1-1 4.3-1.5 1.4-.6 2.6-1.3 3.8-2.1 1-.7 4.9-2.1 9 .7 1.2.9 2.2 1.6 3.4 2.6s2.4 2 4.3 3.6c.6.6 1.2 1.3 1.7 2l1.6 2c2 2.4 3.5 4.3 3.8 6.6.4 3.6 1.2 7.2 2.5 10.5l.1.2.3.3.3.4c.2.1.3.3.4.4.3.4.5.7.7 1.1.2.3.4.8.6 1.1.4.7 1 1.4 1.7 1.8.6.3 1.1.7 1.6 1.1.5.6.5 1.5-.1 2l-.1.1c-.4.3-.9.6-1.4.6.2 1.1-.6 2.2-2.3 2.2-2.5.1-4.9-.8-6.8-2.4l-.1.1c-.5.4-1.1.7-1.6 1-.8.3-1.7.4-2.6.3-.4-.1-.8-.1-1.2-.1h-1c-.6.2-1.3.4-2.1.7-.8.3-1.6.5-2.5.6-1.2.1-2.4-.5-2.9-1.5-.2-.2-.3-.4-.3-.6-.4.9-1 1.7-1.8 2.3-.6.2-1.2.3-1.8.4-.3.1-.6.1-.8.1h-.2c-2.4 1.1-6.3 2.6-7.8 2.6s-3.4-1.3-4.4-3.2c-.7.1-1.4-.1-2-.5-1.1-1.3-1.9-2.9-2.3-4.6 0-.6.3-1.2.9-1.4.5-.2 1-.4 1.5-.4.9-.2 1.7-.2 2.6-.2h.5c.2 0 .3 0 .5.1.1 0 .2 0 .3.1.4-.4.9-.7 1.5-.7h.3c-.3-.2-.5-.5-.8-.8-.2.1-.3.1-.5.2-.6.2-1.1.2-1.7.3-1.9 0-3.8 0-5.7-.2-.5 0-1.5.2-2.5.3-.8.2-1.6.2-2.4.2-.4.7-.7 1.4-1 2-.3.6-.6 1.2-1 1.7s-.9.9-1.5 1.2c-.3.1-.5.2-.7.3-.2.1-.3.2-.4.2-.6.4-1.2.7-1.9 1-.8.4-1.6.6-2.5.5-1.9-.3-3.2-.4-3.8-.4-.4 0-.7.1-1 .4-.2.1-.4.3-.6.5l-.7.6c-1.1 1.1-2.6 1.7-4.1 1.7-.3 0-.6-.1-.9-.1l-.6-.1c-.1.2-.3.4-.4.6-.1.2-.2.3-.3.5s-.3.4-.4.5c-.7.9-1.8 1.5-3 1.5-.1 0-.2 0-.3-.1-.1 0-.3 0-.4-.1-.3 0-.7-.1-1-.2s-.7-.2-1-.2l-.2-.2c-.1.1-.2.1-.3.2-.2.1-.4.2-.6.2-.6 0-1.2-.1-1.8-.2-.4-.1-.8-.3-1.2-.4-.4-.2-.8-.6-.9-1.1-.2-.6-.1-1.2.2-1.7.1-.2.2-.3.3-.5.1-.2.2-.3.2-.5.1-.4.1-.7.2-1.1s.2-.8.3-1.1c.3-.9 1.2-1.6 2.2-1.6h.1c.8-1.7 2.4-2.9 4.3-3 .9.2 1.6.7 2 1.5.2-.2.4-.4.6-.7 0-.1.1-.2.1-.3.1-.2.1-.3.2-.5.1-.4.3-.8.4-1.2.3-1 1.1-1.8 2.2-1.9 1 0 2-.1 2.9-.4.3-.2.5-.3.6-.4z"/><path class="st1" d="M186.4 51.1c.3.7.4 1.4.4 2.2.1.4.8.9.4 1.4l-1.8.6c-.3 0-.2-.4-.3-.6-.2-.9-.5-1.9-.8-2.8 0-.6.4-1.1.9-1.3.4 0 .9.2 1.2.5zM25 51.2v.3c-.4.9-.6 2.2-1 3.3-.7-.1-1.4-.3-2-.6-.1-.2-.1-.4 0-.6.7-.7.5-1.5.7-2.4.2-.5.5-.9 1-1.2.6.3 1 .7 1.3 1.2zm157.2-3.8c.7.5 1.4 1.1 2.1 1.8 0 .4-.1.7-.4.9-.3.3-.6.4-1 .4s-.8-.3-1.1-.6c-.5-.6-.9-1.2-1.1-1.9.3-.4.8-1.1 1.5-.6zm-153.5.4c-.4.9-1.1 1.7-1.9 2.3-.3.1-.7.1-1.1 0-.2-.2-.4-.4-.5-.7 0-.3 0-.6.2-.9.7-.4 1.4-.9 2-1.4.2-.1.4-.1.6 0 .3.2.5.4.7.7zm113.8-1c-.1.8-.3 1.5-.6 2.3-.2.5-1 .4-1.5.3-.4-.1-1.3-.2-1.4-.9 0-.7.2-1.3.6-1.8.8-.1 1.6.1 2.4-.1.2-.1.4 0 .5.2zm-72.6.7c0 .4.6.8.2 1-.6.6-1.5.8-2.3.7-.7-.5-.6-1.4-1.2-2.1-.1-.4-.9-.5-.7-1l.2-.2c.9 0 1.8-.1 2.7-.2 1 .2.7 1.3 1.1 1.8zm69.5-32.8c.9.6 1.3 1.8 2.4 2.1 1.8.3 3.6.9 5.2 1.6 1.2.6 2.3 1.4 3.2 2.4 1 .5 2.2.5 3.3.8 1.5.4 2.8 1.6 4.2 2.5 1.8 1.4 4.4 1.2 6.4 2.2 3.3 1.1 6 3.7 9 5.1 1.6.9 3.9 1.2 5.5.2 1.1-.6 1.7-1.8 1.5-3.1-.6-3.3-4.3-5.2-6.1-8-.4-.7-.5-1.5-.4-2.3.6-1.7 2.4-2.5 3.9-3.1 1.2-.5 2.6-.5 3.7-1.1.4-.2.7-.6 1-.9.3 0 .3.3.3.5.3 2 0 4-1.7 5.2-.7.4-1.5.7-2.3.9-.6.3-1.9-.3-1.9.9.2.5.6 1 1.1 1.3 2.3 1.9 4.4 4.3 4.6 7.3 0 2.3-1.4 4.4-3.5 5.3-1.6.7-3.3.8-4.9.4-.4 0-1-.5-1.4.1.1.6.2 1.2.4 1.8.2 1.2.1 2.3-.2 3.5-.2.9-1 1.8-.2 2.7.8 1.1 2.2.8 3.5 1 .6.3 1 .8 1 1.4.2.6.3 1.4.5 1.9 0 1.2 1.4 1.7 2.1 2.5s1.5 2.5 3 2.4c.4 1 .7 2 .9 3.1l-.2.2c-1.2 0-2.7.3-3.6-.5-1-.7-1.3-2.5-2.8-2-.7.5-1.5.7-2.3.3-.7-.3-1.3-.8-1.9-1.3-2-1.5-4.7-2.1-7.2-1.7-1.5.4-2.6-.6-3.8-1.3-1.5-.7-2-2.3-2.3-3.7l-.3-1.8c0-.2.1-.3.3-.4h.2c1.1 2.6 2.2 4.2 4.8 5 2.2.9 4.1-.2 6.1.2 2.1.4 3.7 1.6 5.3 2.8.1 0 .3-.1.3-.2v-.1c-1.9-2.4-4.5-4-7.5-3.8-2.5.6-5.1-.4-6.5-2.5-.8-1.1-1.4-2.3-1.6-3.6-.2-1.7-.6-3.3-1.1-4.9-.2-.2-.4-.2-.7-.2l-.3.3c.3 1.6 1 3.5.5 5.2-.5 1.2-1.7 1.9-3 1.9-1.3.1-2.4-.1-3.7-.1-3-.1-5.4.8-8.5.4.2-.7.7-1.3.5-2.1-.2-.2-.4-.2-.7-.1-.6.3-.5 1.1-.8 1.6-.7 1.1-1.8 1.9-3.1 2.2-.9.7-1.7 1.5-2.4 2.4-.3.3-.4.7-.2 1.1.6 1.5 2.3 1.7 3.6 2 .7.1 1.3-.2 1.6-.8.6-.9.7-2.4 2-2.5h2.9c.2.1.4.2.5.4l-.1.4c-.6.8-.9 1.8-1.7 2.3-.5.2-1.1 0-1.4.4 0 1-.5 2-1.3 2.6-.7.6-1.8.3-2.6.1-1.5-.6-3.2-.9-4.7-1.4-.7-.2-1-1-1.6-1.2s-1.4.4-1.9-.2c-.3-.7-.6-1.4-.7-2.1-.3-.5-.4-1-.5-1.6-.1-.4 0-.9.2-1.3l2.1-3.8.6-.6c.5.1 1 .4 1.5.6l-.1.3-2.2 3.4c-.3 1.1-.1 2.2.5 3.2.1.1.2.3.2.2-.1-.7-.1-1.3 0-2 .2-.7.5-1.3.9-1.9l1.8-2.6c.2-.5.1-1-.1-1.5-.8-.8-1.9-1-2.5-2-1.4-1.9-1.1-4.1-1.3-6.5-.1-.2-.2-.4-.5-.5-.2 0-.5.1-.6.3-.3 1.6-.3 3.3.2 4.8.3 1.1.7 2.1 1.2 3.1.1.2 0 .4-.2.4h-.1c-1.1.1-2.3 0-3.4-.1-1.5-.2-2.6-1.4-3.8-2.3-.1-.1-.3.1-.4.2.3 1.6 2.2 2.6 2.8 4.2.4 1.2 1.5 2.2 1.8 3.5 0 .2-.2.4-.3.5-.4-.1-.8 0-1.2.1-.1.7.4 1.4.1 2.2-.3.7-1 1.2-1.8 1.4-1.4-.5-2.9-1.2-4.4-1.6-1.1 0-2.2 0-3.2.2-.9-.4-1.7-.9-2.4-1.6-.2-.1-.5-.1-.6.1-1.7 1.7-3.5 3.5-5.9 3.3-.1 0-.3-.2-.3-.3V50c1.2-.8 2.2-2 2.9-3.3.3-1.2 1.4-2 1.7-3.1.1-.2-.1-.3-.2-.3l-.3.2c-1.1 1.2-2.1 2.6-3 4-.9 1-2.3 1.4-3.6 1.1-.2-.1-.2-.3-.1-.5 5.1-3.2 5.7-8.7 7.1-13.8 1-3.4 1.7-6.9 4.4-9.6 4-4.3 8.9-6.9 13.2-10.7.6-.6 1.3-1 2.2-1.2 2.1-.1 3.9.6 5.4 1.9zm-109.5-.3c1.9.5 4.1.6 5.6 2.1.8 1.1.9 2.5.3 3.7-1.1 2-3.4 3-4.8 4.7-1.4 1.2-1.9 3-1.5 4.8.5 1.6 2 2.6 3.6 2.7 2.4.1 4.3-1.1 6.2-2.3 2-1.4 3.8-3.2 6.1-3.8 1.4-.6 3.2-.2 4.6-.8 1.6-.3 2.8-1.7 4-2.8 1.4-1.2 3.1-1.8 4.9-1.8 1.6.3 2.6-1.2 3.7-2.2 1.9-1.7 4.4-1.9 6.6-2.9 1.5-.7 2.9-1.5 4.3-2.4 1.5-.6 3.2-.7 4.7-.1 1 .4 1.9.8 2.7 1.4l6.7 5.6c.2.2.3.4.6.5 2 2.2 3.8 4.6 5.4 7.1.5.9.8 1.8 1 2.8.4 3.6 1.2 7.1 2.6 10.4.3.5 1 .8 1.3 1.4 1 1.5 1.7 3.3 3.4 4.3l1 .5v.3l-.2.2c-2.1.3-3.6-1-4.7-2.5-.6-1.4-1.6-2.6-3-3.3-.1 0-.2.1-.2.1.2.4.6.8.9 1.3.6.9 1 1.8 1.4 2.8.3 1.1 1.5 1.9 2.4 2.4l1.4.7c.2.1.2.3.1.5v.1l-.2.1c-2.1.1-4.2-.7-5.7-2.3-.3-.5-.8-.7-1.4-.8-.9 1-2 1.6-3.3 1.9-1.4-.3-2.8-.2-4.1.3-1.1.5-2.3.8-3.5.9-.6 0-1.2-.3-1.5-.9 0-.7-.5-1.6-.1-2.3l.8-1.2c0-.2-.1-.3-.3-.3-.4-.1-.9.6-1.1-.1.1-1.3 1.3-2 2.2-2.9.1-1 .6-1.9 1.3-2.7 0-.1-.1-.2-.2-.3-1.1.2-2.2.4-3.3.4-.9.6-2 .7-3.1.5-.2-.1-.2-.4-.1-.6 1.1-1.6 1.6-3.5 1.3-5.5-.1-.1-.3-.3-.4-.3-.2 0-.4.2-.4.4-.2 1.7-.7 3.3-1.4 4.7-.7.8-1.9.7-2.8 1-.3.1-.5.3-.5.6.1.6.3 1.1.7 1.6l2.2 4c-.1 1.1-.3 2.1-.7 3.1.1.1.2.1.3.1l.1-.1c.8-.7 1.3-1.6 1.6-2.6 0-.4 0-.9-.2-1.2L75 41c.2-.2.5-.3.8-.3.5 0 1 .2 1.4.4.4 1.4 1.1 2.7 2 3.9.4.7.4 1.6 0 2.4-.5 1-1 1.9-1.6 2.7-.6.4-1.4.7-2.2.6h-.7c-1.9 1-4 1.8-6.1 2.3-.9.4-2 .2-2.8-.5-.6-.6-1.2-1.3-1.6-2.1-.6-.7-1.5-.1-2.1-.5-.5-.9-1.1-1.8-1.6-2.8-.1-.2 0-.5.2-.7.8-.2 1.6-.3 2.3-.4.8-.1 1.5.2 2.1.7 1 1.2 1.3 2.7 2.9 3.5 1.1 0 2.2-.2 3.1-.8.7-.3 1.1-.9 1.2-1.6-.2-1.4-1-2.7-2.2-3.4-1.3-.7-2.5-1.6-3.5-2.7-.4-.6-.7-1.3-.9-2.1-.2-.2-.4-.2-.7-.1-.5.5-.1.8 0 1.2.1.4 0 .8-.2 1.1-.7.5-1.4.4-2.3.4-1.8-.2-3.5-.2-5.3-.2-1.8.1-4.3 1.1-5.7-.7-.6-1.7-.1-3.8.2-5.5-.1-.2-.3-.4-.5-.4-.2-.1-.5 0-.6.2-.5 1.7-.6 3.6-1 5.4-.7 1.6-1.9 2.9-3.4 3.7-1.5.7-3.1 1.1-4.8 1.1-3.1 0-6 .7-8 3.3-.2.4-.3.8-.3 1.2.1.1.3.1.5.1 2-2.3 5-3.5 8-3.2 4.1 0 5.8-.3 7.8-3.1.4-.5.8-1.2 1.2-1.7.3.1.6.3.8.6.1.9-.6 1.5-.9 2.2-.3.9-.9 1.7-1.7 2.2-1 .3-1.9.8-2.7 1.4-1 .5-2.1.6-3.1.3-1.4-.3-3.2-.6-4.5 0-.7.4-1.2 1.2-1.8 1.6-1 .4-1.7 1.1-2.8 1.1-.7-.1-1.7-.6-2.3 0-.8.8-1 2-2.1 2.5-1.2.7-2.5 0-3.8-.2.1-1.2.5-2.3 1.2-3.3.5 0 .9-.2 1.2-.5.5-.4.9-1 1.2-1.5 1-.7 2.3-1.2 2.9-2.3.5-1.1.5-2.1 1.4-3l.4-.3 2.2-.1c.9-.4 1.8-.9 2.6-1.5.2-.3.3-.6.3-1-.4-1-.7-2-1-3-.2-1.2-.2-2.4-.2-3.6-.1-.2-.2-.3-.4-.3-1.5.4-3 .6-4.5.5-2.3-.2-4.4-1.7-5.3-3.9-.8-2-.5-4.4.8-6.1 1.4-1.5 2.9-3 4.6-4.2.2-.2.3-.5.3-.8 0-.3-.3-.6-.6-.8-1-.2-2.1.1-3.1-.3-1.7-.6-3-2.2-3.3-4-.1-.7.1-1.5.5-2.1.8 1.3 1.9 1.9 3 2.4z"/><path class="st0" d="M79.6 27.1c-.1.2-.3.2-.4.1l-.1-.1c-.2-1.2-.5-2.3-.9-3.4-.1-.2-.2-.3-.3-.4l-.3-.5c-.3-.4-.3-.8-.1-1.2v-.1c.2-.2.6-.3.9-.2l.1.1c.4.3.8.8 1 1.3.5 1.4.6 2.9.1 4.4zm14.3 11c-.1.1-.1.1-.1.2v.2c-.1.2-.2.4-.4.4-.2.1-.5-.1-.5-.3v-.1c0-.4 0-.8-.1-1.1-.1-.4-.2-.7-.4-1L92 36c-.1-.2-.3-.3-.4-.5-.2-.3-.5-.4-.9-.5-.3.1-.5.3-.7.5-.1.1-.2.2-.3.4l-.2.3c-.1.1-.3.2-.4.1H89c-.1-.4-.1-.9.1-1.3.2-.3.4-.7.5-1v-.1c.1-.1.2-.2.2-.4.1-.2.1-.4.2-.6.1-.4.6-.7 1.1-.5.1 0 .1 0 .2.1.4.2.7.5.9.9.1.1.2.3.3.5.1.1.2.3.3.4.9.9 1.4 2.4 1.1 3.8zm-3.5 7.7c-.6.2-1.2.3-1.8.2 0 0-.1 0-.1-.1-.1 0-.1 0-.1-.1-.1-.1-.2-.3-.1-.4.3-.9 1.1-1.6 2-1.8h.3c.2.1.3.2.4.4.1.7-.1 1.4-.6 1.8zm44.5-25.3c0 .1-.1.2-.1.2l-.1.2c-.6.6-1.2 1.2-1.8 1.7-.6.5-1.1 1.2-1.6 1.8-.3.4-.6.9-.8 1.4-.1.1-.2.2-.4.2h-.1c-.1-.4-.1-.7 0-1.1.1-.4.2-.7.3-1.1.7-1.7 1.9-3.1 3.3-4.2.4-.3 1-.2 1.4.2 0 .3 0 .5-.1.7zm-11.5 15.7c0 .1.1.2.1.3-.1.1-.1.2-.1.3l-.3.3c-.1.1-.3.1-.4 0-.2 0-.3-.1-.4-.3-.1-.1-.1-.1-.1-.2l-.1-.2c-.1-.2-.3-.3-.5-.3s-.4.1-.6.2c-.1.1-.2.1-.3.2-.1 0-.2.1-.3.2-.2.2-.4.3-.6.5-.2.2-.4.3-.6.5-.3.3-.6.7-.7 1.2 0 .1-.1.2-.1.3v.3c0 .2-.2.5-.4.6-.3.1-.6 0-.7-.3v-.1c-.1-1.3.3-2.6 1.3-3.6.4-.4.8-.8 1.1-1.3.4-.5.8-1 1.1-1.4l.1-.1c.5 0 .9.2 1.1.6.6.8 1 1.6 1.4 2.3zm-.7 9.4c.1.2.1.5 0 .7v.1c-.2.1-.5.2-.8.2-.3 0-.5 0-.8-.1-.5-.4-.8-1-.8-1.6 0-.2.1-.4.2-.6h.1c.7-.1 1.3.2 1.7.7.2.2.3.4.4.6zm-45.8 59.9c0-3.9 2.9-7.1 6.5-7.1 3.7.2 6.6 3.4 6.4 7.1 0 3.9-2.9 7-6.4 7-3.7-.2-6.6-3.3-6.5-7zm51.5 6.2H120V83.1h5.9c2.6-.1 4.8 1.9 4.9 4.4.1 2.6-1.9 4.8-4.4 4.9h-3.5v7.9l5.6.1c3.1 0 5.7 2.5 5.7 5.7-.2 3.1-2.7 5.6-5.8 5.6z"/></svg>