<svg xmlns="http://www.w3.org/2000/svg" viewBox="0 0 608 280"><path d="M14 265.4c-3 1.2-4.7-.3-3.7-3.4l8.5-27.5c1-3.1 1.5-8.3 1.1-11.5L1.7 49.6c-.3-3.2 2-6.1 5.3-6.3L600.2 3.5c3.2-.2 5.7 2.3 5.4 5.5l-24.1 262.5c-.3 3.2-3.2 5.7-6.5 5.5L71 244.6c-3.2-.2-8.4.6-11.4 1.9L14 265.4zm271.9-145c-6.7 0-12 2.1-15.9 6.1V98.3h-12.6v58.8c0 8.6 2.6 15.7 7.7 21s12.1 8 20.9 8 15.9-2.7 21-8 7.7-12.4 7.7-21V150c-.1-19.6-9.7-29.6-28.8-29.6zm0 12.3c5.3 0 9.3 1.3 12 4s4.1 7.2 4.1 13.4v7.1c0 5.2-1.4 9.2-4.3 12.3-2.9 3-6.7 4.5-11.8 4.5-5 0-9-1.5-11.7-4.5-2.8-3-4.2-7.1-4.2-12.3V150c0-6.2 1.4-10.7 4-13.4 2.7-2.6 6.7-3.9 11.9-3.9zm91.5 1.8h-39.9V98.1h-13v87.3h13v-38.2h39.9v38.2h13.1V98.1h-13.1v36.4zm111.9-14.1c-6.7 0-12 2.1-15.9 6.1V98.3h-12.6v58.8c0 8.6 2.6 15.7 7.7 21s12.1 8 20.9 8 15.9-2.7 21-8 7.7-12.4 7.7-21V150c-.1-19.6-9.8-29.6-28.8-29.6zm0 12.3c5.3 0 9.3 1.3 12 4s4.1 7.2 4.1 13.4v7.1c0 5.1-1.4 9.3-4.3 12.3-2.8 3-6.8 4.5-11.8 4.5s-9-1.5-11.7-4.5c-2.8-3.1-4.2-7.1-4.2-12.3V150c0-6.2 1.4-10.7 4-13.4 2.7-2.6 6.7-3.9 11.9-3.9zM235 156.5c0 6.5-1 11.2-2.9 13.7-1.8 2.4-5 3.7-9.7 3.7h-.4c-4.6 0-7.9-1.3-9.7-3.7-1.9-2.6-2.9-7.2-2.9-13.7v-34.4H197v34.4c0 10.5 1.9 18.2 5.8 22.7 3.7 4.4 9.7 6.7 17.9 6.9h2.9c8.2-.2 14.2-2.5 17.9-6.9 3.8-4.6 5.8-12.2 5.8-22.7v-34.4H235v34.4zm203.4 0c0 6.5-1 11.1-2.9 13.7-1.8 2.4-5 3.7-9.6 3.7h-.6c-4.6 0-7.9-1.3-9.7-3.7-1.9-2.6-2.9-7.2-2.9-13.7v-34.4h-12.4v34.4c0 10.5 1.9 18.2 5.8 22.7 3.7 4.4 9.7 6.7 17.9 6.9h3c8.2-.2 14.2-2.5 17.9-6.9 3.8-4.5 5.8-12.2 5.8-22.7v-34.4h-12.4v34.4h.1zm-303.6-18.4L104.5 128c-2-.7-3.6-1.6-4.8-2.8-1.1-1.1-1.7-2.2-1.7-3.4v-2c0-7.1 5.9-10.7 18-10.9h1.1c12.1 0 18.3 3.2 19 9.7l.1 1h13v-1.1c-.6-14.8-11.4-22.4-32.1-22.4h-1.3c-20.3.2-30.5 8.2-30.5 23.7v2c0 4.3 1.4 8.1 4 11.3 2.6 3.1 6.5 5.5 11.4 7.1l30 10.1c5.1 1.7 7.6 4.5 7.6 8.7v1.8c0 3.7-1.8 6.5-5.5 8.7-3.8 2.2-9.2 3.4-16 3.4s-12.1-1.1-15.8-3.4c-3.6-2.2-5.3-5-5.3-8.7v-1.3H82.8v1.3c0 7.6 3.1 13.7 9.1 18.2 6 4.4 14.3 6.7 24.9 6.7 10.7 0 19.2-2.2 25.1-6.7 6.1-4.5 9.1-10.6 9.1-18.2V159c0-5.1-1.5-9.5-4.4-13.1-2.9-3.5-6.9-6.2-11.8-7.8zm43 31.5c-2.8-3-4.2-7.1-4.2-12.3v-22.4h13.5v-12.8h-13.5V98.3H161v59c0 8.6 2.6 15.7 7.7 21 4.4 4.5 10.2 7.2 17.2 7.8l1.2.1V174l-.9-.1c-3.5-.6-6.2-2-8.4-4.3zm337.1-51h1.6v4.6h.8v-4.6h1.6v-.6h-4v.6zm7.3 3.1l-1.4-3.7h-1.2v5.2h.7v-4.3l1.7 4.3h.5l1.6-4.3v4.3h.8V118h-1.3l-1.4 3.7z"/></svg>