<svg xmlns="http://www.w3.org/2000/svg" viewBox="-374 273 89.1 21"><title>Logo</title><g fill="#318DDE"><path d="M-297 273.9c-2.6 5-7.4 11-13.8 14.5.4.8.8 1.6 1.4 2.2 5.4-3.7 10.5-10 13.3-16.2-.2-.1-.5-.3-.9-.5z"/><path d="M-297.2 273.8c-1.3-.6-2.8-.9-4.4-.9-5.9 0-10.1 4.6-10.1 10.6 0 1 .1 2 .3 2.9 6.1-2.5 11.5-7.9 14.2-12.6M-307.7 292.2c1.6 1.1 3.7 1.8 6 1.8 5.9 0 10.1-4.6 10.1-10.6 0-4-1.7-7.1-4.3-8.8-3.1 7.5-6.9 13-11.8 17.6z"/></g><path fill="#318DDE" d="M-287.8 279.5c1.6 0 2.9-1.3 2.9-2.9 0-1.6-1.3-2.9-2.9-2.9-1.6 0-2.9 1.3-2.9 2.9 0 1.6 1.3 2.9 2.9 2.9zm0-.3c-1.5 0-2.6-1.2-2.6-2.6 0-1.4 1.1-2.6 2.6-2.6s2.6 1.2 2.6 2.6c0 1.4-1.1 2.6-2.6 2.6zm-1.1-1.2h.6v-1h.6l.7 1h.7l-.8-1.1c.4-.1.7-.4.7-.9 0-.6-.5-.9-1.1-.9h-1.3v2.9zm.5-1.5v-1h.7c.4 0 .6.2.6.5s-.2.5-.6.5h-.7zM-367.4 293.7h2.2v-17.6h6.6v-2H-374v2h6.6v17.6zm11.7 0h2.2v-19.6h-2.2v19.6zm6.6 0h8.7c4.3 0 7.1-2 7.1-5.3v-.1c0-2.7-1.9-4-4.2-4.7 1.5-.7 3.1-2 3.1-4.5v-.1c0-1.3-.4-2.3-1.3-3.1-1.1-1.1-2.9-1.7-5.1-1.7h-8.3v19.5zm12.5-14.4c0 2.3-1.8 3.5-4.5 3.5h-5.8v-6.7h6c2.7 0 4.3 1.2 4.3 3.2zm1.1 8.8c0 2.2-1.8 3.6-4.8 3.6h-6.6v-6.9h6.2c3.4 0 5.2 1.2 5.2 3.3zm14.2 5.9c3.6 0 5.8-1.4 7.8-3.4l-1.5-1.4c-1.9 1.8-3.6 2.8-6.3 2.8-4.3 0-7.6-3.6-7.6-8.1v-.1c0-4.5 3.2-8 7.6-8 2.7 0 4.5 1.1 6.2 2.7l1.5-1.6c-2-1.8-4.1-3.1-7.6-3.1-5.8 0-9.9 4.6-9.9 10.1v.1c-.1 5.5 4.1 10 9.8 10z"/></svg>