<svg xmlns="http://www.w3.org/2000/svg" viewBox="0 0 89.1 21"><style>.st0{fill:#318dde}</style><title>Logo</title><path class="st0" d="M77 .9c-2.6 5-7.4 11-13.8 14.5.4.8.8 1.6 1.4 2.2 5.4-3.7 10.5-10 13.3-16.2-.2-.1-.5-.2-.9-.5z"/><path class="st0" d="M76.8.8C75.5.2 74-.1 72.4-.1c-5.9 0-10.1 4.6-10.1 10.6 0 1 .1 2 .3 2.9C68.7 10.9 74.1 5.6 76.8.8M66.3 19.2c1.6 1.1 3.7 1.8 6 1.8 5.9 0 10.1-4.6 10.1-10.6 0-4-1.7-7.1-4.3-8.8-3.1 7.5-6.9 13-11.8 17.6zM86.2 6.6c1.6 0 2.9-1.3 2.9-2.9S87.8.8 86.2.8s-2.9 1.3-2.9 2.9 1.3 2.9 2.9 2.9zm0-.3c-1.5 0-2.6-1.2-2.6-2.6s1.1-2.6 2.6-2.6 2.6 1.2 2.6 2.6-1.1 2.6-2.6 2.6zm-1.1-1.2h.6v-1h.6l.7 1h.7L86.9 4c.4-.1.7-.4.7-.9 0-.6-.5-.9-1.1-.9h-1.3v2.9h-.1zm.5-1.5v-1h.7c.4 0 .6.2.6.5s-.2.5-.6.5h-.7zm-79 17.2h2.2V3.2h6.6v-2H0v2h6.6v17.6zm11.7 0h2.2V1.2h-2.2v19.6zm6.6 0h8.7c4.3 0 7.1-2 7.1-5.3v-.1c0-2.7-1.9-4-4.2-4.7 1.5-.7 3.1-2 3.1-4.5v-.1c0-1.3-.4-2.3-1.3-3.1-1.1-1.1-2.9-1.7-5.1-1.7h-8.3v19.5zM37.4 6.4c0 2.3-1.8 3.5-4.5 3.5h-5.8V3.2h6c2.7 0 4.3 1.2 4.3 3.2zm1.1 8.8c0 2.2-1.8 3.6-4.8 3.6h-6.6v-6.9h6.2c3.4 0 5.2 1.2 5.2 3.3zm14.2 5.9c3.6 0 5.8-1.4 7.8-3.4L59 16.3c-1.9 1.8-3.6 2.8-6.3 2.8-4.3 0-7.6-3.6-7.6-8.1v-.1c0-4.5 3.2-8 7.6-8 2.7 0 4.5 1.1 6.2 2.7L60.4 4c-2-1.8-4.1-3.1-7.6-3.1-5.8 0-9.9 4.6-9.9 10.1v.1c-.1 5.5 4.1 10 9.8 10z"/></svg>