<svg xmlns="http://www.w3.org/2000/svg" viewBox="0 0 2500 898"><style>.st0{fill:#fff}</style><g id="Layer_1_1_"><path class="st0" d="M130.6 1.1v896.7H0L128 .2l2.6.9m41.3 279.1l-13 237h-4.3l-13-237h30.3"/><path class="st0" d="M92.9 280.2l-13 237h-4.3l-13-237h30.3m30.8 617.6h132.4l-2.6-17.4H124.6l-.9 17.4m-6.1-41.2H250l-2.6-17.4H118.5l-.9 17.4m-5.2-41.3h132.4l-2.6-17.4H113.3l-.9 17.4m-6.1-41.2h132.4l-2.6-17.4H107.2l-.9 17.4m-6.5-40.4h132.4l-2.6-17.4H100.7l-.9 17.4m-5.2-41.2H227l-2.6-17.4H95.5l-.9 17.4m-6.1-41.2h132.4l-2.6-17.4H89.4l-.9 17.4m-6-41.3h132.4l-2.6-17.4h-129l-.8 17.4m-5.2-41.2h132.4l-2.6-17.4h-129l-.8 17.4"/><path class="st0" d="M71.2 527.6h132.4l-2.6-17.4H72l-.8 17.4m45.1-41.3h38.2l-.9-17.4h-37.3v17.4m-.8-41.2h38.2l-.9-17.4h-37.3v17.4M115 403h38.2l-.9-17.4H115V403m-.9-40.4h38.2l-.9-17.4h-37.3v17.4m0-41.2h38.2l-.9-17.4h-37.3v17.4m63 164.9h20l-2.6-17.4H178l-.9 17.4m2.6-41.2h12.2l-2.6-17.4h-8.7l-.9 17.4m425.8 244.8H596c-.9-19.5 0-32.6-28.6-32.6h-54.7v201c0 25.2 13.5 25.6 32.6 26v9.5c-17.4 0-32.6-.9-48.6-.9-17.4 0-34.3.4-52.1.9v-9.5c19.1-.4 32.6-.9 32.6-26v-201h-46.4c-32.1 0-33.9 9.1-39.9 32.6h-9.5l3.9-57.3h7.4c3.9 9.5 13.5 10 22.6 10h163.2c13 0 22.1-3 23.4-10h7.4l-3.8 57.3"/><path class="st0" d="M642.8 714.2c-6.9 0-11.3.9-16.1 1.7v79c3.9.9 9.5 1.3 14.3 1.3 33 0 46-21.7 46-41.2.1-23.4-12.1-40.8-44.2-40.8zm-16.1 90.7v62.5c0 19.1 10.4 19.1 24.3 19.5v6.9c-13 0-24.3-.4-36.5-.4-13 0-25.6.4-39.1.4v-6.9c13.5.9 24.7-2.6 24.7-18.2V732c0-18.7-10.4-19.1-24.7-19.5v-6.9c14.8.4 27.8.4 40.8.4 9.5 0 19.1-.4 36-.4 50.8 0 62.1 28.6 62.1 47.7 0 23-17.4 39.9-38.2 46 24.3 36 37.3 57.3 49 70.3 8.7 9.5 16.9 16.9 30.4 16.9v6.9c-6.9 0-13.5-.4-20.4-.4-7.4 0-15.2.4-23 .4-24.7-26.9-42.5-58.6-62.1-89h-23.4"/><path class="st0" d="M788.6 811.8h55.6l-28.6-79.4h-.4l-26.6 79.4zm92 28.3c3.9 10.4 10.9 33.4 15.2 39.5 3.9 5.2 12.2 7.4 20.8 7.4v6.9c-10.4 0-20.8-.4-30.8-.4-13 0-26 .4-39.5.4V887h4.8c6.9 0 14.8-1.3 14.8-9.1 0-3-2.2-10.4-3.9-15.6l-13.5-39.1h-63.4l-6.1 18.7c-3.5 11.3-7.4 23.9-7.4 32.1 0 12.6 9.1 12.2 18.2 12.6h6.1v6.9c-10.4 0-21.3-.4-31.7-.4-10.9 0-21.7.4-32.6.4v-6.9c16.5-1.7 19.5-3.9 26-19.1 4.3-9.5 7.4-20.4 10.9-30.4l34.7-96.4c2.2-6.1 5.6-16.1 5.6-24.3 0-2.6 0-4.8-.4-6.9 5.6-2.6 11.7-5.6 15.6-11.7h4.8l51.8 142.3"/><path class="st0" d="M1103.3 896h-6.1l-141-154.9v100.7c0 37.3 3 44.7 32.1 44.7v6.9c-11.7 0-23.9-.4-36-.4-11.7 0-23.9.4-36 .4v-6.9c16.5 0 28.6 0 28.6-34.3V743.7c0-23-10-31.7-33-31.7v-6.9c8.2.4 16.5.4 24.7.4 7.4 0 14.8-.4 22.1-.4 10.9 16.5 36 40.8 66.8 75.1 23 25.2 48.2 52.1 66.4 72V745c0-24.7-5.6-32.6-32.6-32.6v-6.9c12.6.4 25.2.4 37.3.4 10.4 0 20.8-.4 31.2-.4v6.9c-16.5 0-25.2 1.3-25.2 27.8V896m36.7-46.8h6.1c4.8 20.4 19.5 39.9 42.1 39.9 20.8 0 36.9-14.8 36.9-36 0-49.9-79.9-35.2-79.9-99 0-34.7 24.7-53 57.7-53 10.9 0 22.1 2.6 33 3.9l4.3 34.3h-6.1c-3-18.7-15.2-29.9-34.7-29.9-20.4 0-32.6 14.8-32.6 34.7 0 50.3 82.9 36.5 82.9 98.5 0 35.2-31.7 54.7-63.4 54.7-13.9 0-28.6-3-41.2-9.1l-5.1-39m170.6-37.4h55.6l-28.6-79.4h-.4l-26.6 79.4zm92 28.3c3.9 10.4 10.9 33.4 15.2 39.5 3.9 5.2 12.2 7.4 20.8 7.4v6.9c-10.4 0-20.8-.4-30.8-.4-13.5 0-26 .4-39.5.4V887h4.8c6.9 0 14.8-1.3 14.8-9.1 0-3-2.2-10.4-3.9-15.6l-13.5-39.1h-63.4l-6.1 18.7c-3.5 11.3-7.4 23.9-7.4 32.1 0 12.6 8.7 12.2 18.2 12.6h6.1v6.9c-10.4 0-21.3-.4-31.7-.4-10.9 0-21.7.4-32.6.4v-6.9c16.5-1.7 19.5-3.9 26-19.1 4.3-9.5 7.4-20.4 10.9-30.4l34.7-96.4c2.2-6.1 5.6-16.1 5.6-24.3 0-2.6 0-4.8-.4-6.9 5.6-2.6 11.7-5.6 15.6-11.7h4.8l51.8 142.3"/><path class="st0" d="M1565.1 857c24.3-50.3 50.3-99.8 72.9-151 7.4.4 14.8.4 22.1.4 7.8 0 16.1-.4 23.9-.4v6.9c-9.1 0-15.2.4-18.7 3s-5.2 7.4-5.2 16.1c0 42.5 2.6 88.1 3.5 128.5.4 20.4 2.6 26 29.5 26v6.9c-14.8 0-29.5-.4-44.7-.4-13 0-26 .4-39.5.4v-6.9c9.5 0 16.1 0 20.8-2.6s6.9-7.8 6.9-18.2l-1.7-128.5h-.4l-63.8 131.9c-3 6.5-8.2 19.5-10.4 26.9h-5.2c-23-51.6-48.6-102-74.2-152.8h-.4l-2.2 97.7c0 3.5-.4 13-.4 16.9 0 13 1.3 20.4 5.6 24.3 4.3 3.9 11.3 4.8 21.7 4.8v6.9c-11.3 0-22.6-.4-33.4-.4-11.7 0-23.9.4-36 .4v-6.9c19.1 0 30.8-4.8 32.1-40.8.9-36.9 3-73.8 3-110.7 0-9.5-1.3-15.6-5.2-18.7-3.9-3-9.5-4.3-18.7-4.3v-6.9c9.5.4 19.1.4 28.6.4 5.6 0 11.7-.4 17.4-.4l72.1 151.5m194.4-66.4h35.6c21.7 0 21.7-16.9 22.6-23h5.2c-.4 6.1-1.3 20.4-1.3 30.4 0 8.7 1.3 21.3 1.3 29.9h-5.2c0-26-8.7-26-29.5-26h-28.6v46c0 29.9.9 37.3 27.8 37.3h16.5c26.5-1.3 38.2-4.8 48.6-33.9l6.5.9c-4.3 13.5-8.2 27.3-10.9 41.2-26.9 0-53.8-.4-80.7-.4-20 0-39.9 0-59.9.4v-6.9c23.4 0 25.6-4.3 25.6-30.4V736.3c0-22.1-4.3-23-25.6-23.9v-6.9c18.2.4 36.5.4 54.7.4 26 0 51.6 0 77.7-.4v40.4l-5.2 1.3c-3.9-25.2-16.1-33-43-33H1760v76.4m178.8-76.4c-6.9 0-11.3.9-16.1 1.7v79c3.9.9 9.5 1.3 14.3 1.3 33 0 46-21.7 46-41.2.1-23.4-12.1-40.8-44.2-40.8zm-16.1 90.7v62.5c0 19.1 10.4 19.1 24.7 19.5v6.9c-13 0-24.7-.4-36.5-.4-13 0-25.6.4-39.1.4v-6.9c13.5.9 24.7-2.6 24.7-18.2V732c0-18.7-10.4-19.1-24.7-19.5v-6.9c14.8.4 27.8.4 40.8.4 9.5 0 19.1-.4 36-.4 50.8 0 62.1 28.6 62.1 47.7 0 23-17.4 39.9-38.2 46 24.7 36 37.3 57.3 49 70.3 8.7 9.5 16.5 16.9 30.4 16.9v6.9c-6.9 0-13.5-.4-20.4-.4-7.4 0-15.2.4-23 .4-24.7-26.9-42.5-58.6-62.1-89h-23.9"/><path class="st0" d="M2076 732c0-18.7-10.4-19.1-24.7-19.5v-6.9c12.6.4 25.2.4 37.3.4 12.6 0 24.7-.4 38.2-.4v6.9c-14.3.4-24.7.4-24.7 19.5v135.4c0 19.1 10.4 19.1 24.7 19.5v6.9c-13 0-24.7-.4-36.5-.4-13 0-25.6.4-39.1.4v-6.9c14.3-.4 24.7-.4 24.7-19.5V732m237.5 22.6h-6.9c-5.2-31.7-27.3-44.3-57.7-44.3-30.8 0-76 20.8-76 85.5 0 54.3 38.6 93.8 80.3 93.8 26.9 0 48.6-18.2 54.3-46.4l6.1 1.7-6.1 39.5c-11.3 6.9-41.7 14.3-59.5 14.3-62.9 0-102.9-40.8-102.9-101.6 0-55.1 49.5-95.1 102-95.1 21.7 0 43 6.9 63.8 14.3l2.6 38.3m59 57.2h55.6l-29.1-79.4h-.4l-26.1 79.4zm91.6 28.3c3.9 10.4 10.9 33.4 15.2 39.5 3.9 5.2 12.2 7.4 20.8 7.4v6.9c-10.4 0-20.8-.4-30.8-.4-13.5 0-26 .4-39.5.4V887h4.8c6.5 0 14.8-1.3 14.8-9.1 0-3-2.2-10.4-3.9-15.6l-13.5-39.1h-63.4l-6.1 18.7c-3.5 11.3-7.4 23.9-7.4 32.1 0 12.6 9.1 12.2 18.2 12.6h6.1v6.9c-10.4 0-21.3-.4-31.7-.4-10.9 0-21.7.4-32.6.4v-6.9c16.5-1.7 19.5-3.9 26-19.1 4.3-9.5 7.4-20.4 10.9-30.4l34.7-96.4c2.2-6.1 5.6-16.1 5.6-24.3 0-2.6 0-4.8-.4-6.9 5.6-2.6 11.7-5.6 15.6-11.7h4.8l51.8 142.3M296.4 865.2h3.9c4.3 0 7.8-1.7 7.8-5.6 0-3-2.2-5.6-7.8-5.6-1.7 0-3 0-3.9.4v10.8zm0 18.3h-5.2v-33c2.6-.4 5.2-.9 9.1-.9 4.8 0 8.2.9 10.4 2.6 2.2 1.3 3 3.5 3 6.9 0 4.3-3 6.9-6.5 7.8v.4c3 .4 4.8 3 5.6 7.8.9 5.2 1.7 6.9 2.2 8.2h-5.6c-.9-.9-1.7-3.9-2.2-8.2-.9-4.3-3-5.6-6.9-5.6h-3.5v13.9l-.4.1zm5.7-42.1c-13 0-23.4 11.3-23.4 24.7 0 13.9 10.4 25.2 23.9 25.2 13 0 23.4-10.9 23.4-24.7-.5-14-10.9-25.2-23.9-25.2zm0-4.4c16.1 0 29.1 13 29.1 29.5s-13 29.5-29.1 29.5-29.1-13-29.1-29.5 13-29.5 29.1-29.5"/></g></svg>