<svg xmlns="http://www.w3.org/2000/svg" viewBox="0 0 176 35"><path style="fill:#fff" d="M175.5 35h-9.3c-.3 0-.5-.2-.5-.5V.5c0-.3.2-.5.5-.5h9.3c.3 0 .5.2.5.5v33.9c0 .4-.2.6-.5.6zm-24.9-24.7h-9.3c-.3 0-.5-.2-.5-.5V.5c0-.3.2-.5.5-.5h9.3c.3 0 .5.2.5.5v9.2c0 .4-.2.6-.5.6zM111.9 35h-11.1c-.3 0-.6-.2-.8-.5L86.7 11.1c-.2-.3-.2-.6 0-.9L91.6.3c.2-.4.8-.4 1 0l19.8 34c.1.4-.1.7-.5.7zm-26.5 0h-9.3c-.3 0-.5-.2-.5-.5v-9.2c0-.3.2-.5.5-.5h9.3c.3 0 .5.2.5.5v9.2c0 .3-.2.5-.5.5zm-24.8 0h-9.3c-.3 0-.5-.2-.5-.5V.5c-.1-.3.2-.5.5-.5h9.3c.3 0 .5.2.5.5v33.9c0 .4-.3.6-.5.6zM35.3 10.3h-8.5c-.7 0-.9-.6-.9-.9V.9c0-.9.6-.9.9-.9h8.5c.7 0 .9.6.9.9v8.4c0 .4-.3 1-.9 1zm-9.4 14.8l-5.6 9.6c-.2.4-.6.4-.8 0L0 1C-.2.6.5 0 1 0h10.8c.3 0 .8.7 1 1l13.1 23.2c.2.2.2.6 0 .9zm114.9 0l-5.6 9.6c-.2.4-.6.4-.8 0L114.9 1c-.2-.4.5-1 1-1h10.8c.3 0 .8.7 1 1l13.1 23.2c.2.2.2.6 0 .9z"/></svg>