<svg class="logo" xmlns="http://www.w3.org/2000/svg" viewBox="0 0 563.38 307.55"><path d="M0 158.72L20 16.34l92.55-3.23-5.45 38.81-49 1.71-1.86 13.68L103 65.67l-5.14 36.2-46.76 1.64-2.1 14.88 54.77-1.91-5.45 38.81zm182.69-6.38l-21.2-51.09-5.59.2-7 52.07-44.58 1.56 20-142.39 58.16-2a78.91 78.91 0 0121.08 1.87 46.9 46.9 0 0116.26 7 33.21 33.21 0 0110.58 11.95 38.18 38.18 0 014.08 16.56q.61 17.59-7.28 29.28a41.63 41.63 0 01-22.14 16.38l29.6 56.8zm-13-80.79q9.19-.31 14.28-3.6c3.39-2.19 5-5.54 4.85-10.08-.14-4.12-1.67-6.91-4.59-8.34s-6.84-2.06-11.77-1.89l-8.6.3-3.36 23.93z" fill="#fff"/><path d="M229.75 131.67L247.1 8.41l46.57-1.63-20 142.39-33.67 1.17M226.63 156l-6.9 48.87-40.38 1.41 6.9-48.87-45.97 1.6-20.04 142.39 46.17-1.61 7.69-54.7 40.38-1.41-7.7 54.7 46.18-1.62L273 154.38 226.63 156zm83.22 85.34l46.78-1.63 5.13-36.2-46.77 1.63 1.93-13.67 48.97-1.71 5.45-38.82-92.55 3.24-20.04 142.38 98.34-3.43 5.45-38.82-54.77 1.92 2.08-14.89zm119.85-92.43l-46.57 1.62-20.05 142.39 94.35-3.29 5.61-39.83-47.77 1.67 14.43-102.56zm85.91 99.06l14.43-102.57-46.57 1.63-20.05 142.39 94.35-3.3 5.61-39.82-47.77 1.67zm-121.94-105.4a65.88 65.88 0 0012.27-6.93 104.23 104.23 0 009.44-7.63l-24-33.19a43.82 43.82 0 01-11.12 8.2 32.07 32.07 0 01-14.08 3.69q-13 .45-19.74-6.51a25.41 25.41 0 01-7.11-17.37 46 46 0 011.88-15.07 38.81 38.81 0 016.37-12.53 32.46 32.46 0 0110.3-8.76 30.27 30.27 0 0113.68-3.58 33.63 33.63 0 0113.38 2 21.53 21.53 0 019.76 7.36l31-34.3q-7.68-8.13-21.88-13.34T371.28.07a84.7 84.7 0 00-33.94 8 83.1 83.1 0 00-43.06 47.73 91.06 91.06 0 00-5.11 34.2 69.3 69.3 0 005.5 25.62 54.3 54.3 0 0014 19.33 59 59 0 0021.63 11.85l1.22.35 55.34-1.94c2.38-.82 4.66-1.69 6.81-2.64zM35.22 173.39A48 48 0 0023 190.13a46.68 46.68 0 00-3.78 20.54 37.57 37.57 0 003.33 15.19 32.34 32.34 0 008.07 10.53 47.12 47.12 0 0011.87 7.29 110 110 0 0014.51 5.1q9.7 2.66 13.3 5.34t3.7 6.27a7.27 7.27 0 01-4 6.84q-4.11 2.44-11.11 2.69a30.3 30.3 0 01-7-.65 53.24 53.24 0 01-7.58-2.14 41.89 41.89 0 01-7.22-3.45 26.49 26.49 0 01-6-4.79L.54 289.17a57 57 0 0012.09 8.18 85.37 85.37 0 0014.71 5.89 104.23 104.23 0 0016.23 3.44 102.38 102.38 0 0016.84.81 89.21 89.21 0 0021.65-3.56 67.31 67.31 0 0020.11-9.5 49.43 49.43 0 0014.68-16.13q5.64-9.8 5.17-23.39a36.8 36.8 0 00-3.2-14.3 35.51 35.51 0 00-8.06-11.12 49.92 49.92 0 00-12.46-8.37 103.91 103.91 0 00-16.56-6.23 60.36 60.36 0 01-11.31-4.21 6.82 6.82 0 01-4-6.06 7.84 7.84 0 014.24-7.55 21 21 0 0110-2.75 29.64 29.64 0 0112.67 2.05 25.48 25.48 0 019 6.19L131 173a40.59 40.59 0 00-9.65-6.87 72.87 72.87 0 00-12.42-5.13c-.93-.29-1.88-.55-2.83-.81L54.38 162a61.46 61.46 0 00-19.16 11.39z" fill="#fff"/></svg>